<svg xmlns="http://www.w3.org/2000/svg" width="32" height="32" viewBox="0 0 32 32">
    <g>
        <path fill="rgba(255,255,255,0)" d="M0 0H32V32H0z" transform="translate(-1772.62 3) translate(1772.62 -3)"/>
        <path fill="#5865f5" d="M-.853-1.781h5.236c2.051 0 3.46.915 3.46 3.219 0 2.336-1.654 2.962-3.552 2.962H-.853zM-5.66 8.255H4.934c3.95 0 7.716-1.957 7.716-6.533a5.487 5.487 0 0 0-4.011-5.713 4.952 4.952 0 0 0 2.97-4.7c0-4.2-2.817-5.587-6.981-5.587H-5.66zm4.807-18.684h4.5c1.715 0 3.307.442 3.307 2.588 0 1.894-1.255 2.683-2.939 2.683H-.853z" transform="translate(-1772.62 3) translate(1785.28 16.279)"/>
    </g>
</svg>
