<svg xmlns="http://www.w3.org/2000/svg" width="32" height="32" viewBox="0 0 32 32">
    <g>
        <path fill="rgba(255,255,255,0)" d="M0 0H32V32H0z" transform="translate(-1621.059 3.001) translate(1621.059 -3.001)"/>
        <path fill="#5865f5" d="M3592.059-2992c-2.492 0-4.7-.038-5.775-.1a8.3 8.3 0 0 1-5.865-2.262 8.232 8.232 0 0 1-2.262-5.866c-.132-2.322-.132-9.232 0-11.552a8.273 8.273 0 0 1 2.262-5.867 8.271 8.271 0 0 1 5.865-2.255c1.072-.061 3.284-.1 5.775-.1s4.7.038 5.775.1a8.283 8.283 0 0 1 5.865 2.262 8.235 8.235 0 0 1 2.261 5.867c.132 2.32.132 9.226 0 11.546a8.283 8.283 0 0 1-2.261 5.866 8.228 8.228 0 0 1-5.865 2.262c-1.07.061-3.283.099-5.775.099zm.015-21.2a7.2 7.2 0 0 0-7.2 7.179 7.19 7.19 0 0 0 7.185 7.179 7.193 7.193 0 0 0 7.189-7.179 7.186 7.186 0 0 0-7.174-7.179zm7.459-1.947a1.676 1.676 0 0 0-1.674 1.674 1.677 1.677 0 0 0 1.674 1.675 1.676 1.676 0 0 0 1.673-1.675 1.676 1.676 0 0 0-1.672-1.676zm-7.472 13.792a4.675 4.675 0 0 1-4.673-4.667 4.672 4.672 0 0 1 4.666-4.667 4.663 4.663 0 0 1 4.649 4.667 4.66 4.66 0 0 1-4.641 4.666z" transform="translate(-1621.059 3.001) translate(-1955 3019)"/>
    </g>
</svg>
