<svg xmlns="http://www.w3.org/2000/svg" width="32" height="32" viewBox="0 0 32 32">
    <g>
        <path fill="rgba(255,255,255,0)" d="M0 0H32V32H0z" transform="translate(-1646.778 4.279) translate(1646.778 -4.279)"/>
        <path fill="#5865f5" d="M30.423 7.88a3.817 3.817 0 0 0-2.652-2.734C25.431 4.5 16.05 4.5 16.05 4.5s-9.381 0-11.721.646A3.817 3.817 0 0 0 1.677 7.88a41.443 41.443 0 0 0-.627 7.442 41.443 41.443 0 0 0 .627 7.442 3.758 3.758 0 0 0 2.652 2.69c2.34.646 11.721.646 11.721.646s9.381 0 11.721-.646a3.758 3.758 0 0 0 2.652-2.69 41.443 41.443 0 0 0 .627-7.442 41.443 41.443 0 0 0-.627-7.442zM12.982 19.889v-9.135l7.841 4.568-7.841 4.568z" transform="translate(-1646.778 4.279) translate(1646.728 -3.78)"/>
    </g>
</svg>
