<?xml version="1.0" encoding="utf-8"?>
<!-- Generator: Adobe Illustrator 27.0.0, SVG Export Plug-In . SVG Version: 6.00 Build 0)  -->
<svg version="1.1" id="Layer_2_00000112623106584360842050000002997680551889516954_"
	 xmlns="http://www.w3.org/2000/svg" xmlns:xlink="http://www.w3.org/1999/xlink" x="0px" y="0px" viewBox="0 0 47.4 67.9"
	 style="enable-background:new 0 0 47.4 67.9;" xml:space="preserve">
<style type="text/css">
	.st0{fill:#B40100;}
</style>
<g id="Layer_1-2">
	<g>
		<path class="st0" d="M40.2,10.4c-2.8-4.4-7.5-8.7-12.4-10c-6-1.4-11.9,0.4-16.4,4.6C5.9,10.6,2.9,17.2,1.1,24.3
			C-0.7,31.4-0.3,40.1,2,46.9c2.7,8.2,8.2,17.9,17.4,20.4c6.8,2,13.3-0.7,17.9-6s7.3-11.2,8.9-17.8C49.1,31.8,46.2,19.9,40.2,10.4z
			 M40.7,53.8c-2.3,5.2-6.8,11-12.4,12.6c-6.6,1.9-13.3-0.4-17.6-5.9c-4.6-5.9-6.6-13-7.8-20.3c-1.6-10,0.5-19.5,4.6-27.9
			C9.6,7.9,13.9,3,18.9,1.5c6.4-1.8,13,0.2,17.2,5.3C37,8,37.9,9,38.6,10.3c3.5,6,5.5,13,6.2,20.2C45.5,38.9,43.8,46.7,40.7,53.8z"
			/>
		<path class="st0" d="M26.9,53.4c3.2-4.3,3.5-9.8,5.1-14.9c0.5-1.8,1.8-3.4,3.4-4.6l-0.9-0.5c-2.8-2.3-2.8-6-3.9-9.1
			c-1.1-4.3-2-8.9-5.7-11.7c1.1-1.4,2.8-1.8,4.6-1.4c3.4,1.1,4.6,4.8,4.8,7.8h0.5V8.7h-0.4v1.2c-0.2,0.5-0.7,1.2-1.4,1.4
			c-1.4,0.2-2.5-0.7-3.7-1.1c-2.1-0.4-4.1,0.4-5.7,1.4c-1.1-0.7-2-1.1-3.2-1.4c-1.6-0.4-3.2,0.2-4.6,0.7c-0.5,0.4-1.4,0.5-2.1,0.2
			c-0.9-0.5-1.1-1.6-1.1-2.5h-0.4V19h0.5c0.2-3,1.4-6.6,4.8-7.6c1.6-0.5,3.5-0.2,4.8,1.2c-3,2.3-4.1,5.7-5.1,8.9L15.7,28
			c-0.4,2.3-1.6,4.4-3.9,5.9c1.8,1.2,3,3,3.6,4.8l1.8,6.9c0.9,3.5,2,7.3,5.3,9.8c-1.4,1.6-3.7,1.8-5.5,1.1C14.1,55,13,52,12.9,49
			h-0.5v10.3h0.4c0-0.7,0.2-1.2,0.4-1.8c0.2-0.4,0.5-0.7,1.1-0.9c1.2-0.2,2.3,0.5,3.6,0.9c2.1,0.7,4.3,0,6-1.2
			c1.1,0.9,2.5,1.2,3.9,1.6c1.2,0,2.5-0.3,3.5-0.9c0.7-0.3,2-0.7,2.7,0c0.5,0.5,0.7,1.4,0.7,2.3h0.4V49h-0.5c-0.2,3-1.2,6.4-4.4,7.6
			c-1.6,0.5-3.7,0.3-5-1.2C25.6,54.9,26.3,54.1,26.9,53.4z M23.7,54.3c-1.8-1.6-2.3-3.7-2.8-5.9c-1.2-4.6-1.8-9.6-2-14.8
			c0.2-5.7,0.9-11.2,2.5-16.4c0.5-1.4,1.1-2.7,2.3-3.7c1.6,1.4,2.1,3.5,2.7,5.5c1.2,4.6,2,9.6,2.1,14.6c-0.2,5-0.7,9.8-1.8,14.4
			C26,50.2,25.5,52.5,23.7,54.3z"/>
	</g>
</g>
</svg>
