<?xml version="1.0" encoding="UTF-8"?>
<svg id="Layer_2" data-name="Layer 2" xmlns="http://www.w3.org/2000/svg" viewBox="0 0 47.36 67.93">
  <defs>
    <style>
      .cls-1 {
        fill: #fff;
      }
    </style>
  </defs>
  <g id="Layer_1-2" data-name="Layer 1">
    <g>
      <path class="cls-1" d="M40.21,10.43C37.37,5.99,32.75,1.72,27.77,.48c-6.04-1.42-11.91,.36-16.35,4.62C5.91,10.61,2.89,17.18,1.12,24.29c-1.78,7.11-1.42,15.82,.89,22.57,2.67,8.17,8.17,17.95,17.41,20.43,6.75,1.96,13.32-.71,17.94-6.04,4.62-5.33,7.28-11.2,8.88-17.77,2.85-11.73,0-23.63-6.03-33.05Zm.53,43.36c-2.31,5.16-6.75,11.02-12.44,12.62-6.57,1.95-13.33-.36-17.59-5.86-4.62-5.86-6.58-12.97-7.82-20.26-1.6-9.95,.54-19.55,4.62-27.9C9.64,7.95,13.91,2.97,18.88,1.55c6.4-1.78,12.97,.18,17.24,5.33,.89,1.07,1.78,2.13,2.49,3.38,3.55,6.04,5.51,12.97,6.22,20.25,.71,8.35-1.07,16.17-4.09,23.28Z"/>
      <path class="cls-1" d="M26.88,53.43c3.2-4.26,3.55-9.77,5.15-14.93,.54-1.78,1.78-3.38,3.38-4.62l-.89-.53c-2.84-2.31-2.84-6.04-3.91-9.06-1.06-4.26-1.95-8.88-5.68-11.73,1.06-1.42,2.84-1.78,4.62-1.42,3.38,1.07,4.62,4.8,4.8,7.82h.54V8.66h-.36v1.24c-.18,.53-.71,1.24-1.42,1.42-1.42,.18-2.49-.71-3.73-1.06-2.13-.36-4.08,.35-5.68,1.42-1.07-.71-1.95-1.06-3.2-1.42-1.6-.36-3.2,.18-4.62,.71-.53,.35-1.42,.54-2.13,.18-.89-.53-1.07-1.6-1.07-2.49h-.36v10.3h.54c.18-3.02,1.42-6.57,4.8-7.64,1.6-.53,3.55-.18,4.8,1.25-3.02,2.31-4.09,5.68-5.15,8.88l-1.6,6.57c-.36,2.31-1.6,4.44-3.91,5.86,1.77,1.24,3.02,3.02,3.55,4.8l1.78,6.93c.89,3.55,1.96,7.29,5.33,9.77-1.42,1.6-3.73,1.78-5.51,1.07-2.84-1.42-3.91-4.44-4.09-7.46h-.54v10.3h.36c0-.71,.18-1.24,.36-1.78,.18-.36,.53-.71,1.07-.89,1.24-.18,2.31,.53,3.55,.89,2.13,.71,4.27,0,6.04-1.24,1.06,.89,2.49,1.24,3.91,1.6,1.24,0,2.49-.35,3.55-.89,.71-.35,1.95-.71,2.66,0,.53,.53,.71,1.42,.71,2.31h.36v-10.3h-.54c-.17,3.02-1.24,6.4-4.44,7.64-1.6,.53-3.73,.35-4.97-1.25,.7-.53,1.41-1.24,1.94-1.95Zm-3.2,.89c-1.78-1.6-2.31-3.73-2.84-5.86-1.24-4.62-1.78-9.59-1.95-14.75,.18-5.69,.89-11.2,2.49-16.35,.53-1.42,1.07-2.67,2.31-3.73,1.6,1.42,2.13,3.55,2.67,5.51,1.24,4.62,1.95,9.59,2.13,14.57-.18,4.98-.71,9.77-1.78,14.39-.72,2.13-1.25,4.44-3.03,6.22Z"/>
    </g>
  </g>
</svg>