<?xml version="1.0" encoding="UTF-8"?>
<svg id="Layer_2" data-name="Layer 2" xmlns="http://www.w3.org/2000/svg" viewBox="0 0 21.14 21">
  <defs>
    <style>
      .cls-1 {
        fill: #fff;
      }
    </style>
  </defs>
  <g id="Layer_1-2" data-name="Layer 1">
    <path class="cls-1" d="M21.13,20.27c-.85-3.9-3.81-6.95-7.51-8.05,2.05-1.09,3.44-3.25,3.44-5.73,0-3.58-2.91-6.49-6.49-6.49S4.08,2.91,4.08,6.49c0,2.48,1.4,4.64,3.44,5.73C3.82,13.32,.86,16.37,.01,20.27c-.07,.33,.14,.65,.46,.72,.33,.07,.65-.14,.72-.46,.95-4.37,4.89-7.55,9.38-7.55s8.43,3.17,9.38,7.55c.06,.28,.31,.47,.59,.47,.04,0,.08,0,.13-.01,.33-.07,.54-.39,.47-.72ZM5.29,6.49c0-2.91,2.37-5.28,5.28-5.28s5.28,2.37,5.28,5.28-2.37,5.28-5.28,5.28-5.28-2.37-5.28-5.28Z"/>
  </g>
</svg>