<?xml version="1.0" encoding="utf-8"?>
<!-- Generator: Adobe Illustrator 27.0.0, SVG Export Plug-In . SVG Version: 6.00 Build 0)  -->
<svg version="1.1" id="Layer_2_00000020368690738600361520000009264846895955489191_"
	 xmlns="http://www.w3.org/2000/svg" xmlns:xlink="http://www.w3.org/1999/xlink" x="0px" y="0px" viewBox="0 0 18.5 21"
	 style="enable-background:new 0 0 18.5 21;" xml:space="preserve">
<style type="text/css">
	.st0{fill:#313131;}
</style>
<g id="Layer_1-2">
	<path class="st0" d="M18.5,19.1L16.9,6.6c-0.1-0.8-0.8-1.4-1.6-1.4h-1.8V4.2c0-2.3-1.9-4.2-4.2-4.2S5,1.9,5,4.2v0.9H3.2
		c-0.8,0-1.5,0.6-1.6,1.4L0,19.1c-0.1,0.5,0.1,0.9,0.4,1.3S1.2,21,1.6,21h15.2c0.5,0,0.9-0.2,1.2-0.5C18.4,20.1,18.5,19.6,18.5,19.1
		z M6.2,4.2c0-1.7,1.4-3.1,3.1-3.1s3.1,1.4,3.1,3.1v0.9H6.2V4.2z M17.2,19.7c-0.1,0.1-0.2,0.2-0.4,0.2H1.6c-0.1,0-0.3-0.1-0.4-0.2
		s-0.1-0.2-0.1-0.4L2.7,6.7c0-0.2,0.2-0.4,0.5-0.4H5v1.2C4.7,7.7,4.6,8,4.6,8.3c0,0.6,0.5,1,1,1s1-0.5,1-1c0-0.4-0.2-0.7-0.5-0.8
		V6.3h6.2v1.2C12,7.7,11.9,8,11.9,8.3c0,0.6,0.5,1,1,1s1-0.5,1-1c0-0.4-0.2-0.7-0.5-0.8V6.3h1.8c0.2,0,0.5,0.2,0.5,0.4l1.6,12.6
		C17.4,19.4,17.3,19.6,17.2,19.7L17.2,19.7z"/>
</g>
</svg>
