<?xml version="1.0" encoding="UTF-8"?>
<svg id="Layer_2" data-name="Layer 2" xmlns="http://www.w3.org/2000/svg" viewBox="0 0 18.49 20.98">
  <defs>
    <style>
      .cls-1 {
        fill: #fff;
      }
    </style>
  </defs>
  <g id="Layer_1-2" data-name="Layer 1">
    <path class="cls-1" d="M18.47,19.14l-1.6-12.56c-.1-.82-.8-1.43-1.62-1.43h-1.79v-.92c0-2.33-1.89-4.22-4.22-4.22S5.02,1.89,5.02,4.22v.92h-1.79c-.82,0-1.52,.62-1.62,1.43L.01,19.14c-.06,.47,.09,.94,.4,1.29s.76,.55,1.23,.55h15.21c.47,0,.92-.2,1.23-.55,.31-.36,.45-.82,.39-1.29ZM6.15,4.22c0-1.7,1.39-3.09,3.09-3.09s3.09,1.39,3.09,3.09v.92H6.15v-.92Zm11.08,15.46c-.1,.11-.23,.17-.38,.17H1.63c-.15,0-.28-.06-.38-.17-.1-.11-.14-.25-.12-.4L2.73,6.72c.03-.25,.25-.44,.5-.44h1.79v1.2c-.28,.18-.46,.5-.46,.85,0,.56,.46,1.02,1.02,1.02s1.02-.46,1.02-1.02c0-.36-.18-.67-.46-.85v-1.2h6.18v1.2c-.28,.18-.46,.5-.46,.85,0,.56,.46,1.02,1.02,1.02s1.02-.46,1.02-1.02c0-.36-.18-.67-.46-.85v-1.2h1.79c.25,0,.47,.19,.5,.44l1.6,12.56c.02,.14-.02,.29-.12,.4Z"/>
  </g>
</svg>