<?xml version="1.0" encoding="UTF-8"?>
<svg id="Layer_2" data-name="Layer 2" xmlns="http://www.w3.org/2000/svg" viewBox="0 0 15.09 21">
  <defs>
    <style>
      .cls-1 {
        fill: #fff;
      }
    </style>
  </defs>
  <g id="Layer_1-2" data-name="Layer 1">
    <g>
      <path class="cls-1" d="M7.55,10.46c-1.61,0-2.92-1.31-2.92-2.92s1.31-2.92,2.92-2.92,2.92,1.31,2.92,2.92-1.31,2.92-2.92,2.92Zm0-4.59c-.92,0-1.67,.75-1.67,1.67s.75,1.67,1.67,1.67,1.67-.75,1.67-1.67-.75-1.67-1.67-1.67Z"/>
      <path class="cls-1" d="M7.55,21c-.62,0-1.17-.32-1.48-.86L1.26,11.76C.64,10.69,.06,9.46,0,7.81-.12,4.07,2.42,.85,6.05,.14c2.26-.44,4.56,.14,6.3,1.58,1.75,1.44,2.75,3.56,2.75,5.82,0,1.78-.6,3.08-1.26,4.21l-4.81,8.38c-.31,.54-.86,.86-1.48,.86Zm-.01-19.76c-.42,0-.83,.04-1.25,.12C3.26,1.95,1.14,4.64,1.25,7.77c.04,1.11,.35,2.09,1.09,3.36l4.81,8.38c.12,.21,.32,.23,.4,.23s.28-.02,.4-.23h0l4.81-8.38c.66-1.14,1.09-2.19,1.09-3.59,0-1.89-.84-3.66-2.29-4.86-1.13-.94-2.55-1.44-4.02-1.44Z"/>
    </g>
  </g>
</svg>