<?xml version="1.0" encoding="UTF-8"?>
<svg id="Layer_2" data-name="Layer 2" xmlns="http://www.w3.org/2000/svg" viewBox="0 0 23.46 21">
  <defs>
    <style>
      .cls-1 {
        fill: #fff;
      }
    </style>
  </defs>
  <g id="Layer_1-2" data-name="Layer 1">
    <path class="cls-1" d="M11.71,21c-.11,0-.25-.03-.34-.08-.23-.14-5.68-3.25-8.79-7.55C-.95,8.59-.1,5.14,.75,3.5,1.82,1.41,3.94,0,6.06,0c2.88,0,4.72,1.55,5.68,2.94,.96-1.38,2.8-2.94,5.68-2.94,2.12,0,4.27,1.41,5.31,3.5,.82,1.64,1.67,5.06-1.84,9.86-3.11,4.3-8.56,7.41-8.79,7.52-.14,.08-.28,.11-.4,.11ZM6.03,1.41c-1.3,0-3.11,.85-4.07,2.74-1.16,2.32-.57,5.29,1.72,8.39,2.52,3.45,6.78,6.19,8,6.92,1.24-.76,5.51-3.48,8-6.92,2.29-3.11,2.91-6.08,1.72-8.39-.93-1.87-2.77-2.74-4.04-2.74-3.79,0-4.97,3.14-5.03,3.28-.11,.28-.37,.48-.68,.48h0c-.31,0-.57-.2-.65-.48,0-.14-1.19-3.28-4.97-3.28Z"/>
  </g>
</svg>