<?xml version="1.0" encoding="utf-8"?>
<!-- Generator: Adobe Illustrator 27.0.0, SVG Export Plug-In . SVG Version: 6.00 Build 0)  -->
<svg version="1.1" id="Layer_2_00000181794560887628528210000005805880021657490064_"
	 xmlns="http://www.w3.org/2000/svg" xmlns:xlink="http://www.w3.org/1999/xlink" x="0px" y="0px" viewBox="0 0 21 21"
	 style="enable-background:new 0 0 21 21;" xml:space="preserve">
<style type="text/css">
	.st0{fill:#313131;}
</style>
<g id="Layer_1-2">
	<path class="st0" d="M20.8,19.9L15,14c1.3-1.5,2-3.4,2-5.5C17,3.8,13.2,0,8.5,0S0,3.8,0,8.5S3.8,17,8.5,17c2.1,0,4-0.8,5.5-2
		l5.8,5.8c0.1,0.1,0.3,0.2,0.5,0.2s0.3-0.1,0.5-0.2C21,20.5,21,20.1,20.8,19.9z M8.5,15.7c-3.9,0-7.2-3.2-7.2-7.2s3.2-7.2,7.2-7.2
		s7.2,3.2,7.2,7.2S12.4,15.7,8.5,15.7z"/>
</g>
</svg>
