<?xml version="1.0" encoding="UTF-8"?>
<svg id="Layer_2" data-name="Layer 2" xmlns="http://www.w3.org/2000/svg" viewBox="0 0 20.98 20.98">
  <defs>
    <style>
      .cls-1 {
        fill: #fff;
      }
    </style>
  </defs>
  <g id="Layer_1-2" data-name="Layer 1">
    <path class="cls-1" d="M20.79,19.85l-5.84-5.84c1.27-1.48,2.04-3.41,2.04-5.52C16.99,3.81,13.18,0,8.49,0S0,3.81,0,8.49s3.81,8.49,8.49,8.49c2.1,0,4.03-.77,5.52-2.04l5.84,5.84c.13,.13,.3,.19,.47,.19s.34-.06,.47-.19c.25-.26,.25-.67,0-.93Zm-12.3-4.19c-3.95,0-7.17-3.22-7.17-7.17S4.54,1.32,8.49,1.32s7.17,3.22,7.17,7.17c0,3.95-3.22,7.17-7.17,7.17Z"/>
  </g>
</svg>