<?xml version="1.0" encoding="utf-8"?>
<!-- Generator: Adobe Illustrator 27.0.0, SVG Export Plug-In . SVG Version: 6.00 Build 0)  -->
<svg version="1.1" id="Layer_2_00000090254882022538332110000001125893362072432531_"
	 xmlns="http://www.w3.org/2000/svg" xmlns:xlink="http://www.w3.org/1999/xlink" x="0px" y="0px" viewBox="0 0 15.1 21"
	 style="enable-background:new 0 0 15.1 21;" xml:space="preserve">
<style type="text/css">
	.st0{fill:#313131;}
</style>
<g id="Layer_1-2">
	<g>
		<path class="st0" d="M7.6,10.5c-1.6,0-2.9-1.3-2.9-2.9s1.3-2.9,2.9-2.9s2.9,1.3,2.9,2.9S9.2,10.5,7.6,10.5z M7.6,5.9
			c-0.9,0-1.7,0.8-1.7,1.7s0.8,1.7,1.7,1.7s1.7-0.8,1.7-1.7S8.5,5.9,7.6,5.9z"/>
		<path class="st0" d="M7.6,21c-0.6,0-1.2-0.3-1.5-0.9l-4.8-8.4c-0.6-1.1-1.2-2.3-1.3-4c-0.1-3.7,2.4-7,6.1-7.7
			c2.3-0.4,4.6,0.1,6.3,1.6c1.8,1.4,2.8,3.6,2.8,5.8c0,1.8-0.6,3.1-1.3,4.2L9,20.1C8.7,20.7,8.2,21,7.6,21L7.6,21z M7.5,1.2
			c-0.4,0-0.8,0-1.2,0.1c-3,0.6-5.2,3.3-5,6.4c0,1.1,0.4,2.1,1.1,3.4l4.8,8.4c0.1,0.2,0.3,0.2,0.4,0.2s0.3,0,0.4-0.2l0,0l4.8-8.4
			c0.7-1.1,1.1-2.2,1.1-3.6c0-1.9-0.8-3.7-2.3-4.9C10.4,1.7,9,1.2,7.5,1.2z"/>
	</g>
</g>
</svg>
