<?xml version="1.0" encoding="utf-8"?>
<!-- Generator: Adobe Illustrator 27.0.0, SVG Export Plug-In . SVG Version: 6.00 Build 0)  -->
<svg version="1.1" id="Layer_2_00000177462211852419975770000016074258104365447102_"
	 xmlns="http://www.w3.org/2000/svg" xmlns:xlink="http://www.w3.org/1999/xlink" x="0px" y="0px" viewBox="0 0 23.5 21"
	 style="enable-background:new 0 0 23.5 21;" xml:space="preserve">
<style type="text/css">
	.st0{fill:#313131;}
</style>
<g id="Layer_1-2">
	<path class="st0" d="M11.7,21c-0.1,0-0.2,0-0.3-0.1c-0.2-0.1-5.7-3.2-8.8-7.6c-3.5-4.8-2.7-8.2-1.8-9.9C1.8,1.4,3.9,0,6.1,0
		c2.9,0,4.7,1.5,5.7,2.9c1-1.4,2.8-2.9,5.7-2.9c2.1,0,4.3,1.4,5.3,3.5c0.8,1.6,1.7,5.1-1.8,9.9c-3.1,4.3-8.6,7.4-8.8,7.5
		C12,21,11.8,21,11.7,21L11.7,21z M6,1.4C4.7,1.4,2.9,2.3,2,4.2c-1.2,2.3-0.6,5.3,1.7,8.4c2.5,3.4,6.8,6.2,8,6.9
		c1.2-0.8,5.5-3.5,8-6.9c2.3-3.1,2.9-6.1,1.7-8.4c-0.9-1.9-2.8-2.7-4-2.7c-3.8,0-5,3.1-5,3.3C12.2,5,12,5.2,11.6,5.2l0,0
		c-0.3,0-0.6-0.2-0.6-0.5C11,4.6,9.8,1.4,6,1.4z"/>
</g>
</svg>
