<?xml version="1.0" encoding="UTF-8"?>
<svg id="_레이어_2" data-name="레이어 2" xmlns="http://www.w3.org/2000/svg" viewBox="0 0 308 100">
  <defs>
    <style>
      .cls-1 {
        fill: #fff;
      }

      .cls-2 {
        fill: none;
      }

      .cls-3 {
        fill: #e60012;
      }

      .cls-4 {
        fill: #e1251b;
      }
    </style>
  </defs>
  <g id="_레이어_1-2" data-name="레이어 1">
    <g>
      <rect class="cls-2" width="308" height="100"/>
      <g>
        <g>
          <path class="cls-3" d="m85.6,67.31c-4.72,4.72-12.45,4.72-17.17,0l-8.72-8.72c-4.72-4.72-4.72-12.45,0-17.17l8.72-8.72c4.72-4.72,12.45-4.72,17.17,0l8.72,8.72c4.72,4.72,4.72,12.45,0,17.17l-8.72,8.72Z"/>
          <path class="cls-1" d="m71.84,62.81c-.69,0-1.26-.54-1.29-1.24-.01-.34.11-.67.34-.93.23-.25.55-.4.9-.42.71-.03,1.31.52,1.34,1.24.03.71-.53,1.31-1.24,1.34-.02,0-.04,0-.05,0"/>
          <path class="cls-1" d="m76.53,39c-.71,0-1.27.22-1.73.68-.99.98-1.51,3.01-1.46,5.71.06,3.33.85,9.86,3.47,13.23.43.55.88.98,1.36,1.29.46.31.98.6,1.79.6.22,0,.45-.02.7-.07,1.5-.36,3.38-2.03,4.78-4.26.21-.34.58-.54.98-.54.22,0,.43.06.61.18.26.16.44.42.51.72.07.3.02.61-.15.87-1.77,2.81-4.11,4.79-6.25,5.29,0,0-.03,0-.05.01-.39.07-.78.11-1.15.11-1.38,0-2.36-.53-3.05-.99-.69-.45-1.33-1.06-1.91-1.8-3.69-4.74-3.94-13.61-3.96-14.61-.04-2.36.3-5.56,2.15-7.4.9-.89,2.03-1.35,3.35-1.35h.21c1.33,0,2.46.45,3.36,1.35,1.85,1.83,2.19,5.03,2.15,7.4-.04,2.46-.49,7.23-3.05,11.5-.21.35-.59.56-.99.56-.21,0-.41-.06-.59-.16-.55-.33-.73-1.04-.4-1.59,1.79-2.99,2.65-6.28,2.72-10.36.05-2.7-.47-4.73-1.46-5.71-.46-.46-1.02-.68-1.73-.68h-.2Z"/>
        </g>
        <g>
          <g>
            <path class="cls-4" d="m141.24,41.33v17.05h2.55v-17.05h-2.55Zm-4.08,6.15h-3.19v1.52h3.19v3.58c-.62.24-1.18.38-2.01.38h-3.63c-.34,0-.61-.28-.61-.61v-8.49h4.66v-1.23h-7.3v10.33c0,.68.55,1.22,1.22,1.22h5.66c.86,0,1.56-.15,2.01-.44v4.62h2.55v-17.05h-2.55v6.15Z"/>
            <path class="cls-4" d="m118.07,50.33v-1.68h5.6v-1.22h-10.56c-.34,0-.62-.27-.62-.61v-1.07h10.95v-4.13h-13.58v1.23h10.95v1.67h-10.95v2.92c0,.68.55,1.22,1.22,1.22h4.34v1.68h-6.99v1.23h16.66v-1.23h-7.03Zm.07,2.01h-2.95c-.78,3.24-4.62,4.87-6.03,5.08l.74,1.09c1.44-.17,4.72-1.35,6.77-3.59,2.05,2.24,5.33,3.42,6.77,3.59l.74-1.09c-1.41-.2-5.25-1.84-6.03-5.08Z"/>
          </g>
          <path class="cls-4" d="m148.23,41.64h13.52v3.47c0,1.03-.14,2.29-.65,3.16h2.36v1.22h-16.63v-1.22h11.87c.28-.9.39-2.06.39-3.09v-2.31h-10.85v-1.24Zm13.72,9.82v4.12h-10.97v1.2c0,.38.14.51.51.51h10.73v1.26h-12.58c-.75,0-1.4-.53-1.4-1.26v-2.95h11v-1.62h-11v-1.26h13.72Z"/>
          <path class="cls-4" d="m174.72,51.23v3.12h6.77v1.33h-16.64v-1.33h7.11v-3.12h-4.29c-.75,0-1.4-.56-1.4-1.31v-4.17h11.06v-2.76h-11.06v-1.31h13.72v5.4h-11.04v2.28c0,.4.16.54.53.54h10.77v1.33h-5.53Z"/>
          <path class="cls-4" d="m184.22,49.39c-1.06,0-1.54-.53-1.54-1.47v-6.31h2.56v2.73h4.35v-2.73h2.5v3.14h3.33v-3.43h2.56v8.66h-2.56v-3.95h-3.33v3.35h-7.87Zm11.21,4.75v-1.94h-10.22v-1.28h12.78v4.44h-10.2v1.49c0,.29.12.44.46.44h10.05v1.26h-11.46c-1.06,0-1.62-.61-1.62-1.54v-2.86h10.21Zm-10.19-6.44c0,.29.12.44.46.44h3.89v-2.53h-4.35v2.1Z"/>
          <path class="cls-4" d="m210.06,51.22v3.12h6.77v1.33h-16.65v-1.33h7.11v-3.12h-4.29c-.75,0-1.4-.56-1.4-1.31v-4.17h11.06v-2.76h-11.06v-1.31h13.72v5.4h-11.04v2.28c0,.4.16.54.53.54h10.77v1.33h-5.53Z"/>
          <path class="cls-4" d="m218.49,41.68h10.48v1.27h-3.89v2.37c0,3.85,2.53,6.57,4.72,7.51l-.96.96c-1.23-.31-3.74-1.74-5.02-3.87-1.25,1.99-3.68,3.56-4.96,3.87l-.96-.96c2.24-.94,4.43-3.66,4.43-7.28v-2.6h-3.83v-1.27Zm12.96-.67h2.59v17.51h-2.59v-17.51Z"/>
          <path class="cls-4" d="m252.89,54.35v1.32h-16.65v-1.32h16.65Zm-10-11.03v-1.64h2.97v1.64c0,2.7,3.48,5.79,6.65,6.61l-.81,1.12c-2.11-.3-5.41-1.98-7.3-4.42-1.61,2.48-4.76,4.16-6.95,4.44l-.81-1.12c3.29-.88,6.26-3.92,6.26-6.63Z"/>
        </g>
      </g>
    </g>
  </g>
</svg>