<?xml version="1.0" encoding="UTF-8"?>
<svg id="_레이어_2" data-name="레이어 2" xmlns="http://www.w3.org/2000/svg" viewBox="0 0 308 100">
  <defs>
    <style>
      .cls-1 {
        fill: #6400b2;
      }

      .cls-2 {
        fill: none;
      }
    </style>
  </defs>
  <g id="_레이어_1-2" data-name="레이어 1">
    <g>
      <rect class="cls-2" width="308" height="100"/>
      <path class="cls-1" d="m146.63,51.09l-4.33-14.42h-5.62l-3.44,24.52h5.47l2.03-14.41,4.34,14.41h5.62l3.44-24.52h-5.48l-2.03,14.42Zm19.16-15.16c-4.57,0-8.47,2.37-8.89,5.4l-.37,2.57c-.24,1.67.18,2.71,1.51,3.69,1.25.92,5.27,3.56,6.29,4.23.25.17,1.5,1.03,1.36,2.07l-.29,2.05c-.16,1.15-1.16,1.78-2.42,1.78-1.56,0-2.46-.78-2.31-1.9.12-.88.43-3.04.43-3.04h-5.83l-.54,3.83c-.15,1.09.18,2.12.97,2.98,1.34,1.47,3.6,2.35,6.42,2.35,4.3,0,9.13-1.89,9.62-5.48l.39-2.76c.24-1.63-.51-3.34-2.64-4.71-1.15-.74-4.01-2.46-5.45-3.35-.5-.32-1.29-.81-1.16-1.71l.31-2.17c.13-.93.97-1.6,2.37-1.6,1.47,0,2.3.72,2.17,1.6l-.4,2.86h5.88l.48-3.39c.13-.96-.22-1.92-1-2.78-1.43-1.57-4.01-2.52-6.91-2.52m-46.45,0c-7.17,0-13,5.83-13,13s5.83,13.01,13,13.01,13-5.84,13-13.01c0-7.17-5.83-13-13-13m0,20.56c-4.17,0-7.55-3.39-7.55-7.55s3.38-7.55,7.55-7.55,7.55,3.39,7.55,7.55-3.38,7.55-7.55,7.55m-32.07-16.9v1.76h4.51s.15,14.89-.02,16.45c-.17,1.56-.57,4.1-3.36,5.42-2.41,1.15-2.45,2.24-2.61,3.21-.2,1.25.03,1.41.94,1.19,3.59-.88,7.4-2.32,9.33-5.86,1.05-1.93,1.46-4.01,1.46-7.17v-13.24c1.92-.03,3.29-1.24,3.29-2.91v-1.76h-10.38c-1.9,0-3.18,1.17-3.18,2.91m-5.49,15.2c-.99,0-1.67.42-2.38.85-1.02.62-2.17,1.32-4.62,1.32-4.13,0-7.48-3.56-7.48-7.94s3.35-8.11,7.48-8.11c2.17,0,3.35.73,4.4,1.39.78.48,1.46.89,2.37.89,1.85,0,3.79-2.07,3.79-2.07,0,0-3.66-5.19-10.56-5.19-7.25,0-12.72,5.63-12.72,13.09s5.46,12.92,12.72,12.92,10.65-5.19,10.65-5.19c0,0-1.56-1.96-3.65-1.96m139.52-18.11h-5.84l-3.44,24.52h14.31l.66-4.74h-8.47l2.78-19.78Zm-45.69,4.74h5.76l-2.78,19.78h5.84l2.78-19.78h5.76l.67-4.74h-17.37l-.66,4.74Zm69.65,0l.66-4.73h-13.95s-3.44,24.51-3.44,24.51h14.31l.66-4.74h-8.48l.72-5.15h7.11l.66-4.74h-7.1l.72-5.15h8.12Zm-37.56-4.74l-5.27,9.65-2.02-9.65h-5.4l3.55,16.2-1.17,8.32h5.86l1.17-8.32,9.18-16.2h-5.91Z"/>
    </g>
  </g>
</svg>