<?xml version="1.0" encoding="UTF-8"?>
<svg id="_레이어_2" data-name="레이어 2" xmlns="http://www.w3.org/2000/svg" viewBox="0 0 308 100">
  <defs>
    <style>
      .cls-1 {
        fill: #4b565d;
      }

      .cls-2 {
        fill: #e6290f;
      }

      .cls-3 {
        fill: none;
      }
    </style>
  </defs>
  <g id="_레이어_1-2" data-name="레이어 1">
    <g>
      <rect class="cls-3" width="308" height="100"/>
      <g>
        <path class="cls-2" d="m123.45,60.05l10.62,5.57c.35.19.35.49,0,.67l-4.49,2.31c-.35.18-.63.17-.98,0l-16.77-8.68c-.35-.18-.64-.64-.64-1v-17.81c0-.37.29-.82.64-1l9.14-4.74c.36-.18.51-.02.51.22v20.91c0,2.02.21,2.58,1.97,3.54m12.01-6.05l-7.06-3.51c-.36-.17-.36-.38-.36-.71v-4.87c0-.39.3-.52.66-.36l8.48,4.11v-4.32c0-2.63-.21-3.39-1.98-4.4l-10.82-5.66c-.35-.18-.35-.49,0-.67l4.31-2.2c.35-.19.51-.19.87-.01l16.83,8.63c.35.18.64.63.64,1v17.89c0,.37-.29.82-.64,1l-7.28,3.77c-.35.18-1.18.61-1.45.75-.27.14-.49.22-.49-.15v-7.09c0-1.4-.09-2.39-1.71-3.2"/>
        <path class="cls-1" d="m196.82,38.03v-2.82h-17.55v29.61h7.01v-12.91h9.63v-2.83h-9.63v-11.05h10.54Zm-20.07,23.97h-10.94v-26.79h-7.01v29.61h17.95v-2.82Z"/>
      </g>
    </g>
  </g>
</svg>