<?xml version="1.0" encoding="UTF-8"?>
<svg id="_레이어_2" data-name="레이어 2" xmlns="http://www.w3.org/2000/svg" xmlns:xlink="http://www.w3.org/1999/xlink" viewBox="0 0 308 100">
  <defs>
    <style>
      .cls-1 {
        fill: #fff;
      }

      .cls-2 {
        fill: url(#Live_Gradient);
      }

      .cls-3 {
        fill: none;
      }
    </style>
    <linearGradient id="Live_Gradient" data-name="Live Gradient" x1="99.68" y1="60.28" x2="208.32" y2="60.28" gradientUnits="userSpaceOnUse">
      <stop offset="0" stop-color="#ff329b"/>
      <stop offset=".12" stop-color="#ff3792"/>
      <stop offset=".32" stop-color="#ff4679"/>
      <stop offset=".57" stop-color="#ff5e51"/>
      <stop offset=".87" stop-color="#ff801b"/>
      <stop offset="1" stop-color="#ff9100"/>
    </linearGradient>
  </defs>
  <g id="_레이어_1-2" data-name="레이어 1">
    <g>
      <rect class="cls-3" width="308" height="100"/>
      <g>
        <g>
          <path d="m107.47,34.1c-1.26-1.16-2.48-1.47-3.48-1.47-1.46,0-2.35.75-2.35,1.64,0,1.2.87,1.7,3.7,3.27.63.35,1.35.85,1.91,1.58.46.56.81,1.33.81,2.34,0,2.22-1.68,3.86-4.31,3.86-1.46,0-2.85-.48-4.01-1.31v-2.57c.44.52,1.77,2.07,4.01,2.07,1.11,0,2.31-.66,2.31-1.87s-1.27-2.05-1.96-2.45c-2.35-1.35-3.02-1.74-3.68-2.53-.46-.56-.74-1.22-.74-2.12,0-2.14,1.7-3.75,4.38-3.75,1.22,0,2.39.35,3.41,1v2.3Z"/>
          <polygon points="122.96 45.13 120.91 45.13 120.91 38.97 112.99 38.97 112.99 45.13 110.96 45.13 110.96 30.99 112.99 30.99 112.99 37.11 120.91 37.11 120.91 30.99 122.96 30.99 122.96 45.13"/>
          <rect x="126.42" y="30.99" width="2.03" height="14.14"/>
          <polygon points="145.06 45.13 143.33 45.13 133.87 34.25 133.87 45.13 131.96 45.13 131.96 30.99 133.6 30.99 143.14 41.96 143.14 30.99 145.06 30.99 145.06 45.13"/>
          <path d="m155.54,34.1c-1.26-1.16-2.48-1.47-3.48-1.47-1.46,0-2.35.75-2.35,1.64,0,1.2.87,1.7,3.7,3.27.63.35,1.35.85,1.91,1.58.46.56.81,1.33.81,2.34,0,2.22-1.67,3.86-4.31,3.86-1.46,0-2.85-.48-4-1.31v-2.57c.44.52,1.76,2.07,4,2.07,1.11,0,2.31-.66,2.31-1.87s-1.26-2.05-1.96-2.45c-2.35-1.35-3.02-1.74-3.68-2.53-.45-.56-.74-1.22-.74-2.12,0-2.14,1.7-3.75,4.37-3.75,1.22,0,2.39.35,3.42,1v2.3Z"/>
          <polygon points="167.05 32.8 161.06 32.8 161.06 37.11 166.85 37.11 166.85 38.91 161.06 38.91 161.06 43.3 167.24 43.3 167.24 45.13 159.03 45.13 159.03 30.99 167.05 30.99 167.05 32.8"/>
          <path d="m182.05,44.15c-1.08.48-2.82,1.16-5.18,1.16-5.47,0-7.73-3.92-7.73-7.13,0-3.73,2.8-7.38,7.65-7.38,1.99,0,3.46.56,4.97,1.2v2.07c-2.32-1.35-4.23-1.47-5.02-1.47-2.82,0-5.49,2.11-5.49,5.45,0,3.13,2.26,5.47,5.68,5.47,1.03,0,1.74-.19,3.09-.62v-2.94h-2.72v-1.78h4.75v5.97Z"/>
          <path d="m192.95,39.14l-2.28-5.12-2.12,5.12h4.4Zm4.79,5.99h-2.07l-1.89-4.17h-6.01l-1.78,4.17h-2.07l6.07-14.22h1.43l6.32,14.22Z"/>
          <polygon points="208.13 32.8 202.14 32.8 202.14 37.11 207.93 37.11 207.93 38.91 202.14 38.91 202.14 43.3 208.32 43.3 208.32 45.13 200.11 45.13 200.11 30.99 208.13 30.99 208.13 32.8"/>
        </g>
        <g>
          <rect class="cls-2" x="99.68" y="51.37" width="108.64" height="17.83"/>
          <g>
            <g>
              <polygon class="cls-1" points="113.81 64.24 107.97 64.24 107.97 56.28 109.38 56.28 109.38 62.98 113.81 62.98 113.81 64.24"/>
              <rect class="cls-1" x="115.22" y="56.28" width="1.43" height="7.96"/>
              <polygon class="cls-1" points="122.68 64.24 121.33 64.24 117.86 56.28 119.4 56.28 122 62.35 124.59 56.28 126.15 56.28 122.68 64.24"/>
              <polygon class="cls-1" points="133.34 64.24 127.36 64.24 127.36 56.28 133.34 56.28 133.34 57.52 128.77 57.52 128.77 59.62 133.05 59.62 133.05 60.86 128.77 60.86 128.77 62.98 133.34 62.98 133.34 64.24"/>
            </g>
            <g>
              <path class="cls-1" d="m176.13,60.25c.95,0,1.52-.54,1.52-1.37s-.57-1.36-1.52-1.36h-2.2v2.73h2.2Zm.04-3.97c1.79,0,2.85,1.07,2.85,2.59s-1.07,2.62-2.87,2.62h-2.23v2.74h-1.38v-7.96h3.62Z"/>
              <rect class="cls-1" x="180.39" y="56.28" width="1.43" height="7.96"/>
              <polygon class="cls-1" points="190.99 64.24 189.82 64.24 185.16 58.7 185.16 64.24 183.78 64.24 183.78 56.28 184.94 56.28 189.6 61.91 189.6 56.28 190.99 56.28 190.99 64.24"/>
              <path class="cls-1" d="m168.37,60.25c.95,0,1.52-.54,1.52-1.37s-.57-1.36-1.52-1.36h-2.2v2.73h2.2Zm.04-3.97c1.79,0,2.85,1.07,2.85,2.59s-1.07,2.62-2.87,2.62h-2.23v2.74h-1.38v-7.96h3.62Z"/>
              <polygon class="cls-1" points="153.51 64.24 152.14 64.24 152.14 60.87 147.96 60.87 147.96 64.24 146.58 64.24 146.58 56.28 147.96 56.28 147.96 59.6 152.14 59.6 152.14 56.28 153.51 56.28 153.51 64.24"/>
              <path class="cls-1" d="m159.15,63.08c-1.52,0-2.76-1.18-2.76-2.84s1.23-2.84,2.76-2.84,2.76,1.18,2.76,2.84-1.23,2.84-2.76,2.84Zm0-6.99c-2.29,0-4.15,1.76-4.15,4.15s1.86,4.15,4.15,4.15,4.15-1.76,4.15-4.15-1.86-4.15-4.15-4.15Z"/>
              <path class="cls-1" d="m196.48,59.72v1.25h2.79c-.21,1.22-1.17,2.13-2.62,2.13-1.69,0-2.82-1.29-2.82-2.85s1.21-2.85,2.75-2.85c1.2,0,2.03.53,2.52,1.4l1.22-.44c-.69-1.51-2.11-2.25-3.74-2.25-2.39,0-4.15,1.85-4.15,4.15s1.81,4.15,4.19,4.15,4.02-1.8,4.02-4.09c0-.1,0-.3-.03-.58h-4.13Z"/>
              <path class="cls-1" d="m141.18,59.33c-.62-.19-.91-.54-.91-1,0-.6.61-1.07,1.61-1.07s1.7.53,1.96,1.35l1.22-.32c-.44-1.48-1.7-2.19-3.24-2.19-1.85,0-2.9,1.11-2.9,2.26,0,.98.48,1.63,1.25,1.96s1.69.39,2.48.59c.76.19,1.2.52,1.2,1.08,0,.7-.7,1.2-1.73,1.2s-1.87-.56-2.19-1.54l-1.26.35c.34,1.55,1.75,2.39,3.45,2.39,1.96,0,3.08-1.14,3.08-2.43,0-1.05-.62-1.76-1.55-2.08-.89-.31-1.76-.33-2.46-.54Z"/>
            </g>
          </g>
        </g>
      </g>
    </g>
  </g>
</svg>