<?xml version="1.0" encoding="UTF-8"?>
<svg id="_레이어_2" data-name="레이어 2" xmlns="http://www.w3.org/2000/svg" viewBox="0 0 308 100">
  <defs>
    <style>
      .cls-1 {
        fill: #fff;
      }

      .cls-2 {
        fill: #61a883;
      }

      .cls-3 {
        fill: #e29625;
      }

      .cls-4 {
        fill: none;
      }

      .cls-5 {
        fill: #231f20;
      }
    </style>
  </defs>
  <g id="_레이어_1-2" data-name="레이어 1">
    <g>
      <rect class="cls-4" width="308" height="100"/>
      <g>
        <rect class="cls-2" x="89.36" y="30.94" width="52.52" height="38.11"/>
        <rect class="cls-5" x="141.87" y="30.94" width="24.8" height="38.11"/>
        <rect class="cls-3" x="166.67" y="30.94" width="51.97" height="38.11"/>
        <g>
          <path class="cls-1" d="m107.61,44.79h-9v-1.22h9v1.22Zm-4.5,7.54c-1.2,0-2.13-.32-2.79-.96-.66-.64-.99-1.39-.99-2.23s.33-1.63,1-2.26c.67-.63,1.59-.95,2.78-.95s2.16.32,2.82.95c.66.63.98,1.39.98,2.26s-.33,1.59-.99,2.23c-.66.64-1.6.96-2.81.96Zm2.47-3.21c0-.53-.21-1.01-.61-1.42-.41-.41-1.03-.61-1.86-.61s-1.43.2-1.84.61c-.41.41-.61.88-.61,1.42s.2.98.61,1.38c.41.4,1.02.6,1.84.6s1.45-.2,1.86-.59c.41-.39.61-.86.61-1.39Zm-.17-7.22h-4.69v-1.22h4.69v1.22Zm6.27,16.81h-10.6v-5.22h1.25v3.93h9.36v1.29Zm-.32-4.35h-1.23v-4.33h-2.64v-1.31h2.64v-2.39h-2.39v-1.31h2.39v-4.47h1.23v13.81Z"/>
          <path class="cls-1" d="m128.36,54.35c-.27.06-.66.13-1.18.22-.52.09-1.16.15-1.92.18-.73.04-1.46.07-2.17.07h-1.13v-11.87h5.19v1.33h-3.95v9.18l2.39-.04c.49-.02,1-.07,1.53-.16.53-.09.94-.17,1.24-.22v1.31Zm5.58,4.77h-1.2v-9.84h-2.28v9h-1.2v-17.32h1.2v6.95h2.28v-7.37h1.2v18.58Z"/>
          <path class="cls-1" d="m161.74,52.42h-14.59v-1.27h6.61v-1.46c-1.29-.06-2.34-.28-3.15-.69-.8-.4-1.2-.92-1.2-1.57,0-.71.47-1.26,1.4-1.66.94-.4,2.15-.6,3.62-.6s2.71.2,3.64.6c.94.4,1.4.95,1.4,1.66,0,.65-.41,1.17-1.22,1.57-.82.4-1.88.63-3.19.69v1.46h6.67v1.27Zm-1.31-8.22h-12v-1.24h12v1.24Zm-.68,14.72h-10.62v-5.13h10.62v5.13Zm-1.27-1.25v-2.66h-8.09v2.66h8.09Zm-.46-10.22c0-.41-.36-.69-1.07-.86-.71-.17-1.55-.25-2.52-.25s-1.82.09-2.54.25c-.72.17-1.08.46-1.08.86s.36.68,1.08.85c.72.17,1.56.25,2.54.25s1.81-.08,2.52-.25c.71-.17,1.07-.45,1.07-.85Zm-.65-5.79h-5.89v-1.24h5.89v1.24Z"/>
          <path class="cls-1" d="m187.63,56.76h-14.6v-1.31h4.41v-4.26h1.25v4.26h3.38v-4.26h1.25v4.26h4.31v1.31Zm-6.63-14.09c0,.89.18,1.78.55,2.68.36.9.84,1.69,1.44,2.36.65.73,1.35,1.36,2.1,1.87.75.52,1.31.83,1.68.96l-.86,1.05c-.3-.11-.78-.39-1.46-.82-.68-.44-1.32-1-1.94-1.69-.55-.61-1.03-1.26-1.43-1.97-.4-.71-.65-1.28-.75-1.7-.1.43-.34.99-.74,1.7-.39.71-.87,1.37-1.42,1.97-.63.69-1.29,1.25-1.95,1.69-.67.44-1.16.71-1.47.82l-.84-1.05c.35-.13.91-.45,1.67-.96.76-.51,1.46-1.14,2.11-1.87.58-.68,1.05-1.46,1.43-2.36.37-.9.56-1.8.56-2.68v-1.31h1.33v1.31Z"/>
          <path class="cls-1" d="m205.19,50.02c-.62.1-1.26.17-1.93.22-.67.05-1.33.09-1.98.11l-6.08.04v-1.31h2.07l-.23-5.24h1.23l.23,5.24c.63-.01,1.15-.02,1.54-.02s.8,0,1.23-.02l.23-5.2h1.22l-.21,5.15c.45-.03.92-.07,1.4-.11.48-.04.91-.09,1.29-.15v1.27Zm-.91-6.84h-8.68v-1.31h8.68v1.31Zm3.93,12.74c0,1.03-.48,1.88-1.43,2.56-.96.67-2.33,1.01-4.12,1.01s-3.13-.34-4.1-1.01c-.97-.68-1.45-1.53-1.45-2.56s.49-1.9,1.45-2.59c.97-.68,2.34-1.02,4.1-1.02s3.16.34,4.12,1.02c.96.69,1.43,1.55,1.43,2.59Zm-1.35,0c0-.74-.4-1.3-1.18-1.72-.79-.42-1.8-.62-3.02-.62s-2.24.21-3.03.61c-.8.41-1.19.97-1.19,1.69s.4,1.27,1.19,1.71c.79.44,1.81.66,3.03.66s2.23-.22,3.02-.65c.79-.43,1.18-.99,1.18-1.68Zm1.12-3.95h-1.22v-11.42h1.22v11.42Z"/>
        </g>
      </g>
    </g>
  </g>
</svg>