<?xml version="1.0" encoding="UTF-8"?>
<svg id="_레이어_2" data-name="레이어 2" xmlns="http://www.w3.org/2000/svg" viewBox="0 0 308 100">
  <defs>
    <style>
      .cls-1 {
        fill: #0079c2;
      }

      .cls-2 {
        fill: #e98b00;
      }

      .cls-3 {
        fill: #df2335;
      }

      .cls-4 {
        fill: none;
      }

      .cls-5 {
        fill: #231815;
      }
    </style>
  </defs>
  <g id="_레이어_1-2" data-name="레이어 1">
    <g>
      <rect class="cls-4" width="308" height="100"/>
      <g>
        <g>
          <path class="cls-3" d="m130.96,64.92c-.95-7.2-4.5-13.07-8.12-13.1-3.62,0-8.91,5.88-12,13.11-3.08,7.23.41,13.09,8.16,13.09,7.8-.08,12.91-5.89,11.95-13.1"/>
          <path class="cls-5" d="m93.99,45.76h0c-4.63,0-8.01,3.66-8.01,8.29s3.38,8.18,8.01,8.18c2.57,0,5.01-1.16,6.61-3.16-.17-.16-.62-1.11-2.11-1.11-1.41,0-1.72,1.41-4.5,1.41s-4.99-2.31-4.99-5.31,2.26-5.42,4.99-5.42c2.48,0,3.08,1.48,4.36,1.48s2.02-1.02,2.2-1.18c-1.61-2.01-3.98-3.17-6.55-3.17"/>
          <path class="cls-5" d="m110.32,46.24h-6.51c-1.1,0-1.87.66-1.87,1.71v.96h2.9s.11,9.8-.01,10.86h0c-.04.81-.39,2.75-2.25,3.62-1.53.72-1.55,1.4-1.62,2.47h0c.02.08.05.13.1.13h0s.01,0,.02,0c.06-.01,1.52-.37,1.73-.46h0c1.38-.43,3.48-1.38,4.48-3.32,0,0,.94-1.45.92-4.55v-8.74h.14c1.1,0,1.98-.66,1.98-1.71v-.96"/>
          <path class="cls-2" d="m143.89,41.08c-6.79-2.67-13.65-2.39-15.4.77-1.71,3.21.83,10.63,5.66,16.83,4.83,6.2,11.64,5.99,15.41-.79,3.72-6.76,1.11-14.15-5.66-16.81"/>
          <path class="cls-1" d="m109.37,43.25c6.03,4.12,12.77,5.36,15.16,2.69,2.41-2.69,1.58-10.55-1.75-17.67-3.33-7.12-10.02-8.44-15.2-2.66-5.11,5.77-4.23,13.54,1.78,17.65"/>
        </g>
        <g>
          <path class="cls-5" d="m163.8,57.44c-.69.12-1.65.22-2.58.29-.93.07-1.92.11-2.96.11h-2.95v-9.45c0-.5.14-.89.43-1.17.29-.28.66-.42,1.13-.42h5.58v.79c0,.2-.04.35-.11.46-.07.11-.16.19-.26.24-.09.06-.18.09-.27.1-.09.01-.15.02-.19.02h-3.89v7.84h2.18c.47,0,1.04-.03,1.73-.08.68-.06,1.49-.13,2.15-.24v-8.17c0-.5.12-.89.37-1.17.25-.28.61-.42,1.07-.42h1.02v4.84h1.19v-3.25c0-.5.13-.89.38-1.17.25-.28.61-.42,1.06-.42h1.02v14.46c0,.51-.12.91-.36,1.18-.24.28-.58.41-1.03.41h-1.07v-9.62h-1.19v8.03c0,.51-.13.91-.38,1.18-.25.28-.6.41-1.05.41h-1.04v-4.77Z"/>
          <path class="cls-5" d="m188.4,51.98h-2.65v4.23c0,.51-.13.91-.38,1.17-.25.27-.61.4-1.06.4h-1.02v-10.01c0-.5.13-.89.38-1.17.25-.28.59-.42,1.03-.42h1.06v4.19h1.83s.09,0,.18.03c.09.02.18.05.27.11.1.05.19.14.26.24.07.11.11.25.11.43v.8Zm-9.76-.66c0-.32-.06-.63-.17-.92-.11-.29-.26-.55-.44-.76-.18-.22-.4-.39-.65-.52-.25-.13-.52-.2-.8-.2s-.55.07-.8.2c-.25.13-.47.31-.65.52-.18.22-.33.47-.43.76-.1.29-.16.6-.16.92,0,.69.2,1.27.59,1.74.4.47.88.71,1.44.71s1.04-.24,1.45-.71c.4-.47.6-1.05.6-1.74m7.28,9.31v.75c0,.2-.04.36-.11.47-.07.11-.16.2-.26.25-.09.06-.18.09-.28.1-.1.01-.16.02-.2.02h-10.77v-3.68c0-.5.12-.89.37-1.18.25-.28.6-.42,1.07-.42h1.02v3.68h9.15Zm-4.57-12.58c0,.21-.04.37-.11.48-.08.11-.16.2-.26.26-.09.06-.19.09-.28.1-.09.01-.16.02-.19.02h-.28c.3.34.52.72.69,1.12.17.41.25.84.25,1.29,0,.58-.12,1.12-.37,1.61-.25.49-.58.91-1.01,1.27-.41.36-.89.63-1.45.83-.55.2-1.14.3-1.75.3s-1.21-.1-1.77-.29c-.56-.19-1.04-.47-1.45-.84-.42-.35-.76-.77-1-1.27-.24-.49-.36-1.03-.36-1.61,0-.44.08-.87.25-1.29.16-.41.4-.79.71-1.13h-1.15v-.77c0-.19.04-.35.11-.46.07-.12.16-.2.27-.26.09-.06.19-.09.28-.11.09-.02.16-.03.21-.03h2.63v-.36c0-.38.09-.67.27-.88.18-.21.46-.32.84-.32h1.5v1.56h3.43v.77Z"/>
          <path class="cls-5" d="m199.66,59.54c0-.27-.07-.53-.21-.77-.14-.24-.33-.46-.56-.66-.25-.19-.53-.35-.85-.46-.32-.11-.66-.17-1.01-.17s-.72.06-1.04.17c-.33.11-.61.27-.84.46-.25.19-.44.41-.57.66-.13.25-.2.5-.2.77s.07.55.2.8c.13.25.33.47.57.66.23.18.51.33.84.44.33.11.67.16,1.04.16s.69-.05,1.01-.16c.32-.11.6-.25.85-.44.23-.19.42-.41.56-.66.14-.25.21-.52.21-.8m2.63-.02h.02c0,.51-.14.99-.42,1.44-.28.45-.67.84-1.14,1.16-.48.33-1.04.59-1.69.78-.64.19-1.33.29-2.04.29s-1.41-.1-2.06-.29c-.65-.19-1.21-.46-1.68-.78-.48-.33-.86-.72-1.14-1.16-.28-.45-.41-.93-.41-1.44,0-.49.14-.95.41-1.39.28-.44.66-.83,1.14-1.16.48-.33,1.04-.59,1.68-.79.64-.19,1.33-.29,2.06-.29s1.39.1,2.03.29c.64.19,1.2.46,1.68.79.48.33.86.71,1.14,1.16.28.44.42.91.42,1.39m.55-10.07c0,.19-.04.34-.11.45-.07.11-.16.19-.26.23-.09.06-.18.09-.27.1-.09.01-.15.02-.18.02h-8.63v.88h9.58v.75c0,.19-.04.34-.12.45-.08.11-.16.2-.25.25-.1.06-.2.09-.28.1-.09.01-.15.02-.18.02h-3.92v1.12h6.8v.7c0,.2-.04.36-.12.47-.08.11-.16.2-.25.25-.1.06-.2.09-.29.1-.09.01-.15.02-.18.02h-15.14v-.77c0-.18.03-.32.11-.43.07-.11.15-.18.24-.23.1-.05.19-.09.28-.1.09,0,.16-.02.2-.02h5.91v-1.12h-4.87v-4.66c0-.51.2-.96.6-1.33.4-.37.89-.56,1.46-.56h9.99v.77c0,.19-.04.34-.11.45-.07.11-.16.2-.26.25-.09.05-.18.09-.27.1-.09.01-.15.02-.18.02h-8.74v.93h9.45v.77Z"/>
          <path class="cls-5" d="m216.6,49.39c0-.32-.07-.63-.21-.92-.14-.29-.32-.54-.55-.75-.23-.22-.51-.4-.82-.52-.32-.13-.65-.19-1-.19s-.7.06-1.01.19c-.32.13-.59.3-.82.52-.24.21-.43.46-.56.75-.13.29-.2.6-.2.92,0,.34.06.66.2.95.13.29.32.55.56.77.23.21.5.38.82.5.32.12.66.18,1.01.18s.68-.06,1-.18c.32-.12.59-.29.82-.5.23-.22.42-.48.55-.77.14-.29.21-.61.21-.95m2.57,0c0,.54-.14,1.05-.41,1.52-.27.47-.64.88-1.1,1.23-.46.34-1,.61-1.63.81-.62.2-1.29.3-2.01.3s-1.37-.1-1.99-.29c-.62-.19-1.17-.47-1.65-.82-.46-.34-.83-.75-1.1-1.22-.27-.47-.41-.98-.41-1.53,0-.52.13-1.01.4-1.48.27-.46.64-.87,1.11-1.23.46-.34,1.01-.62,1.63-.82.62-.2,1.29-.31,2.01-.31s1.37.1,1.99.31c.62.2,1.17.48,1.63.82.48.35.85.76,1.12,1.23.27.46.41.96.41,1.48m1.02,11.99c0,.2-.04.36-.11.47-.07.11-.15.2-.24.25-.09.06-.18.09-.27.1-.09.01-.15.02-.19.02h-11.35v-3.42c0-.5.12-.89.36-1.16.24-.28.6-.41,1.06-.41h1.04v3.4h9.69v.75Zm1.82-6.73c0,.19-.04.34-.12.45-.08.11-.16.2-.25.25-.1.07-.2.11-.28.12-.09.01-.15.02-.19.02h-5.73v1.14c0,.53-.12.92-.38,1.2-.25.27-.59.41-1.03.41h-1.04v-2.75h-6.97v-.74c0-.19.04-.34.11-.45.07-.11.15-.19.24-.24.1-.06.2-.09.29-.1.09-.01.16-.02.2-.02h15.14v.7Z"/>
        </g>
      </g>
    </g>
  </g>
</svg>