<?xml version="1.0" encoding="UTF-8"?>
<svg id="_레이어_2" data-name="레이어 2" xmlns="http://www.w3.org/2000/svg" viewBox="0 0 308 100">
  <defs>
    <style>
      .cls-1 {
        fill: #e9232f;
      }

      .cls-1, .cls-2 {
        fill-rule: evenodd;
      }

      .cls-2 {
        fill: #fff;
      }

      .cls-3 {
        fill: none;
      }

      .cls-4 {
        fill: #d0271a;
      }
    </style>
  </defs>
  <g id="_레이어_1-2" data-name="레이어 1">
    <g>
      <rect class="cls-3" width="308" height="100"/>
      <g>
        <g>
          <path class="cls-1" d="m104.61,50.07c-.03,2.68-1,5.02-2.91,6.94-2.37,2.39-4.74,4.79-7.15,7.13-2.4,2.33-5.3,3.18-8.6,2.66-2.36-.37-4.24-1.6-5.88-3.3-2.09-2.16-4.23-4.26-6.36-6.38-2.29-2.27-3.28-5.03-2.96-8.21.23-2.33,1.24-4.33,2.91-5.99,2.28-2.27,4.54-4.57,6.84-6.83,2.92-2.88,6.38-3.71,10.29-2.54,1.65.5,3.01,1.51,4.22,2.74,2.26,2.3,4.57,4.54,6.83,6.85,1.86,1.9,2.75,4.22,2.77,6.92Zm-20.01-3.84c0-.34-.02-.67,0-1.01.08-1.14.23-2.27.87-3.26.86-1.34,2.91-1.36,3.72,0,.35.59.62,1.27.72,1.95.43,2.8.11,5.55-.83,8.22-.32.9-.8,1.74-1.21,2.6-.26.56-.08,1.07.47,1.27.44.16.84-.04,1.15-.6,1.8-3.21,2.46-6.68,2.32-10.32-.05-1.27-.28-2.53-.89-3.67-.79-1.46-2-2.21-3.69-2.18-1.65.03-2.79.83-3.52,2.26-.76,1.5-.93,3.12-.88,4.76.06,2.52.38,5.01,1.09,7.43.56,1.92,1.31,3.75,2.77,5.18,1.15,1.13,2.5,1.79,4.18,1.45.82-.16,1.54-.54,2.2-1.02,1.24-.9,2.23-2.04,3-3.36.22-.38.09-.81-.25-1.07-.35-.26-.78-.25-1.1.05-.12.11-.22.26-.31.39-.74,1.11-1.61,2.09-2.74,2.82-1.1.71-2.17.7-3.22-.06-1.19-.85-1.83-2.09-2.34-3.4-1.06-2.71-1.42-5.55-1.52-8.44Zm-.94,12.29c-.5,0-.9.4-.9.92,0,.51.43.94.94.93.49-.01.91-.43.91-.93,0-.52-.41-.92-.95-.92Z"/>
          <path class="cls-2" d="m84.61,46.23c.09,2.89.46,5.73,1.52,8.44.51,1.31,1.15,2.55,2.34,3.4,1.05.75,2.12.76,3.22.06,1.13-.73,2-1.71,2.74-2.82.09-.14.19-.28.31-.39.32-.3.76-.31,1.1-.05.34.26.47.69.25,1.07-.78,1.32-1.76,2.46-3,3.36-.67.48-1.38.85-2.2,1.02-1.68.34-3.02-.32-4.18-1.45-1.46-1.43-2.21-3.26-2.77-5.18-.71-2.42-1.03-4.91-1.09-7.43-.04-1.64.12-3.26.88-4.76.73-1.43,1.87-2.23,3.52-2.26,1.69-.03,2.9.72,3.69,2.18.62,1.14.85,2.4.89,3.67.13,3.64-.52,7.11-2.32,10.32-.31.56-.72.76-1.15.6-.55-.2-.73-.71-.47-1.27.41-.87.89-1.7,1.21-2.6.94-2.66,1.27-5.42.83-8.22-.1-.67-.37-1.36-.72-1.95-.81-1.37-2.86-1.34-3.72,0-.64.99-.79,2.12-.87,3.26-.02.33,0,.67,0,1.01Z"/>
          <path class="cls-2" d="m83.67,58.52c.54,0,.95.4.95.92,0,.49-.41.92-.91.93-.51.01-.95-.42-.94-.93,0-.52.4-.92.9-.92Z"/>
        </g>
        <g>
          <path class="cls-4" d="m136.93,51.29v1.69h-23.21v-1.69h9.72v-2.32h-5.47c-.47,0-.89-.16-1.24-.49-.35-.32-.53-.74-.53-1.25v-4.04h14.45v-2.35h-14.45v-1.69h17.85v5.75h-14.41v1.61c0,.27.05.45.15.56.09.1.26.16.51.16h14.07v1.74h-7.23v2.32h9.8m-9.69,3.12c.28,1.06.79,1.98,1.52,2.78.73.79,1.53,1.46,2.38,1.99.85.53,1.7.95,2.53,1.25.84.3,1.5.49,2,.55l-.98,1.49c-.5-.06-1.13-.19-1.92-.4-.78-.21-1.62-.51-2.51-.89-.89-.39-1.78-.87-2.67-1.44-.89-.57-1.7-1.24-2.42-2.02-.72.78-1.52,1.45-2.4,2.02-.88.57-1.75,1.05-2.62,1.44-.87.39-1.7.68-2.48.89-.78.21-1.42.35-1.94.4l-.97-1.49c.49-.07,1.15-.26,1.99-.55.84-.3,1.68-.72,2.54-1.25.85-.54,1.64-1.2,2.37-1.99.73-.8,1.24-1.72,1.52-2.78h4.06Z"/>
          <path class="cls-4" d="m149.42,53.82c.67,0,1.2-.02,1.6-.05.39-.03.74-.18,1.05-.42v-5.52h-4.84v-1.74h4.84v-7.31h3.35v23.55h-3.35v-7.16c-.25.14-.59.25-1.01.32-.42.07-.97.1-1.64.1h-7.18c-.67,0-1.17-.17-1.49-.53-.33-.35-.49-.76-.49-1.24v-14.15h9.61v1.77h-6.23v11.51c0,.27.06.48.19.63.12.16.34.23.66.23h4.94m8.34-15.05h3.35v23.55h-3.35v-23.55Z"/>
          <path class="cls-4" d="m181.32,41.89c.56.42,1.01.92,1.33,1.51.33.58.49,1.22.49,1.92,0,.6-.12,1.16-.35,1.67-.24.51-.57.97-.99,1.37-.43.41-.93.75-1.52,1.03-.59.28-1.24.49-1.94.61v1.72h9.79v1.74h-23.16v-1.74h9.8v-1.69c-.74-.12-1.42-.32-2.02-.59-.61-.27-1.13-.61-1.57-1.01-.44-.41-.78-.87-1.03-1.39-.25-.52-.37-1.08-.37-1.71,0-.7.16-1.34.49-1.92.33-.58.77-1.09,1.33-1.51h-4.33v-1.69h7.5v-2.4h3.56v2.4h7.45v1.69h-4.46m-11.49,20.44c-.7,0-1.24-.19-1.6-.58-.36-.39-.54-.91-.54-1.56v-5.02h17.29v7.16h-15.16Zm1.32-2.35c0,.4.2.61.61.61h9.8v-3.67h-10.41v3.06Zm2.19-14.76c0,.44.08.86.23,1.25.15.4.36.74.65,1.03.28.29.61.53.99.7.38.18.81.26,1.28.26s.9-.08,1.28-.26c.38-.18.71-.41.98-.7.27-.29.48-.63.62-1.03.14-.4.21-.81.21-1.25s-.07-.86-.21-1.25c-.14-.39-.35-.74-.62-1.03-.27-.29-.6-.52-.98-.7-.38-.18-.8-.26-1.28-.26s-.9.08-1.28.26c-.38.17-.71.41-.99.7-.28.29-.49.64-.65,1.03-.15.4-.23.81-.23,1.25"/>
          <path class="cls-4" d="m207.89,51.37v5.21h5.89v1.74h-23.21v-1.74h5.99v-5.21h3.54v5.21h4.25v-5.21h3.54m-16.11-1.4c1.04-.28,2.06-.71,3.07-1.3,1-.59,1.9-1.27,2.69-2.03.79-.77,1.43-1.59,1.93-2.47.5-.88.74-1.77.74-2.67v-2.19h3.75v2.19c0,.9.25,1.79.75,2.69.5.88,1.16,1.71,1.97,2.48.81.77,1.72,1.45,2.71,2.03,1,.59,2,1.01,3,1.28l-1.03,1.48c-.67-.11-1.42-.3-2.24-.59-.83-.29-1.67-.67-2.51-1.15-.85-.48-1.66-1.03-2.45-1.68-.78-.64-1.47-1.36-2.07-2.18-.51.74-1.15,1.43-1.91,2.08-.77.64-1.58,1.21-2.45,1.71-.86.49-1.72.89-2.59,1.21-.86.32-1.63.52-2.32.61l-1.03-1.48Z"/>
          <path class="cls-4" d="m216.6,50.76v-1.74h2.48v-7.64h-2.33v-1.74h14.87v1.74h-2.38v4.49c0,.46-.05.98-.16,1.57-.1.59-.28,1.12-.53,1.58h1.46c.25,0,.54-.01.88-.03.34-.02.7-.04,1.06-.08.36-.04.71-.09,1.04-.15.33-.06.62-.13.87-.23v-9.79h3.43v13.54h-3.43v-2.06c-.23.09-.51.17-.83.24-.33.07-.67.13-1.04.17-.37.05-.75.08-1.13.1-.39.02-.74.03-1.06.03h-13.2m5.86-9.37v7.64h2.99c.09-.21.16-.46.21-.73.05-.28.1-.56.13-.84.03-.29.06-.56.07-.83.01-.27.01-.52.01-.75v-4.49h-3.41Zm7.21,10.96c.93,0,1.8.14,2.6.41.8.27,1.5.65,2.09,1.14.59.48,1.05,1.06,1.39,1.74.33.68.5,1.41.5,2.21s-.17,1.56-.5,2.23c-.34.68-.8,1.26-1.39,1.74-.59.49-1.29.86-2.09,1.14-.8.28-1.67.41-2.6.41s-1.8-.13-2.6-.41c-.8-.27-1.49-.65-2.08-1.14-.59-.48-1.05-1.06-1.38-1.74-.34-.67-.5-1.42-.5-2.23s.16-1.53.5-2.21c.34-.68.79-1.26,1.38-1.74.59-.48,1.29-.86,2.08-1.14.8-.27,1.67-.41,2.6-.41m0,1.77c-.51,0-.96.11-1.35.32-.39.21-.71.49-.96.84-.26.35-.45.76-.58,1.2-.13.45-.2.9-.2,1.36s.07.94.2,1.39c.13.45.32.84.58,1.19.25.34.58.62.96.83.39.22.84.32,1.35.32s.99-.1,1.37-.32c.39-.21.71-.49.96-.83.26-.34.44-.74.57-1.19.12-.45.18-.91.18-1.39s-.07-.94-.2-1.38c-.13-.45-.32-.85-.58-1.19-.26-.34-.58-.62-.97-.83-.39-.21-.84-.32-1.35-.32"/>
        </g>
      </g>
    </g>
  </g>
</svg>