<?xml version="1.0" encoding="UTF-8"?>
<svg id="_레이어_2" data-name="레이어 2" xmlns="http://www.w3.org/2000/svg" viewBox="0 0 308 100">
  <defs>
    <style>
      .cls-1 {
        fill: #fff;
      }

      .cls-2 {
        fill: #ae9876;
      }

      .cls-3 {
        fill: none;
      }
    </style>
  </defs>
  <g id="_레이어_1-2" data-name="레이어 1">
    <g>
      <rect class="cls-3" width="308" height="100"/>
      <g>
        <path class="cls-2" d="m224.14,57.52h-7.84c-.35,0-.63-.28-.63-.63v-3.2h8.47v3.83Zm2.73-5.04h-13.94v4.73c0,.84.68,1.53,1.52,1.53h12.41v-6.26Zm-94.96,5.27l.76,1.13c1.49-.18,4.88-1.4,7.01-3.72,2.12,2.32,5.52,3.54,7.01,3.72l.76-1.13c-1.46-.21-5.43-1.9-6.24-5.26h-3.06c-.81,3.35-4.78,5.05-6.24,5.26m-.75-6.07h17.25v-1.27h-7.28v-1.74h5.8v-1.26h-10.93c-.35,0-.64-.28-.64-.63v-1.11h11.34v-4.27h-14.06v1.27h11.33v1.73h-11.33v3.02c0,.7.56,1.27,1.26,1.27h4.49v1.74h-7.23v1.27Zm29.73,7.06h2.64v-17.65h-2.64v6.37h-3.31v1.57h3.31v3.71c-.65.25-1.22.39-2.08.39h-3.75c-.35,0-.64-.29-.64-.64v-8.79h4.82v-1.27h-7.55v10.7c0,.7.57,1.27,1.27,1.27h5.86c.89,0,1.61-.16,2.08-.45v4.78Zm4.22,0h2.64v-17.65h-2.64v17.65Zm8.81-12.67h2.82v3.38h-2.31c-.28,0-.51-.23-.51-.51v-2.87Zm-1,4.64h6.36v-9.17h-2.53v3.29h-2.82v-3.29h-2.53v7.64c0,.84.69,1.53,1.53,1.53m11.86.39h2.53v-10h-2.53v4.06h-1.34v-4.06h-2.53v10h2.53v-4.69h1.34v4.69Zm0,7.65h2.53v-6.26h-13.91v1.27h11.37v4.99Zm11.81-8.66c-1.32,0-2.4-1.31-2.4-2.93s1.07-2.93,2.4-2.93,2.4,1.31,2.4,2.93-1.07,2.93-2.4,2.93m10-1h2.87v-1.27h-2.87v-6.71h-2.75v11.8c-.55.16-1.55.29-2.51.29h-3.33v-2.08c2.08-.5,3.61-2.08,3.61-3.95,0-1.53-1.01-2.86-2.51-3.57h3.01v-1.27h-4.1v-1.77h-2.76v1.77h-4.08v1.27h2.93c-1.5.71-2.51,2.04-2.51,3.57,0,1.89,1.55,3.48,3.67,3.96v2.07h-4.32v1.22h10.4c1.02,0,1.71-.09,2.51-.31v4.65h2.75v-9.66Zm11.35-6.16h3.77v-1.27h-10.47v1.27h3.81c-.08,3.12-2.1,5.65-4.35,6.51l.87,1.05c1.36-.41,3.53-1.74,4.92-3.75,1.39,2.01,3.56,3.34,4.92,3.75l.87-1.05c-2.25-.86-4.27-3.39-4.35-6.51m8.93,8.17v-10h-2.76v4.08h-3.19v1.24h3.19v4.67h2.76Z"/>
        <path class="cls-2" d="m110.18,67.09c-4.66,4.66-12.29,4.66-16.95,0l-8.61-8.61c-4.66-4.66-4.66-12.29,0-16.95l8.61-8.61c4.66-4.66,12.29-4.66,16.95,0l8.61,8.61c4.66,4.66,4.66,12.29,0,16.95l-8.61,8.61Z"/>
        <path class="cls-1" d="m96.6,62.65c-.69,0-1.24-.54-1.27-1.22-.01-.34.1-.66.34-.92.23-.25.54-.4.88-.41.7-.03,1.3.52,1.33,1.22.03.7-.52,1.29-1.22,1.32-.02,0-.04,0-.05,0"/>
        <path class="cls-1" d="m101.23,39.14c-.7,0-1.26.22-1.71.67-.98.97-1.49,2.97-1.44,5.64.05,3.29.84,9.74,3.42,13.06.42.54.87.97,1.34,1.28.46.3.97.6,1.76.6.22,0,.45-.02.69-.07,1.48-.36,3.34-2.01,4.72-4.2.21-.33.57-.53.97-.53.21,0,.42.06.61.18.26.16.44.42.51.71.07.3.02.6-.15.86-1.75,2.78-4.05,4.73-6.17,5.22,0,0-.03,0-.05.01-.39.07-.77.11-1.13.11-1.36,0-2.33-.52-3.01-.97-.68-.45-1.31-1.05-1.88-1.78-3.64-4.67-3.89-13.44-3.9-14.42-.04-2.33.3-5.49,2.12-7.3.89-.88,2-1.33,3.31-1.33h.21c1.31,0,2.43.45,3.32,1.33,1.82,1.81,2.16,4.97,2.12,7.3-.04,2.43-.49,7.14-3,11.36-.21.34-.58.56-.98.56-.21,0-.41-.06-.58-.16-.54-.32-.72-1.02-.4-1.57,1.76-2.95,2.62-6.2,2.68-10.22.05-2.67-.47-4.67-1.44-5.64-.45-.45-1.01-.67-1.71-.67h-.2Z"/>
      </g>
    </g>
  </g>
</svg>