<?xml version="1.0" encoding="UTF-8"?>
<svg id="_레이어_2" data-name="레이어 2" xmlns="http://www.w3.org/2000/svg" viewBox="0 0 308 100">
  <defs>
    <style>
      .cls-1 {
        fill: #fff;
      }

      .cls-2 {
        fill: #db2729;
      }

      .cls-3 {
        fill: none;
      }
    </style>
  </defs>
  <g id="_레이어_1-2" data-name="레이어 1">
    <g>
      <rect class="cls-3" width="308" height="100"/>
      <g>
        <path class="cls-2" d="m126.4,57.47c-.52,0-.96.18-1.33.55-.37.37-.55.83-.55,1.39s.18,1.03.55,1.41c.37.38.81.57,1.33.57s.97-.19,1.35-.57c.38-.38.57-.85.57-1.41s-.19-1.02-.57-1.39c-.38-.37-.83-.55-1.35-.55"/>
        <path class="cls-2" d="m131.59,29.94h-12.1c-.92,0-1.68.75-1.68,1.68v36.76c0,.92.75,1.68,1.68,1.68h12.1c.92,0,1.67-.75,1.67-1.68V31.62c0-.92-.75-1.68-1.67-1.68"/>
        <polygon class="cls-2" points="121.18 49.95 124.67 49.95 124.67 46.61 127.36 46.61 127.36 40.62 121.97 40.62 121.97 37.54 130.53 37.54 130.53 47.77 127.84 47.77 127.84 49.95 131.32 49.95 131.32 53.01 121.18 53.01 121.18 49.95"/>
        <path class="cls-2" d="m131.01,61.37c-.26.61-.61,1.14-1.06,1.58-.45.45-.98.8-1.59,1.06-.61.26-1.26.39-1.96.39s-1.35-.13-1.94-.39c-.6-.26-1.12-.61-1.57-1.06-.45-.45-.8-.98-1.06-1.58-.26-.61-.39-1.26-.39-1.96s.13-1.32.39-1.93c.26-.61.61-1.14,1.06-1.59.45-.45.97-.8,1.57-1.06.6-.26,1.25-.39,1.94-.39s1.35.13,1.96.39c.61.26,1.14.61,1.59,1.06.45.45.8.98,1.06,1.59.26.61.39,1.25.39,1.93s-.13,1.35-.39,1.96"/>
        <path class="cls-2" d="m138.69,38.02c.61-.26,1.26-.39,1.96-.39.9,0,1.72.21,2.47.64.75.43,1.34,1,1.78,1.72v-.57h3.29v-3.26h3.17v18.58c.31.09.61.21.88.36v-23.49c0-.92-.75-1.68-1.67-1.68h-12.1c-.92,0-1.67.75-1.67,1.68v7.78c.09-.11.19-.22.29-.32.46-.45.99-.8,1.6-1.06"/>
        <path class="cls-2" d="m149.8,57.47c-.52,0-.96.18-1.33.55-.37.37-.55.83-.55,1.39s.18,1.03.55,1.41c.37.38.81.57,1.33.57s.97-.19,1.35-.57c.38-.38.57-.85.57-1.41s-.19-1.02-.57-1.39c-.38-.37-.83-.55-1.35-.55"/>
        <path class="cls-2" d="m148.18,42.42h-2.54l.03.24c0,.22-.01.42-.04.6-.03.18-.07.36-.11.54h2.66v-1.38Z"/>
        <path class="cls-2" d="m140.64,40.65c-.52,0-.97.19-1.35.57-.38.38-.57.86-.57,1.44s.19,1.03.57,1.41c.38.38.83.57,1.35.57s.97-.19,1.35-.57c.38-.38.57-.85.57-1.41s-.19-1.06-.57-1.44c-.38-.38-.83-.57-1.35-.57"/>
        <path class="cls-2" d="m149.8,64.41c-.7,0-1.35-.13-1.94-.39-.6-.26-1.12-.61-1.57-1.06-.45-.45-.8-.98-1.06-1.58-.26-.61-.39-1.26-.39-1.96,0-1.1.31-2.06.93-2.9.62-.84,1.43-1.43,2.42-1.76v-7.96h-3.29v-1.44c-.46.7-1.06,1.26-1.79,1.69-.74.43-1.56.64-2.45.64-.7,0-1.35-.13-1.96-.39-.61-.26-1.14-.62-1.6-1.08-.1-.1-.2-.21-.29-.32v22.49c0,.92.75,1.68,1.67,1.68h12.1c.92,0,1.67-.75,1.67-1.68v-4.6c-.15.09-.31.16-.48.24-.61.26-1.26.39-1.96.39"/>
        <polygon class="cls-2" points="163.14 46.61 164.52 46.61 164.52 49.95 165.48 49.95 165.48 46.61 166.58 46.61 164.91 42.99 163.14 46.61"/>
        <path class="cls-2" d="m169.54,29.94h-12.1c-.92,0-1.68.75-1.68,1.68v36.76c0,.92.75,1.68,1.68,1.68h12.1c.92,0,1.68-.75,1.68-1.68V31.62c0-.92-.75-1.68-1.68-1.68m.79,23.06h-10.78v-3.05h2.19v-1.88l-2.12-.99,5.29-10.26,5.27,10.23-1.98.96v1.94h2.13v3.05Z"/>
        <rect class="cls-2" x="178.32" y="40.65" width="1.47" height="4.04"/>
        <path class="cls-2" d="m187.74,64.41c-.7,0-1.35-.13-1.94-.39-.6-.26-1.12-.61-1.57-1.06-.45-.45-.8-.98-1.06-1.58-.26-.61-.39-1.26-.39-1.96,0-1.1.31-2.06.93-2.9.62-.84,1.43-1.43,2.42-1.76v-18.58h3.17v18.58c.31.09.61.21.88.36v-23.49c0-.92-.75-1.68-1.67-1.68h-12.1c-.92,0-1.68.75-1.68,1.68v5.92h9.15v3.11h-1.46v4.04h1.49v3.08h-9.18v20.61c0,.92.75,1.68,1.68,1.68h12.1c.92,0,1.67-.75,1.67-1.68v-4.6c-.15.09-.31.16-.48.24-.61.26-1.26.39-1.96.39"/>
        <path class="cls-2" d="m187.74,57.47c-.52,0-.96.18-1.33.55-.37.37-.55.83-.55,1.39s.19,1.03.55,1.41c.37.38.81.57,1.33.57s.97-.19,1.35-.57c.38-.38.57-.85.57-1.41s-.19-1.02-.57-1.39c-.38-.37-.83-.55-1.35-.55"/>
        <rect class="cls-2" x="174.74" y="40.65" width=".92" height="4.04"/>
        <polygon class="cls-1" points="131.32 49.95 127.84 49.95 127.84 47.77 130.53 47.77 130.53 37.54 121.97 37.54 121.97 40.62 127.36 40.62 127.36 46.61 124.67 46.61 124.67 49.95 121.18 49.95 121.18 53.01 131.32 53.01 131.32 49.95"/>
        <path class="cls-1" d="m129.95,55.9c-.45-.45-.98-.8-1.59-1.06-.61-.26-1.26-.39-1.96-.39s-1.35.13-1.94.39c-.6.26-1.12.61-1.57,1.06-.45.45-.8.98-1.06,1.59-.26.61-.39,1.25-.39,1.93s.13,1.35.39,1.96c.26.61.61,1.14,1.06,1.58.45.45.97.8,1.57,1.06.6.26,1.25.39,1.94.39s1.35-.13,1.96-.39c.61-.26,1.14-.61,1.59-1.06.45-.45.8-.98,1.06-1.58.26-.61.39-1.26.39-1.96s-.13-1.32-.39-1.93c-.26-.61-.61-1.14-1.06-1.59m-2.2,4.92c-.38.38-.83.57-1.35.57s-.96-.19-1.33-.57c-.37-.38-.55-.85-.55-1.41s.18-1.02.55-1.39c.37-.37.81-.55,1.33-.55s.97.18,1.35.55c.38.37.57.83.57,1.39s-.19,1.03-.57,1.41"/>
        <path class="cls-1" d="m151.35,54.75v-18.58h-3.17v3.26h-3.29v.57c-.44-.72-1.03-1.29-1.78-1.72-.75-.43-1.57-.64-2.47-.64-.7,0-1.35.13-1.96.39-.61.26-1.14.61-1.6,1.06-.1.1-.2.21-.29.32v6.49c.09.11.19.22.29.32.46.46.99.82,1.6,1.08.61.26,1.26.39,1.96.39.9,0,1.72-.21,2.45-.64.74-.43,1.34-.99,1.8-1.69v1.44h3.29v7.96c-1,.34-1.8.93-2.42,1.76-.62.84-.93,1.81-.93,2.9,0,.7.13,1.35.39,1.96.26.61.61,1.14,1.06,1.58.45.45.97.8,1.57,1.06.6.26,1.25.39,1.94.39s1.35-.13,1.96-.39c.17-.07.33-.15.48-.24v-8.68c-.28-.14-.57-.27-.88-.36m-9.36-10.68c-.38.38-.83.57-1.35.57s-.97-.19-1.35-.57c-.38-.38-.57-.85-.57-1.41s.19-1.06.57-1.44c.38-.38.83-.57,1.35-.57s.97.19,1.35.57c.38.38.57.86.57,1.44s-.19,1.03-.57,1.41m3.53-.27c.04-.18.07-.36.11-.54.03-.18.04-.38.04-.6l-.03-.24h2.54v1.38h-2.66Zm5.62,17.03c-.38.38-.83.57-1.35.57s-.96-.19-1.33-.57c-.37-.38-.55-.85-.55-1.41s.18-1.02.55-1.39c.37-.37.81-.55,1.33-.55s.97.18,1.35.55c.38.37.57.83.57,1.39s-.19,1.03-.57,1.41"/>
        <path class="cls-1" d="m168.2,48.01l1.97-.96-5.27-10.23-5.29,10.26,2.12.99v1.88h-2.19v3.05h10.78v-3.05h-2.13v-1.94Zm-2.72-1.41v3.35h-.96v-3.35h-1.38l1.76-3.62,1.68,3.62h-1.11Z"/>
        <path class="cls-1" d="m183.91,44.69h-1.49v-4.04h1.46v-3.11h-9.15v3.11h.92v4.04h-.92v3.08h9.18v-3.08Zm-4.12,0h-1.47v-4.04h1.47v4.04Z"/>
        <path class="cls-1" d="m189.3,54.75v-18.58h-3.17v18.58c-1,.34-1.8.93-2.42,1.76-.62.84-.93,1.81-.93,2.9,0,.7.13,1.35.39,1.96.26.61.61,1.14,1.06,1.58.45.45.97.8,1.57,1.06.6.26,1.25.39,1.94.39s1.35-.13,1.96-.39c.17-.07.33-.15.48-.24v-8.68c-.28-.15-.57-.27-.88-.36m-.21,6.07c-.38.38-.83.57-1.35.57s-.96-.19-1.33-.57c-.37-.38-.55-.85-.55-1.41s.18-1.02.55-1.39c.37-.37.81-.55,1.33-.55s.97.18,1.35.55c.38.37.57.83.57,1.39s-.19,1.03-.57,1.41"/>
      </g>
    </g>
  </g>
</svg>