<?xml version="1.0" encoding="UTF-8"?>
<svg id="_레이어_2" data-name="레이어 2" xmlns="http://www.w3.org/2000/svg" viewBox="0 0 308 100">
  <defs>
    <style>
      .cls-1 {
        fill: none;
      }

      .cls-2 {
        fill-rule: evenodd;
      }
    </style>
  </defs>
  <g id="_레이어_1-2" data-name="레이어 1">
    <g>
      <rect class="cls-1" width="308" height="100"/>
      <g>
        <path class="cls-2" d="m103.6,50.78h43.45v-1.55h-43.45v1.55Zm-13.45,16.3h7.24v-34.14h-7.24v34.14Zm63.11,0h7.24v-34.14h-7.24v34.14Z"/>
        <path class="cls-2" d="m177.06,36.79v-3.69h1.92v9.29h-1.92v-3.78h-5.42v3.78h-1.92v-9.29h1.92v3.69h5.42Zm13.57-3.69h2.18l-4.26,5.8v3.49h-1.92v-3.49l-4.29-5.8h2.28l3.01,4.04,3.01-4.04Zm13.02,0c.88,0,1.35.47,1.35,1.35v2.33c0,.5-.41.92-.93.92.52,0,.93.41.93.92v2.42c0,.88-.47,1.35-1.35,1.35h-7.94v-9.29h7.94Zm-6.04,3.76h5.48v-2.06h-5.48v2.06Zm0,3.84h5.48v-2.16h-5.48v2.16Zm20.24-5.9h-7.24v2.02h7.05v1.7h-7.05v2.18h7.24v1.7h-9.16v-9.29h9.16v1.7Z"/>
        <g>
          <polygon points="180.67 52.43 180.67 51.82 178.27 51.82 178.27 50.42 180.51 50.42 180.51 49.81 178.27 49.81 178.27 48.42 180.67 48.42 180.67 47.81 177.66 47.81 177.66 52.43 180.67 52.43"/>
          <polygon points="177.89 59.64 177.89 59.03 175.49 59.03 175.49 57.64 177.74 57.64 177.74 57.03 175.49 57.03 175.49 55.63 177.89 55.63 177.89 55.02 174.88 55.02 174.88 59.64 177.89 59.64"/>
          <polygon points="182.02 59.64 182.02 59.03 179.77 59.03 179.77 55.02 179.17 55.02 179.17 59.64 182.02 59.64"/>
          <path d="m172.38,59.64h0c.74,0,1.34-.6,1.34-1.34,0-.43-.2-.81-.51-1.05.27-.23.43-.57.43-.95,0-.7-.57-1.27-1.27-1.27h-2.13v4.62h2.13Zm-1.52-2.69v-1.32h1.52c.37,0,.66.3.66.66s-.3.66-.66.66h-1.52Zm0,2.08v-1.47h1.52c.41,0,.74.33.74.74s-.33.74-.74.74h-1.52Z"/>
          <polygon points="188.05 59.64 188.05 59.03 185.66 59.03 185.66 57.64 187.9 57.64 187.9 57.03 185.66 57.03 185.66 55.63 188.05 55.63 188.05 55.02 185.05 55.02 185.05 59.64 188.05 59.64"/>
          <polygon points="197.52 59.64 197.52 59.03 195.12 59.03 195.12 57.64 197.37 57.64 197.37 57.03 195.12 57.03 195.12 55.63 197.52 55.63 197.52 55.02 194.52 55.02 194.52 59.64 197.52 59.64"/>
          <rect x="182.99" y="55.02" width=".61" height="4.62"/>
          <polygon points="206.23 55.02 205.62 55.02 205.62 58.53 202.93 55.02 202.41 55.02 202.41 59.64 203.02 59.64 203.02 56.14 205.71 59.64 206.23 59.64 206.23 55.02"/>
          <rect x="185.18" y="62.24" width=".61" height="4.62"/>
          <rect x="200.4" y="55.02" width=".61" height="4.62"/>
          <polygon points="176.11 47.81 174.87 51.52 173.63 47.81 173.02 47.81 171.78 51.52 170.55 47.81 169.94 47.81 171.48 52.43 172.09 52.43 173.33 48.72 174.56 52.43 175.18 52.43 176.72 47.81 176.11 47.81"/>
          <polygon points="191.32 58.74 189.68 55.02 189.08 55.02 191.02 59.64 191.63 59.64 193.57 55.02 192.96 55.02 191.32 58.74"/>
          <path d="m179.04,65.05c0,.7-.57,1.26-1.26,1.26s-1.26-.57-1.26-1.26v-2.81h-.61v2.81c0,1.03.84,1.87,1.87,1.87s1.87-.84,1.87-1.87v-2.81h-.61v2.81Z"/>
          <polygon points="170.82 62.24 170.25 62.24 170.25 66.86 170.86 66.86 170.86 63.62 172.15 66.05 172.76 66.05 174.06 63.62 174.06 66.86 174.67 66.86 174.67 62.24 174.1 62.24 172.46 65.33 170.82 62.24"/>
          <path d="m182.46,62.76c.67,0,1.34.46,1.35.47l.35-.5s-.83-.58-1.7-.58c-1.56,0-1.73,1-1.73,1.42,0,.97,1.17,1.2,1.73,1.31.67.13,1.08.4,1.08.71s-.38.78-1.2.78c-.66,0-1.43-.5-1.44-.51l-.34.51s.93.61,1.77.61c1.13,0,1.81-.7,1.81-1.38,0-.3-.15-1.03-1.57-1.31-1.09-.21-1.24-.47-1.24-.71,0-.35.12-.82,1.12-.82Z"/>
          <path d="m189.13,62.77c.72,0,1.23.41,1.23.41l.39-.46s-.67-.56-1.62-.56c-1,0-2.17.63-2.17,2.39s1.18,2.37,2.19,2.37c.83,0,1.56-.52,1.59-.54l-.36-.49s-.6.43-1.23.43c-.37,0-1.58-.13-1.58-1.77s1.19-1.79,1.56-1.79Z"/>
        </g>
      </g>
    </g>
  </g>
</svg>