<?xml version="1.0" encoding="UTF-8"?>
<svg id="_레이어_2" data-name="레이어 2" xmlns="http://www.w3.org/2000/svg" viewBox="0 0 308 100">
  <defs>
    <style>
      .cls-1 {
        fill: #0be6c1;
        fill-rule: evenodd;
      }

      .cls-2 {
        fill: none;
      }
    </style>
  </defs>
  <g id="_레이어_1-2" data-name="레이어 1">
    <g>
      <rect class="cls-2" width="308" height="100"/>
      <path class="cls-1" d="m221.08,44.21c1.03,0,1.6.67,1.6,1.53,0,1.82-2.34,3.4-6.6,3.61.53-3.59,3.17-5.14,5-5.14m-51.34.8c.27.77.14,2.3-1.71,3.36-1.24.71-2.96,1.1-4.78.96.33-2.09,1.44-3.57,2.71-4.37,2.13-1.34,3.56-.59,3.79.05m-43.63-.03c.18.39.61,1.93-1.7,3.38-1.21.76-2.94,1.1-4.75.96.32-2.06,1.39-3.51,2.62-4.33,1.92-1.28,3.48-.79,3.83-.01m29.38-1.23c.08-2.15.03-3.61.03-3.61h-6.01s.43,4.63-1,9.07c-.55,1.72-1.39,3.4-2.63,4.78-.1.11-.72.79-1.29.78-.34,0-.63-.27-.87-1.01-.25-.87-2.48-10.39-3.72-13.62h-6.07c.7,1.48,1.97,5.44,1.79,6.12-1.23,5.25-7.42,9.32-12.77,9.33-1.54,0-2.98-.52-3.63-2.05,8.38.44,12.65-4.11,12.61-8.04-.02-2-1.48-5.71-7.3-5.72-5.23,0-9.41,3.15-10.98,8.24-3.13-2.35-2.84-6.98-3.01-7.88h-6.47c.34,2.65.37,4.52,0,7.07-.91,6.24-3.17,7.98-4.54,7.98-1.2,0-1.58-1.08-1.2-4.01l1.41-11.04h-6.21l-1.12,8.6c-.64,4.96-2.91,6.45-4.11,6.45-1.37,0-1.67-1.49-1.28-4.26l1.02-6.49c.54-3.38-1.49-4.62-1.94-4.86-1.64-.87-6.33-1.13-11.47,3.1l3.03,3.08c.98-.57,1.54-.86,2.43-1.11.41-.11,1.47-.21,1.4,1.02l-1.07,6.71c-.69,4.92,1.11,8.35,5.57,8.35,0,0,4.12.17,6.68-3.68.6,2.15,2.44,3.68,5.78,3.68,4.93,0,9.76-2.55,11.6-9.88.79.85,1.77,1.51,2.85,1.93.14,4.85,3.92,7.96,9.02,7.96,7.72,0,13.45-5.26,15.36-8.17.86,3.64,2.59,8.34,6.05,8.34,5.11,0,9.2-5.71,10.64-10.01.78.82,1.74,1.46,2.79,1.88.14,4.85,3.92,7.96,9.02,7.96,6.8,0,11.45-4,12.37-4.86l-.54,4.44h5.96l.86-6.88c.43-3.33,1.95-5.59,3.66-6.99,2.14-1.74,5.02-2.08,5.96-1.16-.09,2.11.08,4.8,5.85,6.99,2.63,1,2.43,2.12,1.99,2.68-.76.96-3.6,1.96-8.74-.88l-2.35,3.67c5.53,3.83,11.25,3.47,14.25,1.89,2.96-1.56,3.23-4.24,2.71-6.58.81.12,2.63.34,2.63.34.47,4.63,3.57,7.27,9.14,7.27,3.07,0,8.1-.8,13.48-5.39l.11-.09-3.02-3.07s-4.31,3.52-9.2,3.52c-2.52,0-3.68-.87-4.15-1.81,8.4-.48,12.41-4.18,12.41-8.35,0-2.76-2.45-5.7-7.27-5.7-8.75,0-11.01,7.58-11.28,9.74-5.45-.28-8.38-1.94-9.15-2.45-1.12-.74-.93-1.84-.39-2.2,1.14-.75,4.15,0,5.36.62l3.32-3.37c-1.98-1.35-5.06-2.34-8.04-2.34-2.09,0-4.01.47-5.73,1.66-1.49-1.09-2.94-1.38-4.44-1.29-3.39.19-5.84,2.95-5.8,2.99l.44-2.99h-5.96l-.89,6.58c-1.09,4.98-7.62,8.87-12.63,8.87-1.54,0-2.98-.51-3.63-2.05,8.38.44,12.65-4.11,12.61-8.04-.02-2-1.48-5.71-7.3-5.72-5.23,0-9.41,3.15-10.98,8.24,0,0-2.17-.72-2.04-4.28"/>
    </g>
  </g>
</svg>