<?xml version="1.0" encoding="UTF-8"?>
<svg id="_레이어_2" data-name="레이어 2" xmlns="http://www.w3.org/2000/svg" viewBox="0 0 308 100">
  <defs>
    <style>
      .cls-1 {
        fill: none;
      }

      .cls-2 {
        fill: #231815;
      }
    </style>
  </defs>
  <g id="_레이어_1-2" data-name="레이어 1">
    <g>
      <rect class="cls-1" width="308" height="100"/>
      <g>
        <polygon class="cls-2" points="93.25 59.96 90.74 59.96 90.74 41.36 93.25 41.36 93.25 58 106.92 58 106.92 59.92 93.55 59.92 93.25 59.96"/>
        <polygon class="cls-2" points="203.59 59.72 201.08 59.72 201.08 41.12 203.59 41.12 203.59 57.78 217.26 57.78 217.26 59.69 203.89 59.69 203.59 59.72"/>
        <polygon class="cls-2" points="105.31 41.59 107.72 41.59 104.34 48.03 102.86 48.03 105.31 41.59"/>
        <path class="cls-2" d="m121.72,59.48c5.27,0,9.54-4.15,9.54-9.27s-4.27-9.27-9.54-9.27-9.54,4.15-9.54,9.27,4.27,9.27,9.54,9.27m-12.29-9.27c0-6.4,5.5-11.59,12.29-11.59s12.29,5.19,12.29,11.59-5.5,11.59-12.29,11.59-12.29-5.19-12.29-11.59"/>
        <path class="cls-2" d="m150.3,49.59c1.5-.6,2.51-1.69,2.51-2.95,0-1.45-1.35-2.7-3.27-3.2,0,0-1.17-.23-1.75-.23h-7.62l-.24.03v6.64l.36.03h7.5c.76.03,2.52-.32,2.52-.32m.56,2.4l5.18,7.67-2.77.03-5.49-7.7h-7.46l-.4-.06v7.53h-2.41v-18.34h10.28c5.56,0,6.98,2.47,6.98,2.47.56.86.88,1.88.88,2.98,0,2.69-1.94,4.91-4.49,5.37l-.3.05Z"/>
        <polygon class="cls-2" points="168.17 38.2 166.13 40.47 172.6 38.26 168.17 38.2"/>
        <polygon class="cls-2" points="162.29 57.68 175.94 57.68 175.94 59.53 159.58 59.53 159.58 41.21 175.94 41.21 175.94 43.05 162.09 43.05 162.13 43.48 162.13 49.3 172.36 49.3 172.36 51.21 162.26 51.21 162.13 51.24 162.13 57.62 162.29 57.68"/>
        <path class="cls-2" d="m192.46,52.45l-4.41-9.01-.15.33-4.39,8.97h.17s8.89,0,8.89,0l-.11-.28Zm-15.09,7.13l8.95-18.28h3.48l9.02,18.43-2.78.02-2.33-4.76-.11-.15h-11l-.1-.02-2.34,4.78-2.79-.02Z"/>
      </g>
    </g>
  </g>
</svg>