<?xml version="1.0" encoding="UTF-8"?>
<svg id="_레이어_2" data-name="레이어 2" xmlns="http://www.w3.org/2000/svg" viewBox="0 0 308 100">
  <defs>
    <style>
      .cls-1 {
        fill: none;
      }

      .cls-2 {
        fill: #cfdb00;
      }

      .cls-3 {
        fill: #5a5537;
      }
    </style>
  </defs>
  <g id="_레이어_1-2" data-name="레이어 1">
    <g>
      <rect class="cls-1" width="308" height="100"/>
      <g>
        <path class="cls-3" d="m91.79,63.79c-8.43,0-13.09-5.55-13.09-13.75s5.04-13.82,13.25-13.82c3.27,0,6.01.77,8.12,1.96l-.89,5.74c-2-1.27-4.35-2.27-7.09-2.27-4.58,0-6.81,3.39-6.81,8.36s2.31,8.51,6.89,8.51c1.46,0,2.5-.27,3.58-.85v-4.74h-4.62l-.77-4.89h11.13v12.94c-2.77,1.81-6.05,2.81-9.71,2.81"/>
        <path class="cls-3" d="m113.93,63.59c-3.58,0-6.59-.77-9.28-2l.96-5.62c2.73,1.46,5.78,2.46,8.43,2.46,1.89,0,3.2-.81,3.2-2.39s-.77-2.2-4.51-3.62c-5.31-2.04-7.62-3.77-7.62-8.16,0-5.12,4-7.86,9.09-7.86,3.47,0,5.7.65,8.01,1.77l-1,5.55c-2.39-1.39-4.89-2.16-6.93-2.16s-2.96.85-2.96,2.08c0,1.35.73,2,4.04,3.27,5.78,2.12,8.09,4.12,8.09,8.36,0,5.78-4.24,8.32-9.51,8.32"/>
        <path class="cls-3" d="m141.74,63.59c-3.58,0-6.58-.77-9.28-2l.96-5.62c2.74,1.47,5.78,2.46,8.43,2.46,1.89,0,3.2-.81,3.2-2.39s-.77-2.2-4.51-3.62c-5.31-2.04-7.62-3.77-7.62-8.16,0-5.12,4.01-7.86,9.09-7.86,3.46,0,5.7.65,8.01,1.77l-1,5.55c-2.39-1.39-4.89-2.16-6.93-2.16s-2.96.85-2.96,2.08c0,1.35.73,2,4.04,3.27,5.78,2.12,8.09,4.12,8.09,8.36,0,5.78-4.23,8.32-9.51,8.32"/>
        <polygon class="cls-3" points="170.25 63.29 170.25 52.43 161.05 52.43 161.05 63.29 154.46 63.29 154.46 36.72 161.05 36.72 161.05 46.65 170.25 46.65 170.25 36.72 176.84 36.72 176.84 63.29 170.25 63.29"/>
        <path class="cls-3" d="m218.59,54.47h-1.69v8.82h-6.59v-26.57h8.55c6.47,0,10.44,2.89,10.44,8.67s-4.27,9.09-10.71,9.09m-.11-12.78h-1.66v7.82h1.54c2.93,0,4.54-1.27,4.54-4.01,0-2.54-1.5-3.81-4.43-3.81"/>
        <path class="cls-2" d="m188.15,37.84c.47-.57,1-.95,1.35-1.1.12-.05.24-.08.32-.09v-.44c-.07,0-.21.03-.3.05h0c-2.99.69-9.45,3.55-9.45,13.74s6.46,13.06,9.45,13.74c.09.02.22.04.3.05v-.45c-.08,0-.2-.04-.32-.09-.34-.15-.88-.53-1.35-1.1-1.88-2.26-2.42-6.51-2.37-12.16.05-5.65.49-9.9,2.37-12.16"/>
        <path class="cls-2" d="m198.8,37.84c-.47-.57-1.01-.95-1.35-1.1-.12-.05-.24-.08-.32-.09v-.44c.07,0,.21.03.3.05h0c2.99.69,9.45,3.55,9.45,13.74s-6.46,13.06-9.45,13.74c-.09.02-.23.04-.3.05v-.45c.08,0,.2-.04.32-.09.34-.15.88-.53,1.35-1.1,1.88-2.26,2.42-6.51,2.37-12.16-.05-5.65-.49-9.9-2.37-12.16"/>
      </g>
    </g>
  </g>
</svg>