<svg xmlns="http://www.w3.org/2000/svg" viewBox="0 0 149.7 76.54"><defs><style>.cls-1{fill:#fff;}</style></defs><g id="레이어_2" data-name="레이어 2"><g id="Layer_1" data-name="Layer 1"><path class="cls-1" d="M24.31,28.45S34.72,0,74.54,0s52.95,30.09,52.95,30.09L125,34.48S106.86,5.36,72.88,5.36,24.31,28.45,24.31,28.45Z"/><path class="cls-1" d="M124.57,6.32s-14.8,40.84-55.23,40.84S22.21,32.44,22.21,32.44l3.14-6.18S35.57,42.54,71,42.54,124.57,6.32,124.57,6.32Z"/><path class="cls-1" d="M42.87,22.84a1.92,1.92,0,0,1-1.67,2.09,1.92,1.92,0,0,1-1.67-2.09,1.92,1.92,0,0,1,1.67-2.1A1.92,1.92,0,0,1,42.87,22.84Z"/><path class="cls-1" d="M45.87,20.35c-.55.6-.61.59-.61.71-.34.39-.81.76-.4.32l-.27.28-.13.13-.07.07-.15.12a1.13,1.13,0,0,1-.42.11A1,1,0,0,1,43.4,22a.58.58,0,0,1-.3-.25.76.76,0,0,1-.07-.27v.05s0,.06,0,.09l0,.1.06.1a.82.82,0,0,0,.42.26,1.14,1.14,0,0,0,.55,0,.66.66,0,0,0,.24-.11l.09-.07,0,0,0,0a.5.5,0,0,1-.13.11,1,1,0,0,1-.48.14,1,1,0,0,1-.58-.16.57.57,0,0,1-.2-.21.61.61,0,0,1,0-.12.17.17,0,0,1,0-.07v0h0a3.71,3.71,0,0,0,0-.83v.9a.44.44,0,0,0,0,.1.36.36,0,0,0,0,.09.77.77,0,0,0,.38.3,1.16,1.16,0,0,0,.53.07,1,1,0,0,0,.49-.19,1,1,0,0,1-.16.12.54.54,0,0,0,.16-.1l.07,0v0h0l.13-.13.28-.28.47-.44s0,0-.19.23c1.45-1.4.27-.44,1.45-1.62l-.31.29C46.07,20.23,45.78,20.46,45.87,20.35Z"/><path class="cls-1" d="M46.68,19.64l0,0Z"/><path class="cls-1" d="M97.64,17.26a6.93,6.93,0,0,0-1.93-.63c.27,0-.68-.15-.26-.1a3.06,3.06,0,0,0-.69-.07l.42.05a4.08,4.08,0,0,0-.56,0l-.29,0-.42,0a8.81,8.81,0,0,0-.91.08c.53,0,.91,0,1.24,0a8.26,8.26,0,0,1,.88,0l.51.08a7.24,7.24,0,0,1,1.63.42Z"/><path class="cls-1" d="M46.84,27.15s0-.12,0-.18A.92.92,0,0,0,46.84,27.15Z"/><path class="cls-1" d="M46.94,31.32h0l0,.09Z"/><path class="cls-1" d="M94.7,19.9h0Z"/><path class="cls-1" d="M94.7,19.9Z"/><path class="cls-1" d="M94.58,19.62a.12.12,0,0,0-.08,0h.08Z"/><path class="cls-1" d="M99.57,20.36l0-.14Z"/><path class="cls-1" d="M99.57,20.36c0,.06,0,.12,0,.17s0,.14,0,.2,0-.17,0-.26A.43.43,0,0,1,99.57,20.36Z"/><path class="cls-1" d="M95.19,20l.06,0S95.18,20,95.19,20Z"/><path class="cls-1" d="M47.22,24.22v0h0Z"/><path class="cls-1" d="M47,23.1c0-.13,0-.27,0-.4C47,22.85,47,23,47,23.1Z"/><path class="cls-1" d="M47,22.37c0-.07-.15-1.83-.11-.35a8.44,8.44,0,0,1-.12-1.34c0,.28-.06-.14-.09-.05a5.64,5.64,0,0,1,.07.74c0,.15-.08-.34-.09-.72,0,.47-.1-.59-.1.07.1,1.43.15,2.44.28,3.44,0-.81-.07-1.73-.06-2.39l.09.28c0,.75,0,1.22,0,2,0-.56,0-1.11,0-1.67,0-.78.07-.26.1.36A2.56,2.56,0,0,1,47,22.37Z"/><path class="cls-1" d="M47.36,24.49Z"/><path class="cls-1" d="M98.57,25.6h0l-.08.08a1,1,0,0,1-.19.13s0,0,.12-.07A.61.61,0,0,0,98.57,25.6Z"/><polygon class="cls-1" points="85.36 24.98 85.35 24.98 85.35 24.98 85.36 24.98"/><path class="cls-1" d="M47.23,23.74c0-.23,0-.81-.09-.7S47.17,24.08,47.23,23.74Z"/><path class="cls-1" d="M47.23,22.78s0,.06,0,.09Z"/><path class="cls-1" d="M47.28,23.05s0,0,0-.18l0,.62Z"/><path class="cls-1" d="M52.32,33.35c.16-.08.32-.18.45-.26-.21.12-.49.25-.8.4A1.33,1.33,0,0,0,52.32,33.35Z"/><path class="cls-1" d="M88.07,23.6a6.23,6.23,0,0,1-.56.35A3.11,3.11,0,0,0,88.07,23.6Z"/><path class="cls-1" d="M90.49,21.88c-.17.1-.44.24-.36.15C89.9,22.19,89.63,22.44,90.49,21.88Z"/><path class="cls-1" d="M96.18,24l-.1-.41c0,.17,0,.35.06.52C96.14,23.94,96.24,24.21,96.18,24Z"/><path class="cls-1" d="M96.14,24.09a.46.46,0,0,0,0,.1Z"/><path class="cls-1" d="M99.17,24.11a7.61,7.61,0,0,1-.25.72c.11-.26.2-.52.29-.78Z"/><path class="cls-1" d="M99.83,20.6v-.14a1.94,1.94,0,0,0-.07-.33,2.07,2.07,0,0,0-.1-.33l0,.14A3.92,3.92,0,0,1,99.83,20.6Z"/><path class="cls-1" d="M47.82,12.3a1.11,1.11,0,0,1,.24-.05,1.73,1.73,0,0,0-.42.1l-.1,0-.09,0-.15.08a2.22,2.22,0,0,1,.31-.14A1.71,1.71,0,0,1,47.82,12.3Z"/><path class="cls-1" d="M51.09,25.76h0Z"/><path class="cls-1" d="M51.13,25.83l0-.06C51.12,25.84,51.16,26.1,51.13,25.83Z"/><path class="cls-1" d="M83.77,26.38l-.48.35A4.66,4.66,0,0,0,83.77,26.38Z"/><path class="cls-1" d="M70.68,24.25l.07-.27A.79.79,0,0,0,70.68,24.25Z"/><path class="cls-1" d="M83.86,26.31l0,0-.06.05Z"/><path class="cls-1" d="M67.25,24.52c-.14.06-.47.23-.33.13C66.68,24.81,66.73,24.84,67.25,24.52Z"/><path class="cls-1" d="M68.76,24l-.43.25Z"/><path class="cls-1" d="M99.88,20.79V21l0,.2a5.29,5.29,0,0,0-.28-1.49c-.19-.45-.17-.36-.11-.16a2,2,0,0,1,.07.31c0,.09,0,.15,0,.12l.14.3a7.93,7.93,0,0,1,.08,1,2,2,0,0,1,0,.6,2.87,2.87,0,0,0,0-.77,2.79,2.79,0,0,1-.07-.34,6.92,6.92,0,0,1,0,.91c0,.1,0,.19-.08.29a10.09,10.09,0,0,1-.2,1.17c-.08.34-.16.63-.21.89.14-.34.13-.58.25-.89a4.71,4.71,0,0,1-.22,1,6.61,6.61,0,0,1-.24.71c0,.13-.09.25-.14.38l0,.09,0,.05v0h0l0,.05a.9.9,0,0,1-.33.35,1.37,1.37,0,0,1-.53.21,3.47,3.47,0,0,1-.39,0,1.68,1.68,0,0,1-.57-.16,1,1,0,0,1-.32-.24c0-.05,0,0,.12.1l.2.12a1.65,1.65,0,0,0,.41.13,1.57,1.57,0,0,0,.53,0,1.44,1.44,0,0,0,.47-.17c-.1.05,0,0,.11-.1a1.79,1.79,0,0,0,.14-.15.42.42,0,0,0,0-.1s0,0,0,.05a.89.89,0,0,1-.31.26,1.41,1.41,0,0,1-.91.15,1.18,1.18,0,0,1-.6-.26.76.76,0,0,1-.22-.28.83.83,0,0,1,0-.15v-.07s0,0,0,0l0,.13a.83.83,0,0,0,.07.13.81.81,0,0,0,.12.14,1.24,1.24,0,0,0,.75.3,1.63,1.63,0,0,0,.43-.05,1,1,0,0,0,.38-.18.67.67,0,0,0,.22-.27l0,0h0v-.07a1.88,1.88,0,0,0,.08-.38c.21-.55.46-1.33.59-1.78v0a6.88,6.88,0,0,0,.17-1,3.41,3.41,0,0,1,.09-.67c0-.31-.07-1.18-.07-.3a5.19,5.19,0,0,0-.25-1.44s.06,0,.06-.07l0-.25c0-.07,0-.1,0,0a2.63,2.63,0,0,1,.26.61,3.61,3.61,0,0,0-.13-.41l-.08-.2a2.67,2.67,0,0,0-.12-.24A1.49,1.49,0,0,0,99,18.9a2.32,2.32,0,0,0-.21-.29l0,0a.91.91,0,0,0,.1.1c.11.17.17.28.16.31s.12.17.13.16,0-.09-.06-.21a3.6,3.6,0,0,0-.74-1l-.23-.13-.25-.21-.26-.18-.12-.08-.14-.08-.27-.15a5.63,5.63,0,0,0-1.5-.48c-.26,0-.51-.07-.78-.08a6.77,6.77,0,0,0-.78,0,10,10,0,0,0-1.48.18q-.42.06-.84.15a8.69,8.69,0,0,0-.87.17c-.28.07-.47.11-.25,0a2.75,2.75,0,0,1,.8-.22c.09,0,0,0,0,0s.19-.12-.47,0l.41-.09.28-.06.55-.11-.7.12c.5-.11,1.17-.23,1.72-.29s1-.06,1-.08-.44,0-.74,0-.63,0-.93,0c.45-.07,1.44-.14.68-.11l-.45.05-.6.1a1.49,1.49,0,0,0-.28.07l.5-.06c-.59.1-1.34.29-2,.44.35-.11.41-.14.4-.15s-.09,0,0-.05c-.64.2-.59.24-.68.29-.46.12-.84.23-1.19.34s-.67.21-1,.33a14.33,14.33,0,0,0-2.13.95l.42-.22a2.28,2.28,0,0,1,.5-.21c-.63.34-1,.54-1.46.72a11.11,11.11,0,0,0-1.3.68l.35-.12-1.47.9c-.11,0-1.23.69-.45.17a10.72,10.72,0,0,0-1.58,1.11c-.36.3-.75.62-1.68,1.28l1.65-1.15c-.7.53-.08.1-.12.19-.49.27-1.83,1.3-.94.57-.57.4-1.65,1.21-1.91,1.45V24l.91-.7c-.43.28.26-.25.31-.31l-1.22.92v0c0-.25,0-.47,0-.61l-.06-.64,0-.24s0,0,.1.39c0-.15-.07-.49-.12-.77s-.1-.51-.12-.46a6.11,6.11,0,0,0-1-2.36c0-.07-.09-.15-.14-.21s-.09-.09-.09-.07l-.11-.13-.13-.13c-.08-.08-.19-.16-.28-.24a3.45,3.45,0,0,0-.73-.44,3.74,3.74,0,0,0-.93-.28,4.53,4.53,0,0,0-.53-.05h-.3a9.18,9.18,0,0,0-2.81-.07q-.73.09-1.41.24l-.68.17-.65.19a22.18,22.18,0,0,0-2.45.92c-.79.34-1.54.7-2.27,1.08.55-.27,1.05-.49,1.64-.75-.41.23-.17.12.15,0s.72-.31.61-.23l-1.31.61c-.11.08.4-.13.37-.07.73-.32,1.13-.52,1.54-.72a10.22,10.22,0,0,1,1.61-.64s-.14.08-.14.1a4.2,4.2,0,0,0,.66-.19l-.26.09a8.53,8.53,0,0,1,.93-.26,4,4,0,0,1,.51-.1l.39-.07.61-.14,0,.06a9.3,9.3,0,0,1,1.47-.13,7.87,7.87,0,0,1,1.49.13h.18a3.25,3.25,0,0,1,1,.13,3.77,3.77,0,0,1,.62.23l.36.22a1.55,1.55,0,0,1,.24.19,2.19,2.19,0,0,1,.23.21,2.62,2.62,0,0,1,.26.29A4.64,4.64,0,0,1,77,20.16a4.46,4.46,0,0,0-.6-.91c.13.18.2.32.28.43a2.84,2.84,0,0,0,.18.31,3.37,3.37,0,0,1,.27.6s0,0,0,0l-.06-.1c0-.06-.06-.14-.11-.25a6.55,6.55,0,0,1,.44,1.21c.07.21.1.41.15.61s.08.41.11.62c.1.58,0-.12.06-.22a4,4,0,0,1,.09.73,3.34,3.34,0,0,1,0,.61c0-.15-.06-.72-.08-.36l.08.42,0,.18,0,0a.06.06,0,0,0,0,0l0-.23c0-.12,0-.25,0-.37s0-.47-.07-.6c0,.28,0,.51,0,.72s0,.35,0,.51l-.15.1v-.44a4.21,4.21,0,0,0-.08-.8,2.45,2.45,0,0,1,0,.36v.43a2.24,2.24,0,0,1-.07-.48c0-.28,0-.65-.08-1,.1.5.1.3.08,0a3.46,3.46,0,0,0,0-.37c0-.09,0-.12,0,0a5.52,5.52,0,0,0-.7-2A4.21,4.21,0,0,0,76,19a3.23,3.23,0,0,0-1.09-.72,3.12,3.12,0,0,0-.73-.22,2.73,2.73,0,0,0-.41,0h-.33a8.81,8.81,0,0,0-2.8-.07,12.21,12.21,0,0,0-2.34.56l.21-.06c-.31.1-.61.21-.91.33s-.28.07-.33.07a1.6,1.6,0,0,0-.52.18,15.48,15.48,0,0,1,2.28-.8,2.37,2.37,0,0,1-.46.09,2,2,0,0,1,.44-.14c.2-.07.44-.12.55-.15s.1,0-.17,0-1.1.33-2,.63a17.81,17.81,0,0,0-2.34,1c-1.14.52.48-.29-.09,0l-.33.2c-.45.21-.6.27-.61.24A25.76,25.76,0,0,0,60.7,22c1.16-.74-.35.28.82-.42-.34.23-1.09.69-1.79,1.15.67-.45-1,.51.54-.43a11.17,11.17,0,0,0-1.4.9c.31-.24,1-.75,1-.71-.47.35-1.28.86-2,1.34s-1.35.91-1.51,1.06c-.64.54-1.63,1.35-2.38,2s-1.64,1.28-2.49,2v0l0,0,0,0,0-.41,0,0h0s0-.07,0-.1l.05-.18c-.06-.56-.15-1.59-.23-2.44,0,0,0,.77,0,.41,0,.42.08.78.1.62a5,5,0,0,1,0,.79l-.18-1.63c0-.13,0-.17,0-.18L51,25.64c0-.42,0-.54,0-.47,0-.44-.1-.73-.15-1l0-.06c0,.07,0,.16,0,.25l0-.26,0,0c.09.69.18,1.49.23,1.27,0-.4-.11-.86-.18-1.34l.12-.14,0,0,0,0L51,23.9v0l.1-.07a1.08,1.08,0,0,0,.22-.19l0,0a5.11,5.11,0,0,1,.06.59L51.33,24l.19.93-.13-1.3c.11-.09,0-.06,0-.1a2.3,2.3,0,0,1,.44-.3,2.94,2.94,0,0,1,.53-.48l0,0a.11.11,0,0,1,0,.05s0,0,0-.06l0,0s0,0,0,0l0,0a1.34,1.34,0,0,0,.07.18s.1.1.13.13,0,.07.13.18h0a3.39,3.39,0,0,1,.28.21l-.08,0c.16.15.52.3.58.39s-.11,0-.14,0a1.27,1.27,0,0,0-.27-.16.64.64,0,0,1-.31-.19s-.06-.08-.14-.14-.16-.12-.15-.17c.1.13.31.24.29.21a1.93,1.93,0,0,1-.32-.32c0,.08,0,.08-.1,0a3.78,3.78,0,0,0,.77.69v0c.28.13-.07,0,.13.13l.12,0h0l.18.05c-.11-.05-.08,0-.19-.08s0,0,.08,0,.34.17.15.11l.13,0,.25-.15h0l-.29.19-.08,0,.07,0,.3-.19.22.07-.09-.16.23-.15h.08l0,0s0,0,.06,0v0a.07.07,0,0,1,0-.06h0c.06-.08.14-.24.22-.38s0-.13-.08-.22a5.78,5.78,0,0,1,.54-.59s0,0,0,0,.16-.16.19-.14.18-.26.11-.25l0,0a1.85,1.85,0,0,0,.46-.33l.06,0,.33-.28v0l.11-.13c-.06.07-.19.16-.19.12s.24-.2.33-.33c.05,0,.11,0,.1.06h0a.77.77,0,0,1-.16.24c.3-.22.21-.18.46-.37.06,0-.19.21-.11.17l-.24.19.05-.06c-.13.15-.22.18-.3.3s.09-.11,0-.05a.3.3,0,0,0,.09-.19c-.19.15,0,.12-.19.26l-.14.08c-.06.06,0,0,0,0a1.09,1.09,0,0,1-.18.15s.07,0,.08,0a2.71,2.71,0,0,1-.35.24c.08,0,0,.09,0,.14l.24-.15c.22-.24.4-.36.65-.61v0c.48-.33.27-.36.64-.68.06,0,.17-.15.2-.11s-.08.09,0,.07a.61.61,0,0,1,.2-.21c0,.05.11,0,0,.08a1,1,0,0,0,.33-.32c.25-.25.13,0,.4-.28l0,.05.18-.15-.08,0,.18-.18c.11-.12-.08,0-.08,0v.05c-.09.06-.19.18-.23.18.14-.12.08-.11.12-.16l-.12.12h-.07a1.58,1.58,0,0,0-.29.27c.07,0,.07-.09.13-.12s-.18.22-.32.35-.07,0-.06,0,0,0,.05,0,0-.08-.12,0A.77.77,0,0,0,57.8,20a2.69,2.69,0,0,1,.28-.22h0c.08-.06.21-.21.25-.2s.17-.15,0-.06l.2-.18c0,.06.23-.09.05.11l.14-.12c0,.08.08,0,.2-.09v0a1.26,1.26,0,0,0,.33-.22l.22-.32.09-.08c.06,0,.19-.13.17-.07s0,0-.08.08,0,0,0,0,0,.05.11,0c-.08.06-.1.06-.14.11l.09-.05c-.12.09-.25.25-.23.27s.11-.09.18-.13-.12.13,0,.08.21-.21,0-.11a2,2,0,0,1,.21-.18c-.07.08,0,.05,0,.08s0-.09,0-.1a3.2,3.2,0,0,0,.61-.37s-.13.12-.13.09.27-.15.41-.27h-.08l.21-.18s.22-.1.11,0c.21-.13.2-.19.29-.29l.08-.09.16-.12.62-.34h-.13l.18-.13H62l0,0h-.79l-.19,0c-.13,0-.34,0-.15,0h-.22v0h0a.28.28,0,0,0,0-.1v-.14s0,0,0,.06,0-.22,0-.2v-.36l0-.07-.08-.13a.06.06,0,0,1,0,0s0,0,0,0a1.4,1.4,0,0,0-.5-.46,2,2,0,0,0-.76-.26,2.7,2.7,0,0,0-.75,0,4.41,4.41,0,0,0-.65.11,2.2,2.2,0,0,1,.37,0c-.09,0,0,0,0,0s.17,0,.14,0a1,1,0,0,1-.29.05s.09,0,.08,0a1.65,1.65,0,0,0,.34-.07,1.22,1.22,0,0,1,.37,0l0,0h.09l.21,0,.1,0a.54.54,0,0,0,.22,0l0,0,.16,0,.18.07a1.85,1.85,0,0,1,.29.17h0a.94.94,0,0,1,.19.15s.07.06.08.09a3,3,0,0,1,.18.25l0,0v.07l0-.11-.11-.12a.31.31,0,0,0,.08.12l0,.11a.43.43,0,0,1,0,.12s0,0,0,0l.07.38c0,.1,0,0,0,0s0,.22,0,.23,0-.12,0-.06l0,.07h-.05c0-.06,0-.13,0-.17v.17H60.3a.62.62,0,0,0,0-.15c0,.09,0,0,0,.13s-.05-.13,0-.25c0,.17,0-.14.08-.06a1.61,1.61,0,0,0,0-.33l0-.08h0a1.58,1.58,0,0,0-.32-.31,1.27,1.27,0,0,0-.53-.33,1.46,1.46,0,0,0-.59-.09h0l-.19,0c-.11,0,0,0-.18,0,.06-.05.3,0,.49,0-.08,0-.1,0-.09,0H59c.09,0,.2,0,.1,0a1.86,1.86,0,0,1-.43,0,1.7,1.7,0,0,0-.5.06c-.25,0,.1-.05,0,0l-.07,0c-.1,0-.13,0-.14,0a2.4,2.4,0,0,0-.7.23c.24-.1-.07,0,.18,0l-.37.14c.13-.06-.22,0,.1-.08-.07,0-.15.07-.29.11.06,0,.21-.11.19-.11-.19.11-.69.24-.74.3s-.33.22-.47.33a4.55,4.55,0,0,0-.55.26l0,0c-.11.05-.26.15-.42.24h-.05l-.45.28s.16-.08.1,0,.14-.09.1-.09a.61.61,0,0,1,.18-.05l-.29.19h0v0c-.08,0-.11.05-.11,0a2.64,2.64,0,0,1-.36.28.56.56,0,0,1,.21-.18l-.2.12c.07-.08.42-.28.32-.28a7.37,7.37,0,0,0-.65.51,3.76,3.76,0,0,0-.42.26s-.09,0-.07,0l.05,0a3.88,3.88,0,0,0-.61.46l-.13,0c-.33.22.11,0-.21.24-.11,0-.41.27-.45.26s-.08.06-.07.08.17-.13.12-.06a2,2,0,0,1-.25.18s0-.07,0,0a5.07,5.07,0,0,0-.73.64.89.89,0,0,1,.17-.15s0,0-.06.08.09-.09.21-.16l-.14.16h0l-.18.13c0-.11,0-.22,0-.33,0,.11,0,.22,0,.33l-.11.09v2.71c0-.14,0-.28,0-.42s0,0,0,0-.07-.25,0-.4l0,0s0-.1,0-.09a1.17,1.17,0,0,1,0,.26.6.6,0,0,1,0-.21h0s0,0,0,0h0c0-.08,0-.16,0-.24l0,.07,0-.08s0,0,0,0a0,0,0,0,1,0,0,1.85,1.85,0,0,0,0-.23h0V20.9s0,.23.06.18a.81.81,0,0,0,0-.25,1.07,1.07,0,0,1,0-.29s0,0,0-.09v0h-.07a.41.41,0,0,1,0,.11c-.06-.47-.16-1-.22-1.64,0-.12,0-.41,0-.24l0,.26a28.21,28.21,0,0,0-.72-3.7l-.06-.57a5.12,5.12,0,0,0-.22-.76c0-.08,0,0,0,0s0,.09-.06,0-.06-.12-.11-.24a3.48,3.48,0,0,0-.24-.53.88.88,0,0,0-.12-.24.83.83,0,0,0-.13-.16l-.12-.09-.08,0-.13,0h-.21l-.19,0a1.46,1.46,0,0,0-.28.14,2,2,0,0,0-.42.33c-.47.45-.76.91-.82.93-.22.33-.31.48-.29.53.1-.14.25-.38.36-.53s.17-.22.07,0c-.39.6-.59.88-.86,1.36,0,0,.16-.39.06-.2-.32.59-.76,1.45-1.15,2.31a20.3,20.3,0,0,0-.91,2.3,10.8,10.8,0,0,1,.43-1.07,2.32,2.32,0,0,1-.15.46c.1-.06.22-.61.55-1.2-.13.34-.26.68-.38,1h0c-.45,1-.74,1.74-.74,1.74v.8c0,.27.47.38.69.17l2.45-2.39a2.54,2.54,0,0,1,0,.26c0-.51.08.22.07-.34l.07-.07.09.34h0l-.12.13.12-.12c0,.08,0,.17,0,.25l-.16.18.16-.11,0,.69s.1.76.11.25c0-.1,0-.29,0-.45.09.11.1,1.36.17,1.06A11.38,11.38,0,0,0,46.94,20v-.21l.31-.28A80.39,80.39,0,0,1,47.31,29v.18a11,11,0,0,1,0-1.15,10.92,10.92,0,0,0,0-1.28s0,.13,0,0c0-1.07-.1-1.49,0-2.35l0,.11c0-.07,0-.58-.09-.48,0,.72,0,.86,0,1.5a10.92,10.92,0,0,1-.07-1.26l-.07,0c-.08-.54,0-1.09-.06-1.63l0,.63a.34.34,0,0,1,0-.11,4.54,4.54,0,0,0,0,.6,5.23,5.23,0,0,1-.1,1.59c0,.45-.1-.16-.14-.1,0,.71.09.67.09,1.39,0,.19,0,.11,0,0l0,.48s-.08,1.25-.11.53c0-.11,0-.31,0-.47,0,.5-.09,1.18-.15,1.73,0,.28,0,.53-.06.71s0,.28-.05.26a3.16,3.16,0,0,0,0,.53l0,.28c0,.12,0,.29.08.52a.65.65,0,0,0,.15.26,1.18,1.18,0,0,1,.08.18,2.16,2.16,0,0,1,.09.2,1.87,1.87,0,0,0,.14.3,2,2,0,0,1-.14-.39,2.59,2.59,0,0,1-.09-.4,3.47,3.47,0,0,1-.13-.46,5.93,5.93,0,0,0,.19.81,2.88,2.88,0,0,0-.16-.42c0-.06-.06-.07-.1-.14s0-.3-.06-.44,0-.24,0-.35a4.94,4.94,0,0,1,0-.56c0-.16,0-.3,0-.44s0-.28,0-.43c0,.19,0,.45,0,.63s0,.29.06.16a2.12,2.12,0,0,0,0,.66c0,.1,0,.19,0,.31s0,.25.06.43l0-.13a4,4,0,0,0,.37,1.14s0,0,0,.1a1.82,1.82,0,0,0,.17.28,1.18,1.18,0,0,0,.08.12s0,0,0-.05,0-.09,0,0,0,0,.09.11.12.14.24.26a4.6,4.6,0,0,0,.43.39c.09.06.1.08.08.08s-.17,0,0,.07l-.19-.1-.14-.1-.13-.08-.09-.08-.14-.13-.09-.08c-.09-.09-.1-.09-.11-.09s0,0-.13-.11l-.19-.26c0-.06-.07-.13-.11-.22L47,32l-.06-.16s0,.06,0,.14a1.66,1.66,0,0,0,.12.36l.14.24.08.14.12.14a2.68,2.68,0,0,0,.69.62L48,33.42l-.07-.06s0,0,0-.06.07,0,.13,0,.1,0,.08,0L48,33.25l-.1-.09L47.76,33a2.41,2.41,0,0,0,1,.59l.24.06.22,0c.14,0,.28,0,.41,0a5.72,5.72,0,0,0,.86-.09,8,8,0,0,0,1.19-.33l0,0a6.85,6.85,0,0,0,.71-.39l.93-.49a4.62,4.62,0,0,1-.4.27c-.14.09-.27.18-.45.28s-.65.32-.91.44a5.64,5.64,0,0,0,.86-.35l.17-.1.08,0,.07,0,.27-.18c.36-.24.74-.5,1.37-.86,1.11-.53-1.24.77-1.17.82a5.37,5.37,0,0,1,.89-.46c-.6.33-.77.44-1,.56l-.35.21-.06,0-.08,0-.19.1a5.18,5.18,0,0,1-.5.22c.75-.36-.13,0,0-.06a4.54,4.54,0,0,1-1.14.4,4.43,4.43,0,0,1-1.08.11,3.11,3.11,0,0,1-1.12-.23c-.16,0,.1.12.57.21l.19,0,.19,0H50a6.76,6.76,0,0,0,.72-.07,9.47,9.47,0,0,0,1.06-.32,8.75,8.75,0,0,0,.93-.42l.38-.21.35-.2c.23-.14.44-.26.63-.39,1.1-.65.12,0,.19,0,1-.56.4-.29.71-.48,1.48-.9,1.73-.92,2.81-1.53.83-.57,3-1.8,4.57-2.68-.17.13,0,0,.16,0,.83-.6.54-.38,1.62-1.08l-1,.53a22.62,22.62,0,0,1,2.08-1.23c-1,.47,1.18-.76,1.73-1.12.81-.42,1.55-.93,2-1.13l-.1.06L70,22.93l-.07.15c.27-.14.56-.31.8-.45v.08a3.23,3.23,0,0,1-.57.3,3.08,3.08,0,0,0,.28-.16c-2.18,1.2-.62.48-1.67,1.11.56-.31,1-.52,1.59-.88l.38-.23s0,0,0,.06a1.29,1.29,0,0,1,0,.42c0-.18,0-.35,0-.53l.1-.06c0,.12,0,.25,0,.43l.09,0c0,.3-.11.6-.17.9.07-.11-.05.59-.07.78-.12.5-.18.16-.26,1l0-.07c0,.26,0,.47-.07.7a8.68,8.68,0,0,0,0,.89,2.21,2.21,0,0,1,0-.36,3.7,3.7,0,0,0,.1.9,3.44,3.44,0,0,0,.36,1l.06.12.08.11.15.21c.1.14.22.25.32.37l.31.28a2.75,2.75,0,0,1,.23.2,1.46,1.46,0,0,1-.36-.21c-.13-.1-.25-.2-.29-.19a3.82,3.82,0,0,1-.41-.52l-.13-.2-.1-.18c-.11-.21-.19-.36-.26-.53a2.66,2.66,0,0,1-.19-.6,3.45,3.45,0,0,1-.06-1.09c.08,0,.08-.45.14-.88a3.53,3.53,0,0,1,.2-1c-.06.35-.12.75-.14,1.06s0,.54,0,.47,0-.36.07-.54l.1-.55c.06-.36.12-.7.15-.92-.11.39-.18.26-.19,0,0,.26-.07.57-.14.91,0,.17-.06.35-.1.54l-.06.3c0,.1,0,.2,0,.31a6,6,0,0,0,0,1.34,3.78,3.78,0,0,0,.4,1.33v-.21a2.77,2.77,0,0,0,.24.39l.12.19c0,.07,0,0,0,0s-.1-.09-.09,0a1.3,1.3,0,0,0,.31.41l.12.11a.71.71,0,0,0,.14.1l.27.19.08.06a5,5,0,0,0,1,.48c-.2-.07-.31-.13-.4-.16l-.2-.08-.19-.11-.16-.1a2,2,0,0,1-.2-.16c-.28-.25-.25-.25-.14-.18a2.32,2.32,0,0,0,.42.25,4.46,4.46,0,0,0,1.1.58l.24.08.12,0h-.08l-.12,0h0a6.12,6.12,0,0,0,2,.22l-.28,0h-.44A5.58,5.58,0,0,0,76,30.91l0,0,.24,0,.24-.07.25-.07.25-.08.24-.1.24-.11.22-.11.22-.13c.29-.18.47-.33.67-.47l.5-.39c-1.38.88.57-.49.42-.44.48-.32.75-.33-.22.41a6.84,6.84,0,0,0-.65.44l-.41.31-.26.17a2.07,2.07,0,0,1-.25.15.8.8,0,0,0,.16-.08l.14-.09a1.67,1.67,0,0,0,.24-.15l.32-.22c.19-.15.36-.28.62-.46-.34.28.73-.45.74-.42a3.63,3.63,0,0,1-.89.7c-1,.69-.17,0-.45.24a1.94,1.94,0,0,0-.37.21,4.84,4.84,0,0,1-.7.4l-.21.1-.22.09-.22.08-.24.07-.22.06-.11,0h-.12l-.41.07c-.1,0,.22-.05.38-.08a6.39,6.39,0,0,1-1.68.08c-.58,0-1.05-.17-1.12-.16a6.21,6.21,0,0,0,2.15.17c.48,0-.67.09,0,.07a6.1,6.1,0,0,0,.81-.12l.44-.11.22-.06.22-.08-.1.06.24-.08.25-.1.25-.12.24-.13.24-.15.1-.07.1-.07.38-.26c.52-.36,1-.74,1.48-1.06a11.21,11.21,0,0,1,.81-.94c1.35-.93,2.78-1.89,4.25-2.85,0,0,0,0,0-.09a10.15,10.15,0,0,1,1.21-.71c.39-.34,1.63-1.19,1.34-1.07l.17-.11c.59-.3,1.44-.79,2.93-1.67l.37-.22c.39-.22.78-.44,1.18-.65a13.29,13.29,0,0,1,1.2-.59l-.17.1.46-.21.1-.05.1,0,.17,0h-.07l-.08,0-.09,0h-.05l0,0-.22.08-.2.09c-.25.1-.42.17-.34.1a3.37,3.37,0,0,1,.38-.19l.34-.15a1.58,1.58,0,0,1,.52-.1,1,1,0,0,1,.43.1,1.89,1.89,0,0,1,.45.32c-.06,0,0,.09,0,.13s0,0-.14,0L95.19,20l0,0,0,0L95,19.87l-.13-.05-.06,0h-.3l-.06,0a.43.43,0,0,0-.14,0,.73.73,0,0,1,.32,0,.35.35,0,0,1,.17.06l0,0,0,0,0,0,0,0,.07.06.07.07c0,.05.08.1.13.16l.14.2a4.43,4.43,0,0,1,.36.75c0,.07-.16-.26-.33-.53s-.34-.47-.27-.33a1.4,1.4,0,0,0-.37-.39l-.07-.05H94.6s0,0,0,0h-.2l-.09,0-.12,0-.12.05-.13.05a7.72,7.72,0,0,0-1,.56c-.27.13-.08,0,.11-.1s.38-.22.09-.07c.48-.27.92-.54,1.11-.65L94,19.9l-.18.08-.26.13a2,2,0,0,0-.29.17,7.42,7.42,0,0,1-.78.5l-.84.41c-.47.29.19-.07.23-.07-.57.35-.82.46-1.26.72.14-.07.45-.23.39-.17-.77.4-1.45.86-2.19,1.23.42-.22-.35.35-.64.55l1.43-.81c.86-.55,1.58-1,2.32-1.41l1.14-.64.63-.32a5.57,5.57,0,0,1,.63-.28l0,0,0,0a1.32,1.32,0,0,1,.18-.05h.15s0,0,0,0a.81.81,0,0,1,.25.17l.08.07.07.08.13.15a3.33,3.33,0,0,1,.24.32,4.16,4.16,0,0,1,.41.74,6.69,6.69,0,0,1,.39,1.3s0,.31,0,.56.08.49,0,.45c-.09-.72-.11-.57-.13-.36A5.54,5.54,0,0,1,96.34,25c-.08-.29-.06.42-.15-.37l0,.39v.18a.51.51,0,0,0,0,.2.54.54,0,0,0,.1.2,1.16,1.16,0,0,0,.39.34,1.76,1.76,0,0,0,1,.19A1.5,1.5,0,0,0,98.3,26a.94.94,0,0,0,.22-.12l.17-.15.07-.09,0-.07a.59.59,0,0,1,0-.08v0l0-.07L99,25.2a6.11,6.11,0,0,0,.29-1c.14-.47.21-.74.26-.91a2.34,2.34,0,0,1,.11-.31,1.32,1.32,0,0,0,.12-.31,4.68,4.68,0,0,0,.12-1l0,.3A6.52,6.52,0,0,0,99.88,20.79Z"/><path class="cls-1" d="M83.15,26.55l.41-.31a14.22,14.22,0,0,0-1.4,1s0,0-.18.08c-.7.49-1,.79-.62.57l.22-.18.54-.3c.1-.2,1.61-1.15,2.38-1.72a12.3,12.3,0,0,1-1.67,1.23l.12,0c-.61.42-1.15.73-1.45,1l.71-.5v0c.5-.35,1.11-.82,1.61-1.12A18,18,0,0,1,85.68,25l0,0c.67-.57,2.16-1.34,2.7-1.74.25-.29-1.27.76-1.68,1,.44-.34,1-.63.53-.41,1.07-.75.74-.37,1.6-1l-.54.31c.37-.29,1.08-.71,1.47-1a12.76,12.76,0,0,0-1.52.92l.31-.26c-.51.35-1,.7-1.52,1.06a3.68,3.68,0,0,1-.88.76,2.75,2.75,0,0,1-.77.32C85.05,25.25,84.15,25.88,83.15,26.55Z"/><path class="cls-1" d="M73.1,30.74l-.17,0Z"/><path class="cls-1" d="M50.86,19.3l-.12-.79Z"/><path class="cls-1" d="M68,24.07c-1.28.77-1.81,1.15-3.12,1.92,1.8-.95,2.22-1.41,3.74-2.19Z"/><path class="cls-1" d="M68.49,24c-.87.51-.36.28-1.16.73l.44-.17C67.5,24.61,68.71,23.9,68.49,24Z"/><path class="cls-1" d="M70.7,23.24a5.58,5.58,0,0,1-.09.59l.1-.46Z"/><path class="cls-1" d="M70.22,27.13a4.63,4.63,0,0,0,.1.65v-.07a4.72,4.72,0,0,1-.1-.64Z"/><path class="cls-1" d="M85.64,25.09a10.25,10.25,0,0,0-1.14.85l2.25-1.5C85.86,25,85.62,25.15,85.64,25.09Z"/><path class="cls-1" d="M84.5,25.94l-.32.22Z"/><path class="cls-1" d="M73.29,17.84h.33l-.19,0h-.14Z"/><path class="cls-1" d="M63.18,20.16l-.76.41Z"/><path class="cls-1" d="M57.34,24l-.32.23Z"/><path class="cls-1" d="M61.72,21c.26-.1.44-.2.42-.14-.77.42-.89.49-1,.52a3,3,0,0,0-.69.33c-.55.34-1.09.68-1.62,1l.12-.1a1.91,1.91,0,0,0-.23.17C57,24,55.27,25.27,53.64,26.56c-.86.72.56-.34,0,.21.51-.41,1.17-.9,1.71-1.3a11.77,11.77,0,0,0,.95-.74s0,0,.17-.08l.57-.49-.62.41A19.29,19.29,0,0,1,58,23.39c.65-.44,1.3-.84,1.51-.95a9.91,9.91,0,0,0-.92.67c-.2.15-.46.33-1.3.89.09,0,.42-.22.07,0,.94-.68,1.88-1.29,2.84-1.9s2-1.19,3.06-1.81c-.9.44-.62.28-.2,0s1-.56.71-.45l-1,.53.07-.06C62.48,20.59,62.09,20.8,61.72,21Z"/><path class="cls-1" d="M51.43,24.85a4.83,4.83,0,0,0,.08,1.06l.17.07c-.1-.75-.18-.7-.18-.29C51.4,25,51.56,25.32,51.43,24.85Z"/><polygon class="cls-1" points="52.09 27.9 51.92 28.07 52.4 27.68 52.09 27.9"/><path class="cls-1" d="M51.92,28.07l-.48.39a.75.75,0,0,0,.19-.09Z"/><path class="cls-1" d="M51.73,26.73c0,.16,0,.39.05.58A2.51,2.51,0,0,0,51.73,26.73Z"/><path class="cls-1" d="M50.59,20.38c0-.07,0-.12,0-.1,0-.13,0-.13,0-.16s0-.17,0-.07l0-.25v.14c0-.05,0-.23,0-.29v.25a1.75,1.75,0,0,1,0,.23s0,0,0-.06c0,.33.08.1.09.37Z"/><path class="cls-1" d="M59.14,19.2l.18-.18s.08-.05,0,0,.09-.08.06-.07l0,0c.07-.11,0-.07.14-.23a.43.43,0,0,0-.21.18l0,0-.11.17Z"/><path class="cls-1" d="M54.43,17v0S54.48,17,54.43,17Z"/><path class="cls-1" d="M55.28,22.5l-.05.08A.35.35,0,0,0,55.28,22.5Z"/><path class="cls-1" d="M52.61,22.92s0,0,0-.06S52.59,22.89,52.61,22.92Z"/><polygon class="cls-1" points="55.29 22.49 55.28 22.49 55.28 22.5 55.29 22.49"/><path class="cls-1" d="M56.81,21l0,0S56.81,21,56.81,21Z"/><path class="cls-1" d="M58.52,19.54l.07-.06Z"/><path class="cls-1" d="M56.81,20.85h0S56.8,20.85,56.81,20.85Z"/><polygon class="cls-1" points="50.68 21.57 50.68 21.57 50.69 21.58 50.68 21.57"/><path class="cls-1" d="M57.84,20.15Z"/><path class="cls-1" d="M55.14,22.44a.47.47,0,0,0-.14.21s0,0,0,0-.07.17,0,.13v0l.09-.05c0-.06.17-.24.25-.37,0,.09,0,.19-.17.26h0c-.07.09-.16.14-.16.2l.07-.1h0a1.3,1.3,0,0,1,.18-.23.72.72,0,0,1,.2-.28h0c0-.14.32-.27.37-.35s-.19.14-.26.18.14-.12,0-.09c.12-.16.14-.06.22-.2l-.08.06c0-.07.14-.15.17-.22s-.1.09-.22.19l0-.06-.18.22c0,.09,0,0,0,.18a.24.24,0,0,1-.17,0,1,1,0,0,1-.25.34Z"/><path class="cls-1" d="M60.93,16.83h1l.19-.21Z"/><polygon class="cls-1" points="55.35 22.17 55.35 22.17 55.35 22.17 55.35 22.17"/><path class="cls-1" d="M50.69,21.49s0-.14,0-.12S50.65,21.55,50.69,21.49Z"/><path class="cls-1" d="M50.72,21.37s0,0,0-.05v.05Z"/><path class="cls-1" d="M53,17.69l.79-.54Z"/><path class="cls-1" d="M52.43,22.74l.06.13,0-.11Z"/><path class="cls-1" d="M53.16,23.46h0L53,23.38h0Z"/><path class="cls-1" d="M55.5,22.24c-.11.1-.06.11-.11.18.11-.13.15-.15.29-.3C55.55,22.23,55.52,22.25,55.5,22.24Z"/><path class="cls-1" d="M55.39,22.42l0,0Z"/><path class="cls-1" d="M55.87,22s-.06.06-.09.07S55.89,21.93,55.87,22Z"/><path class="cls-1" d="M56.12,21.57s-.07,0-.08,0S56,21.69,56.12,21.57Z"/><path class="cls-1" d="M57.62,20.39l0,.06.09-.06S57.65,20.35,57.62,20.39Z"/><polygon class="cls-1" points="58.06 19.96 58.04 19.96 57.94 20.06 58.06 19.96"/><polygon class="cls-1" points="58.71 19.51 58.63 19.59 58.66 19.58 58.74 19.5 58.71 19.51"/><path class="cls-1" d="M57.73,15.2l-.17,0Z"/><path class="cls-1" d="M56.49,15.74l-.07,0Z"/><path class="cls-1" d="M55.69,16.09a3.48,3.48,0,0,0,.56-.28h0l.11-.09-.13,0a2,2,0,0,1,.66-.27,3,3,0,0,1-.46.21s.1,0,0,0a11.52,11.52,0,0,1,1.26-.45c-.2,0-.14,0,0,0s.22-.06.15-.07l-.21.06h0l-.25.07c.06,0,.1,0,.1,0-.34.08-.12,0-.37.05l-.35.13h0l-.05,0c-.38.15-.74.32-1.09.5C55.49,16.13,55.81,16,55.69,16.09Z"/><path class="cls-1" d="M53.84,17.15h0Z"/><path class="cls-1" d="M54,17l0,0,.14-.14-.26.17v0A.5.5,0,0,1,54,17Z"/><path class="cls-1" d="M54.32,16.86l0-.06c-.13.09-.09.12,0,.08-.12.09-.1,0-.16.1A.62.62,0,0,0,54.32,16.86Z"/><polygon class="cls-1" points="55.35 16.22 55.32 16.26 55.43 16.21 55.35 16.22"/><path class="cls-1" d="M55.32,16.26l-.1,0s0,0,.05,0Z"/><path class="cls-1" d="M54.8,16.52l.15-.08Z"/><path class="cls-1" d="M55.06,16.38l-.11.06.12-.05Z"/><path class="cls-1" d="M55,16.37h.06l.16-.07S55.14,16.29,55,16.37Z"/><path class="cls-1" d="M54.42,16.72l.11-.06S54.45,16.7,54.42,16.72Z"/><path class="cls-1" d="M51.87,18.45l.07,0Z"/><rect class="cls-1" x="100.82" y="74.55" width="16.78" height="1.99"/><path class="cls-1" d="M79,72.12h4.53v-2H75.62a1.17,1.17,0,0,1-1.18-1.17v-.87h9.07V62H72.12v2h9.07v2H72.12v3.1a2.94,2.94,0,0,0,2.94,2.94h1.42v2.43H70.15v2H85.5v-2H79Z"/><rect class="cls-1" x="98.48" y="61.9" width="2.34" height="14.64"/><path class="cls-1" d="M94.5,69.2a6.35,6.35,0,0,1-1.36-4.46v-.85h3.28v-2h-9v2h3.25v.85a7.06,7.06,0,0,1-1.41,4.69,8.21,8.21,0,0,1-2.8,2.32l1.68,1.61a12.7,12.7,0,0,0,2.11-1.63,6.74,6.74,0,0,0,1.67-2.38,6.77,6.77,0,0,0,1.6,2.13A10.05,10.05,0,0,0,95.58,73l1.5-1.76A9.81,9.81,0,0,1,94.5,69.2Z"/><path class="cls-1" d="M111.22,63.38V61.9h-2.59v1.48a4.44,4.44,0,0,1-1.76,3.53,11.92,11.92,0,0,1-4,2.18l1.51,1.67a11.39,11.39,0,0,0,3.08-1.5,8,8,0,0,0,2.45-2.39,9.12,9.12,0,0,0,2.59,2.44,11.05,11.05,0,0,0,2.93,1.47l1.45-1.69a12.68,12.68,0,0,1-4-2.24A4.37,4.37,0,0,1,111.22,63.38Z"/><rect class="cls-1" x="129.99" y="61.9" width="2.34" height="11.38"/><polygon class="cls-1" points="119.29 73.38 129.97 73.38 129.97 76.53 132.31 76.53 132.31 71.41 119.29 71.41 119.29 73.38"/><path class="cls-1" d="M127.49,70.19v-2h-4.7a1.17,1.17,0,0,1-1.18-1.17V67h5.88v-1.9h-5.88V63.85h5.88v-2h-8.2v5.35a2.94,2.94,0,0,0,2.94,2.94Z"/><path class="cls-1" d="M145,66.85a4.38,4.38,0,0,1-1.69-3.47V61.9h-2.58v1.48A4.47,4.47,0,0,1,139,66.91a12,12,0,0,1-4,2.18l1.51,1.67a11.21,11.21,0,0,0,3.07-1.5A7.94,7.94,0,0,0,142,66.87a9.12,9.12,0,0,0,2.59,2.44,11.05,11.05,0,0,0,2.93,1.47L149,69.09A12.74,12.74,0,0,1,145,66.85Z"/><rect class="cls-1" x="131.15" y="74.55" width="18.54" height="1.99"/><rect class="cls-1" x="33.75" y="61.9" width="3.94" height="14.64"/><path class="cls-1" d="M48.21,67.7H43.08l0-3.25h8.67V61.9H39.69v8.37h7.12a2.34,2.34,0,0,1,1.59.51,1.35,1.35,0,0,1,.5,1.07,1.62,1.62,0,0,1-.5,1.4,2,2,0,0,1-1.4.56H39.69v2.73h7.12a7,7,0,0,0,4-1.09,4.36,4.36,0,0,0,.59-6.58A4.47,4.47,0,0,0,48.21,67.7Z"/><path class="cls-1" d="M65.11,69.14a4.14,4.14,0,0,0,1.55-1.3,3.33,3.33,0,0,0,.52-1.93,3.87,3.87,0,0,0-1-2.78,4.3,4.3,0,0,0-3.27-1.23H54.35v2.62h6.93q2.22,0,2.22,1.59a1.6,1.6,0,0,1-.57,1.31,2.21,2.21,0,0,1-1.46.47H55.84l.06,2.55h5.76a1.86,1.86,0,0,1,1.9,1.9A1.67,1.67,0,0,1,63,73.51a1.9,1.9,0,0,1-1.25.45l-7.33,0v2.56h8.44a4.91,4.91,0,0,0,2.91-.87,3.54,3.54,0,0,0,1.49-2.4,4.06,4.06,0,0,0,.06-.67,3.72,3.72,0,0,0-.57-2A3.88,3.88,0,0,0,65.11,69.14Z"/><polygon class="cls-1" points="21.95 72.03 21.95 70.03 6.6 70.03 6.6 72.03 13.1 72.03 13.1 76.53 15.46 76.53 15.46 72.03 21.95 72.03"/><path class="cls-1" d="M13,64a3.51,3.51,0,0,1-2,2,11.3,11.3,0,0,1-3.39,1.14L8.9,68.79a11.88,11.88,0,0,0,3.24-1.08A5.23,5.23,0,0,0,14.29,66a8,8,0,0,0,2.57,1.81,14.81,14.81,0,0,0,2.82.94L21,67.12A13,13,0,0,1,17.84,66a4,4,0,0,1-2.21-2h4.61V62H8.31v2Z"/><path class="cls-1" d="M3.63,62H1.29a21.07,21.07,0,0,0,0,14.52H3.63A18.84,18.84,0,0,1,3.63,62Z"/><path class="cls-1" d="M24.91,76.54h2.34a21,21,0,0,0,0-14.52H24.91A18.75,18.75,0,0,1,24.91,76.54Z"/></g></g></svg>