<svg xmlns="http://www.w3.org/2000/svg" viewBox="0 0 89.28 70.94"><defs><style>.cls-1{fill:none;stroke:#fff;stroke-linecap:round;stroke-linejoin:round;stroke-width:1.8px;}.cls-2{fill:#fff;}</style></defs><g id="레이어_2" data-name="레이어 2"><g id="레이어_1-2" data-name="레이어 1"><path class="cls-1" d="M78.38,17a3.92,3.92,0,0,0-3.15-1.91H54.92a2.16,2.16,0,0,0-2.16,2.15V34a2.16,2.16,0,0,1-2.15,2.16H3.05A2.15,2.15,0,0,0,.9,38.26V58.57a2.16,2.16,0,0,0,2.15,2.15H86.23a2.16,2.16,0,0,0,2.15-2.15V38.26a10.38,10.38,0,0,0-1-4.06Z"/><path class="cls-1" d="M50.61,36.11A2.16,2.16,0,0,0,52.76,34V7.51A6.61,6.61,0,0,0,46.15.9H11.06A6.61,6.61,0,0,0,4.45,7.51v28.6Z"/><rect class="cls-2" x="67.46" y="26.75" width="9.31" height="9.31" rx="1.27"/><path class="cls-1" d="M64.37,60.72a8.57,8.57,0,0,0-.13,1.44,7.89,7.89,0,0,0,15.77,0,8.57,8.57,0,0,0-.13-1.44Z"/><path class="cls-1" d="M12.75,60.72a7.64,7.64,0,0,0-.14,1.44,7.89,7.89,0,0,0,15.78,0,7.64,7.64,0,0,0-.14-1.44Z"/></g></g></svg>