<svg xmlns="http://www.w3.org/2000/svg" viewBox="0 0 76.7 69.84"><defs><style>.cls-1{fill:none;stroke:#fff;stroke-linecap:round;stroke-linejoin:round;stroke-width:1.8px;}</style></defs><g id="레이어_2" data-name="레이어 2"><g id="레이어_1-2" data-name="레이어 1"><path class="cls-1" d="M67.54,68.94H9.15A8.43,8.43,0,0,1,.9,60.35V57.14H75.8v3.21a8.43,8.43,0,0,1-8.26,8.59Z"/><path class="cls-1" d="M51.1.9H25.6a3.85,3.85,0,0,0-3.85,3.85V24.89a3.85,3.85,0,0,0,3.85,3.85h7.18l5.57,9.64,5.57-9.64H51.1A3.85,3.85,0,0,0,55,24.89V4.75A3.85,3.85,0,0,0,51.1.9Z"/><line class="cls-1" x1="31.31" y1="14.85" x2="45.39" y2="14.85"/><path class="cls-1" d="M34.86,57.14H67.32V24.71a2.11,2.11,0,0,0-2.12-2.12H55v2.3a3.85,3.85,0,0,1-3.85,3.85H43.92l-5.57,9.64-5.57-9.64H25.6a3.85,3.85,0,0,1-3.85-3.85v-2.3H11.5a2.11,2.11,0,0,0-2.12,2.12V57.14Z"/></g></g></svg>