<svg xmlns="http://www.w3.org/2000/svg" viewBox="0 0 65.52 68.92"><defs><style>.cls-1{fill:none;stroke:#fff;stroke-linecap:round;stroke-linejoin:round;stroke-width:1.8px;}</style></defs><g id="레이어_2" data-name="레이어 2"><g id="레이어_1-2" data-name="레이어 1"><path class="cls-1" d="M53.15,64.2A3.82,3.82,0,0,1,49.33,68H16.19a3.82,3.82,0,0,1-3.82-3.82h0a3.82,3.82,0,0,1,3.82-3.82H49.33a3.82,3.82,0,0,1,3.82,3.82Z"/><rect class="cls-1" x="0.9" y="0.9" width="63.72" height="48.43" rx="5.1"/><path class="cls-1" d="M36.39,19.86a6.61,6.61,0,1,1-9.36,0A6.61,6.61,0,0,1,36.39,19.86Z"/><line class="cls-1" x1="36.59" y1="29.41" x2="43.66" y2="36.49"/><path class="cls-1" d="M47.12,60.38a4.81,4.81,0,0,0,.09-.85V49.33H18.32v10.2a6,6,0,0,0,.08.85Z"/></g></g></svg>