<?xml version="1.0" encoding="utf-8"?>
<!-- Generator: Adobe Illustrator 27.0.0, SVG Export Plug-In . SVG Version: 6.00 Build 0)  -->
<svg version="1.1" id="Layer_1" xmlns="http://www.w3.org/2000/svg" xmlns:xlink="http://www.w3.org/1999/xlink" x="0px" y="0px"
	 viewBox="0 0 24 24" style="enable-background:new 0 0 24 24;" xml:space="preserve">
<style type="text/css">
	.st0{fill:#FFFFFF;}
</style>
<path class="st0" d="M18,22c-0.8,0-1.5-0.3-2.1-0.9C15.3,20.5,15,19.8,15,19c0-0.1,0-0.2,0-0.4c0-0.1,0-0.2,0.1-0.3l-7.1-4.1
	c-0.3,0.2-0.6,0.4-1,0.6S6.4,15,6,15c-0.8,0-1.5-0.3-2.1-0.9S3,12.8,3,12c0-0.8,0.3-1.5,0.9-2.1S5.2,9,6,9c0.4,0,0.8,0.1,1.1,0.2
	c0.3,0.1,0.7,0.3,1,0.6l7.1-4.1c0-0.1-0.1-0.2-0.1-0.3c0-0.1,0-0.2,0-0.4c0-0.8,0.3-1.5,0.9-2.1C16.5,2.3,17.2,2,18,2
	s1.5,0.3,2.1,0.9S21,4.2,21,5s-0.3,1.5-0.9,2.1S18.8,8,18,8c-0.4,0-0.8-0.1-1.1-0.2s-0.7-0.3-0.9-0.6l-7.1,4.1
	c0,0.1,0.1,0.2,0.1,0.3s0,0.2,0,0.4s0,0.2,0,0.4s0,0.2-0.1,0.3l7.1,4.1c0.3-0.2,0.6-0.4,0.9-0.6S17.6,16,18,16
	c0.8,0,1.5,0.3,2.1,0.9S21,18.2,21,19s-0.3,1.5-0.9,2.1S18.8,22,18,22z M18,6.7c0.5,0,0.9-0.2,1.3-0.5c0.3-0.3,0.5-0.8,0.5-1.3
	S19.6,4,19.3,3.7c-0.3-0.3-0.8-0.5-1.3-0.5s-0.9,0.2-1.3,0.5c-0.3,0.3-0.5,0.8-0.5,1.3s0.2,0.9,0.5,1.3C17.1,6.5,17.5,6.7,18,6.7z
	 M18,20.6c0.5,0,0.8-0.2,1.2-0.5c0.3-0.3,0.5-0.7,0.5-1.2s-0.2-0.8-0.5-1.2c-0.3-0.3-0.7-0.5-1.2-0.5s-0.8,0.2-1.2,0.5
	c-0.3,0.3-0.5,0.7-0.5,1.2s0.2,0.8,0.5,1.2C17.2,20.5,17.5,20.6,18,20.6z M6,13.6c0.5,0,0.8-0.2,1.2-0.5c0.3-0.3,0.5-0.7,0.5-1.2
	s-0.2-0.8-0.5-1.2c-0.3-0.3-0.7-0.5-1.2-0.5c-0.5,0-0.8,0.2-1.2,0.5c-0.3,0.3-0.5,0.7-0.5,1.2s0.2,0.8,0.5,1.2
	C5.1,13.5,5.5,13.6,6,13.6z"/>
</svg>
