<svg width="18" height="20" viewBox="0 0 18 20" fill="none" xmlns="http://www.w3.org/2000/svg">
<path d="M15 20C14.2 20 13.5 19.7 12.9 19.1C12.3 18.5 12 17.8 12 17C12 16.9 12 16.8 12 16.6C12 16.5 12 16.4 12.1 16.3L5 12.2C4.7 12.4 4.4 12.6 4 12.8C3.6 13 3.4 13 3 13C2.2 13 1.5 12.7 0.9 12.1C0.3 11.5 0 10.8 0 10C0 9.2 0.3 8.5 0.9 7.9C1.5 7.3 2.2 7 3 7C3.4 7 3.8 7.1 4.1 7.2C4.4 7.3 4.8 7.5 5.1 7.8L12.2 3.7C12.2 3.6 12.1 3.5 12.1 3.4C12.1 3.3 12.1 3.2 12.1 3C12.1 2.2 12.4 1.5 13 0.9C13.5 0.3 14.2 0 15 0C15.8 0 16.5 0.3 17.1 0.9C17.7 1.5 18 2.2 18 3C18 3.8 17.7 4.5 17.1 5.1C16.5 5.7 15.8 6 15 6C14.6 6 14.2 5.9 13.9 5.8C13.6 5.7 13.2 5.5 13 5.2L5.9 9.3C5.9 9.4 6 9.5 6 9.6C6 9.7 6 9.8 6 10C6 10.2 6 10.2 6 10.4C6 10.6 6 10.6 5.9 10.7L13 14.8C13.3 14.6 13.6 14.4 13.9 14.2C14.2 14 14.6 14 15 14C15.8 14 16.5 14.3 17.1 14.9C17.7 15.5 18 16.2 18 17C18 17.8 17.7 18.5 17.1 19.1C16.5 19.7 15.8 20 15 20ZM15 4.7C15.5 4.7 15.9 4.5 16.3 4.2C16.6 3.9 16.8 3.4 16.8 2.9C16.8 2.4 16.6 2 16.3 1.7C16 1.4 15.5 1.2 15 1.2C14.5 1.2 14.1 1.4 13.7 1.7C13.4 2 13.2 2.5 13.2 3C13.2 3.5 13.4 3.9 13.7 4.3C14.1 4.5 14.5 4.7 15 4.7ZM15 18.6C15.5 18.6 15.8 18.4 16.2 18.1C16.5 17.8 16.7 17.4 16.7 16.9C16.7 16.4 16.5 16.1 16.2 15.7C15.9 15.4 15.5 15.2 15 15.2C14.5 15.2 14.2 15.4 13.8 15.7C13.5 16 13.3 16.4 13.3 16.9C13.3 17.4 13.5 17.7 13.8 18.1C14.2 18.5 14.5 18.6 15 18.6ZM3 11.6C3.5 11.6 3.8 11.4 4.2 11.1C4.5 10.8 4.7 10.4 4.7 9.9C4.7 9.4 4.5 9.1 4.2 8.7C3.9 8.4 3.5 8.2 3 8.2C2.5 8.2 2.2 8.4 1.8 8.7C1.5 9 1.3 9.4 1.3 9.9C1.3 10.4 1.5 10.7 1.8 11.1C2.1 11.5 2.5 11.6 3 11.6Z" fill="black"/>
</svg>
