<?xml version="1.0" encoding="utf-8"?>
<!-- Generator: Adobe Illustrator 27.0.0, SVG Export Plug-In . SVG Version: 6.00 Build 0)  -->
<svg version="1.1" id="Layer_1" xmlns="http://www.w3.org/2000/svg" xmlns:xlink="http://www.w3.org/1999/xlink" x="0px" y="0px"
	 viewBox="0 0 64 64" style="enable-background:new 0 0 64 64;" xml:space="preserve">
<style type="text/css">
	.st0{fill:#FFFFFF;stroke:#000000;stroke-width:2;stroke-miterlimit:10;}
	.st1{fill:#191919;}
</style>
<rect x="2" y="2" class="st0" width="60" height="60"/>
<g>
	<path class="st1" d="M18.3,20.2v9.7h11.2v-9.7h3.1v23.3h-3.1v-11H18.3v10.9h-3V20.2H18.3z"/>
	<path class="st1" d="M33.9,41.6c0-1,0.7-1.8,1.7-1.8c1,0,1.7,0.7,1.7,1.8c0,1-0.7,1.8-1.7,1.8C34.6,43.5,33.9,42.7,33.9,41.6z"/>
	<path class="st1" d="M45.7,20.2h3v15.6c0,6.2-3.1,8.1-7,8.1c-1.1,0-2.5-0.2-3.2-0.6l0.4-2.5c0.7,0.2,1.5,0.4,2.6,0.4
		c2.7,0,4.3-1.2,4.3-5.8L45.7,20.2L45.7,20.2z"/>
</g>
</svg>
