<?xml version="1.0" encoding="utf-8"?>
<!-- Generator: Adobe Illustrator 27.0.0, SVG Export Plug-In . SVG Version: 6.00 Build 0)  -->
<svg version="1.1" id="Layer_1" xmlns="http://www.w3.org/2000/svg" xmlns:xlink="http://www.w3.org/1999/xlink" x="0px" y="0px"
	 viewBox="0 0 139 50" style="enable-background:new 0 0 139 50;" xml:space="preserve">
<style type="text/css">
	.st0{fill:#191919;}
</style>
<path class="st0" d="M41.9,50H0V8.1h41.9V50z M0.7,49.3h40.5V8.8H0.7V49.3z"/>
<path class="st0" d="M45.6,45.8H3.8V3.9h41.9v41.9H45.6z M4.5,45.1H45V4.5H4.5V45.1z"/>
<path class="st0" d="M49.6,41.9H7.8V0h41.9v41.9H49.6z M8.5,41.2H49V0.7H8.5V41.2z"/>
<path class="st0" d="M13.4,27.3h9.3v9.3h-9.3C13.4,36.6,13.4,27.3,13.4,27.3z"/>
<g>
	<path class="st0" d="M64.6,16.4v6.8h7.8v-6.8h2.1v16.2h-2.1V25h-7.8v7.6h-2.1V16.4H64.6z"/>
	<path class="st0" d="M76.6,31.4c0-0.9,0.6-1.5,1.4-1.5s1.4,0.6,1.4,1.5s-0.6,1.5-1.4,1.5S76.6,32.2,76.6,31.4z"/>
	<path class="st0" d="M86.5,16.4h2.1v10.8c0,4.3-2.1,5.6-4.9,5.6c-0.8,0-1.7-0.2-2.2-0.4l0.3-1.7c0.4,0.2,1.1,0.3,1.8,0.3
		c1.9,0,3-0.8,3-4V16.4H86.5z"/>
	<path class="st0" d="M94.1,16.4V26c0,3.6,1.6,5.2,3.8,5.2c2.4,0,3.9-1.6,3.9-5.2v-9.6h2.1v9.4c0,5-2.6,7-6.1,7
		C94.5,32.9,92,31,92,26v-9.5h2.1V16.4z"/>
	<path class="st0" d="M107.5,16.4h2.1v14.4h6.9v1.8h-9V16.4z"/>
	<path class="st0" d="M121,16.4v16.2h-2.1V16.4H121z"/>
	<path class="st0" d="M127.2,27.5l-1.7,5.1h-2.2l5.5-16.2h2.5l5.5,16.2h-2.2l-1.7-5.1C132.9,27.5,127.2,27.5,127.2,27.5z
		 M132.5,25.9l-1.6-4.7c-0.4-1.1-0.6-2-0.8-3l0,0c-0.2,1-0.5,1.9-0.8,2.9l-1.6,4.7h4.8V25.9z"/>
</g>
</svg>
