<?xml version="1.0" encoding="utf-8"?>
<!-- Generator: Adobe Illustrator 27.0.0, SVG Export Plug-In . SVG Version: 6.00 Build 0)  -->
<svg version="1.1" id="Layer_1" xmlns="http://www.w3.org/2000/svg" xmlns:xlink="http://www.w3.org/1999/xlink" x="0px" y="0px"
	 viewBox="0 0 256 256" style="enable-background:new 0 0 256 256;" xml:space="preserve">
<g id="g4156">
	<path id="path5" d="M60.3,233l-2.2-12.9c-0.6-3.7-1.4-9.5-2-13.5h-0.2c-0.6,4-1.5,10-2.2,13.6L51.3,233L60.3,233L60.3,233z
		 M50.2,241.4l-2.8,14.3H36.9l13-59.4h12.8l11.8,59.4H64.1l-2.8-14.3H50.2z"/>
	<path id="path7" d="M98.3,229.1c0-0.8,0-1.7-0.2-2.6c-0.4-2.9-2-5.6-4.5-5.6c-4.3,0-5.9,6.2-5.9,13.4c0,8.3,2.3,13.1,5.7,13.1
		c1.6,0,3.4-0.8,4.4-4.3c0.2-0.7,0.4-1.6,0.4-2.7V229.1z M109,194.7v48.6c0,3.9,0.2,8.6,0.4,12.3h-9.2l-0.6-5h-0.2
		c-1.6,3.1-4.9,5.7-9,5.7c-8.8,0-13.2-9.8-13.2-22.1c0-15,6.5-22.3,13.7-22.3c3.7,0,6.1,1.8,7.4,4.5h0.2v-21.7L109,194.7L109,194.7z
		"/>
	<path id="path9" d="M131.3,248.2c4.1,0,5.1-7.7,5.1-14.1c0-6.1-1-14-5.3-14c-4.5,0-5.5,7.9-5.5,14
		C125.6,241.4,126.8,248.2,131.3,248.2L131.3,248.2z M131.1,256.4c-9.9,0-16.1-7.9-16.1-22.1c0-15.5,8-22.3,16.3-22.3
		c9.7,0,15.8,8.3,15.8,22.1C147.1,251.7,137.6,256.4,131.1,256.4L131.1,256.4z"/>
	<path id="path11" d="M163.8,240.3c0,1.1,0.2,2.1,0.4,2.7c1.1,3.6,2.9,4.5,4.4,4.5c4.1,0,5.8-5.2,5.8-13.6c0-7.6-1.8-12.9-5.9-12.9
		c-2,0-3.7,2.2-4.3,4.6c-0.2,0.7-0.4,1.9-0.4,2.7V240.3z M153.1,194.7h10.7v22.4h0.2c2.1-3.3,4.9-5.2,9-5.2
		c8.1,0,12.1,9.2,12.1,21.2c0,15.2-6.1,23.3-13.9,23.3c-3.7,0-6.2-1.7-8.5-5.9h-0.2l-0.6,5.2h-9.2c0.2-3.6,0.4-8.4,0.4-12.3
		L153.1,194.7L153.1,194.7z"/>
	<path id="path13" d="M210.8,230.1c0-6.1-1.7-10.3-5.1-10.3c-3.9,0-5.5,5.7-5.6,10.3H210.8z M200,237.6c0.1,7.8,4.2,10.3,9.3,10.3
		c3.2,0,6-0.7,8-1.5l1.5,7.7c-2.8,1.2-7.2,2-11.4,2c-11.5,0-17.8-7.8-17.8-21.3c0-14.4,7.3-23,16.8-23c9.2,0,14.3,7.6,14.3,20.1
		c0,2.9-0.1,4.5-0.3,5.7L200,237.6L200,237.6z"/>
</g>
<g id="g4151">
	<polygon id="polygon15" points="152.1,0.6 220.6,0.6 220.6,164.5 	"/>
	<polygon id="polygon17" points="103.9,0.6 35.4,0.6 35.4,164.5 	"/>
	<polygon id="polygon19" points="98.1,131.6 128,61 171.6,164.5 143.1,164.5 130,131.6 	"/>
</g>
</svg>
