<?xml version="1.0" encoding="utf-8"?>
<!-- Generator: Adobe Illustrator 27.0.0, SVG Export Plug-In . SVG Version: 6.00 Build 0)  -->
<svg version="1.1" id="Layer_1" xmlns="http://www.w3.org/2000/svg" xmlns:xlink="http://www.w3.org/1999/xlink" x="0px" y="0px"
	 viewBox="0 0 256 256" style="enable-background:new 0 0 256 256;" xml:space="preserve">
<style type="text/css">
	.st0{fill-rule:evenodd;clip-rule:evenodd;}
</style>
<g>
	<path class="st0" d="M121.7,14.9h-18.6c-10.3,0-18.6,8.3-18.6,18.6S92.9,52,103.1,52h18.6V14.9z M121.7,2.3h12.6h18.6
		c17.2,0,31.2,14,31.2,31.2c0,10.2-4.9,19.2-12.4,24.9c7.5,5.7,12.4,14.7,12.4,24.9c0,17.2-14,31.2-31.2,31.2
		c-7,0-13.4-2.3-18.6-6.1v6.1V133c0,17.2-14,31.2-31.2,31.2c-17.2,0-31.2-14-31.2-31.2c0-10.2,4.9-19.2,12.4-24.9
		c-7.5-5.7-12.4-14.7-12.4-24.9c0-10.2,4.9-19.2,12.4-24.9c-7.5-5.7-12.4-14.7-12.4-24.9c0-17.2,14-31.2,31.2-31.2H121.7z
		 M134.3,14.9V52h18.6c10.3,0,18.6-8.3,18.6-18.6s-8.3-18.6-18.6-18.6H134.3z M103.1,101.8h18.6V83.3v0v0V64.6h-18.6
		c-10.3,0-18.6,8.3-18.6,18.6C84.5,93.5,92.8,101.8,103.1,101.8L103.1,101.8z M84.5,133c0-10.2,8.3-18.5,18.5-18.6l0.1,0h18.6V133
		c0,10.3-8.3,18.6-18.6,18.6S84.5,143.3,84.5,133z M134.3,83.2c0-10.2,8.3-18.5,18.6-18.5c10.3,0,18.6,8.3,18.6,18.6
		s-8.3,18.6-18.6,18.6C142.6,101.8,134.3,93.5,134.3,83.2L134.3,83.2z"/>
</g>
<g>
	<path d="M36.3,188.7v52.2l6.7,0v-24.8h16.2v-6.6H43v-14.2h21.1v-6.6H36.3z"/>
	<path d="M76.2,199.3c2.4,0,4.4-2,4.4-4.4s-2-4.4-4.4-4.4c-2.4,0-4.4,2-4.4,4.4S73.8,199.3,76.2,199.3z"/>
	<path d="M72.8,205.9v35h6.7v-35H72.8z"/>
	<path class="st0" d="M104.4,204.8c-8.9,0-15.1,7.5-15.1,16.5s6.2,16.5,15.1,16.5c4.1,0,7.4-1.6,9.9-4.1v4.6
		c0,5.8-4.6,10.6-10.5,10.6c-2.1,0-4.3-0.8-6-2l-3.4,5.8c2.7,1.7,5.9,2.7,9.3,2.7c9.5,0,17.2-7.7,17.2-17.2v-32.5h-6.7v3.1
		C111.8,206.4,108.4,204.8,104.4,204.8z M95.9,221.3c0-5.6,4.2-9.9,9.2-9.9c4.9,0,9.2,4.4,9.2,9.9c0,5.6-4.2,9.9-9.2,9.9
		C100.2,231.3,95.9,226.9,95.9,221.3z"/>
	<path d="M145.2,211.4c-4,0-7.2,3.4-7.2,7.3v22.1h-6.7v-35h6.7v3.2c2-2.5,4.9-4.2,8.6-4.2c4.7,0,8.3,2.3,10.4,5.9
		c2.3-3.5,6.1-5.9,10.7-5.9c7.6,0,12.4,6.2,12.4,13.8c0,0,0,0.1,0,0.1l0,0l0,0l0,0v0v22.2h-6.7v-22.2c0-4-3.2-7.3-7.2-7.3
		c-4,0-7.2,3.4-7.2,7.3v22.2h-6.7v-22.2C152.3,214.8,149.1,211.4,145.2,211.4z"/>
	<path class="st0" d="M215.9,209.8c-3-3.1-7.1-5-11.8-5c-10,0-17.1,8.5-17.1,18.5s7.1,18.5,17.1,18.5c4.7,0,8.8-1.9,11.8-5v3.9h6.7
		v-35h-6.7V209.8z M193.7,223.4c0-6.7,5.1-12,11.1-12c6,0,11.1,5.3,11.1,12c0,6.7-5.1,12-11.1,12
		C198.9,235.3,193.7,230.1,193.7,223.4z"/>
</g>
</svg>
