<?xml version="1.0" encoding="utf-8"?>
<!-- Generator: Adobe Illustrator 27.0.0, SVG Export Plug-In . SVG Version: 6.00 Build 0)  -->
<svg version="1.1" id="Layer_1" xmlns="http://www.w3.org/2000/svg" xmlns:xlink="http://www.w3.org/1999/xlink" x="0px" y="0px"
	 viewBox="0 0 256 256" style="enable-background:new 0 0 256 256;" xml:space="preserve">
<g id="g10" transform="matrix(0.74069815,0,0,0.74069815,98.5698,-8.2505871)">
	<path id="path12" d="M-69,216.3V62.6L71.9,12.3l76.6,23.7v207l-76.6,22.3L-69,216.3l140.9,16.4v-179L-20,74.4v121.2L-69,216.3z"/>
	<g>
		<path id="path14" d="M-49.3,357.1c-10.3,0-18.6-3.3-24.8-9.9c-6.2-6.6-9.3-15.1-9.3-25.7c0-11.3,3.2-20.3,9.5-27.1
			c6.3-6.7,15-10.1,25.9-10.1c10.1,0,18.2,3.3,24.3,9.8c6.2,6.5,9.2,15.1,9.2,25.7c0,11.5-3.2,20.6-9.5,27.2
			C-30.3,353.7-38.7,357.1-49.3,357.1L-49.3,357.1z M-48.7,291.8c-7.7,0-13.9,2.7-18.7,8c-4.8,5.3-7.2,12.3-7.2,21s2.3,15.6,7,20.9
			c4.7,5.3,10.7,7.9,18.2,7.9c8,0,14.3-2.5,18.9-7.6c4.6-5,6.9-12.1,6.9-21.1c0-9.3-2.2-16.5-6.7-21.5
			C-34.7,294.3-40.8,291.8-48.7,291.8L-48.7,291.8z"/>
		<path id="path16" d="M15.8,280.4c-4.7,0-8.6,1.5-11.8,4.6c-3.2,3.1-4.7,7.2-4.7,12.5v8.1h-8.9v6.9h8.9v43.4h8.3v-43.4h20.3v43.4
			h8.3v-43.4h12.2v-6.9H36.2v-7.8c0-7.1,2.9-10.6,8.7-10.6c2.1,0,3.9,0.4,5.5,1.3v-7.2c-1.5-0.6-3.5-0.9-6-0.9
			c-4.7,0-8.7,1.5-11.8,4.6c-3.2,3.1-4.7,7.2-4.7,12.5v8.1H7.6v-7.8c0-7.1,2.9-10.6,8.7-10.6c2.1,0,3.9,0.4,5.5,1.3v-7.2
			C20.4,280.7,18.4,280.4,15.8,280.4L15.8,280.4z"/>
		<path id="path18" d="M60.5,292.9c-1.5,0-2.8-0.5-3.8-1.5c-1-1-1.6-2.2-1.6-3.7c0-1.5,0.5-2.8,1.6-3.8c1-1,2.3-1.5,3.8-1.5
			c1.5,0,2.8,0.5,3.9,1.5c1.1,1,1.6,2.2,1.6,3.8c0,1.4-0.5,2.7-1.6,3.7C63.4,292.4,62.1,292.9,60.5,292.9L60.5,292.9z M64.6,355.9
			h-8.3v-50.2h8.3V355.9z"/>
		<path id="path20" d="M112,353.6c-4,2.3-8.7,3.5-14.2,3.5c-7.4,0-13.4-2.3-18-7c-4.6-4.7-6.8-10.7-6.8-18.1
			c0-8.3,2.5-14.9,7.4-19.9c4.9-5,11.5-7.5,19.7-7.5c4.6,0,8.6,0.8,12.1,2.5v8.2c-3.9-2.6-8-3.9-12.4-3.9c-5.3,0-9.7,1.8-13.1,5.5
			c-3.4,3.7-5.1,8.5-5.1,14.5c0,5.9,1.6,10.5,4.8,13.9c3.2,3.4,7.5,5.1,12.9,5.1c4.5,0,8.8-1.5,12.8-4.4L112,353.6z"/>
		<path id="path22" d="M162.9,332.8h-36.8c0.1,5.6,1.7,9.9,4.7,13c3,3,7.1,4.6,12.3,4.6c5.9,0,11.3-1.9,16.2-5.6v7.6
			c-4.6,3.2-10.6,4.8-18.1,4.8c-7.4,0-13.1-2.3-17.3-6.8c-4.2-4.6-6.3-11-6.3-19.3c0-7.8,2.3-14.2,6.9-19.1
			c4.6-4.9,10.3-7.4,17.1-7.4c6.8,0,12.1,2.1,15.8,6.4c3.7,4.3,5.6,10.2,5.6,17.7L162.9,332.8z M154.4,325.9c0-4.6-1.2-8.3-3.5-10.8
			c-2.3-2.6-5.5-3.9-9.5-3.9c-3.9,0-7.3,1.4-10,4.1s-4.4,6.3-5.1,10.6L154.4,325.9z"/>
	</g>
</g>
</svg>
