<?xml version="1.0" encoding="utf-8"?>
<!-- Svg Vector Icons : http://www.onlinewebfonts.com/icon -->
<!DOCTYPE svg PUBLIC "-//W3C//DTD SVG 1.1//EN" "http://www.w3.org/Graphics/SVG/1.1/DTD/svg11.dtd">
<svg version="1.1" xmlns="http://www.w3.org/2000/svg" xmlns:xlink="http://www.w3.org/1999/xlink" x="0px" y="0px" viewBox="0 0 256 256" enable-background="new 0 0 256 256" xml:space="preserve">
<metadata> Svg Vector Icons : http://www.onlinewebfonts.com/icon </metadata>
<g><g><g id="c133de6af664cd4f011a55de6b001a2b"><path fill="#000000" d="M104,31.3v10.2H78V10h26v11.1H89.2v10.2H104z M130.7,21.1h10.4V10h-26c0,0,0,5.6,0,11.1c3.5,3.5,5.3,5.2,10.3,10.2c-2.9,0-10.3,0-10.3,0v10.2h26V31.3L130.7,21.1z M167.6,21.1H178V10h-26c0,0,0,5.6,0,11.1c3.5,3.5,5.3,5.2,10.3,10.2c-2.9,0-10.3,0-10.3,0v10.2h26V31.3L167.6,21.1z M212.2,56.5l-15.8,171.1L128,246l-68.4-18.4L43.8,56.5H212.2z M180.4,91.3h-52.5H74.5l2.6,20.7h50.8h2.9l-2.9,1.2l-49,20.4l1.6,20.2l47.4,0.1l25.4,0.1l-1.6,26.9l-23.8,6.7v0l-0.2,0l-23-5.8l-1.4-16.7h-0.1H82h-0.1l2.8,32.3l43.2,12.8v0l0.1,0l43-12.5l5.6-64.1h-48.6h-0.1l0.1,0l50.4-21.5L180.4,91.3z"/></g></g></g>
</svg>