<?xml version="1.0" encoding="utf-8"?>
<!-- Generator: Adobe Illustrator 27.0.0, SVG Export Plug-In . SVG Version: 6.00 Build 0)  -->
<svg version="1.1" id="Layer_1" xmlns="http://www.w3.org/2000/svg" xmlns:xlink="http://www.w3.org/1999/xlink" x="0px" y="0px"
	 viewBox="0 0 256 256" style="enable-background:new 0 0 256 256;" xml:space="preserve">
<style type="text/css">
	.st0{fill:#0E0E0F;}
</style>
<g>
	<g>
		<g>
			<path d="M45.6,60.6c0,3.3,13.3,155.6,13.6,155.8c0.5,0.5,66.9,29.5,67.6,29.5c0.4,0,66.3-26.5,66.8-26.9
				c0.1-0.1,16.8-157.7,16.8-158.7c0-0.2-37.1-0.3-82.4-0.3C62.5,60.1,45.6,60.2,45.6,60.6z M174.6,107.1v9.3h-38.7H97.1v9.6v9.6
				h38.7h38.7v28.3v28.3l-23.6,9.9c-13,5.4-23.9,9.9-24.1,9.9c-0.3,0-11.1-4.5-24.2-9.9l-23.7-10V181v-11.2H88h9l0.1,5l0.1,5
				l14.7,4.9l14.7,4.8l14.2-4.8c13.9-4.7,14.2-4.9,14.6-6.3c0.2-0.8,0.4-6.7,0.6-13.1l0.2-11.6h-38.7H79v-27.9v-28h47.8h47.8V107.1
				L174.6,107.1z"/>
		</g>
	</g>
	<path id="path76" class="st0" d="M94.2,39.3v-6h8.5h8.5V21.8V10.2h6h6v17.5v17.5h-14.4H94.2V39.3z M128.6,40.6v-4.7h7.8
		c4.3,0,7.8-0.2,7.8-0.4c0-0.2-3.5-4.2-7.8-8.8l-7.8-8.5v-4v-4h16.3h16.3v4.7v4.7l-7.7,0.2l-7.7,0.2l8,8.6l8,8.6v4.1v4.1h-16.6
		h-16.6V40.6z"/>
</g>
</svg>
