<?xml version="1.0" encoding="utf-8"?>
<svg width="379" height="224" viewBox="0 0 379 224" fill="none" xmlns="http://www.w3.org/2000/svg">
<g clip-path="url(#clip0_2057_21602)">
<path d="M119.187 180.249V224.001H105.378V180.249H91.584V167.973H132.996V180.249H119.187Z" fill="#555555"/>
<path d="M33.4401 56.0429V33.8375H18.771V56.0429H4.97656V0H18.771V21.5616H33.4401V0H47.2489V56.0429H33.4401Z" fill="white"/>
<path d="M51.9062 56.0429V0H90.0775V12.2759H65.715V21.6474H86.5357V33.9234H65.715V43.767H90.0775V56.0429H51.9062Z" fill="white"/>
<path d="M106.974 0H93.165V56.0429H106.974V0Z" fill="white"/>
<path d="M147.595 50.5345C143.723 54.3832 138.289 56.0429 132.453 56.0429H111.632V0H132.453C138.289 0 143.738 1.64538 147.595 5.50843C154.148 12.047 153.431 19.2008 153.431 28.0143C153.431 36.8278 154.134 43.9959 147.595 50.5202M138.131 15.4236C136.869 13.535 134.976 12.2759 131.506 12.2759H125.426V43.7527H131.506C134.976 43.7527 136.869 42.4936 138.131 40.605C139.235 39.0312 139.622 37.5289 139.622 28.0143C139.622 18.4997 139.221 16.9974 138.131 15.4236Z" fill="white"/>
<path d="M156.271 56.0429V0H194.442V12.2759H170.065V21.6474H190.9V33.9234H170.065V43.767H194.442V56.0429H156.271Z" fill="white"/>
<path d="M43.5503 112.035V85.194L35.5776 99.0438H26.7446L18.772 85.194V112.035H4.97754V55.9922H18.5425L31.1611 80.7157L43.7797 55.9922H57.3447V112.035H43.5503Z" fill="#555555"/>
<path d="M123.374 112.499C114.77 112.499 107.758 110.925 102.08 105.102L110.913 96.2884C113.838 99.2072 118.957 100.223 123.46 100.223C128.909 100.223 131.504 98.4202 131.504 95.1867C131.504 93.8418 131.189 92.7401 130.4 91.8817C129.683 91.1806 128.507 90.6226 126.686 90.3937L119.904 89.4494C114.942 88.734 111.143 87.0886 108.619 84.4846C106.009 81.8091 104.747 78.0319 104.747 73.2245C104.747 62.9946 112.476 55.5117 125.252 55.5117C133.297 55.5117 139.377 57.4003 144.18 62.2077L135.505 70.8638C131.949 67.3155 127.303 67.5587 124.851 67.5587C120.033 67.5587 118.068 70.3058 118.068 72.7524C118.068 73.4535 118.298 74.4836 119.173 75.3564C119.875 76.0574 121.065 76.7728 123.044 77.0017L129.827 77.9461C134.874 78.6471 138.502 80.2353 140.868 82.596C143.865 85.5148 145.055 89.6783 145.055 94.872C145.055 106.289 135.19 112.499 123.36 112.499" fill="#555555"/>
<path d="M147.437 112.035V55.9922H185.608V68.2681H161.231V77.6396H182.066V89.9155H161.231V99.7592H185.608V112.035H147.437Z" fill="#555555"/>
<path d="M272.62 112.035V85.194L264.647 99.0438H255.814L247.856 85.194V112.035H234.047V55.9922H247.612L260.23 80.7157L272.849 55.9922H286.428V112.035H272.62Z" fill="#555555"/>
<path d="M63.9683 124.259V134.088H84.8033V146.364H63.9683V168.012H50.1738V111.969H88.3451V124.259H63.9683Z" fill="#555555"/>
<path d="M141.355 168.012V141.171L133.382 155.02H124.549L116.591 141.171V168.012H102.782V111.969H116.347L128.966 136.692L141.584 111.969H155.164V168.012H141.355Z" fill="#555555"/>
<path d="M195.076 162.189C190.975 166.281 186.243 168.485 179.374 168.485C172.506 168.485 167.774 166.281 163.673 162.189C157.765 156.28 157.994 148.411 157.994 139.998C157.994 131.585 157.765 123.702 163.673 117.807C167.774 113.715 172.506 111.512 179.374 111.512C186.243 111.512 190.975 113.715 195.076 117.807C200.998 123.716 200.754 131.585 200.754 139.998C200.754 148.411 200.998 156.295 195.076 162.189ZM184.895 126.22C183.862 124.889 181.898 123.788 179.374 123.788C176.851 123.788 174.886 124.889 173.854 126.22C172.592 127.88 171.803 129.768 171.803 139.998C171.803 150.228 172.592 152.045 173.854 153.691C174.872 155.021 176.851 156.209 179.374 156.209C181.898 156.209 183.877 155.035 184.895 153.691C186.157 152.031 186.945 150.228 186.945 139.998C186.945 129.768 186.157 127.88 184.895 126.22Z" fill="#555555"/>
<path d="M239.567 162.503C235.696 166.352 230.261 168.012 224.425 168.012H203.604V111.969H224.425C230.261 111.969 235.71 113.614 239.567 117.477C246.121 124.016 245.404 131.17 245.404 139.983C245.404 148.797 246.106 155.965 239.567 162.489M230.104 127.392C228.842 125.504 226.949 124.245 223.479 124.245H217.399V155.721H223.479C226.949 155.721 228.842 154.462 230.104 152.574C231.208 151 231.595 149.498 231.595 139.983C231.595 130.468 231.208 128.966 230.104 127.392Z" fill="#555555"/>
<path d="M248.242 168.012V111.969H286.428V124.259H262.051V133.616H282.872V145.892H262.051V155.736H286.428V168.012H248.242Z" fill="#555555"/>
<path d="M317.904 168.012L307.967 147.151H303.307V168.012H289.498V111.969H311.738C324.199 111.969 330.91 120.782 330.91 129.996C330.91 137.622 326.178 142.43 321.762 144.633L333.907 168.012H317.89H317.904ZM311.122 124.331H303.307V135.662H311.122C314.907 135.662 317.116 132.901 317.116 129.996C317.116 127.092 314.907 124.331 311.122 124.331Z" fill="#555555"/>
<path d="M366.012 168.012L348.03 139.84V168.012H334.222V111.969H346.295L364.277 140.155V111.969H378.086V168.012H366.012Z" fill="#555555"/>
<path d="M78.5634 224.012L68.6263 203.151H63.966V224.012H50.1572V167.969H72.3975C84.8584 167.969 91.5692 176.782 91.5692 185.996C91.5692 193.622 86.8372 198.43 82.4207 200.633L94.5661 224.012H78.5491H78.5634ZM71.7809 180.331H63.966V191.662H71.7809C75.5665 191.662 77.7748 188.901 77.7748 185.996C77.7748 183.092 75.5665 180.331 71.7809 180.331Z" fill="#555555"/>
<path d="M40.9393 162.189C36.8383 166.281 32.1063 168.485 25.2378 168.485C18.3692 168.485 13.6373 166.281 9.53623 162.189C3.61409 156.28 3.85786 148.411 3.85786 139.998C3.85786 131.585 3.61409 123.702 9.53623 117.807C13.6373 113.715 18.3692 111.512 25.2378 111.512C32.1063 111.512 36.8383 113.715 40.9393 117.807C46.8615 123.716 46.6177 131.585 46.6177 139.998C46.6177 148.411 46.8615 156.295 40.9393 162.189ZM30.7584 126.22C29.726 124.889 27.7615 123.788 25.2378 123.788C22.7141 123.788 20.7352 124.889 19.7171 126.22C18.4553 127.88 17.6666 129.768 17.6666 139.998C17.6666 150.228 18.4553 152.045 19.7171 153.691C20.7352 155.021 22.7141 156.209 25.2378 156.209C27.7615 156.209 29.726 155.035 30.7584 153.691C32.0203 152.031 32.8089 150.228 32.8089 139.998C32.8089 129.768 32.0203 127.88 30.7584 126.22Z" fill="#555555"/>
<path d="M37.0671 224L34.4574 215.659H17.1928L14.4254 224H0L20.4335 167.957H31.0876L51.5212 224H37.0815H37.0671ZM26.0976 189.218L21.0501 204.17H30.8295L26.0976 189.218Z" fill="#555555"/>
<path d="M208.967 112.501C197.295 112.501 187.745 104.632 187.745 92.3556V56H201.554V92.0409C201.554 97.2345 204.393 100.225 208.967 100.225C213.542 100.225 216.538 97.2345 216.538 92.0409V56H230.347V92.3556C230.347 104.632 220.64 112.501 208.967 112.501Z" fill="#555555"/>
<path d="M82.2808 112.501C70.6086 112.501 61.0586 104.632 61.0586 92.3556V56H74.8674V92.0409C74.8674 97.2345 77.7065 100.225 82.2808 100.225C86.855 100.225 89.8519 97.2345 89.8519 92.0409V56H103.661V92.3556C103.661 104.632 93.953 112.501 82.2808 112.501Z" fill="#555555"/>
</g>
<defs>
<clipPath id="clip0_2057_21602">
<rect width="378.085" height="224" fill="white"/>
</clipPath>
</defs>
</svg>
