<?xml version="1.0" encoding="utf-8"?>
<!-- Generator: Adobe Illustrator 27.8.1, SVG Export Plug-In . SVG Version: 6.00 Build 0)  -->
<svg version="1.1" id="레이어_1" xmlns="http://www.w3.org/2000/svg" xmlns:xlink="http://www.w3.org/1999/xlink" x="0px"
	 y="0px" viewBox="0 0 253 28.8" style="enable-background:new 0 0 253 28.8;" xml:space="preserve">
<style type="text/css">
	.st0{fill:#F5CA1F;}
</style>
<g>
	<g>
		<g>
			<path class="st0" d="M42.5,10.2C42.3,9.5,42,9,41.6,8.4c-0.4-0.6-0.8-1.1-1.3-1.6h0c-1-1-2.1-1.8-3.4-2.3c-0.6-0.3-1.3-0.5-2-0.6
				c-0.7-0.1-1.4-0.2-2.1-0.2c-0.1,0-0.2,0-0.2,0h0c-1.4,0-2.7,0.2-4,0.7c-1.2,0.5-2.4,1.2-3.4,2.1v0c-0.5,0.5-1,1-1.4,1.6
				c-0.4,0.6-0.7,1.2-1,1.8v0v0c-0.3,0.6-0.5,1.3-0.6,2c-0.1,0.7-0.2,1.5-0.2,2.2c0,0.1,0,0.2,0,0.2v0c0,0.8,0.1,1.5,0.2,2.2
				c0.1,0.7,0.3,1.3,0.6,2h0v0l0,0c0.2,0.6,0.6,1.2,0.9,1.8c0.4,0.6,0.8,1.1,1.3,1.6c1,1,2.1,1.8,3.4,2.3c0.6,0.3,1.3,0.5,2,0.6
				c0.7,0.1,1.4,0.2,2.1,0.2c0.1,0,0.2,0,0.2,0h0h0c1.4,0,2.7-0.2,4-0.7c1.2-0.5,2.3-1.2,3.4-2.1c0.5-0.5,1-1,1.4-1.6
				c0.4-0.6,0.7-1.2,1-1.8c0.3-0.6,0.5-1.3,0.6-2c0.1-0.7,0.2-1.5,0.2-2.2c0-0.1,0-0.2,0-0.2c0-0.8-0.1-1.5-0.2-2.2
				C43,11.5,42.8,10.8,42.5,10.2 M37.9,14.4c0,0.5,0,0.9-0.1,1.3c-0.1,0.4-0.2,0.8-0.3,1.1c-0.1,0.3-0.3,0.6-0.5,0.9
				c-0.2,0.3-0.4,0.5-0.7,0.8h0c-0.5,0.5-1.1,0.8-1.7,1c-0.3,0.1-0.6,0.2-0.9,0.2c-0.3,0.1-0.6,0.1-1,0.1c0,0-0.1,0-0.1,0
				c-0.4,0-0.7,0-1-0.1c-0.3-0.1-0.6-0.2-0.9-0.3l0,0c-0.3-0.1-0.6-0.3-0.9-0.5c-0.3-0.2-0.6-0.4-0.8-0.6v0
				c-0.2-0.2-0.5-0.5-0.6-0.8c-0.2-0.3-0.3-0.6-0.5-0.9c-0.1-0.3-0.2-0.7-0.3-1.1c-0.1-0.4-0.1-0.8-0.1-1.2c0-0.1,0-0.1,0-0.2
				c0-0.5,0-0.9,0.1-1.3c0.1-0.4,0.2-0.8,0.3-1.1v0c0.1-0.3,0.3-0.6,0.5-0.9c0.2-0.3,0.4-0.5,0.7-0.8c0.5-0.5,1.1-0.8,1.7-1
				c0.3-0.1,0.6-0.2,0.9-0.3c0.3-0.1,0.6-0.1,1-0.1c0,0,0.1,0,0.1,0h0c0.4,0,0.7,0,1,0.1c0.3,0.1,0.6,0.2,0.9,0.3h0
				c0.3,0.1,0.6,0.3,0.9,0.5c0.3,0.2,0.5,0.4,0.8,0.6v0c0.2,0.2,0.5,0.5,0.6,0.8c0.2,0.3,0.3,0.6,0.5,0.9l0,0v0l0,0
				c0.1,0.3,0.2,0.7,0.3,1.1c0.1,0.4,0.1,0.8,0.1,1.2C37.9,14.3,37.9,14.4,37.9,14.4"/>
		</g>
	</g>
	<g>
		<g>
			<path class="st0" d="M15,11.1c0.1,0.2,0.3,0.6,0.5,0.9c0.1,0.1,0.2,0.2,0.4,0.2h5c0,0,0,0,0,0c0,0,0,0,0,0l0,0l0,0
				c-0.1-0.4-0.1-0.7-0.2-1c-0.1-0.3-0.1-0.6-0.2-0.9c-0.2-0.6-0.6-1.2-0.9-1.8c-0.4-0.6-0.8-1.1-1.3-1.6c-1-1-2.1-1.8-3.4-2.3
				c-0.6-0.3-1.3-0.5-2-0.6c-0.7-0.1-1.4-0.2-2.1-0.2c-0.1,0-0.2,0-0.2,0h0h0c-1.4,0-2.7,0.2-4,0.7C5.4,4.9,4.3,5.6,3.2,6.5v0
				c-0.5,0.5-1,1-1.4,1.6c-0.4,0.6-0.7,1.2-1,1.8c-0.3,0.6-0.5,1.3-0.6,2C0.1,12.7,0,13.4,0,14.2c0,0.1,0,0.2,0,0.2v0
				c0,0.8,0.1,1.5,0.2,2.2c0.1,0.7,0.3,1.3,0.6,2c0.2,0.6,0.6,1.2,0.9,1.8C2,20.9,2.5,21.4,3,21.9c1,1,2.1,1.8,3.4,2.3
				c0.6,0.3,1.3,0.5,2,0.6C9,24.9,9.7,25,10.4,25c0.1,0,0.2,0,0.2,0h0h0c1.4,0,2.7-0.2,4-0.7c1.2-0.5,2.3-1.2,3.4-2.1
				c0.5-0.5,1-1,1.4-1.6c0.4-0.6,0.7-1.2,1-1.8c0.1-0.3,0.2-0.6,0.3-1c0.1-0.3,0.1-0.7,0.2-1.1c0-0.1,0-0.1,0-0.2l0,0c0,0,0,0,0,0
				c0,0,0,0,0,0c0,0,0,0,0,0l-5.1,0c-0.2,0-0.3,0.1-0.4,0.2c0,0,0,0,0,0.1c-0.1,0.3-0.3,0.6-0.5,0.9c-0.2,0.3-0.4,0.5-0.7,0.8
				c-0.5,0.5-1.1,0.8-1.7,1c-0.3,0.1-0.6,0.2-0.9,0.2c-0.3,0.1-0.6,0.1-1,0.1c0,0-0.1,0-0.1,0c-0.4,0-0.7,0-1-0.1
				c-0.3-0.1-0.6-0.2-0.9-0.3l0,0C8.3,19.3,8,19.2,7.7,19c-0.3-0.2-0.6-0.4-0.8-0.6v0l0,0l0,0c-0.2-0.2-0.5-0.5-0.6-0.7
				c-0.2-0.3-0.3-0.6-0.5-0.9v0c-0.1-0.3-0.2-0.7-0.3-1.1c-0.1-0.4-0.1-0.8-0.1-1.2c0-0.1,0-0.1,0-0.2c0-0.5,0-0.9,0.1-1.3
				c0.1-0.4,0.2-0.8,0.3-1.1v0C6,11.5,6.1,11.2,6.3,11c0.2-0.3,0.4-0.5,0.7-0.8c0.5-0.5,1.1-0.8,1.7-1C9,9.1,9.3,9,9.6,8.9
				c0.3-0.1,0.6-0.1,1-0.1c0,0,0.1,0,0.1,0h0c0.4,0,0.7,0,1,0.1c0.3,0.1,0.6,0.2,0.9,0.3h0c0.3,0.1,0.6,0.3,0.9,0.5
				c0.3,0.2,0.5,0.4,0.8,0.6C14.6,10.6,14.8,10.8,15,11.1z"/>
		</g>
	</g>
	<g>
		<g>
			<path class="st0" d="M67.4,4.2c0,0-0.1,0-0.1-0.1c0,0-0.1,0-0.1,0h0h-6h0h0c-0.1,0-0.2,0-0.2,0.1c0,0-0.1,0.1-0.1,0.1
				c0,0,0,0.1-0.1,0.1l-4.4,11.3c-0.1,0.1-0.2,0.2-0.3,0.2c-0.2,0-0.3-0.1-0.4-0.2L51.1,4.4c0-0.1-0.1-0.2-0.2-0.2
				c-0.1,0-0.2-0.1-0.2-0.1H45h0h0c-0.1,0-0.1,0-0.2,0c-0.1,0-0.1,0.1-0.2,0.2c0,0,0,0.1-0.1,0.1h0c0,0,0,0.1,0,0.1v19.6v0
				c0,0.1,0,0.1,0,0.2l-0.1,0l0.1,0c0,0.1,0.1,0.1,0.2,0.2c0,0,0.1,0,0.1,0.1c0,0,0.1,0,0.1,0h4.1h0c0.1,0,0.1,0,0.2,0
				c0.1,0,0.1-0.1,0.1-0.1c0,0,0.1-0.1,0.1-0.1c0-0.1,0-0.1,0-0.2v-8.6c0-0.2,0.1-0.3,0.3-0.4c0.2,0,0.4,0.1,0.4,0.2l3.5,8.9
				c0,0.1,0.1,0.2,0.2,0.2l0,0c0.1,0,0.2,0.1,0.2,0.1h3.5h0c0.1,0,0.2,0,0.2-0.1c0,0,0.1-0.1,0.1-0.1c0,0,0-0.1,0.1-0.1l3.5-9
				c0.1-0.2,0.2-0.3,0.4-0.2c0.2,0,0.3,0.2,0.3,0.4v8.7v0c0,0.1,0,0.1,0,0.2c0,0.1,0.1,0.1,0.2,0.2c0,0,0.1,0,0.1,0.1
				c0,0,0.1,0,0.1,0h4.3h0c0.1,0,0.1,0,0.2,0c0.1,0,0.1-0.1,0.1-0.1c0,0,0.1-0.1,0.1-0.1c0-0.1,0-0.1,0-0.2V4.6v0c0-0.1,0-0.1,0-0.2
				C67.5,4.3,67.5,4.3,67.4,4.2"/>
		</g>
	</g>
	<g>
		<g>
			<line class="st0" x1="44.7" y1="4.3" x2="44.7" y2="4.3"/>
		</g>
	</g>
	<g>
		<g>
			<path class="st0" d="M52,3.8"/>
		</g>
	</g>
	<g>
		<g>
			<path class="st0" d="M45.1,24.8"/>
		</g>
	</g>
	<g>
		<g>
			<path class="st0" d="M83.8,8.1L83.8,8.1c-0.2-0.4-0.4-0.8-0.6-1.1c-0.2-0.3-0.5-0.7-0.9-1c-0.3-0.3-0.7-0.6-1.1-0.8
				C80.8,5,80.4,4.8,80,4.6c-0.9-0.3-1.8-0.5-2.9-0.5h-7.4h0c-0.1,0-0.1,0-0.2,0c-0.1,0-0.1,0.1-0.2,0.2c0,0,0,0.1-0.1,0.1
				c0,0,0,0.1,0,0.1v0v19.6v0c0,0.1,0,0.1,0,0.2c0,0.1,0.1,0.1,0.2,0.2c0,0,0.1,0,0.1,0.1c0,0,0.1,0,0.1,0h4.4h0c0.1,0,0.1,0,0.2,0
				c0.1,0,0.1-0.1,0.1-0.1c0,0,0.1-0.1,0.1-0.1c0-0.1,0-0.1,0-0.2v-6.2c0-0.1,0-0.2,0.1-0.3c0.1-0.1,0.2-0.1,0.3-0.1h2.2
				c0.1,0,0.1,0,0.2,0h0c1,0,1.9-0.2,2.7-0.5c0.8-0.3,1.6-0.8,2.2-1.4c0.3-0.3,0.6-0.6,0.9-1c0.3-0.4,0.5-0.7,0.6-1.1v0
				c0.2-0.4,0.3-0.8,0.4-1.3c0.1-0.4,0.1-0.9,0.1-1.4c0-0.1,0-0.1,0-0.1l0,0c0-0.5-0.1-0.9-0.1-1.3C84.1,8.9,83.9,8.5,83.8,8.1
				 M79.1,10.9L79.1,10.9L79.1,10.9c0,0.2,0,0.3,0,0.5c0,0.1-0.1,0.3-0.1,0.4v0c-0.1,0.1-0.1,0.2-0.2,0.3c-0.1,0.1-0.2,0.2-0.3,0.3
				h0c-0.1,0.1-0.2,0.2-0.3,0.2h0c-0.1,0.1-0.2,0.1-0.4,0.2c-0.3,0.1-0.6,0.1-0.9,0.2c0,0,0,0-0.1,0H75c-0.1,0-0.2,0-0.3-0.1
				c-0.1-0.1-0.1-0.2-0.1-0.3V9.2c0-0.1,0-0.2,0.1-0.3c0.1-0.1,0.2-0.1,0.3-0.1h1.7c0.4,0,0.7,0.1,1,0.1c0.1,0,0.3,0.1,0.4,0.2
				c0.1,0.1,0.2,0.2,0.3,0.2h0c0.1,0.1,0.2,0.2,0.3,0.3v0c0.1,0.1,0.1,0.2,0.2,0.3c0.1,0.1,0.1,0.2,0.1,0.4
				C79,10.5,79,10.7,79.1,10.9C79.1,10.8,79.1,10.9,79.1,10.9"/>
		</g>
	</g>
	<g>
		<g>
			<path class="st0" d="M105.9,10.2L105.9,10.2c-0.2-0.6-0.6-1.2-0.9-1.8c-0.4-0.6-0.8-1.1-1.3-1.6c-1-1-2.1-1.8-3.4-2.3
				c-0.6-0.3-1.3-0.5-2-0.6c-0.7-0.1-1.4-0.2-2.1-0.2c-0.1,0-0.2,0-0.2,0c-1.4,0-2.7,0.2-4,0.7c-1.2,0.5-2.4,1.2-3.4,2.1
				c-0.5,0.5-1,1-1.4,1.6c-0.4,0.6-0.7,1.2-1,1.8c-0.3,0.6-0.5,1.3-0.6,2c-0.1,0.7-0.2,1.5-0.2,2.2c0,0.1,0,0.2,0,0.2v0
				c0,0.8,0.1,1.5,0.2,2.2c0.1,0.7,0.3,1.3,0.6,2c0.2,0.6,0.6,1.2,0.9,1.8c0.4,0.6,0.8,1.1,1.3,1.6c1,1,2.1,1.8,3.4,2.3
				c0.6,0.3,1.3,0.5,2,0.6c0.7,0.1,1.4,0.2,2.1,0.2c0.1,0,0.2,0,0.2,0h0h0c1.4,0,2.7-0.2,4-0.7c1.2-0.5,2.3-1.2,3.4-2.1
				c0.5-0.5,1-1,1.4-1.6c0.4-0.6,0.7-1.2,1-1.8c0.3-0.6,0.5-1.3,0.6-2c0.1-0.7,0.2-1.5,0.2-2.2c0-0.1,0-0.2,0-0.2v0
				c0-0.8-0.1-1.5-0.2-2.2C106.4,11.5,106.2,10.8,105.9,10.2 M101.3,14.4l-0.4,0L101.3,14.4c0,0.5,0,0.9-0.1,1.3
				c-0.1,0.4-0.2,0.8-0.3,1.1c-0.1,0.3-0.3,0.6-0.5,0.9c-0.2,0.3-0.4,0.5-0.7,0.8h0c-0.5,0.5-1.1,0.8-1.7,1
				c-0.3,0.1-0.6,0.2-0.9,0.3c-0.3,0.1-0.6,0.1-1,0.1c0,0-0.1,0-0.1,0c-0.4,0-0.7,0-1-0.1c-0.3-0.1-0.6-0.2-0.9-0.3
				c-0.3-0.1-0.6-0.3-0.9-0.5c-0.3-0.2-0.5-0.4-0.8-0.6v0l0,0c-0.2-0.2-0.5-0.5-0.6-0.8c-0.2-0.3-0.3-0.6-0.5-0.9v0
				c-0.1-0.3-0.2-0.7-0.3-1.1c-0.1-0.4-0.1-0.8-0.1-1.2c0-0.1,0-0.1,0-0.2c0-0.5,0-0.9,0.1-1.3c0.1-0.4,0.2-0.8,0.3-1.1v0
				c0.1-0.3,0.3-0.6,0.5-0.9c0.2-0.3,0.4-0.5,0.7-0.8c0.5-0.5,1.1-0.8,1.7-1c0.3-0.1,0.6-0.2,0.9-0.3c0.3-0.1,0.6-0.1,1-0.1
				c0,0,0.1,0,0.1,0h0c0.4,0,0.7,0,1,0.1c0.3,0.1,0.6,0.2,0.9,0.3h0c0.3,0.1,0.6,0.3,0.9,0.5c0.3,0.2,0.5,0.4,0.8,0.6v0
				c0.2,0.2,0.5,0.5,0.6,0.8c0.2,0.3,0.3,0.6,0.5,0.9l0,0l0,0c0.1,0.3,0.2,0.7,0.3,1.1c0.1,0.4,0.1,0.8,0.1,1.2
				C101.3,14.3,101.3,14.4,101.3,14.4"/>
		</g>
	</g>
	<g>
		<g>
			<path class="st0" d="M104.1,6.8"/>
		</g>
	</g>
	<g>
		<g>
			<path class="st0" d="M110.3,5.5"/>
		</g>
	</g>
	<g>
		<g>
			<path class="st0" d="M123.3,16.5c-0.2-0.7-0.6-1.3-1.1-1.9h0c-0.5-0.6-1.1-1.1-1.8-1.5c-0.7-0.4-1.5-0.7-2.5-0.9l0,0h0h0
				l-2.6-0.6l0,0h0l0,0c-0.3-0.1-0.5-0.2-0.7-0.3l0,0c-0.1-0.1-0.3-0.2-0.4-0.2v0c-0.1-0.1-0.1-0.1-0.2-0.2l0,0
				c0-0.1-0.1-0.1-0.1-0.2l0,0c0-0.1-0.1-0.2-0.1-0.3c0-0.1,0-0.2,0-0.3v0c0,0,0,0,0,0v0c0-0.1,0-0.2,0.1-0.3l0,0
				c0-0.1,0.1-0.2,0.1-0.3v0c0.1-0.1,0.1-0.2,0.2-0.3c0.1-0.1,0.2-0.2,0.3-0.3c0.1-0.1,0.2-0.1,0.3-0.2c0.1-0.1,0.2-0.1,0.4-0.1
				c0.3-0.1,0.6-0.1,0.9-0.1c0,0,0,0,0.1,0h0c0.2,0,0.5,0,0.7,0.1c0.2,0,0.4,0.1,0.6,0.2c0.2,0.1,0.3,0.1,0.4,0.2h0
				c0,0,0.1,0.1,0.1,0.1c0,0,0.1,0.1,0.1,0.1c0.1,0.1,0.1,0.1,0.1,0.1l0,0c0,0,0,0,0,0c0,0,0,0,0,0c0,0,0,0.1,0.1,0.1
				c0.1,0.1,0.1,0.2,0.2,0.3c0.1,0.2,0.3,0.5,0.4,0.7c0,0.1,0.1,0.1,0.1,0.1c0.1,0.1,0.2,0.1,0.2,0.1c0,0,0.1,0,0.1,0c0,0,0,0,0,0h0
				l4-0.4c0,0,0.1,0,0.1-0.1c0.1,0,0.1-0.1,0.1-0.2c0-0.1,0.1-0.1,0.1-0.2c0,0,0,0,0-0.1c-0.1-0.7-0.3-1.3-0.6-2
				c-0.3-0.6-0.7-1.2-1.2-1.8c-0.3-0.3-0.6-0.6-1-0.8c-0.4-0.3-0.8-0.5-1.3-0.7c-0.9-0.4-2-0.6-3.2-0.7c-0.1,0-0.1,0-0.2,0h0
				c-1,0-1.9,0.1-2.7,0.4c-0.9,0.3-1.7,0.7-2.4,1.3c-0.4,0.3-0.7,0.6-1,1c-0.3,0.3-0.5,0.7-0.8,1.1c-0.2,0.4-0.4,0.8-0.5,1.3
				c-0.1,0.4-0.2,0.9-0.2,1.4c0,0,0,0.1,0,0.1v0v0c0,0.7,0.1,1.5,0.3,2.1c0.2,0.7,0.6,1.3,1,1.8c0.5,0.6,1.1,1.1,1.7,1.5h0
				c0.7,0.4,1.4,0.7,2.3,0.9h0h0l2.6,0.6l0,0c0.3,0.1,0.6,0.2,0.8,0.3c0.2,0.1,0.4,0.2,0.5,0.4h0c0.1,0.1,0.1,0.1,0.2,0.2v0
				c0,0.1,0.1,0.1,0.1,0.2l0,0c0,0.1,0,0.2,0.1,0.2c0,0.1,0,0.2,0,0.3v0l0,0v0c0,0.1,0,0.2-0.1,0.3c0,0.1-0.1,0.2-0.1,0.3l0,0
				c0,0.1-0.1,0.2-0.2,0.2c-0.1,0.1-0.2,0.2-0.3,0.2v0c-0.1,0.1-0.2,0.1-0.3,0.2c-0.1,0.1-0.2,0.1-0.4,0.1c-0.3,0.1-0.6,0.1-1,0.1
				c0,0-0.1,0-0.1,0h0c-0.6,0-1.1-0.1-1.5-0.3c-0.2-0.1-0.4-0.2-0.6-0.3c-0.2-0.1-0.3-0.2-0.5-0.4h0c-0.1-0.1-0.3-0.3-0.4-0.5v0
				c0,0,0,0,0-0.1c0,0,0,0,0-0.1c0-0.1-0.1-0.1-0.1-0.2c-0.1-0.1-0.2-0.3-0.2-0.4c0-0.1-0.1-0.1-0.1-0.2c-0.1,0-0.1-0.1-0.2-0.1l0,0
				c0,0-0.1,0-0.1,0c-0.1,0-0.2,0-0.4,0c-0.3,0-0.8,0.1-1.2,0.1c-0.9,0.1-2,0.1-2.4,0.2c-0.1,0-0.1,0-0.2,0l0,0c0,0-0.1,0-0.1,0.1
				c-0.1,0-0.1,0.1-0.2,0.2c0,0.1-0.1,0.1-0.1,0.2c0,0,0,0,0,0c0,0.3,0,0.6,0.1,0.7c0,0.2,0.1,0.4,0.2,0.6c0.1,0.1,0.1,0.3,0.2,0.5
				c0.4,0.8,0.9,1.5,1.6,2.2c0.3,0.4,0.7,0.7,1.1,1c0.4,0.3,0.9,0.5,1.4,0.7c1,0.4,2.1,0.6,3.4,0.7c0.1,0,0.1,0,0.2,0
				c1.1,0,2.1-0.1,3-0.4c0.9-0.3,1.7-0.7,2.4-1.3v0c0.4-0.3,0.7-0.6,1-1c0.3-0.3,0.5-0.7,0.7-1.1c0.2-0.4,0.3-0.8,0.5-1.2
				c0.1-0.4,0.2-0.8,0.2-1.3c0,0,0-0.1,0-0.1v0v0C123.7,17.9,123.6,17.2,123.3,16.5z"/>
		</g>
	</g>
	<g>
		<g>
			<path class="st0" d="M106.6,18.9"/>
		</g>
	</g>
	<g>
		<g>
			<path class="st0" d="M137.9,12.2"/>
		</g>
	</g>
	<g>
		<g>
			<path class="st0" d="M138.8,4.6L138.8,4.6L138.8,4.6c0-0.1,0-0.1,0-0.2c0-0.1-0.1-0.1-0.1-0.1c0,0-0.1-0.1-0.1-0.1
				c-0.1,0-0.1,0-0.2,0h0l-12.4,0h0c-0.1,0-0.1,0-0.2,0c-0.1,0-0.1,0.1-0.2,0.2c0,0,0,0.1-0.1,0.1v0c0,0,0,0.1,0,0.1l-0.1,19.6v0
				c0,0.1,0,0.1,0,0.2c0,0.1,0.1,0.1,0.1,0.1c0,0,0.1,0.1,0.1,0.1c0.1,0,0.1,0,0.2,0l12.4,0h0c0.1,0,0.1,0,0.2,0
				c0.1,0,0.1-0.1,0.1-0.1c0,0,0.1-0.1,0.1-0.1c0-0.1,0-0.1,0-0.2l0-4.1v0c0-0.1,0-0.1,0-0.2c0-0.1-0.1-0.1-0.2-0.2
				c0,0-0.1,0-0.1-0.1c0,0-0.1,0-0.1,0l-7.3,0c-0.1,0-0.2,0-0.3-0.1c-0.1-0.1-0.1-0.2-0.1-0.3l0-2.1c0-0.1,0-0.2,0.1-0.3
				c0.1-0.1,0.2-0.1,0.3-0.1l6.5,0h0h0c0.1,0,0.1,0,0.2,0c0.1,0,0.1-0.1,0.1-0.1c0,0,0.1-0.1,0.1-0.1c0-0.1,0-0.1,0-0.2l0-3.8v0
				c0-0.1,0-0.1,0-0.2c0-0.1-0.1-0.1-0.1-0.1c0,0-0.1-0.1-0.1-0.1c-0.1,0-0.1,0-0.2,0l-6.5,0c-0.1,0-0.2,0-0.3-0.1
				c-0.1-0.1-0.1-0.2-0.1-0.3l0-2.1c0-0.1,0-0.2,0.1-0.3c0.1-0.1,0.2-0.1,0.3-0.1l7.2,0h0c0.1,0,0.1,0,0.2,0s0.1-0.1,0.1-0.1
				c0,0,0.1-0.1,0.1-0.1c0-0.1,0-0.1,0-0.2L138.8,4.6L138.8,4.6z"/>
		</g>
	</g>
	<g>
		<g>
			<path class="st0" d="M138.7,18.8"/>
		</g>
	</g>
	<g>
		<g>
			<path class="st0" d="M125.5,24.7"/>
		</g>
	</g>
	<g>
		<g>
			<path class="st0" d="M191.6,10.2L191.6,10.2c-0.5-1.3-1.2-2.4-2.2-3.4c-1-1-2.1-1.8-3.4-2.3h0c-1.2-0.5-2.6-0.8-4.1-0.8
				c-0.1,0-0.2,0-0.2,0c-1.4,0-2.7,0.2-4,0.7c-1.2,0.5-2.4,1.2-3.4,2.1c0,0,0,0,0,0c-0.5,0.5-1,1-1.4,1.6c-0.4,0.6-0.7,1.2-1,1.8
				c-0.3,0.6-0.5,1.3-0.6,2c-0.1,0.7-0.2,1.5-0.2,2.2c0,0.1,0,0.2,0,0.2v0c0,0.8,0.1,1.5,0.2,2.2c0.1,0.7,0.3,1.3,0.6,2
				c0.2,0.6,0.6,1.2,0.9,1.8c0.4,0.6,0.8,1.1,1.3,1.6c0,0,0,0,0,0c1,1,2.1,1.8,3.4,2.3c0,0,0,0,0,0c1.2,0.5,2.6,0.8,4.1,0.8
				c0.1,0,0.2,0,0.2,0h0c1.4,0,2.7-0.2,4-0.7c1.2-0.5,2.4-1.2,3.4-2.1c0.5-0.5,1-1,1.4-1.6c0.4-0.6,0.7-1.2,1-1.8
				c0.3-0.6,0.5-1.3,0.6-2c0.1-0.7,0.2-1.5,0.2-2.2c0-0.1,0-0.2,0-0.2v0v0C192.3,12.9,192.1,11.5,191.6,10.2z M186.8,14.5
				L186.8,14.5c0,0.9-0.2,1.7-0.4,2.3c-0.1,0.3-0.3,0.6-0.5,0.9c-0.2,0.3-0.4,0.5-0.7,0.7c-0.5,0.4-1.1,0.8-1.6,1
				c-0.6,0.2-1.2,0.3-1.9,0.3c0,0-0.1,0-0.1,0c0,0,0,0,0,0c-0.7,0-1.3-0.1-1.9-0.4h0c-0.6-0.2-1.1-0.6-1.7-1.1
				c-0.2-0.2-0.5-0.5-0.6-0.7c-0.2-0.3-0.3-0.6-0.5-0.9c0,0,0,0,0,0v0v0c0,0,0,0,0,0c-0.2-0.6-0.4-1.4-0.4-2.2c0-0.1,0-0.1,0-0.2
				c0-0.5,0-0.9,0.1-1.3c0.1-0.4,0.2-0.7,0.3-1.1c0.1-0.3,0.3-0.6,0.5-0.9c0.2-0.3,0.4-0.5,0.7-0.7c0,0,0,0,0,0c0,0,0,0,0,0
				c0.5-0.4,1.1-0.8,1.6-1c0.6-0.2,1.2-0.3,1.9-0.3c0,0,0.1,0,0.1,0c0.7,0,1.3,0.1,1.9,0.4c0.6,0.2,1.1,0.6,1.6,1.1
				c0.2,0.2,0.4,0.5,0.6,0.7c0.2,0.3,0.3,0.6,0.4,0.9c0.2,0.6,0.4,1.4,0.4,2.3C186.8,14.4,186.8,14.4,186.8,14.5"/>
		</g>
	</g>
	<g>
		<g>
			<path class="st0" d="M207.5,9.1c0,0,0-0.1,0.1-0.1c0,0,0-0.1,0-0.1V4.7v0c0-0.1,0-0.1,0-0.2c0-0.1-0.1-0.1-0.1-0.2
				c0,0-0.1-0.1-0.2-0.1c-0.1,0-0.1,0-0.2,0h-12.5h0h0c-0.1,0-0.1,0-0.2,0c-0.1,0-0.2,0.1-0.2,0.2l0,0c0,0,0,0.1-0.1,0.1v0
				c0,0,0,0.1,0,0.1v19.5v0c0,0.1,0,0.1,0,0.2c0,0.1,0.1,0.2,0.2,0.2c0,0,0.1,0,0.1,0.1c0,0,0.1,0,0.1,0h4.4h0c0.1,0,0.1,0,0.2,0
				c0.1,0,0.1-0.1,0.2-0.1c0,0,0.1-0.1,0.1-0.2c0-0.1,0-0.1,0-0.2v-6.4c0-0.1,0-0.2,0.1-0.3c0.1-0.1,0.2-0.1,0.3-0.1l6.3,0l0,0
				c0.1,0,0.1,0,0.2,0c0.1,0,0.1-0.1,0.2-0.1c0,0,0.1-0.1,0.1-0.2c0-0.1,0-0.1,0-0.2v-4v0c0-0.1,0-0.1,0-0.2c0-0.1-0.1-0.2-0.2-0.2
				c0,0-0.1,0-0.1-0.1h0c0,0-0.1,0-0.1,0h-6.3c-0.1,0-0.2,0-0.3-0.1c-0.1-0.1-0.1-0.2-0.1-0.3V9.7c0-0.1,0-0.2,0.1-0.3
				c0.1-0.1,0.2-0.1,0.3-0.1h7.3h0h0c0.1,0,0.1,0,0.2,0C207.4,9.2,207.5,9.1,207.5,9.1"/>
		</g>
	</g>
	<g>
		<g>
			<path class="st0" d="M215,12.4c-0.1,0-0.2,0-0.3-0.1c-0.1-0.1-0.1-0.2-0.1-0.3V9.7c0-0.1,0-0.2,0.1-0.3c0.1-0.1,0.2-0.1,0.3-0.1
				h7.3h0c0.1,0,0.1,0,0.2,0c0.1,0,0.1-0.1,0.2-0.1c0,0,0.1-0.1,0.1-0.2c0-0.1,0-0.1,0-0.2V4.7v0c0-0.1,0-0.1,0-0.2
				c0-0.1-0.1-0.2-0.2-0.2c0,0-0.1,0-0.1-0.1c0,0-0.1,0-0.1,0h-12.5h0h0c-0.1,0-0.1,0-0.2,0c-0.1,0-0.2,0.1-0.2,0.2
				c0,0,0,0.1-0.1,0.1c0,0,0,0.1,0,0.1v19.5v0c0,0.1,0,0.1,0,0.2c0,0.1,0.1,0.2,0.2,0.2c0,0,0.1,0,0.1,0.1h0c0,0,0.1,0,0.1,0h4.4h0
				c0.1,0,0.1,0,0.2,0c0.1,0,0.1-0.1,0.2-0.1c0,0,0.1-0.1,0.1-0.2c0-0.1,0-0.1,0-0.2v-6.4c0-0.1,0-0.2,0.1-0.3
				c0.1-0.1,0.2-0.1,0.3-0.1h6.3h0c0.1,0,0.1,0,0.2,0c0.1,0,0.1-0.1,0.2-0.1c0,0,0.1-0.1,0.1-0.2c0-0.1,0-0.1,0-0.2v-4v0
				c0-0.1,0-0.1,0-0.2c0-0.1-0.1-0.2-0.2-0.2c0,0-0.1,0-0.1-0.1c0,0-0.1,0-0.1,0H215z"/>
		</g>
	</g>
	<g>
		<g>
			<path class="st0" d="M221,14.4"/>
		</g>
	</g>
	<g>
		<g>
			<path class="st0" d="M221,14.4"/>
		</g>
	</g>
	<g>
		<g>
			<path class="st0" d="M236.6,12h-6.4c-0.1,0-0.2,0-0.3-0.1c-0.1-0.1-0.1-0.2-0.1-0.3V9.6c0-0.1,0-0.2,0.1-0.3
				c0.1-0.1,0.2-0.1,0.3-0.1h7.1h0c0.1,0,0.1,0,0.2,0c0.1,0,0.1-0.1,0.2-0.1c0,0,0.1-0.1,0.1-0.2c0-0.1,0-0.1,0-0.2V4.7v0
				c0-0.1,0-0.1,0-0.2c0-0.1-0.1-0.1-0.1-0.2c0,0-0.1-0.1-0.2-0.1c-0.1,0-0.1,0-0.2,0h-12.3h0c-0.1,0-0.1,0-0.2,0
				c-0.1,0-0.2,0.1-0.2,0.2v0c0,0,0,0.1-0.1,0.1c0,0,0,0.1,0,0.1v19.5v0c0,0.1,0,0.1,0,0.2c0,0.1,0.1,0.2,0.2,0.2c0,0,0.1,0,0.1,0.1
				c0,0,0.1,0,0.1,0h12.4h0c0.1,0,0.1,0,0.2,0c0.1,0,0.1-0.1,0.2-0.1c0,0,0.1-0.1,0.1-0.2c0-0.1,0-0.1,0-0.2V20v0c0-0.1,0-0.1,0-0.2
				c0-0.1-0.1-0.2-0.2-0.2h0c0,0-0.1,0-0.1-0.1c0,0-0.1,0-0.1,0h-7.1c-0.1,0-0.2,0-0.3-0.1c-0.1-0.1-0.1-0.2-0.1-0.3v-1.9
				c0-0.1,0-0.2,0.1-0.3c0.1-0.1,0.2-0.1,0.3-0.1h6.4h0c0.1,0,0.1,0,0.2,0c0.1,0,0.1-0.1,0.2-0.1c0,0,0.1-0.1,0.1-0.2
				c0-0.1,0-0.1,0-0.2v-3.8v0c0-0.1,0-0.1,0-0.2c0-0.1-0.1-0.2-0.2-0.2c0,0-0.1,0-0.1-0.1C236.7,12,236.7,12,236.6,12"/>
		</g>
	</g>
	<g>
		<g>
			<path class="st0" d="M252.9,4.7L252.9,4.7c0-0.1,0-0.1,0-0.2c0-0.1-0.1-0.1-0.1-0.2c0,0-0.1-0.1-0.2-0.1c-0.1,0-0.1,0-0.2,0
				h-12.3h0c-0.1,0-0.1,0-0.2,0c-0.1,0-0.1,0.1-0.2,0.1c0,0-0.1,0.1-0.1,0.2c0,0.1,0,0.1,0,0.2v19.5v0c0,0.1,0,0.1,0,0.2
				c0,0.1,0.1,0.2,0.2,0.2c0,0,0.1,0,0.1,0.1c0,0,0.1,0,0.1,0h12.4h0h0c0.1,0,0.1,0,0.2,0c0.1,0,0.1-0.1,0.2-0.1
				c0,0,0.1-0.1,0.1-0.2c0-0.1,0-0.1,0-0.2l0-4.1v0c0-0.1,0-0.1,0-0.2c0-0.1-0.1-0.2-0.2-0.2c0,0-0.1,0-0.1-0.1c0,0-0.1,0-0.1,0
				h-7.1c-0.1,0-0.2,0-0.3-0.1c-0.1-0.1-0.1-0.2-0.1-0.3v-1.9c0-0.1,0-0.2,0.1-0.3c0.1-0.1,0.2-0.1,0.3-0.1h6.4h0c0.1,0,0.1,0,0.2,0
				c0.1,0,0.1-0.1,0.2-0.1c0,0,0.1-0.1,0.1-0.2c0-0.1,0-0.1,0-0.2v-3.8v0c0-0.1,0-0.1,0-0.2c0-0.1-0.1-0.2-0.2-0.2
				c0,0-0.1,0-0.1-0.1c0,0-0.1,0-0.1,0h-6.4c-0.1,0-0.2,0-0.3-0.1c-0.1-0.1-0.1-0.2-0.1-0.3V9.6c0-0.1,0-0.2,0.1-0.3
				c0.1-0.1,0.2-0.1,0.3-0.1l7.1,0l0,0c0.1,0,0.1,0,0.2,0c0.1,0,0.1-0.1,0.2-0.1c0,0,0.1-0.1,0.1-0.2c0-0.1,0-0.1,0-0.2V4.7z"/>
		</g>
	</g>
	<g>
		<g>
			<path class="st0" d="M161.7,9.2L161.7,9.2c0.3,0.1,0.6,0.3,0.9,0.5c0.3,0.2,0.6,0.4,0.8,0.6h0c0.2,0.2,0.5,0.5,0.6,0.8
				c0.2,0.3,0.3,0.6,0.5,0.9c0,0.1,0,0.1,0.1,0.2c0,0,0,0,0,0h5.3c0,0,0,0,0,0c0,0,0,0,0,0v0l0,0c-0.1-0.4-0.1-0.7-0.2-1
				c-0.1-0.3-0.1-0.6-0.2-0.9c-0.2-0.6-0.6-1.2-0.9-1.8c-0.4-0.6-0.8-1.1-1.3-1.6c-1-1-2.1-1.8-3.4-2.3c0,0,0,0,0,0
				c-0.6-0.3-1.3-0.5-2-0.6c-0.7-0.1-1.4-0.2-2.1-0.2c-0.1,0-0.2,0-0.2,0h0c-1.4,0-2.7,0.2-4,0.7c-1.2,0.5-2.4,1.2-3.4,2.1v0
				c-0.5,0.5-1,1-1.4,1.6s-0.7,1.2-1,1.8c-0.3,0.6-0.5,1.3-0.6,2c-0.1,0.7-0.2,1.5-0.2,2.2c0,0.1,0,0.2,0,0.2c0,0.8,0.1,1.5,0.2,2.2
				c0.1,0.7,0.3,1.4,0.6,2c0.2,0.6,0.6,1.2,0.9,1.8c0.4,0.6,0.8,1.1,1.3,1.6c1,1,2.1,1.8,3.4,2.3c0.6,0.3,1.3,0.5,2,0.6
				c0.7,0.1,1.4,0.2,2.1,0.2c0.1,0,0.2,0,0.2,0h0c1.4,0,2.7-0.2,4-0.7c1.2-0.5,2.4-1.2,3.4-2.1c0.5-0.5,1-1,1.4-1.6
				c0.4-0.6,0.7-1.2,1-1.8c0.1-0.3,0.2-0.6,0.3-0.9c0.1-0.3,0.1-0.7,0.2-1.1c0-0.1,0-0.1,0-0.2l0,0c0,0,0,0,0,0c0,0,0,0,0,0h-5.3
				c0,0,0,0,0,0c0,0.1-0.1,0.2-0.1,0.3c-0.1,0.3-0.3,0.6-0.5,0.9c-0.2,0.3-0.4,0.5-0.7,0.8c-0.5,0.5-1.1,0.8-1.7,1
				c-0.3,0.1-0.6,0.2-0.9,0.3c-0.3,0.1-0.7,0.1-1,0.1c0,0-0.1,0-0.1,0c-0.4,0-0.7,0-1-0.1c-0.3-0.1-0.6-0.2-0.9-0.3h0
				c-0.3-0.1-0.6-0.3-0.9-0.5c-0.3-0.2-0.6-0.4-0.8-0.6l0,0l0,0l0,0l0,0c0,0,0,0,0,0c-0.2-0.2-0.5-0.5-0.6-0.8
				c-0.2-0.3-0.3-0.6-0.5-0.9c-0.1-0.3-0.2-0.7-0.3-1.1c-0.1-0.4-0.1-0.8-0.1-1.2c0-0.1,0-0.1,0-0.2c0-0.5,0-0.9,0.1-1.3
				c0.1-0.4,0.2-0.8,0.3-1.1c0.1-0.3,0.3-0.6,0.5-0.9c0.2-0.3,0.4-0.5,0.7-0.8c0.5-0.5,1.1-0.8,1.7-1c0.3-0.1,0.6-0.2,0.9-0.3
				c0.3-0.1,0.7-0.1,1-0.1c0,0,0.1,0,0.1,0c0,0,0,0,0,0c0.4,0,0.7,0,1,0.1C161.1,9,161.4,9.1,161.7,9.2"/>
		</g>
	</g>
</g>
</svg>
