<?xml version="1.0" encoding="utf-8"?>
<!-- Generator: Adobe Illustrator 27.8.1, SVG Export Plug-In . SVG Version: 6.00 Build 0)  -->
<svg version="1.1" id="레이어_1" xmlns="http://www.w3.org/2000/svg" xmlns:xlink="http://www.w3.org/1999/xlink" x="0px"
	 y="0px" viewBox="0 0 253 28.8" style="enable-background:new 0 0 253 28.8;" xml:space="preserve">
<style type="text/css">
	.st0{fill:#F5CA1F;}
</style>
<g>
	<g>
		<g>
			<path class="st0" d="M42.5,10.3c-0.2-0.6-0.6-1.2-0.9-1.8c-0.4-0.6-0.8-1.1-1.3-1.6h0c-1-1-2.1-1.8-3.4-2.3
				c-0.6-0.3-1.3-0.5-2-0.6c-0.7-0.1-1.4-0.2-2.1-0.2c-0.1,0-0.2,0-0.2,0h0c-1.4,0-2.7,0.2-4,0.7c-1.2,0.5-2.4,1.2-3.4,2.1v0
				c-0.5,0.5-1,1-1.4,1.6c-0.4,0.6-0.7,1.2-1,1.8v0v0c-0.3,0.6-0.5,1.3-0.6,2c-0.1,0.7-0.2,1.5-0.2,2.2c0,0.1,0,0.2,0,0.2v0
				c0,0.8,0.1,1.5,0.2,2.2s0.3,1.3,0.6,2h0v0l0,0c0.2,0.6,0.6,1.2,0.9,1.8c0.4,0.6,0.8,1.1,1.3,1.6c1,1,2.1,1.8,3.4,2.3
				c0.6,0.3,1.3,0.5,2,0.6c0.7,0.1,1.4,0.2,2.1,0.2c0.1,0,0.2,0,0.2,0h0h0c1.4,0,2.7-0.2,4-0.7c1.2-0.5,2.3-1.2,3.4-2.1
				c0.5-0.5,1-1,1.4-1.6c0.4-0.6,0.7-1.2,1-1.8c0.3-0.6,0.5-1.3,0.6-2c0.1-0.7,0.2-1.5,0.2-2.2c0-0.1,0-0.2,0-0.2
				c0-0.8-0.1-1.5-0.2-2.2C43,11.6,42.8,10.9,42.5,10.3 M37.9,14.6c0,0.5,0,0.9-0.1,1.3c-0.1,0.4-0.2,0.8-0.3,1.1
				c-0.1,0.3-0.3,0.6-0.5,0.9c-0.2,0.3-0.4,0.5-0.7,0.8h0c-0.5,0.5-1.1,0.8-1.7,1c-0.3,0.1-0.6,0.2-0.9,0.2c-0.3,0.1-0.6,0.1-1,0.1
				c0,0-0.1,0-0.1,0c-0.4,0-0.7,0-1-0.1c-0.3-0.1-0.6-0.2-0.9-0.3l0,0c-0.3-0.1-0.6-0.3-0.9-0.5c-0.3-0.2-0.6-0.4-0.8-0.6v0
				c-0.2-0.2-0.5-0.5-0.6-0.8c-0.2-0.3-0.3-0.6-0.5-0.9c-0.1-0.3-0.2-0.7-0.3-1.1c-0.1-0.4-0.1-0.8-0.1-1.2c0-0.1,0-0.1,0-0.2
				c0-0.5,0-0.9,0.1-1.3c0.1-0.4,0.2-0.8,0.3-1.1v0c0.1-0.3,0.3-0.6,0.5-0.9c0.2-0.3,0.4-0.5,0.7-0.8c0.5-0.5,1.1-0.8,1.7-1
				c0.3-0.1,0.6-0.2,0.9-0.3C32,9,32.3,9,32.7,9c0,0,0.1,0,0.1,0h0c0.4,0,0.7,0,1,0.1c0.3,0.1,0.6,0.2,0.9,0.3h0
				c0.3,0.1,0.6,0.3,0.9,0.5c0.3,0.2,0.5,0.4,0.8,0.6v0c0.2,0.2,0.5,0.5,0.6,0.8c0.2,0.3,0.3,0.6,0.5,0.9l0,0v0l0,0
				c0.1,0.3,0.2,0.7,0.3,1.1c0.1,0.4,0.1,0.8,0.1,1.2C37.9,14.5,37.9,14.5,37.9,14.6"/>
		</g>
	</g>
	<g>
		<g>
			<path class="st0" d="M15,11.2c0.1,0.2,0.3,0.6,0.5,0.9c0.1,0.1,0.2,0.2,0.4,0.2h5c0,0,0,0,0,0c0,0,0,0,0,0l0,0l0,0
				c-0.1-0.4-0.1-0.7-0.2-1c-0.1-0.3-0.1-0.6-0.2-0.9c-0.2-0.6-0.6-1.2-0.9-1.8c-0.4-0.6-0.8-1.1-1.3-1.6c-1-1-2.1-1.8-3.4-2.3
				c-0.6-0.3-1.3-0.5-2-0.6c-0.7-0.1-1.4-0.2-2.1-0.2c-0.1,0-0.2,0-0.2,0h0h0c-1.4,0-2.7,0.2-4,0.7C5.4,5,4.3,5.7,3.2,6.7v0
				c-0.5,0.5-1,1-1.4,1.6c-0.4,0.6-0.7,1.2-1,1.8c-0.3,0.6-0.5,1.3-0.6,2C0.1,12.8,0,13.5,0,14.3c0,0.1,0,0.2,0,0.2v0
				c0,0.8,0.1,1.5,0.2,2.2c0.1,0.7,0.3,1.3,0.6,2c0.2,0.6,0.6,1.2,0.9,1.8C2,21,2.5,21.6,3,22c1,1,2.1,1.8,3.4,2.3
				c0.6,0.3,1.3,0.5,2,0.6c0.7,0.1,1.4,0.2,2.1,0.2c0.1,0,0.2,0,0.2,0h0h0c1.4,0,2.7-0.2,4-0.7c1.2-0.5,2.3-1.2,3.4-2.1
				c0.5-0.5,1-1,1.4-1.6c0.4-0.6,0.7-1.2,1-1.8c0.1-0.3,0.2-0.6,0.3-1c0.1-0.3,0.1-0.7,0.2-1.1c0-0.1,0-0.1,0-0.2l0,0c0,0,0,0,0,0
				c0,0,0,0,0,0c0,0,0,0,0,0l-5.1,0c-0.2,0-0.3,0.1-0.4,0.2c0,0,0,0,0,0.1c-0.1,0.3-0.3,0.6-0.5,0.9c-0.2,0.3-0.4,0.5-0.7,0.8
				c-0.5,0.5-1.1,0.8-1.7,1c-0.3,0.1-0.6,0.2-0.9,0.2c-0.3,0.1-0.6,0.1-1,0.1c0,0-0.1,0-0.1,0c-0.4,0-0.7,0-1-0.1
				c-0.3-0.1-0.6-0.2-0.9-0.3l0,0c-0.3-0.1-0.6-0.3-0.9-0.5c-0.3-0.2-0.6-0.4-0.8-0.6v0l0,0l0,0c-0.2-0.2-0.5-0.5-0.6-0.7
				c-0.2-0.3-0.3-0.6-0.5-0.9v0c-0.1-0.3-0.2-0.7-0.3-1.1c-0.1-0.4-0.1-0.8-0.1-1.2c0-0.1,0-0.1,0-0.2c0-0.5,0-0.9,0.1-1.3
				c0.1-0.4,0.2-0.8,0.3-1.1v0c0.1-0.3,0.3-0.6,0.5-0.9c0.2-0.3,0.4-0.5,0.7-0.8c0.5-0.5,1.1-0.8,1.7-1C9,9.2,9.3,9.1,9.6,9.1
				C9.9,9,10.3,9,10.6,9c0,0,0.1,0,0.1,0h0c0.4,0,0.7,0,1,0.1c0.3,0.1,0.6,0.2,0.9,0.3h0c0.3,0.1,0.6,0.3,0.9,0.5
				c0.3,0.2,0.5,0.4,0.8,0.6C14.6,10.7,14.8,10.9,15,11.2z"/>
		</g>
	</g>
	<g>
		<g>
			<path class="st0" d="M67.4,4.3c0,0-0.1,0-0.1-0.1c0,0-0.1,0-0.1,0h0h-6h0h0c-0.1,0-0.2,0-0.2,0.1c0,0-0.1,0.1-0.1,0.1
				c0,0,0,0.1-0.1,0.1l-4.4,11.3c-0.1,0.1-0.2,0.2-0.3,0.2c-0.2,0-0.3-0.1-0.4-0.2L51.1,4.5c0-0.1-0.1-0.2-0.2-0.2
				c-0.1,0-0.2-0.1-0.2-0.1H45h0h0c-0.1,0-0.1,0-0.2,0c-0.1,0-0.1,0.1-0.2,0.2c0,0,0,0.1-0.1,0.1h0c0,0,0,0.1,0,0.1v19.6v0
				c0,0.1,0,0.1,0,0.2l-0.1,0l0.1,0c0,0.1,0.1,0.1,0.2,0.2c0,0,0.1,0,0.1,0.1c0,0,0.1,0,0.1,0h4.1h0c0.1,0,0.1,0,0.2,0
				c0.1,0,0.1-0.1,0.1-0.1c0,0,0.1-0.1,0.1-0.1c0-0.1,0-0.1,0-0.2v-8.6c0-0.2,0.1-0.3,0.3-0.4c0.2,0,0.4,0.1,0.4,0.2l3.5,8.9
				c0,0.1,0.1,0.2,0.2,0.2l0,0c0.1,0,0.2,0.1,0.2,0.1h3.5h0c0.1,0,0.2,0,0.2-0.1c0,0,0.1-0.1,0.1-0.1c0,0,0-0.1,0.1-0.1l3.5-9
				c0.1-0.2,0.2-0.3,0.4-0.2c0.2,0,0.3,0.2,0.3,0.4v8.7v0c0,0.1,0,0.1,0,0.2c0,0.1,0.1,0.1,0.2,0.2c0,0,0.1,0,0.1,0.1
				c0,0,0.1,0,0.1,0h4.3h0c0.1,0,0.1,0,0.2,0c0.1,0,0.1-0.1,0.1-0.1c0,0,0.1-0.1,0.1-0.1c0-0.1,0-0.1,0-0.2V4.7v0c0-0.1,0-0.1,0-0.2
				C67.5,4.4,67.5,4.4,67.4,4.3"/>
		</g>
	</g>
	<g>
		<g>
			<line class="st0" x1="44.7" y1="4.4" x2="44.7" y2="4.4"/>
		</g>
	</g>
	<g>
		<g>
			<path class="st0" d="M52,3.9"/>
		</g>
	</g>
	<g>
		<g>
			<path class="st0" d="M45.1,24.9"/>
		</g>
	</g>
	<g>
		<g>
			<path class="st0" d="M83.8,8.3L83.8,8.3c-0.2-0.4-0.4-0.8-0.6-1.1c-0.2-0.3-0.5-0.7-0.9-1c-0.3-0.3-0.7-0.6-1.1-0.8
				c-0.4-0.2-0.8-0.4-1.2-0.6c-0.9-0.3-1.8-0.5-2.9-0.5h-7.4h0c-0.1,0-0.1,0-0.2,0c-0.1,0-0.1,0.1-0.2,0.2c0,0,0,0.1-0.1,0.1
				c0,0,0,0.1,0,0.1v0v19.6v0c0,0.1,0,0.1,0,0.2c0,0.1,0.1,0.1,0.2,0.2c0,0,0.1,0,0.1,0.1c0,0,0.1,0,0.1,0h4.4h0c0.1,0,0.1,0,0.2,0
				c0.1,0,0.1-0.1,0.1-0.1c0,0,0.1-0.1,0.1-0.1c0-0.1,0-0.1,0-0.2v-6.2c0-0.1,0-0.2,0.1-0.3c0.1-0.1,0.2-0.1,0.3-0.1h2.2
				c0.1,0,0.1,0,0.2,0h0c1,0,1.9-0.2,2.7-0.5c0.8-0.3,1.6-0.8,2.2-1.4c0.3-0.3,0.6-0.6,0.9-1c0.3-0.4,0.5-0.7,0.6-1.1v0
				c0.2-0.4,0.3-0.8,0.4-1.3c0.1-0.4,0.1-0.9,0.1-1.4c0-0.1,0-0.1,0-0.1l0,0c0-0.5-0.1-0.9-0.1-1.3C84.1,9.1,83.9,8.6,83.8,8.3
				 M79.1,11L79.1,11L79.1,11c0,0.2,0,0.3,0,0.5c0,0.1-0.1,0.3-0.1,0.4v0c-0.1,0.1-0.1,0.2-0.2,0.3c-0.1,0.1-0.2,0.2-0.3,0.3h0
				c-0.1,0.1-0.2,0.2-0.3,0.2h0c-0.1,0.1-0.2,0.1-0.4,0.2c-0.3,0.1-0.6,0.1-0.9,0.2c0,0,0,0-0.1,0H75c-0.1,0-0.2,0-0.3-0.1
				c-0.1-0.1-0.1-0.2-0.1-0.3V9.3c0-0.1,0-0.2,0.1-0.3C74.8,9,74.9,8.9,75,8.9h1.7c0.4,0,0.7,0.1,1,0.1c0.1,0,0.3,0.1,0.4,0.2
				c0.1,0.1,0.2,0.2,0.3,0.2h0c0.1,0.1,0.2,0.2,0.3,0.3v0c0.1,0.1,0.1,0.2,0.2,0.3c0.1,0.1,0.1,0.2,0.1,0.4C79,10.6,79,10.8,79.1,11
				C79.1,11,79.1,11,79.1,11"/>
		</g>
	</g>
	<g>
		<g>
			<path class="st0" d="M105.9,10.3L105.9,10.3c-0.2-0.6-0.6-1.2-0.9-1.8c-0.4-0.6-0.8-1.1-1.3-1.6c-1-1-2.1-1.8-3.4-2.3
				c-0.6-0.3-1.3-0.5-2-0.6c-0.7-0.1-1.4-0.2-2.1-0.2c-0.1,0-0.2,0-0.2,0c-1.4,0-2.7,0.2-4,0.7c-1.2,0.5-2.4,1.2-3.4,2.1
				c-0.5,0.5-1,1-1.4,1.6c-0.4,0.6-0.7,1.2-1,1.8c-0.3,0.6-0.5,1.3-0.6,2c-0.1,0.7-0.2,1.5-0.2,2.2c0,0.1,0,0.2,0,0.2v0
				c0,0.8,0.1,1.5,0.2,2.2c0.1,0.7,0.3,1.3,0.6,2c0.2,0.6,0.6,1.2,0.9,1.8c0.4,0.6,0.8,1.1,1.3,1.6c1,1,2.1,1.8,3.4,2.3
				c0.6,0.3,1.3,0.5,2,0.6c0.7,0.1,1.4,0.2,2.1,0.2c0.1,0,0.2,0,0.2,0h0h0c1.4,0,2.7-0.2,4-0.7c1.2-0.5,2.3-1.2,3.4-2.1
				c0.5-0.5,1-1,1.4-1.6c0.4-0.6,0.7-1.2,1-1.8c0.3-0.6,0.5-1.3,0.6-2c0.1-0.7,0.2-1.5,0.2-2.2c0-0.1,0-0.2,0-0.2v0
				c0-0.8-0.1-1.5-0.2-2.2C106.4,11.6,106.2,10.9,105.9,10.3 M101.3,14.6l-0.4,0L101.3,14.6c0,0.5,0,0.9-0.1,1.3
				c-0.1,0.4-0.2,0.8-0.3,1.1s-0.3,0.6-0.5,0.9c-0.2,0.3-0.4,0.5-0.7,0.8h0c-0.5,0.5-1.1,0.8-1.7,1c-0.3,0.1-0.6,0.2-0.9,0.3
				c-0.3,0.1-0.6,0.1-1,0.1c0,0-0.1,0-0.1,0c-0.4,0-0.7,0-1-0.1c-0.3-0.1-0.6-0.2-0.9-0.3c-0.3-0.1-0.6-0.3-0.9-0.5
				c-0.3-0.2-0.5-0.4-0.8-0.6v0l0,0c-0.2-0.2-0.5-0.5-0.6-0.8c-0.2-0.3-0.3-0.6-0.5-0.9v0c-0.1-0.3-0.2-0.7-0.3-1.1
				c-0.1-0.4-0.1-0.8-0.1-1.2c0-0.1,0-0.1,0-0.2c0-0.5,0-0.9,0.1-1.3c0.1-0.4,0.2-0.8,0.3-1.1v0c0.1-0.3,0.3-0.6,0.5-0.9
				c0.2-0.3,0.4-0.5,0.7-0.8c0.5-0.5,1.1-0.8,1.7-1c0.3-0.1,0.6-0.2,0.9-0.3C95.4,9,95.7,9,96.1,9c0,0,0.1,0,0.1,0h0
				c0.4,0,0.7,0,1,0.1c0.3,0.1,0.6,0.2,0.9,0.3h0c0.3,0.1,0.6,0.3,0.9,0.5c0.3,0.2,0.5,0.4,0.8,0.6v0c0.2,0.2,0.5,0.5,0.6,0.8
				c0.2,0.3,0.3,0.6,0.5,0.9l0,0l0,0c0.1,0.3,0.2,0.7,0.3,1.1c0.1,0.4,0.1,0.8,0.1,1.2C101.3,14.5,101.3,14.5,101.3,14.6"/>
		</g>
	</g>
	<g>
		<g>
			<path class="st0" d="M104.1,6.9"/>
		</g>
	</g>
	<g>
		<g>
			<path class="st0" d="M110.3,5.6"/>
		</g>
	</g>
	<g>
		<g>
			<path class="st0" d="M123.3,16.7c-0.2-0.7-0.6-1.3-1.1-1.9h0c-0.5-0.6-1.1-1.1-1.8-1.5c-0.7-0.4-1.5-0.7-2.5-0.9l0,0h0h0
				l-2.6-0.6l0,0h0l0,0c-0.3-0.1-0.5-0.2-0.7-0.3l0,0c-0.1-0.1-0.3-0.2-0.4-0.2v0c-0.1-0.1-0.1-0.1-0.2-0.2l0,0
				c0-0.1-0.1-0.1-0.1-0.2l0,0c0-0.1-0.1-0.2-0.1-0.3c0-0.1,0-0.2,0-0.3v0c0,0,0,0,0,0v0c0-0.1,0-0.2,0.1-0.3l0,0
				c0-0.1,0.1-0.2,0.1-0.3v0c0.1-0.1,0.1-0.2,0.2-0.3c0.1-0.1,0.2-0.2,0.3-0.3c0.1-0.1,0.2-0.1,0.3-0.2c0.1-0.1,0.2-0.1,0.4-0.1
				c0.3-0.1,0.6-0.1,0.9-0.1c0,0,0,0,0.1,0h0c0.2,0,0.5,0,0.7,0.1c0.2,0,0.4,0.1,0.6,0.2c0.2,0.1,0.3,0.1,0.4,0.2h0
				c0,0,0.1,0.1,0.1,0.1c0,0,0.1,0.1,0.1,0.1c0.1,0.1,0.1,0.1,0.1,0.1l0,0c0,0,0,0,0,0c0,0,0,0,0,0c0,0,0,0.1,0.1,0.1
				c0.1,0.1,0.1,0.2,0.2,0.3c0.1,0.2,0.3,0.5,0.4,0.7c0,0.1,0.1,0.1,0.1,0.1c0.1,0.1,0.2,0.1,0.2,0.1c0,0,0.1,0,0.1,0c0,0,0,0,0,0h0
				l4-0.4c0,0,0.1,0,0.1-0.1c0.1,0,0.1-0.1,0.1-0.2c0-0.1,0.1-0.1,0.1-0.2c0,0,0,0,0-0.1c-0.1-0.7-0.3-1.3-0.6-2
				c-0.3-0.6-0.7-1.2-1.2-1.8c-0.3-0.3-0.6-0.6-1-0.8c-0.4-0.3-0.8-0.5-1.3-0.7c-0.9-0.4-2-0.6-3.2-0.7c-0.1,0-0.1,0-0.2,0h0
				c-1,0-1.9,0.1-2.7,0.4c-0.9,0.3-1.7,0.7-2.4,1.3c-0.4,0.3-0.7,0.6-1,1c-0.3,0.3-0.5,0.7-0.8,1.1c-0.2,0.4-0.4,0.8-0.5,1.3
				c-0.1,0.4-0.2,0.9-0.2,1.4c0,0,0,0.1,0,0.1v0v0c0,0.7,0.1,1.5,0.3,2.1c0.2,0.7,0.6,1.3,1,1.8c0.5,0.6,1.1,1.1,1.7,1.5h0
				c0.7,0.4,1.4,0.7,2.3,0.9h0h0l2.6,0.6l0,0c0.3,0.1,0.6,0.2,0.8,0.3c0.2,0.1,0.4,0.2,0.5,0.4h0c0.1,0.1,0.1,0.1,0.2,0.2v0
				c0,0.1,0.1,0.1,0.1,0.2l0,0c0,0.1,0,0.2,0.1,0.2c0,0.1,0,0.2,0,0.3v0l0,0v0c0,0.1,0,0.2-0.1,0.3c0,0.1-0.1,0.2-0.1,0.3l0,0
				c0,0.1-0.1,0.2-0.2,0.2c-0.1,0.1-0.2,0.2-0.3,0.2v0c-0.1,0.1-0.2,0.1-0.3,0.2c-0.1,0.1-0.2,0.1-0.4,0.1c-0.3,0.1-0.6,0.1-1,0.1
				c0,0-0.1,0-0.1,0h0c-0.6,0-1.1-0.1-1.5-0.3c-0.2-0.1-0.4-0.2-0.6-0.3c-0.2-0.1-0.3-0.2-0.5-0.4h0c-0.1-0.1-0.3-0.3-0.4-0.5v0
				c0,0,0,0,0-0.1c0,0,0,0,0-0.1c0-0.1-0.1-0.1-0.1-0.2c-0.1-0.1-0.2-0.3-0.2-0.4c0-0.1-0.1-0.1-0.1-0.2c-0.1,0-0.1-0.1-0.2-0.1l0,0
				c0,0-0.1,0-0.1,0c-0.1,0-0.2,0-0.4,0c-0.3,0-0.8,0.1-1.2,0.1c-0.9,0.1-2,0.1-2.4,0.2c-0.1,0-0.1,0-0.2,0l0,0c0,0-0.1,0-0.1,0.1
				c-0.1,0-0.1,0.1-0.2,0.2c0,0.1-0.1,0.1-0.1,0.2c0,0,0,0,0,0c0,0.3,0,0.6,0.1,0.7c0,0.2,0.1,0.4,0.2,0.6c0.1,0.1,0.1,0.3,0.2,0.5
				c0.4,0.8,0.9,1.5,1.6,2.2c0.3,0.4,0.7,0.7,1.1,1c0.4,0.3,0.9,0.5,1.4,0.7c1,0.4,2.1,0.6,3.4,0.7c0.1,0,0.1,0,0.2,0
				c1.1,0,2.1-0.1,3-0.4c0.9-0.3,1.7-0.7,2.4-1.3v0c0.4-0.3,0.7-0.6,1-1c0.3-0.3,0.5-0.7,0.7-1.1c0.2-0.4,0.3-0.8,0.5-1.2
				c0.1-0.4,0.2-0.8,0.2-1.3c0,0,0-0.1,0-0.1v0v0C123.7,18.1,123.6,17.3,123.3,16.7z"/>
		</g>
	</g>
	<g>
		<g>
			<path class="st0" d="M106.6,19"/>
		</g>
	</g>
	<g>
		<g>
			<path class="st0" d="M137.9,12.3"/>
		</g>
	</g>
	<g>
		<g>
			<path class="st0" d="M138.8,4.7L138.8,4.7L138.8,4.7c0-0.1,0-0.1,0-0.2c0-0.1-0.1-0.1-0.1-0.1c0,0-0.1-0.1-0.1-0.1
				c-0.1,0-0.1,0-0.2,0h0l-12.4,0h0c-0.1,0-0.1,0-0.2,0c-0.1,0-0.1,0.1-0.2,0.2c0,0,0,0.1-0.1,0.1v0c0,0,0,0.1,0,0.1l-0.1,19.6v0
				c0,0.1,0,0.1,0,0.2c0,0.1,0.1,0.1,0.1,0.1c0,0,0.1,0.1,0.1,0.1c0.1,0,0.1,0,0.2,0l12.4,0h0c0.1,0,0.1,0,0.2,0
				c0.1,0,0.1-0.1,0.1-0.1c0,0,0.1-0.1,0.1-0.1c0-0.1,0-0.1,0-0.2l0-4.1v0c0-0.1,0-0.1,0-0.2c0-0.1-0.1-0.1-0.2-0.2
				c0,0-0.1,0-0.1-0.1c0,0-0.1,0-0.1,0l-7.3,0c-0.1,0-0.2,0-0.3-0.1c-0.1-0.1-0.1-0.2-0.1-0.3l0-2.1c0-0.1,0-0.2,0.1-0.3
				c0.1-0.1,0.2-0.1,0.3-0.1l6.5,0h0h0c0.1,0,0.1,0,0.2,0c0.1,0,0.1-0.1,0.1-0.1c0,0,0.1-0.1,0.1-0.1c0-0.1,0-0.1,0-0.2l0-3.8v0
				c0-0.1,0-0.1,0-0.2c0-0.1-0.1-0.1-0.1-0.1c0,0-0.1-0.1-0.1-0.1c-0.1,0-0.1,0-0.2,0l-6.5,0c-0.1,0-0.2,0-0.3-0.1
				c-0.1-0.1-0.1-0.2-0.1-0.3l0-2.1c0-0.1,0-0.2,0.1-0.3c0.1-0.1,0.2-0.1,0.3-0.1l7.2,0h0c0.1,0,0.1,0,0.2,0c0.1,0,0.1-0.1,0.1-0.1
				c0,0,0.1-0.1,0.1-0.1c0-0.1,0-0.1,0-0.2L138.8,4.7L138.8,4.7z"/>
		</g>
	</g>
	<g>
		<g>
			<path class="st0" d="M138.7,18.9"/>
		</g>
	</g>
	<g>
		<g>
			<path class="st0" d="M125.5,24.8"/>
		</g>
	</g>
	<g>
		<g>
			<path class="st0" d="M191.6,10.3L191.6,10.3c-0.5-1.3-1.2-2.4-2.2-3.4c-1-1-2.1-1.8-3.4-2.3h0c-1.2-0.5-2.6-0.8-4.1-0.8
				c-0.1,0-0.2,0-0.2,0c-1.4,0-2.7,0.2-4,0.7c-1.2,0.5-2.4,1.2-3.4,2.1c0,0,0,0,0,0c-0.5,0.5-1,1-1.4,1.6c-0.4,0.6-0.7,1.2-1,1.8
				c-0.3,0.6-0.5,1.3-0.6,2c-0.1,0.7-0.2,1.5-0.2,2.2c0,0.1,0,0.2,0,0.2v0c0,0.8,0.1,1.5,0.2,2.2c0.1,0.7,0.3,1.3,0.6,2
				c0.2,0.6,0.6,1.2,0.9,1.8c0.4,0.6,0.8,1.1,1.3,1.6c0,0,0,0,0,0c1,1,2.1,1.8,3.4,2.3c0,0,0,0,0,0c1.2,0.5,2.6,0.8,4.1,0.8
				c0.1,0,0.2,0,0.2,0h0c1.4,0,2.7-0.2,4-0.7c1.2-0.5,2.4-1.2,3.4-2.1c0.5-0.5,1-1,1.4-1.6c0.4-0.6,0.7-1.2,1-1.8
				c0.3-0.6,0.5-1.3,0.6-2c0.1-0.7,0.2-1.5,0.2-2.2c0-0.1,0-0.2,0-0.2v0v0C192.3,13,192.1,11.6,191.6,10.3z M186.8,14.6L186.8,14.6
				c0,0.9-0.2,1.7-0.4,2.3c-0.1,0.3-0.3,0.6-0.5,0.9c-0.2,0.3-0.4,0.5-0.7,0.7c-0.5,0.4-1.1,0.8-1.6,1c-0.6,0.2-1.2,0.3-1.9,0.3
				c0,0-0.1,0-0.1,0c0,0,0,0,0,0c-0.7,0-1.3-0.1-1.9-0.4h0c-0.6-0.2-1.1-0.6-1.7-1.1c-0.2-0.2-0.5-0.5-0.6-0.7
				c-0.2-0.3-0.3-0.6-0.5-0.9c0,0,0,0,0,0v0v0c0,0,0,0,0,0c-0.2-0.6-0.4-1.4-0.4-2.2c0-0.1,0-0.1,0-0.2c0-0.5,0-0.9,0.1-1.3
				c0.1-0.4,0.2-0.7,0.3-1.1c0.1-0.3,0.3-0.6,0.5-0.9c0.2-0.3,0.4-0.5,0.7-0.7c0,0,0,0,0,0c0,0,0,0,0,0c0.5-0.4,1.1-0.8,1.6-1
				c0.6-0.2,1.2-0.3,1.9-0.3c0,0,0.1,0,0.1,0c0.7,0,1.3,0.1,1.9,0.4c0.6,0.2,1.1,0.6,1.6,1.1c0.2,0.2,0.4,0.5,0.6,0.7
				c0.2,0.3,0.3,0.6,0.4,0.9c0.2,0.6,0.4,1.4,0.4,2.3C186.8,14.5,186.8,14.5,186.8,14.6"/>
		</g>
	</g>
	<g>
		<g>
			<path class="st0" d="M207.5,9.2c0,0,0-0.1,0.1-0.1c0,0,0-0.1,0-0.1V4.8v0c0-0.1,0-0.1,0-0.2c0-0.1-0.1-0.1-0.1-0.2
				c0,0-0.1-0.1-0.2-0.1c-0.1,0-0.1,0-0.2,0h-12.5h0h0c-0.1,0-0.1,0-0.2,0c-0.1,0-0.2,0.1-0.2,0.2l0,0c0,0,0,0.1-0.1,0.1v0
				c0,0,0,0.1,0,0.1v19.5v0c0,0.1,0,0.1,0,0.2c0,0.1,0.1,0.2,0.2,0.2c0,0,0.1,0,0.1,0.1c0,0,0.1,0,0.1,0h4.4h0c0.1,0,0.1,0,0.2,0
				c0.1,0,0.1-0.1,0.2-0.1c0,0,0.1-0.1,0.1-0.2c0-0.1,0-0.1,0-0.2v-6.4c0-0.1,0-0.2,0.1-0.3c0.1-0.1,0.2-0.1,0.3-0.1l6.3,0l0,0
				c0.1,0,0.1,0,0.2,0c0.1,0,0.1-0.1,0.2-0.1c0,0,0.1-0.1,0.1-0.2c0-0.1,0-0.1,0-0.2v-4v0c0-0.1,0-0.1,0-0.2c0-0.1-0.1-0.2-0.2-0.2
				c0,0-0.1,0-0.1-0.1h0c0,0-0.1,0-0.1,0h-6.3c-0.1,0-0.2,0-0.3-0.1c-0.1-0.1-0.1-0.2-0.1-0.3V9.8c0-0.1,0-0.2,0.1-0.3
				c0.1-0.1,0.2-0.1,0.3-0.1h7.3h0h0c0.1,0,0.1,0,0.2,0C207.4,9.3,207.5,9.3,207.5,9.2"/>
		</g>
	</g>
	<g>
		<g>
			<path class="st0" d="M215,12.5c-0.1,0-0.2,0-0.3-0.1c-0.1-0.1-0.1-0.2-0.1-0.3V9.8c0-0.1,0-0.2,0.1-0.3c0.1-0.1,0.2-0.1,0.3-0.1
				h7.3h0c0.1,0,0.1,0,0.2,0c0.1,0,0.1-0.1,0.2-0.1c0,0,0.1-0.1,0.1-0.2c0-0.1,0-0.1,0-0.2V4.8v0c0-0.1,0-0.1,0-0.2
				c0-0.1-0.1-0.2-0.2-0.2c0,0-0.1,0-0.1-0.1c0,0-0.1,0-0.1,0h-12.5h0h0c-0.1,0-0.1,0-0.2,0c-0.1,0-0.2,0.1-0.2,0.2
				c0,0,0,0.1-0.1,0.1c0,0,0,0.1,0,0.1v19.5v0c0,0.1,0,0.1,0,0.2c0,0.1,0.1,0.2,0.2,0.2c0,0,0.1,0,0.1,0.1h0c0,0,0.1,0,0.1,0h4.4h0
				c0.1,0,0.1,0,0.2,0c0.1,0,0.1-0.1,0.2-0.1c0,0,0.1-0.1,0.1-0.2c0-0.1,0-0.1,0-0.2v-6.4c0-0.1,0-0.2,0.1-0.3
				c0.1-0.1,0.2-0.1,0.3-0.1h6.3h0c0.1,0,0.1,0,0.2,0c0.1,0,0.1-0.1,0.2-0.1c0,0,0.1-0.1,0.1-0.2c0-0.1,0-0.1,0-0.2v-4v0
				c0-0.1,0-0.1,0-0.2c0-0.1-0.1-0.2-0.2-0.2c0,0-0.1,0-0.1-0.1c0,0-0.1,0-0.1,0H215z"/>
		</g>
	</g>
	<g>
		<g>
			<path class="st0" d="M221,14.5"/>
		</g>
	</g>
	<g>
		<g>
			<path class="st0" d="M221,14.5"/>
		</g>
	</g>
	<g>
		<g>
			<path class="st0" d="M236.6,12.1h-6.4c-0.1,0-0.2,0-0.3-0.1c-0.1-0.1-0.1-0.2-0.1-0.3V9.8c0-0.1,0-0.2,0.1-0.3
				c0.1-0.1,0.2-0.1,0.3-0.1h7.1h0c0.1,0,0.1,0,0.2,0c0.1,0,0.1-0.1,0.2-0.1c0,0,0.1-0.1,0.1-0.2c0-0.1,0-0.1,0-0.2V4.8v0
				c0-0.1,0-0.1,0-0.2c0-0.1-0.1-0.1-0.1-0.2c0,0-0.1-0.1-0.2-0.1c-0.1,0-0.1,0-0.2,0h-12.3h0c-0.1,0-0.1,0-0.2,0
				c-0.1,0-0.2,0.1-0.2,0.2v0c0,0,0,0.1-0.1,0.1c0,0,0,0.1,0,0.1v19.5v0c0,0.1,0,0.1,0,0.2c0,0.1,0.1,0.2,0.2,0.2c0,0,0.1,0,0.1,0.1
				c0,0,0.1,0,0.1,0h12.4h0c0.1,0,0.1,0,0.2,0c0.1,0,0.1-0.1,0.2-0.1c0,0,0.1-0.1,0.1-0.2c0-0.1,0-0.1,0-0.2v-4.1v0
				c0-0.1,0-0.1,0-0.2c0-0.1-0.1-0.2-0.2-0.2h0c0,0-0.1,0-0.1-0.1c0,0-0.1,0-0.1,0h-7.1c-0.1,0-0.2,0-0.3-0.1
				c-0.1-0.1-0.1-0.2-0.1-0.3v-1.9c0-0.1,0-0.2,0.1-0.3c0.1-0.1,0.2-0.1,0.3-0.1h6.4h0c0.1,0,0.1,0,0.2,0c0.1,0,0.1-0.1,0.2-0.1
				c0,0,0.1-0.1,0.1-0.2c0-0.1,0-0.1,0-0.2v-3.8v0c0-0.1,0-0.1,0-0.2c0-0.1-0.1-0.2-0.2-0.2c0,0-0.1,0-0.1-0.1
				C236.7,12.1,236.7,12.1,236.6,12.1"/>
		</g>
	</g>
	<g>
		<g>
			<path class="st0" d="M252.9,4.8L252.9,4.8c0-0.1,0-0.1,0-0.2c0-0.1-0.1-0.1-0.1-0.2c0,0-0.1-0.1-0.2-0.1c-0.1,0-0.1,0-0.2,0
				h-12.3h0c-0.1,0-0.1,0-0.2,0c-0.1,0-0.1,0.1-0.2,0.1c0,0-0.1,0.1-0.1,0.2c0,0.1,0,0.1,0,0.2v19.5v0c0,0.1,0,0.1,0,0.2
				c0,0.1,0.1,0.2,0.2,0.2c0,0,0.1,0,0.1,0.1c0,0,0.1,0,0.1,0h12.4h0h0c0.1,0,0.1,0,0.2,0c0.1,0,0.1-0.1,0.2-0.1
				c0,0,0.1-0.1,0.1-0.2c0-0.1,0-0.1,0-0.2l0-4.1v0c0-0.1,0-0.1,0-0.2c0-0.1-0.1-0.2-0.2-0.2c0,0-0.1,0-0.1-0.1c0,0-0.1,0-0.1,0
				h-7.1c-0.1,0-0.2,0-0.3-0.1c-0.1-0.1-0.1-0.2-0.1-0.3v-1.9c0-0.1,0-0.2,0.1-0.3c0.1-0.1,0.2-0.1,0.3-0.1h6.4h0c0.1,0,0.1,0,0.2,0
				c0.1,0,0.1-0.1,0.2-0.1c0,0,0.1-0.1,0.1-0.2c0-0.1,0-0.1,0-0.2v-3.8v0c0-0.1,0-0.1,0-0.2c0-0.1-0.1-0.2-0.2-0.2
				c0,0-0.1,0-0.1-0.1c0,0-0.1,0-0.1,0h-6.4c-0.1,0-0.2,0-0.3-0.1c-0.1-0.1-0.1-0.2-0.1-0.3V9.8c0-0.1,0-0.2,0.1-0.3
				c0.1-0.1,0.2-0.1,0.3-0.1l7.1,0l0,0c0.1,0,0.1,0,0.2,0c0.1,0,0.1-0.1,0.2-0.1c0,0,0.1-0.1,0.1-0.2c0-0.1,0-0.1,0-0.2V4.8z"/>
		</g>
	</g>
	<g>
		<g>
			<path class="st0" d="M161.7,9.4L161.7,9.4c0.3,0.1,0.6,0.3,0.9,0.5c0.3,0.2,0.6,0.4,0.8,0.6h0c0.2,0.2,0.5,0.5,0.6,0.8
				c0.2,0.3,0.3,0.6,0.5,0.9c0,0.1,0,0.1,0.1,0.2c0,0,0,0,0,0h5.3c0,0,0,0,0,0c0,0,0,0,0,0v0l0,0c-0.1-0.4-0.1-0.7-0.2-1
				c-0.1-0.3-0.1-0.6-0.2-0.9c-0.2-0.6-0.6-1.2-0.9-1.8c-0.4-0.6-0.8-1.1-1.3-1.6c-1-1-2.1-1.8-3.4-2.3c0,0,0,0,0,0
				c-0.6-0.3-1.3-0.5-2-0.6c-0.7-0.1-1.4-0.2-2.1-0.2c-0.1,0-0.2,0-0.2,0h0c-1.4,0-2.7,0.2-4,0.7c-1.2,0.5-2.4,1.2-3.4,2.1v0
				c-0.5,0.5-1,1-1.4,1.6c-0.4,0.6-0.7,1.2-1,1.8c-0.3,0.6-0.5,1.3-0.6,2c-0.1,0.7-0.2,1.5-0.2,2.2c0,0.1,0,0.2,0,0.2
				c0,0.8,0.1,1.5,0.2,2.2c0.1,0.7,0.3,1.4,0.6,2c0.2,0.6,0.6,1.2,0.9,1.8c0.4,0.6,0.8,1.1,1.3,1.6c1,1,2.1,1.8,3.4,2.3
				c0.6,0.3,1.3,0.5,2,0.6c0.7,0.1,1.4,0.2,2.1,0.2c0.1,0,0.2,0,0.2,0h0c1.4,0,2.7-0.2,4-0.7c1.2-0.5,2.4-1.2,3.4-2.1
				c0.5-0.5,1-1,1.4-1.6c0.4-0.6,0.7-1.2,1-1.8c0.1-0.3,0.2-0.6,0.3-0.9c0.1-0.3,0.1-0.7,0.2-1.1c0-0.1,0-0.1,0-0.2l0,0c0,0,0,0,0,0
				c0,0,0,0,0,0h-5.3c0,0,0,0,0,0c0,0.1-0.1,0.2-0.1,0.3c-0.1,0.3-0.3,0.6-0.5,0.9c-0.2,0.3-0.4,0.5-0.7,0.8c-0.5,0.5-1.1,0.8-1.7,1
				c-0.3,0.1-0.6,0.2-0.9,0.3c-0.3,0.1-0.7,0.1-1,0.1c0,0-0.1,0-0.1,0c-0.4,0-0.7,0-1-0.1c-0.3-0.1-0.6-0.2-0.9-0.3h0
				c-0.3-0.1-0.6-0.3-0.9-0.5c-0.3-0.2-0.6-0.4-0.8-0.6l0,0l0,0l0,0l0,0c0,0,0,0,0,0c-0.2-0.2-0.5-0.5-0.6-0.8
				c-0.2-0.3-0.3-0.6-0.5-0.9c-0.1-0.3-0.2-0.7-0.3-1.1c-0.1-0.4-0.1-0.8-0.1-1.2c0-0.1,0-0.1,0-0.2c0-0.5,0-0.9,0.1-1.3
				c0.1-0.4,0.2-0.8,0.3-1.1c0.1-0.3,0.3-0.6,0.5-0.9c0.2-0.3,0.4-0.5,0.7-0.8c0.5-0.5,1.1-0.8,1.7-1c0.3-0.1,0.6-0.2,0.9-0.3
				c0.3-0.1,0.7-0.1,1-0.1c0,0,0.1,0,0.1,0c0,0,0,0,0,0c0.4,0,0.7,0,1,0.1C161.1,9.1,161.4,9.2,161.7,9.4"/>
		</g>
	</g>
</g>
</svg>
