<svg xmlns="http://www.w3.org/2000/svg" width="24.702" height="24.702" viewBox="0 0 24.702 24.702">
                                      <g id="그룹_808" data-name="그룹 808" transform="translate(-195.364 -321.987)">
                                        <path id="패스_1285" data-name="패스 1285" d="M197.09,354.938a5.9,5.9,0,0,1,0-8.341l5.509-5.509a5.9,5.9,0,0,1,8.341,0c.31.31.642.62.918.94l-2.732,2.732a7.34,7.34,0,0,0-.9-.962,2.084,2.084,0,0,0-2.921,0l-5.509,5.509a2.083,2.083,0,0,0,0,2.92l.631.631a2.083,2.083,0,0,0,2.92,0l1.67-1.67a7.439,7.439,0,0,0,4.525.885l-3.484,3.484a5.9,5.9,0,0,1-8.341,0l-.63-.63Z" transform="translate(0 -10.595)" fill="#00c6e4"></path>
                                        <path id="패스_1286" data-name="패스 1286" d="M231.165,324.343a5.9,5.9,0,0,1,0,8.341l-5.509,5.509a5.9,5.9,0,0,1-8.341,0c-.31-.31-.642-.619-.918-.94l2.732-2.732a7.272,7.272,0,0,0,.9.962,2.082,2.082,0,0,0,2.921,0l5.509-5.509a2.083,2.083,0,0,0,0-2.92l-.63-.631a2.083,2.083,0,0,0-2.921,0l-1.67,1.671a7.742,7.742,0,0,0-4.525-.9l3.485-3.485a5.9,5.9,0,0,1,8.341,0Z" transform="translate(-12.825)" fill="#00c9c9"></path>
                                      </g>
                                    </svg>