<svg xmlns="http://www.w3.org/2000/svg" xmlns:xlink="http://www.w3.org/1999/xlink" width="175.625" height="32.041" viewBox="0 0 175.625 32.041">
  <defs>
    <clipPath id="clip-path">
      <rect id="사각형_716" data-name="사각형 716" width="175.625" height="32.041" fill="none"></rect>
    </clipPath>
  </defs>
  <g id="그룹_1110" data-name="그룹 1110" clip-path="url(#clip-path)">
    <path id="패스_1379" data-name="패스 1379" d="M9.424,182.521a5.654,5.654,0,1,1,4-9.652l2.665-2.665a9.424,9.424,0,1,0,0,13.327l-2.665-2.666a5.637,5.637,0,0,1-4,1.656" transform="translate(0 -154.25)" fill="#527288"></path>
    <path id="패스_1380" data-name="패스 1380" d="M373.942,167.443a9.424,9.424,0,1,0,9.424,9.424,9.424,9.424,0,0,0-9.424-9.424m0,15.078a5.654,5.654,0,1,1,5.654-5.654,5.654,5.654,0,0,1-5.654,5.654" transform="translate(-335.797 -154.25)" fill="#527288"></path>
    <path id="패스_1381" data-name="패스 1381" d="M640.419,177.012v10.554a3.769,3.769,0,1,1-7.539,0V177.012h-3.769v10.554a7.539,7.539,0,1,0,15.078,0V177.012Z" transform="translate(-579.542 -163.065)" fill="#527288"></path>
    <path id="패스_1382" data-name="패스 1382" d="M257.253,190.582v-13.57H253.86v17.34h8.67v-3.77Z" transform="translate(-233.858 -163.065)" fill="#527288"></path>
    <path id="패스_1383" data-name="패스 1383" d="M863.141,177.011h-6.785v17.34h6.785a8.67,8.67,0,0,0,0-17.34m0,13.57h-3.016v-9.8h3.016a4.9,4.9,0,1,1,0,9.8" transform="translate(-788.882 -163.064)" fill="#527288"></path>
    <rect id="사각형_715" data-name="사각형 715" width="1.131" height="17.34" transform="translate(18.117 13.947)" fill="#527288"></rect>
    <path id="패스_1384" data-name="패스 1384" d="M226.535,50.05a3.338,3.338,0,0,1-.64-2.2,2.754,2.754,0,0,1,.753-2.123,2.906,2.906,0,0,1,2.068-.708A4.732,4.732,0,0,0,230,44.91v.931c0,.112-.113.186-.3.224a2.74,2.74,0,0,1-.866.074,1.588,1.588,0,0,0-1.241.41,1.865,1.865,0,0,0-.377,1.3c0,1.229.452,1.825,1.317,1.825a4.1,4.1,0,0,0,1.656-.3v.857a.357.357,0,0,1-.226.335,2.285,2.285,0,0,1-.6.186,6.158,6.158,0,0,1-.79.037,2.427,2.427,0,0,1-2.032-.745" transform="translate(-208.096 -41.371)" fill="#527288"></path>
    <path id="패스_1385" data-name="패스 1385" d="M293.521,22.987a1.981,1.981,0,0,1-.3-1.192V15.463a.3.3,0,0,1,.339-.335h.94V21.8c0,.335.113.484.339.484a2,2,0,0,0,.489-.037v.708a.393.393,0,0,1-.075.223.517.517,0,0,1-.151.112,1.739,1.739,0,0,1-1.579-.3" transform="translate(-270.117 -13.936)" fill="#527288"></path>
    <path id="패스_1386" data-name="패스 1386" d="M331.091,49.268a2.5,2.5,0,0,0,.3-1.378,2.647,2.647,0,0,0-.3-1.415,1.122,1.122,0,0,0-.941-.41,1.2,1.2,0,0,0-.978.41,2.647,2.647,0,0,0-.3,1.415,2.5,2.5,0,0,0,.3,1.378,1.2,1.2,0,0,0,.978.41,1.122,1.122,0,0,0,.941-.41m-2.859.857a3.245,3.245,0,0,1-.64-2.235,3.355,3.355,0,0,1,.64-2.272,2.627,2.627,0,0,1,1.918-.708,2.538,2.538,0,0,1,1.882.708,3.168,3.168,0,0,1,.677,2.272,3.066,3.066,0,0,1-.677,2.235,2.521,2.521,0,0,1-1.882.671,2.611,2.611,0,0,1-1.918-.671" transform="translate(-301.78 -41.371)" fill="#527288"></path>
    <path id="패스_1387" data-name="패스 1387" d="M407.386,51.654a1.693,1.693,0,0,1-.527-1.415v-3.65c0-.186.075-.261.263-.261h.979v3.65c0,.671.3,1.043.865,1.043a1.444,1.444,0,0,0,.6-.112,5.644,5.644,0,0,0,.64-.335V46.812a.694.694,0,0,1,.15-.372.3.3,0,0,1,.264-.112h1.016a3.271,3.271,0,0,0-.151,1.192v4.172c0,.186-.113.3-.338.3h-.941v-.3c-.264.112-.489.223-.677.3a2.215,2.215,0,0,1-.715.112,2.112,2.112,0,0,1-1.43-.447" transform="translate(-374.802 -42.678)" fill="#527288"></path>
    <path id="패스_1388" data-name="패스 1388" d="M483.434,22.093a1.552,1.552,0,0,0,.489-.3V18.7a4.212,4.212,0,0,0-.715-.074,1.491,1.491,0,0,0-1.091.372,2.05,2.05,0,0,0-.452,1.565,2.112,2.112,0,0,0,.3,1.229,1.01,1.01,0,0,0,.866.447,1.3,1.3,0,0,0,.6-.149m-2.52.559a3.553,3.553,0,0,1-.527-2.086c0-2.049.9-3.092,2.708-3.092a2.961,2.961,0,0,1,.828.112V16.432a4.418,4.418,0,0,1,.038-.782.492.492,0,0,1,.112-.373.319.319,0,0,1,.264-.149h1.016a3.369,3.369,0,0,0-.151,1.229V22.95c0,.186-.113.3-.338.3h-.941v-.3a2.422,2.422,0,0,1-1.391.41,1.944,1.944,0,0,1-1.618-.708" transform="translate(-442.536 -13.936)" fill="#527288"></path>
    <path id="패스_1389" data-name="패스 1389" d="M51.508,5.552l1.175-1.437H51.307a2.054,2.054,0,0,0-1.371.433l-.1.127V0h-1.4a.593.593,0,0,0-.594.592v8.72h1.4a.593.593,0,0,0,.594-.592V6.4l1.131,1.38.963,1.177a.9.9,0,0,0,.711.354h1.949l-1.26-1.536Zm5.575,1.583V4.115H55.089V7.506a1.729,1.729,0,0,0,1.82,1.807h1.533a.6.6,0,0,0,.6-.592V7.667H57.617a.533.533,0,0,1-.534-.532M59.371,3.05V1.735l-.124.13a2.079,2.079,0,0,1-1.452.383h-.712V0h-1.4a.594.594,0,0,0-.6.59V2.248H52.716a1.7,1.7,0,0,0-1.467.675L50.082,4.351a2.153,2.153,0,0,1,1.361-.519h6.352a1.92,1.92,0,0,0,1.417-.4.54.54,0,0,0,.159-.38" transform="translate(-44.072 -0.001)" fill="#527288"></path>
    <path id="패스_1390" data-name="패스 1390" d="M1143.751,194.537q-1.547-.084-2.545-.226V177.706q1.047-.119,2.427-.226t2.212-.107a6.989,6.989,0,0,1,4.282,1.106,4.217,4.217,0,0,1,1.451,3.58,3.78,3.78,0,0,1-2.094,3.592,3.973,3.973,0,0,1,1.975,1.451,4.159,4.159,0,0,1,.737,2.5,4.536,4.536,0,0,1-1.558,3.783,7.031,7.031,0,0,1-4.46,1.237q-.88,0-2.427-.083m5.424-12.454a2.523,2.523,0,0,0-.75-2.022,3.908,3.908,0,0,0-2.534-.642q-.928,0-2.355.143v5.162h2.331q3.306,0,3.307-2.641m-.369,9.766a2.567,2.567,0,0,0,.987-2.248,2.525,2.525,0,0,0-.916-2.189,4.425,4.425,0,0,0-2.629-.666h-2.712v5.662a19.12,19.12,0,0,0,2.569.143,4.585,4.585,0,0,0,2.7-.7" transform="translate(-1051.288 -163.397)" fill="#527288"></path>
    <path id="패스_1391" data-name="패스 1391" d="M1310.154,180.09h1.927v1.832q0,.548-.523.547h-1.88v-1.832q0-.547.476-.547m.119,4.33h1.737v11.871q0,.594-.547.595h-1.737V185.014q0-.594.547-.595" transform="translate(-1206.486 -165.9)" fill="#527288"></path>
    <path id="패스_1392" data-name="패스 1392" d="M1365.231,246.936v-.595a2.414,2.414,0,0,1,.071-.678,1.852,1.852,0,0,1,.31-.535l5.686-8.065h-5.162q-.6,0-.595-.571v-1.451h7.827a.547.547,0,0,1,.619.619v.619a2.123,2.123,0,0,1-.083.654,2.366,2.366,0,0,1-.345.607l-5.614,7.946h3.806a5.436,5.436,0,0,0,2.45-.381V246.7q0,.476-.559.642a8.136,8.136,0,0,1-2.01.167h-5.781q-.619,0-.619-.571" transform="translate(-1257.662 -216.522)" fill="#527288"></path>
    <path id="패스_1393" data-name="패스 1393" d="M1500.6,192.456q-1.5-2.141-1.5-6.471t1.5-6.471a6.463,6.463,0,0,1,9.611,0q1.5,2.141,1.5,6.471t-1.5,6.471a6.463,6.463,0,0,1-9.611,0m6.958-.595a3.707,3.707,0,0,0,1.285-2.022,13.539,13.539,0,0,0,.44-3.854,13.865,13.865,0,0,0-.428-3.866,3.648,3.648,0,0,0-1.273-2.01,4.281,4.281,0,0,0-4.354,0,3.645,3.645,0,0,0-1.273,2.01,17.659,17.659,0,0,0,0,7.732,3.642,3.642,0,0,0,1.273,2.01,3.7,3.7,0,0,0,2.177.595,3.653,3.653,0,0,0,2.153-.595" transform="translate(-1380.985 -163.397)" fill="#527288"></path>
    <path id="패스_1394" data-name="패스 1394" d="M1680.436,170.031v-1.356a.718.718,0,0,1,.155-.488.551.551,0,0,1,.44-.179h1.285v-1.094a4.977,4.977,0,0,1,.892-3.319,3.171,3.171,0,0,1,2.51-1.011,12.651,12.651,0,0,0,1.57-.071,2.486,2.486,0,0,0,.833-.238v1.594a.572.572,0,0,1-.4.595,5.463,5.463,0,0,1-1.546.143,1.348,1.348,0,0,0-1.19.547,3.206,3.206,0,0,0-.381,1.784v1.07h.714q.951,0,1.606-.048a2.491,2.491,0,0,0,1.035-.262v1.427a.729.729,0,0,1-.607.714,7.956,7.956,0,0,1-2.105.19h-.642v9.849q0,.594-.571.595h-1.713V170.031Z" transform="translate(-1548.031 -149.49)" fill="#527288"></path>
    <path id="패스_1395" data-name="패스 1395" d="M1792.447,170.031v-1.356a.718.718,0,0,1,.155-.488.551.551,0,0,1,.44-.179h1.285v-1.094a4.977,4.977,0,0,1,.892-3.319,3.171,3.171,0,0,1,2.51-1.011,12.65,12.65,0,0,0,1.57-.071,2.484,2.484,0,0,0,.833-.238v1.594a.572.572,0,0,1-.4.595,5.463,5.463,0,0,1-1.546.143,1.348,1.348,0,0,0-1.19.547,3.207,3.207,0,0,0-.38,1.784v1.07h.714q.951,0,1.606-.048a2.492,2.492,0,0,0,1.035-.262v1.427a.729.729,0,0,1-.607.714,7.956,7.956,0,0,1-2.105.19h-.642v9.849q0,.594-.571.595h-1.713V170.031Z" transform="translate(-1651.217 -149.49)" fill="#527288"></path>
    <path id="패스_1396" data-name="패스 1396" d="M1913.027,180.09h1.927v1.832q0,.548-.524.547h-1.879v-1.832q0-.547.476-.547m.119,4.33h1.737v11.871q0,.594-.547.595H1912.6V185.014q0-.594.547-.595" transform="translate(-1761.857 -165.9)" fill="#527288"></path>
    <path id="패스_1397" data-name="패스 1397" d="M1971.606,237.73a6.382,6.382,0,0,1,1.594-4.722,5.812,5.812,0,0,1,4.282-1.582,7.089,7.089,0,0,0,2.641-.309v1.665q0,.381-.619.547a7.8,7.8,0,0,1-1.879.166q-3.711,0-3.711,4.235a5.116,5.116,0,0,0,.869,3.247,2.947,2.947,0,0,0,2.438,1.082,7.606,7.606,0,0,0,3.259-.619v1.475a.766.766,0,0,1-.523.761,3.913,3.913,0,0,1-1.2.333,10.126,10.126,0,0,1-1.487.119q-5.662,0-5.662-6.4" transform="translate(-1816.259 -212.906)" fill="#527288"></path>
    <path id="패스_1398" data-name="패스 1398" d="M2102.608,243.89a7.421,7.421,0,0,1-1.356-4.841,7.63,7.63,0,0,1,1.3-4.722,4.663,4.663,0,0,1,3.961-1.7,4.356,4.356,0,0,1,3.64,1.475,5.877,5.877,0,0,1,1.166,3.759v.9a1.279,1.279,0,0,1-.3.952,1.319,1.319,0,0,1-.939.285h-6.566a3.65,3.65,0,0,0,.9,2.653,3.439,3.439,0,0,0,2.522.868,8.792,8.792,0,0,0,2.094-.25,8.7,8.7,0,0,0,1.832-.654v1.4a.841.841,0,0,1-.5.785,5.79,5.79,0,0,1-1.582.511,10.246,10.246,0,0,1-2.01.2,5.109,5.109,0,0,1-4.163-1.629m6.495-6.245a3.238,3.238,0,0,0-.7-2.248,2.879,2.879,0,0,0-4.08.155,3.9,3.9,0,0,0-.761,2.545h5.543Z" transform="translate(-1935.69 -214.297)" fill="#527288"></path>
  </g>
</svg>