<svg
              id="LOGO"
              data-name="그룹 1109"
              xmlns="http://www.w3.org/2000/svg"
              xmlns:xlink="http://www.w3.org/1999/xlink"
              width="198.546"
              height="36.222"
              viewBox="0 0 198.546 36.222"
            >
              <defs>
                <clipPath id="clip-path">
                  <rect
                    id="사각형_714"
                    data-name="사각형 714"
                    width="198.546"
                    height="36.222"
                    fill="none"
                  ></rect>
                </clipPath>
              </defs>
              <g
                id="그룹_1108"
                data-name="그룹 1108"
                clip-path="url(#clip-path)"
              >
                <path
                  id="패스_1359"
                  data-name="패스 1359"
                  d="M10.654,184.489a6.392,6.392,0,1,1,4.52-10.912l3.013-3.013a10.654,10.654,0,1,0,0,15.066l-3.013-3.013a6.372,6.372,0,0,1-4.52,1.872"
                  transform="translate(0 -152.528)"
                  fill="#2878ff"
                ></path>
                <path
                  id="패스_1360"
                  data-name="패스 1360"
                  d="M375.172,167.443A10.654,10.654,0,1,0,385.825,178.1a10.654,10.654,0,0,0-10.654-10.654m0,17.046a6.392,6.392,0,1,1,6.392-6.392,6.392,6.392,0,0,1-6.392,6.392"
                  transform="translate(-332.048 -152.528)"
                  fill="#2878ff"
                ></path>
                <path
                  id="패스_1361"
                  data-name="패스 1361"
                  d="M641.9,177.012v11.932a4.261,4.261,0,1,1-8.523,0V177.012h-4.261v11.932a8.523,8.523,0,1,0,17.046,0V177.012Z"
                  transform="translate(-573.073 -161.245)"
                  fill="#2878ff"
                ></path>
                <path
                  id="패스_1362"
                  data-name="패스 1362"
                  d="M257.7,192.353V177.012H253.86v19.6h9.8v-4.261Z"
                  transform="translate(-231.248 -161.244)"
                  fill="#2878ff"
                ></path>
                <path
                  id="패스_1363"
                  data-name="패스 1363"
                  d="M864.026,177.011h-7.67v19.6h7.67a9.8,9.8,0,0,0,0-19.6m0,15.341h-3.409v-11.08h3.409a5.54,5.54,0,1,1,0,11.08"
                  transform="translate(-780.076 -161.244)"
                  fill="#2878ff"
                ></path>
                <rect
                  id="사각형_713"
                  data-name="사각형 713"
                  width="1.278"
                  height="19.602"
                  transform="translate(20.482 15.767)"
                  fill="#2878ff"
                ></rect>
                <path
                  id="패스_1364"
                  data-name="패스 1364"
                  d="M226.618,50.721a3.773,3.773,0,0,1-.723-2.484,3.114,3.114,0,0,1,.851-2.4,3.285,3.285,0,0,1,2.338-.8,5.35,5.35,0,0,0,1.447-.126v1.053c0,.126-.128.211-.34.253a3.1,3.1,0,0,1-.979.084,1.8,1.8,0,0,0-1.4.463,2.108,2.108,0,0,0-.426,1.474c0,1.389.511,2.063,1.489,2.063a4.638,4.638,0,0,0,1.872-.337v.969a.4.4,0,0,1-.256.379,2.583,2.583,0,0,1-.68.211,6.962,6.962,0,0,1-.893.042,2.744,2.744,0,0,1-2.3-.842"
                  transform="translate(-205.773 -40.91)"
                  fill="#a0a0a0"
                ></path>
                <path
                  id="패스_1365"
                  data-name="패스 1365"
                  d="M293.56,24.013a2.24,2.24,0,0,1-.34-1.347V15.507a.337.337,0,0,1,.383-.379h1.062v7.538c0,.379.128.547.383.547a2.263,2.263,0,0,0,.553-.042v.8a.444.444,0,0,1-.085.253.584.584,0,0,1-.171.126,1.966,1.966,0,0,1-1.786-.337"
                  transform="translate(-267.101 -13.78)"
                  fill="#a0a0a0"
                ></path>
                <path
                  id="패스_1366"
                  data-name="패스 1366"
                  d="M331.548,49.837a2.824,2.824,0,0,0,.34-1.558,2.992,2.992,0,0,0-.34-1.6,1.269,1.269,0,0,0-1.064-.463,1.356,1.356,0,0,0-1.105.463,2.993,2.993,0,0,0-.34,1.6,2.825,2.825,0,0,0,.34,1.558,1.356,1.356,0,0,0,1.105.463,1.269,1.269,0,0,0,1.064-.463m-3.232.969a3.669,3.669,0,0,1-.723-2.527,3.793,3.793,0,0,1,.723-2.569,2.97,2.97,0,0,1,2.169-.8,2.869,2.869,0,0,1,2.127.8,3.581,3.581,0,0,1,.765,2.569,3.466,3.466,0,0,1-.765,2.527,2.85,2.85,0,0,1-2.127.758,2.951,2.951,0,0,1-2.169-.758"
                  transform="translate(-298.412 -40.91)"
                  fill="#a0a0a0"
                ></path>
                <path
                  id="패스_1367"
                  data-name="패스 1367"
                  d="M407.455,52.35a1.914,1.914,0,0,1-.6-1.6V46.623c0-.211.085-.295.3-.295h1.107v4.127c0,.758.34,1.179.978,1.179a1.632,1.632,0,0,0,.68-.126,6.379,6.379,0,0,0,.723-.379V46.875a.785.785,0,0,1,.169-.421.335.335,0,0,1,.3-.126h1.148a3.7,3.7,0,0,0-.171,1.348v4.716c0,.21-.128.337-.382.337h-1.064v-.337c-.3.126-.553.253-.765.337a2.5,2.5,0,0,1-.808.126,2.388,2.388,0,0,1-1.616-.505"
                  transform="translate(-370.618 -42.201)"
                  fill="#a0a0a0"
                ></path>
                <path
                  id="패스_1368"
                  data-name="패스 1368"
                  d="M483.832,23a1.754,1.754,0,0,0,.553-.337v-3.5a4.762,4.762,0,0,0-.808-.084,1.685,1.685,0,0,0-1.233.421,2.318,2.318,0,0,0-.511,1.769,2.388,2.388,0,0,0,.34,1.39,1.142,1.142,0,0,0,.979.505,1.47,1.47,0,0,0,.68-.168m-2.849.632a4.017,4.017,0,0,1-.6-2.358c0-2.316,1.02-3.5,3.062-3.5a3.347,3.347,0,0,1,.936.126V16.6a4.993,4.993,0,0,1,.043-.884.557.557,0,0,1,.126-.421.361.361,0,0,1,.3-.168H486a3.81,3.81,0,0,0-.171,1.389v7.453c0,.211-.128.337-.382.337h-1.064v-.337a2.738,2.738,0,0,1-1.573.463,2.2,2.2,0,0,1-1.829-.8"
                  transform="translate(-437.596 -13.78)"
                  fill="#a0a0a0"
                ></path>
                <path
                  id="패스_1369"
                  data-name="패스 1369"
                  d="M51.986,6.277l1.328-1.625H51.759a2.322,2.322,0,0,0-1.55.489l-.117.143V0H48.513a.671.671,0,0,0-.672.669v9.858H49.42a.671.671,0,0,0,.671-.669V7.236L51.371,8.8l1.088,1.33a1.014,1.014,0,0,0,.8.4h2.2L54.042,8.79Zm6.3,1.789V4.652H56.035V8.486a1.954,1.954,0,0,0,2.057,2.043h1.733a.673.673,0,0,0,.675-.669V8.667H58.893a.6.6,0,0,1-.6-.6m2.587-4.618V1.962l-.14.147a2.351,2.351,0,0,1-1.642.433h-.8V0h-1.58a.672.672,0,0,0-.674.668V2.541H53.352a1.923,1.923,0,0,0-1.659.763L50.374,4.918a2.434,2.434,0,0,1,1.539-.586h7.181a2.17,2.17,0,0,0,1.6-.455.61.61,0,0,0,.18-.429"
                  transform="translate(-43.58 -0.001)"
                  fill="#a0a0a0"
                ></path>
                <path
                  id="패스_1370"
                  data-name="패스 1370"
                  d="M1144.084,196.777q-1.748-.095-2.878-.255V177.75q1.183-.134,2.743-.255t2.5-.121a7.9,7.9,0,0,1,4.841,1.251,4.767,4.767,0,0,1,1.641,4.048,4.273,4.273,0,0,1-2.367,4.061,4.491,4.491,0,0,1,2.232,1.641,4.7,4.7,0,0,1,.834,2.824,5.128,5.128,0,0,1-1.761,4.276,7.95,7.95,0,0,1-5.043,1.4q-1,0-2.743-.094m6.132-14.079a2.852,2.852,0,0,0-.847-2.286,4.418,4.418,0,0,0-2.864-.726q-1.049,0-2.662.161v5.836h2.636q3.738,0,3.738-2.985m-.417,11.04a2.9,2.9,0,0,0,1.116-2.541,2.854,2.854,0,0,0-1.036-2.474,5,5,0,0,0-2.972-.753h-3.066v6.4a21.617,21.617,0,0,0,2.9.161,5.184,5.184,0,0,0,3.053-.793"
                  transform="translate(-1039.553 -161.573)"
                  fill="#6e6e6e"
                ></path>
                <path
                  id="패스_1371"
                  data-name="패스 1371"
                  d="M1310.216,180.091h2.178v2.071q0,.619-.592.619h-2.125V180.71q0-.618.538-.619m.135,4.895h1.963v13.42q0,.672-.619.672h-1.963v-13.42q0-.672.619-.672"
                  transform="translate(-1193.018 -164.049)"
                  fill="#6e6e6e"
                ></path>
                <path
                  id="패스_1372"
                  data-name="패스 1372"
                  d="M1365.231,248.489v-.672a2.723,2.723,0,0,1,.08-.766,2.091,2.091,0,0,1,.35-.605l6.428-9.117h-5.836q-.673,0-.672-.646v-1.64h8.848a.618.618,0,0,1,.7.7v.7a2.4,2.4,0,0,1-.094.74,2.674,2.674,0,0,1-.39.686l-6.347,8.983h4.3a6.146,6.146,0,0,0,2.77-.43v1.8q0,.538-.632.726a9.2,9.2,0,0,1-2.272.188h-6.535q-.7,0-.7-.645"
                  transform="translate(-1243.623 -214.106)"
                  fill="#6e6e6e"
                ></path>
                <path
                  id="패스_1373"
                  data-name="패스 1373"
                  d="M1500.8,194.424q-1.694-2.42-1.694-7.315t1.694-7.315q1.694-2.42,5.432-2.42t5.433,2.42q1.694,2.421,1.694,7.315t-1.694,7.315q-1.694,2.421-5.433,2.421t-5.432-2.421m7.866-.672a4.191,4.191,0,0,0,1.452-2.286,15.309,15.309,0,0,0,.5-4.357,15.676,15.676,0,0,0-.484-4.37,4.124,4.124,0,0,0-1.439-2.273,4.839,4.839,0,0,0-4.922,0,4.123,4.123,0,0,0-1.439,2.273,19.972,19.972,0,0,0,0,8.741,4.12,4.12,0,0,0,1.439,2.273,4.178,4.178,0,0,0,2.461.672,4.13,4.13,0,0,0,2.434-.672"
                  transform="translate(-1365.569 -161.573)"
                  fill="#6e6e6e"
                ></path>
                <path
                  id="패스_1374"
                  data-name="패스 1374"
                  d="M1680.436,171.045v-1.533a.812.812,0,0,1,.175-.551.622.622,0,0,1,.5-.2h1.452v-1.237a5.627,5.627,0,0,1,1.008-3.752,3.585,3.585,0,0,1,2.837-1.143,14.306,14.306,0,0,0,1.775-.081,2.812,2.812,0,0,0,.941-.269v1.8a.647.647,0,0,1-.457.672,6.18,6.18,0,0,1-1.748.161,1.524,1.524,0,0,0-1.345.619,3.624,3.624,0,0,0-.43,2.017v1.21h.807q1.075,0,1.815-.054a2.82,2.82,0,0,0,1.17-.3v1.614a.824.824,0,0,1-.686.807,8.991,8.991,0,0,1-2.38.215h-.726v11.134q0,.672-.645.672h-1.936V171.045Z"
                  transform="translate(-1530.751 -147.822)"
                  fill="#6e6e6e"
                ></path>
                <path
                  id="패스_1375"
                  data-name="패스 1375"
                  d="M1792.447,171.045v-1.533a.812.812,0,0,1,.175-.551.622.622,0,0,1,.5-.2h1.452v-1.237a5.627,5.627,0,0,1,1.008-3.752,3.585,3.585,0,0,1,2.837-1.143,14.307,14.307,0,0,0,1.775-.081,2.812,2.812,0,0,0,.941-.269v1.8a.647.647,0,0,1-.457.672,6.18,6.18,0,0,1-1.748.161,1.524,1.524,0,0,0-1.345.619,3.624,3.624,0,0,0-.43,2.017v1.21h.807q1.075,0,1.815-.054a2.821,2.821,0,0,0,1.17-.3v1.614a.824.824,0,0,1-.686.807,8.991,8.991,0,0,1-2.38.215h-.726v11.134q0,.672-.645.672h-1.936V171.045Z"
                  transform="translate(-1632.784 -147.822)"
                  fill="#6e6e6e"
                ></path>
                <path
                  id="패스_1376"
                  data-name="패스 1376"
                  d="M1913.089,180.091h2.178v2.071q0,.619-.592.619h-2.125V180.71q0-.618.538-.619m.134,4.895h1.963v13.42q0,.672-.619.672H1912.6v-13.42q0-.672.619-.672"
                  transform="translate(-1742.19 -164.049)"
                  fill="#6e6e6e"
                ></path>
                <path
                  id="패스_1377"
                  data-name="패스 1377"
                  d="M1971.606,238.593a7.214,7.214,0,0,1,1.8-5.339,6.569,6.569,0,0,1,4.841-1.788,8.014,8.014,0,0,0,2.985-.35V233q0,.43-.7.619a8.819,8.819,0,0,1-2.125.188q-4.2,0-4.2,4.787a5.786,5.786,0,0,0,.982,3.671,3.332,3.332,0,0,0,2.757,1.224,8.6,8.6,0,0,0,3.685-.7v1.667a.866.866,0,0,1-.592.861,4.423,4.423,0,0,1-1.358.377,11.45,11.45,0,0,1-1.681.135q-6.4,0-6.4-7.235"
                  transform="translate(-1795.985 -210.529)"
                  fill="#6e6e6e"
                ></path>
                <path
                  id="패스_1378"
                  data-name="패스 1378"
                  d="M2102.785,245.361a8.389,8.389,0,0,1-1.533-5.473,8.625,8.625,0,0,1,1.466-5.338,5.272,5.272,0,0,1,4.478-1.923,4.925,4.925,0,0,1,4.115,1.667,6.645,6.645,0,0,1,1.318,4.249v1.022a1.447,1.447,0,0,1-.336,1.076,1.493,1.493,0,0,1-1.062.323h-7.423a4.125,4.125,0,0,0,1.022,3,3.888,3.888,0,0,0,2.851.982,9.939,9.939,0,0,0,2.367-.282,9.83,9.83,0,0,0,2.071-.74v1.587a.951.951,0,0,1-.564.888,6.546,6.546,0,0,1-1.789.578,11.582,11.582,0,0,1-2.273.229,5.775,5.775,0,0,1-4.706-1.842m7.342-7.06a3.661,3.661,0,0,0-.793-2.541,3.254,3.254,0,0,0-4.613.175,4.407,4.407,0,0,0-.86,2.878h6.266Z"
                  transform="translate(-1914.083 -211.905)"
                  fill="#6e6e6e"
                ></path>
              </g>
            </svg>