<svg width="70" height="70" viewBox="0 0 70 70" fill="none" xmlns="http://www.w3.org/2000/svg">
  <path fill-rule="evenodd" clip-rule="evenodd"
    d="M32.8926 12.2929C33.2831 11.9024 33.9162 11.9024 34.3068 12.2929L34.5998 12.586L34.8929 12.2929C35.2834 11.9024 35.9166 11.9024 36.3071 12.2929C36.6976 12.6834 36.6976 13.3166 36.3071 13.7071L36.014 14.0002L54.9068 32.8929C55.2973 33.2834 55.2973 33.9166 54.9068 34.3071C54.5163 34.6976 53.8831 34.6976 53.4926 34.3071L49.6001 30.4147V57C49.6001 57.5523 49.1524 58 48.6001 58H20.2001C19.6478 58 19.2001 57.5523 19.2001 57V30.8141L15.7071 34.3071C15.3166 34.6976 14.6834 34.6976 14.2929 34.3071C13.9024 33.9166 13.9024 33.2834 14.2929 32.8929L33.1856 14.0002L32.8926 13.7071C32.502 13.3166 32.502 12.6834 32.8926 12.2929ZM34.5998 15.4144L22.2142 27.8H46.9854L34.5998 15.4144ZM47.6001 29.8H21.2001V56H47.6001V29.8ZM24.4002 35.8001C24.4002 35.2478 24.8479 34.8001 25.4002 34.8001H32.6002C33.1525 34.8001 33.6002 35.2478 33.6002 35.8001V43.0001C33.6002 43.5524 33.1525 44.0001 32.6002 44.0001H25.4002C24.8479 44.0001 24.4002 43.5524 24.4002 43.0001V35.8001ZM26.4002 36.8001V42.0001H31.6002V36.8001H26.4002Z"
    fill="#009ee3"
    stroke="#009ee3"
    stroke-width="1" />
</svg>
