<svg width="70" height="70" viewBox="0 0 70 70" fill="none" xmlns="http://www.w3.org/2000/svg">
<path fill-rule="evenodd" clip-rule="evenodd" d="M20.4803 26.1354H29.869C32.0524 26.1354 33.7992 24.1704 33.7992 22.2053C33.7992 20.0219 32.2708 18.2751 30.0874 18.2751C29.6507 17.4018 28.559 16.7467 27.4673 16.7467C26.8122 16.7467 26.5939 16.7467 26.1572 16.9651C25.5022 15.8734 24.4105 15 23.1004 15C21.3537 15 19.8253 16.5284 19.6069 18.2751C17.8602 18.7118 16.5501 20.2402 16.5501 22.2053C16.5501 24.3887 18.2969 26.1354 20.4803 26.1354ZM20.2617 19.8036C18.9517 19.8036 17.86 20.8953 17.86 22.2054C17.86 23.5154 18.9517 24.6071 20.2617 24.6071H29.6504C30.9605 24.6071 32.0522 23.5154 32.0522 22.2054C32.0522 20.8953 30.9605 19.8036 29.6504 19.8036H29.4321C28.9954 19.8036 28.7771 19.5853 28.5587 19.3669C28.7771 18.7119 28.1221 18.2752 27.467 18.2752C27.2487 18.2752 26.812 18.2752 26.3753 18.7119C26.157 18.9302 25.9386 18.9302 25.7203 18.9302C25.3637 18.9302 25.2983 18.7847 25.1675 18.4935L25.1674 18.4935C25.138 18.4281 25.1053 18.3553 25.0653 18.2752C24.8469 17.4018 23.9736 16.5285 23.1002 16.5285C22.0085 16.5285 21.1351 17.4018 21.1351 18.4935V18.7119C21.1351 18.9302 21.1351 19.1486 20.9168 19.3669C20.9168 19.5853 20.6984 19.8036 20.2617 19.8036ZM58.6899 54.0833L47.2844 34.2662L44.9347 36.6158C44.7164 36.8342 44.0614 36.8342 43.843 36.6158L42.0963 34.8691L38.8212 39.0176C38.6028 39.4543 38.3845 39.4543 38.1661 39.4543C37.9478 39.4543 37.7294 39.4543 37.5111 39.2359L33.9983 35.7231L30.9605 40.7645L29.6504 39.8911L40.5676 21.7687C40.7859 21.5504 41.0042 21.332 41.2226 21.332C41.4409 21.332 41.6593 21.5504 41.8776 21.7687L60 53.21L58.6899 54.0833ZM41.2226 23.7338L46.4868 32.8803L44.2797 35.0874L42.533 33.3407C42.3146 33.1223 42.0963 33.1223 41.8779 33.1223C41.6596 33.1223 41.4413 33.1223 41.2229 33.3407L37.9478 37.4892L34.8192 34.3606L41.2226 23.7338ZM10 53.2099L11.3101 54.0833L25.5023 31.5941L28.7774 35.9609L30.0875 35.0875L26.1573 29.629C25.939 29.4106 25.7206 29.4106 25.5023 29.4106C25.2839 29.4106 25.0656 29.4106 24.8473 29.629L10 53.2099ZM38.3843 49.7163L42.9695 54.3015L44.4979 53.2098L39.6944 48.4063C39.476 48.188 39.2577 48.188 39.0393 48.188H35.3275L30.0873 42.9477C29.869 42.7294 29.214 42.7294 28.9956 42.9477L18.7335 53.2098L19.8252 54.3015L29.4323 44.6945L34.0175 49.498C34.2358 49.7163 34.4542 49.7163 34.6725 49.7163H38.3843Z" fill="white"/>
</svg>
