<svg width="70" height="70" viewBox="0 0 70 70" fill="none" xmlns="http://www.w3.org/2000/svg">
<rect x="0.5" y="0.5" width="69" height="69" stroke="white" stroke-opacity="0.01"/>
<path fill-rule="evenodd" clip-rule="evenodd" d="M47.1883 24.9036C47.0385 24.8957 46.8907 24.8504 46.7602 24.761C46.3459 24.4989 46.2318 23.9522 46.4939 23.5379C46.5506 23.4582 46.6148 23.379 46.6783 23.3147C47.779 22.0881 48.433 20.5002 48.5193 18.8525C48.729 14.8529 45.6488 11.432 41.6493 11.2224C38.556 11.0603 35.7044 12.8786 34.5328 15.7462L34.4185 16.0631C34.2369 16.5193 33.7296 16.7405 33.266 16.5585C32.8174 16.3773 32.5961 15.87 32.7702 15.4135L32.8912 15.1119C34.3489 11.5158 37.8997 9.25351 41.7419 9.45487C46.7151 9.7155 50.5476 13.9719 50.2869 18.9451C50.1782 21.0197 49.3532 23.0043 47.9585 24.5384L47.9349 24.5597C47.7571 24.7982 47.4729 24.9185 47.1883 24.9036V24.9036Z" fill="white"/>
<path fill-rule="evenodd" clip-rule="evenodd" d="M31.3811 51.5898C29.3963 51.4858 27.4974 51.0333 25.706 50.2485C25.2656 50.0527 25.0601 49.5312 25.2564 49.0834C25.4526 48.6355 25.9815 48.4304 26.4215 48.6337C28.0075 49.3252 29.7136 49.73 31.4737 49.8223C39.4652 50.2411 46.3145 44.0811 46.7337 36.0821C46.824 34.3595 46.6131 32.6511 46.0987 31.0019C45.9579 30.5364 46.2168 30.0392 46.6898 29.8988C47.1482 29.7501 47.6524 30.0169 47.7932 30.4824C48.3577 32.3219 48.6026 34.2424 48.5013 36.1747C48.0311 45.1474 40.3463 52.0597 31.3811 51.5898" fill="white"/>
<path fill-rule="evenodd" clip-rule="evenodd" d="M18.0826 56.5294C18.0003 56.5251 17.9257 56.5137 17.8445 56.4869C17.5646 56.3821 17.3438 56.1527 17.2764 55.8638C17.2503 55.7873 16.8057 53.9541 16.4272 48.4217C16.4094 48.1879 16.4811 47.9664 16.6253 47.7937C17.4423 46.8226 18.3171 45.6067 19.2337 44.1677C25.5129 34.4105 32.048 17.3366 32.7717 15.4219L32.893 15.1128C33.0526 14.648 33.5677 14.4196 34.0246 14.5863C34.4815 14.7529 34.7178 15.261 34.5511 15.7179L34.4203 16.064C33.6966 17.9788 27.1005 35.2147 20.7231 45.1245C19.8554 46.4909 19.0121 47.6784 18.2177 48.6507C18.396 51.2661 18.599 52.9816 18.7463 54.0407L25.528 48.7409C25.904 48.4452 26.4712 48.5125 26.7665 48.8959C27.0694 49.2798 27.0025 49.8396 26.619 50.1349L18.6707 56.3424C18.506 56.4765 18.2924 56.5404 18.0826 56.5294" fill="white"/>
<path fill-rule="evenodd" clip-rule="evenodd" d="M46.8964 31.6251C46.4695 31.6027 46.1111 31.276 46.0669 30.8306C45.6844 26.9502 45.84 24.4124 46.5268 23.4871C46.5997 23.3858 46.7113 23.2639 46.8504 23.1886C47.2769 22.9331 47.8177 23.0741 48.0662 23.4927C48.2661 23.8336 48.2138 24.2589 47.9588 24.5385C47.8339 24.7722 47.3706 26.0172 47.8261 30.6524C47.8755 31.1432 47.5224 31.5753 47.0391 31.625C46.9863 31.6298 46.9414 31.6274 46.8964 31.6251V31.6251Z" fill="white"/>
<path fill-rule="evenodd" clip-rule="evenodd" d="M48.5269 22.9534C48.2273 22.9377 47.9359 22.7647 47.7857 22.4789C47.5605 22.0465 47.7311 21.5147 48.156 21.2892L52.3106 19.1111L48.6517 16.9892C48.2291 16.7418 48.0847 16.201 48.3246 15.7779C48.5721 15.3553 49.1129 15.2109 49.5355 15.4584L54.5794 18.3814C54.8562 18.5461 55.0356 18.8484 55.0262 19.1708C55.0169 19.4933 54.8364 19.7842 54.5506 19.9345L48.9829 22.8496C48.8359 22.932 48.6842 22.9616 48.5269 22.9534" fill="white"/>
<path fill-rule="evenodd" clip-rule="evenodd" d="M22.815 47.533C22.4405 47.5134 22.1081 47.2631 22.0079 46.8824C21.8813 46.4326 22.1232 45.9721 22.5595 45.8148C23.8736 45.2453 33.8419 39.474 36.3068 32.8515C37.1184 30.6935 37.0572 28.7076 36.1214 26.7885C35.9116 26.3494 36.0896 25.818 36.5362 25.6086C36.9682 25.3909 37.4992 25.5764 37.7165 26.0159C38.9781 28.598 38.9452 31.375 37.645 34.2584C34.3406 41.5655 23.7042 47.3318 23.0944 47.5026C22.9955 47.5274 22.9048 47.5377 22.815 47.533Z" fill="white"/>
<path fill-rule="evenodd" clip-rule="evenodd" d="M34.2613 57.3774C33.8269 57.3546 33.4764 57.0208 33.4317 56.5829L32.8517 50.7395C32.802 50.2563 33.1629 49.8171 33.6458 49.7748C34.1366 49.7254 34.5612 50.0781 34.6106 50.5689L35.1909 56.4047C35.2328 56.8951 34.8797 57.3272 34.3965 57.377C34.3511 57.3821 34.3062 57.3798 34.2613 57.3774" fill="white"/>
<path fill-rule="evenodd" clip-rule="evenodd" d="M40.4485 57.7017C40.0515 57.6809 39.7058 57.3999 39.6292 56.9978L38.0531 49.3824C37.9505 48.9039 38.2606 48.432 38.7388 48.3369C39.2248 48.2347 39.6892 48.5444 39.7918 49.0229L41.3604 56.6379C41.463 57.1165 41.1533 57.5809 40.6747 57.6835C40.5987 57.702 40.5234 57.7056 40.4485 57.7017" fill="white"/>
<path fill-rule="evenodd" clip-rule="evenodd" d="M28.4632 58.0236C27.9988 57.9992 27.6286 57.6118 27.6308 57.1388C27.6264 56.6504 28.0225 56.2581 28.5109 56.2536L45.5695 56.2014C46.0504 56.1965 46.4502 56.593 46.4546 57.0814C46.4591 57.5698 46.0626 57.9696 45.5667 57.9736L28.5156 58.0263C28.5006 58.0255 28.4856 58.0248 28.4632 58.0236" fill="white"/>
</svg>
