<svg width="70" height="70" viewBox="0 0 70 70" fill="none" xmlns="http://www.w3.org/2000/svg">
<rect x="0.5" y="0.5" width="69" height="69" stroke="white" stroke-opacity="0.01"/>
<path fill-rule="evenodd" clip-rule="evenodd" d="M35.4841 53.2502C25.2604 53.2502 16.9444 44.9343 16.9444 34.7106C16.9444 24.4853 25.2604 16.1678 35.4841 16.1678C45.7078 16.1678 54.0253 24.4853 54.0253 34.7106C54.0253 44.9343 45.7078 53.2502 35.4841 53.2502M35.484 14.6541C24.4268 14.6541 15.4307 23.6518 15.4307 34.7105C15.4307 45.7692 24.4268 54.7654 35.484 54.7654C46.5427 54.7654 55.5389 45.7692 55.5389 34.7105C55.5389 23.6518 46.5427 14.6541 35.484 14.6541" fill="white"/>
<path fill-rule="evenodd" clip-rule="evenodd" d="M35.4846 46.05C29.2313 46.05 24.1444 40.9632 24.1444 34.7098C24.1444 28.4564 29.2313 23.368 35.4846 23.368C41.738 23.368 46.8264 28.4564 46.8264 34.7098C46.8264 40.9632 41.738 46.05 35.4846 46.05M35.4848 21.8542C28.3979 21.8542 22.6309 27.6213 22.6309 34.7097C22.6309 41.7965 28.3979 47.5652 35.4848 47.5652C42.5732 47.5652 48.3402 41.7965 48.3402 34.7097C48.3402 27.6213 42.5732 21.8542 35.4848 21.8542" fill="white"/>
<mask id="mask0_207_10179" style="mask-type:luminance" maskUnits="userSpaceOnUse" x="5" y="15" width="9" height="41">
<path fill-rule="evenodd" clip-rule="evenodd" d="M5 15.6838H13.7866V55.2482H5V15.6838Z" fill="white"/>
</mask>
<g mask="url(#mask0_207_10179)">
<path fill-rule="evenodd" clip-rule="evenodd" d="M10.5073 38.8724V52.6207C10.5073 53.2353 10.0069 53.7341 9.39238 53.7341C8.77939 53.7341 8.279 53.2353 8.279 52.6207V38.8724C8.279 38.2578 8.77939 37.7574 9.39238 37.7574C10.0069 37.7574 10.5073 38.2578 10.5073 38.8724V38.8724ZM12.2729 20.4892C12.2729 21.8137 11.3691 22.9224 10.1494 23.257V15.6838H8.63568V23.257C7.41597 22.9208 6.51369 21.8137 6.51369 20.4892V15.6838H5V20.4892C5 22.6534 6.57468 24.4439 8.63568 24.8067V36.3689C7.55671 36.6957 6.76546 37.6871 6.76546 38.8724V52.6208C6.76546 54.0704 7.94295 55.2494 9.39253 55.2494C10.8421 55.2494 12.0212 54.0704 12.0212 52.6208V38.8724C12.0212 37.6871 11.2284 36.6957 10.1494 36.3689V24.8067C12.2119 24.4454 13.7866 22.6534 13.7866 20.4892V15.6838H12.2729V20.4892Z" fill="white"/>
</g>
<mask id="mask1_207_10179" style="mask-type:luminance" maskUnits="userSpaceOnUse" x="57" y="14" width="8" height="42">
<path fill-rule="evenodd" clip-rule="evenodd" d="M57.4307 14H65.0004V55.2482H57.4307V14Z" fill="white"/>
</mask>
<g mask="url(#mask1_207_10179)">
<path fill-rule="evenodd" clip-rule="evenodd" d="M63.4859 52.6207C63.4859 53.2353 62.9871 53.7341 62.3725 53.7341C61.7595 53.7341 61.2576 53.2353 61.2576 52.6207V38.8724C61.2576 38.2578 61.7595 37.7574 62.3725 37.7574C62.9871 37.7574 63.4859 38.2578 63.4859 38.8724V52.6207ZM59.9137 30.9585C58.1358 28.702 59.0162 22.3141 60.7472 17.4509C61.0334 16.6487 61.3477 16.178 61.6151 15.9028V31.8279C60.8911 31.7779 60.3297 31.4901 59.9137 30.9585V30.9585ZM63.1274 36.3689V14.7597C63.1274 14.386 62.8538 14.067 62.4816 14.0122C62.2752 13.9809 60.4393 13.8042 59.3213 16.9442C57.989 20.6847 56.1516 28.6269 58.7239 31.8951C59.4292 32.7911 60.4175 33.2837 61.6153 33.3431V36.3689C60.5363 36.6957 59.7451 37.6872 59.7451 38.8725V52.6208C59.7451 54.0704 60.9225 55.2495 62.3721 55.2495C63.8217 55.2495 65.0008 54.0704 65.0008 52.6208V38.8725C65.0008 37.6872 64.2079 36.6957 63.1274 36.3689V36.3689Z" fill="white"/>
</g>
</svg>
