<svg width="70" height="70" viewBox="0 0 70 70" fill="none" xmlns="http://www.w3.org/2000/svg">
<rect x="0.5" y="0.5" width="69" height="69" stroke="white" stroke-opacity="0.01"/>
<path fill-rule="evenodd" clip-rule="evenodd" d="M54.5225 52.4957C54.1082 52.0928 53.4414 52.1244 53.0551 52.5541C50.0861 55.8559 45.9268 59.2808 39.6836 59.3259H39.5558C36.0857 59.3259 32.6644 58.1619 29.6501 55.9517C29.2212 55.6388 28.794 55.2957 28.3802 54.9408V54.9408C28.3285 54.8966 28.3212 54.8192 28.3633 54.7658V54.7658C29.778 52.9795 30.5248 50.8298 30.5248 48.5506C30.5248 46.2681 29.778 44.1201 28.3633 42.3354V42.3354C28.3212 42.2829 28.329 42.2059 28.3802 42.1622V42.1622C28.8074 41.7938 29.2347 41.454 29.6501 41.1496C32.6661 38.941 36.0874 37.7737 39.5558 37.7737H39.6819C45.9366 37.8234 50.0922 41.2462 53.0552 44.546C53.4415 44.9761 54.1086 45.0082 54.5231 44.6051L61.6158 37.7085C61.6741 37.6518 61.7701 37.6648 61.8111 37.735V37.735C62.7093 39.264 63.1921 40.8636 63.2476 42.4902C63.3149 44.4447 62.7362 46.369 61.5723 48.0544V48.0544C61.365 48.3527 61.365 48.7485 61.5723 49.0468V49.0468C62.7362 50.7323 63.3149 52.6549 63.2476 54.6111C63.1921 56.236 62.7093 57.8356 61.8111 59.3663V59.3663C61.7699 59.4366 61.6732 59.4495 61.6143 59.3932V59.3932L54.5225 52.4957ZM27.0977 53.532V53.532C27.052 53.5935 26.9619 53.599 26.909 53.5435L26.9076 53.5421C25.5451 52.1241 24.3088 50.4656 23.2356 48.6153V48.6153C23.2128 48.5758 23.2128 48.527 23.2356 48.4875V48.4875C24.3105 46.6372 25.5451 44.9787 26.9076 43.5607V43.5607C26.9608 43.5049 27.0521 43.5102 27.0977 43.5725V43.5725C28.191 45.0157 28.7696 46.7381 28.7696 48.5514C28.7696 50.3663 28.191 52.0871 27.0977 53.532ZM6.75589 25.8738C6.75589 23.3306 8.82651 21.26 11.3715 21.26C13.9147 21.26 15.987 23.3306 15.987 25.8738C15.987 28.4188 13.9147 30.4894 11.3715 30.4894C8.82651 30.4894 6.75589 28.4188 6.75589 25.8738ZM61.2633 61.4941C61.6459 61.8663 62.2694 61.8133 62.5836 61.3819V61.3819C64.0807 59.3213 64.915 57.0001 64.994 54.6637C65.0647 52.5561 64.5062 50.4619 63.3759 48.6167V48.6167C63.3511 48.5765 63.3511 48.5257 63.3759 48.4855V48.4855C64.5062 46.6386 65.0647 44.5461 64.994 42.4368C64.915 40.1021 64.0807 37.7809 62.5836 35.7203V35.7203C62.2694 35.2889 61.6458 35.2358 61.2631 35.6079L53.9602 42.7097C53.9093 42.7592 53.8276 42.7567 53.7797 42.7043V42.7043C49.8824 38.4419 44.88 36.0719 39.6942 36.0282C39.6705 36.0282 39.6468 36.0277 39.6234 36.0273L39.6231 36.0273L39.6228 36.0273C39.5998 36.0269 39.577 36.0265 39.5546 36.0265C35.7111 36.0265 31.9315 37.3082 28.6128 39.7371C28.1081 40.1072 27.617 40.5024 27.1527 40.9112V40.9112C27.1051 40.952 27.0348 40.9527 26.9862 40.9129V40.9129C25.4375 39.5988 23.5281 38.7911 21.5246 38.5868C21.0374 38.5371 20.6364 38.9363 20.6364 39.426V39.426C20.6364 39.9064 21.0233 40.293 21.5002 40.3508C23.0234 40.5354 24.4818 41.1447 25.6826 42.1105V42.1105C25.7402 42.1564 25.7454 42.242 25.6938 42.2944L25.6927 42.2955C24.0931 43.954 22.6599 45.9153 21.432 48.1255V48.1255C21.2864 48.3906 21.2864 48.7116 21.432 48.9767V48.9767C22.6583 51.1835 24.0914 53.1448 25.6927 54.805V54.805C25.7449 54.858 25.7403 54.9448 25.6826 54.9917V54.9917C24.2243 56.1641 22.3891 56.8117 20.5086 56.8117C18.3034 56.8117 16.2278 55.9522 14.6685 54.3912C13.1075 52.8336 12.248 50.758 12.248 48.5511V32.2936C12.248 32.2309 12.2937 32.1775 12.3556 32.1678V32.1678C15.4759 31.6851 17.7416 29.0375 17.7416 25.8736C17.7416 22.7618 15.4271 20.0553 12.3556 19.5793V19.5793C12.2937 19.5696 12.248 19.5162 12.248 19.4535V8.87719C12.248 8.39273 11.8553 8 11.3708 8V8C10.8863 8 10.4936 8.39273 10.4936 8.8772V19.4552C10.4936 19.517 10.4487 19.5696 10.3876 19.5793V19.5793C7.3162 20.0553 5 22.7618 5 25.8736C5 29.0358 7.26405 31.6834 10.3876 32.1695V32.1695C10.4487 32.1792 10.4936 32.2318 10.4936 32.2936V48.5511C10.4936 51.2256 11.5348 53.7403 13.4254 55.6343C15.3178 57.5249 17.8341 58.5661 20.5086 58.5661C22.8803 58.5661 25.1814 57.7234 26.9845 56.191L26.9857 56.1901C27.0335 56.1508 27.1028 56.1519 27.1494 56.1927V56.1927C27.6237 56.6048 28.1149 56.9984 28.6128 57.3634C31.9298 59.7923 35.7127 61.0757 39.563 61.0757C39.5846 61.0757 39.6063 61.0753 39.6282 61.0749C39.641 61.0746 39.654 61.0744 39.6671 61.0742C39.6766 61.0741 39.6862 61.074 39.6959 61.074C44.8716 61.0303 49.8723 58.6569 53.7797 54.3963V54.3963C53.8279 54.3444 53.91 54.3426 53.9614 54.3912V54.3912L61.2633 61.4941ZM47.6348 48.55C47.6348 46.2254 45.7442 44.2944 43.4179 44.2489V44.2489C43.3614 44.248 43.3128 44.2089 43.2995 44.154L43.2985 44.1497C42.9244 42.5347 41.6865 41.3193 40.1335 40.9429C39.6482 40.8253 39.2312 41.235 39.2312 41.7344V41.7344C39.2312 42.2072 39.6136 42.5817 40.0524 42.7578C40.9906 43.1344 41.6551 44.0532 41.6551 45.1236C41.6551 46.1825 41.0064 47.0924 40.086 47.4773C39.631 47.6675 39.2312 48.0577 39.2312 48.5508V48.5508C39.2312 49.0439 39.631 49.4341 40.086 49.6243C41.0064 50.0091 41.6551 50.9187 41.6551 51.9763C41.6551 53.0481 40.9906 53.9683 40.0523 54.3453C39.6137 54.5216 39.2312 54.8961 39.2312 55.3689V55.3689C39.2312 55.8683 39.6482 56.278 40.1335 56.1604C41.6865 55.784 42.9244 54.5687 43.2985 52.9536L43.2995 52.9493C43.3128 52.8944 43.3614 52.8553 43.4179 52.8544V52.8544C45.7442 52.8073 47.6348 50.8763 47.6348 48.55ZM43.2959 50.9993C43.3094 51.0584 43.3631 51.1005 43.4237 51.0985V51.0985C44.7997 51.0481 45.8779 49.9295 45.8779 48.5502C45.8779 47.1726 44.7997 46.054 43.4237 46.0036V46.0036C43.3635 46.0016 43.3096 46.0425 43.2959 46.1011V46.1011C43.1125 46.885 42.7156 47.5998 42.147 48.1684C42.0444 48.2693 41.9368 48.3669 41.8325 48.4526V48.4526C41.7701 48.5021 41.7696 48.5969 41.8308 48.6478V48.6478C41.9401 48.7403 42.0478 48.8345 42.147 48.9337C42.7156 49.5039 43.1125 50.2188 43.2959 50.9993V50.9993Z" fill="white"/>
</svg>
