<svg width="70" height="70" viewBox="0 0 70 70" fill="none" xmlns="http://www.w3.org/2000/svg">
<rect x="0.5" y="0.5" width="69" height="69" stroke="white" stroke-opacity="0.01"/>
<path fill-rule="evenodd" clip-rule="evenodd" d="M30.7718 6.12288C31.0949 6.04841 31.4327 6.15754 31.6511 6.40692L36.4344 11.8686L58.1013 16.9649L58.1067 16.9661L58.1089 16.9666L58.1192 16.969L58.1633 16.9793C58.2011 16.9883 58.2553 17.0014 58.3241 17.0187C58.4617 17.0532 58.6578 17.1043 58.8976 17.172C59.3762 17.3072 60.0339 17.51 60.7493 17.7807C62.1298 18.303 63.9144 19.1459 64.928 20.3722C65.3716 20.9087 65.7331 21.4783 65.8718 22.0212C65.9111 22.1751 65.9084 22.3336 65.8678 22.4818C65.7564 23.2083 65.3761 24.0815 64.7508 24.7489C64.0706 25.475 63.035 26.0125 61.7386 25.7333L61.7283 25.7311L51.0582 23.3011L41.0493 28.7107C41.0228 28.7251 40.9955 28.7381 40.9676 28.7497C38.1421 29.9269 36.3875 29.9515 35.3295 29.2141C34.7931 28.8402 34.5481 28.3403 34.4409 27.9542C34.3877 27.7627 34.3664 27.5935 34.3582 27.4686C34.3541 27.4056 34.3533 27.3521 34.3537 27.3106C34.354 27.2897 34.3545 27.2718 34.3552 27.2569L34.3562 27.2369L34.3567 27.2287L34.3569 27.2251L34.3571 27.2234C34.3571 27.2225 34.3572 27.2217 35.2548 27.2876L34.3572 27.2217C34.374 26.9932 34.4773 26.7797 34.646 26.6247L42.8416 19.099C43.2078 18.7628 43.7771 18.787 44.1133 19.1531C44.4495 19.5192 44.4252 20.0886 44.0591 20.4248L36.2347 27.6097C36.264 27.6557 36.3039 27.6991 36.3588 27.7374C36.587 27.8964 37.5075 28.234 40.2338 27.1054L52.3865 20.5372C52.8237 20.3009 53.3698 20.4637 53.6061 20.901C53.8067 21.272 53.7198 21.7213 53.4218 21.9933L62.1223 23.9746C62.6573 24.0882 63.0813 23.8982 63.4372 23.5183C63.6116 23.3322 63.7536 23.1142 63.861 22.8963L60.9014 22.186C60.4181 22.07 60.1203 21.5841 60.2363 21.1008C60.3523 20.6175 60.8382 20.3197 61.3215 20.4357L62.6989 20.7662C61.9783 20.2569 61.0404 19.8154 60.1123 19.4642C59.4575 19.2164 58.8512 19.0293 58.4084 18.9043C58.1875 18.8419 58.0086 18.7953 57.8862 18.7646C57.8251 18.7493 57.7782 18.7379 57.7473 18.7306L57.7133 18.7226L57.7057 18.7209L57.7048 18.7207L57.6968 18.7189L35.7414 13.5548C35.5587 13.5118 35.3941 13.4128 35.2704 13.2716L31.8802 9.4006L32.7981 13.3837C32.8675 13.6846 32.7778 13.9999 32.5605 14.2192C32.3433 14.4385 32.0288 14.5312 31.7273 14.4647L29.8322 14.0468C31.2029 15.1293 32.9291 16.064 34.6144 16.8211C36.738 17.7752 38.7139 18.4114 39.6469 18.6909C40.123 18.8335 40.3935 19.3351 40.2509 19.8112C40.1083 20.2874 39.6067 20.5578 39.1305 20.4152C38.1554 20.1232 36.0982 19.4611 33.8767 18.463C31.6727 17.4728 29.2228 16.1153 27.527 14.4033C27.3174 14.1917 27.2261 13.8901 27.2831 13.5977L27.4723 12.6274C27.5187 12.3893 27.6592 12.1801 27.862 12.047C28.0647 11.914 28.3126 11.8685 28.5495 11.9207L30.7243 12.4003L29.5551 7.32693C29.4435 6.8426 29.7456 6.35948 30.2299 6.24782L30.7718 6.12288ZM41.2228 7.86506C41.4351 7.56571 41.8078 7.42522 42.1649 7.51001C45.8167 8.37722 49.1061 11.2614 50.8743 13.0572C51.223 13.4113 51.2186 13.9812 50.8644 14.3299C50.5102 14.6787 49.9404 14.6743 49.5917 14.3201C48.3157 13.0242 46.3643 11.2998 44.1789 10.1829L45.2548 11.8603C45.5232 12.2787 45.4015 12.8354 44.9832 13.1038C44.5648 13.3721 44.008 13.2505 43.7397 12.8321L41.1994 8.87157C41.0012 8.56267 41.0105 8.16441 41.2228 7.86506ZM21.0122 23.0294C21.5092 23.0294 21.9122 23.4323 21.9122 23.9294V26.3616H27.9893C28.4863 26.3616 28.8893 26.7645 28.8893 27.2616V31.3313H27.0893V28.1616H14.9351V31.3313H13.1351V27.2616C13.1351 26.7645 13.538 26.3616 14.0351 26.3616H20.1122V23.9294C20.1122 23.4323 20.5151 23.0294 21.0122 23.0294ZM9.52244 34.3206C9.52244 33.8235 9.92538 33.4206 10.4224 33.4206H31.6006C32.0976 33.4206 32.5006 33.8235 32.5006 34.3206V42.438L37.3237 44.1462C37.7768 44.3067 38.0238 44.7948 37.8848 45.2549L33.8094 58.7414L32.0864 58.2208L35.9133 45.5562L21.9122 40.5973V59.8774H20.1122V40.5969L6.10983 45.5562L9.90806 58.1202L8.18507 58.641L4.13832 45.255C3.99922 44.7949 4.24624 44.3067 4.69934 44.1462L9.52244 42.438V34.3206ZM11.3224 41.8005L20.4598 38.5642C20.5563 38.53 20.658 38.5126 20.7603 38.5126H21.2627C21.3651 38.5126 21.4667 38.53 21.5632 38.5642L30.7006 41.8004V35.2206H11.3224V41.8005ZM17.9228 44.68C18.0982 45.145 17.8635 45.6643 17.3985 45.8398L14.9856 46.7503C14.5205 46.9258 14.0013 46.6911 13.8258 46.226C13.6503 45.761 13.885 45.2417 14.3501 45.0662L16.763 44.1557C17.228 43.9802 17.7473 44.2149 17.9228 44.68ZM24.1003 44.68C24.2758 44.2149 24.7951 43.9802 25.2601 44.1557L27.673 45.0662C28.1381 45.2417 28.3728 45.761 28.1973 46.226C28.0218 46.6911 27.5026 46.9258 27.0375 46.7503L24.6246 45.8398C24.1596 45.6643 23.9248 45.145 24.1003 44.68ZM4.5762 61.5423C4.5762 61.0452 4.97914 60.6423 5.4762 60.6423H5.53829C5.7778 60.6423 6.00737 60.7377 6.17623 60.9074C6.17653 60.9077 6.17746 60.9087 6.17776 60.909C6.17799 60.9092 6.17881 60.91 6.17904 60.9103C6.18316 60.9143 6.19159 60.9224 6.20356 60.9336C6.2275 60.956 6.26687 60.992 6.321 61.0383C6.42943 61.1313 6.59596 61.2651 6.81529 61.4157C7.25572 61.7182 7.89737 62.0805 8.69961 62.3211C10.2625 62.7898 12.5365 62.8316 15.2802 60.8169C15.4346 60.7034 15.6212 60.6423 15.8129 60.6423H15.8748C16.1144 60.6423 16.3441 60.7378 16.513 60.9077C16.5131 60.9078 16.5129 60.9076 16.513 60.9077C16.5133 60.908 16.514 60.9087 16.5143 60.909C16.5145 60.9092 16.5153 60.91 16.5155 60.9103C16.5197 60.9143 16.5281 60.9224 16.5401 60.9336C16.564 60.956 16.6034 60.992 16.6575 61.0383C16.7659 61.1313 16.9325 61.2651 17.1518 61.4157C17.5922 61.7182 18.2339 62.0805 19.0361 62.3211C20.5988 62.7898 22.8725 62.8316 25.6155 60.8169C25.77 60.7035 25.9566 60.6423 26.1483 60.6423H26.2115C26.4511 60.6423 26.6808 60.7378 26.8497 60.9077C26.8498 60.9078 26.8496 60.9076 26.8497 60.9077C26.85 60.908 26.8506 60.9087 26.8509 60.909C26.8512 60.9092 26.852 60.91 26.8522 60.9103C26.8563 60.9143 26.8648 60.9224 26.8767 60.9336C26.9007 60.956 26.94 60.992 26.9942 61.0383C27.1026 61.1313 27.2691 61.2651 27.4885 61.4157C27.9289 61.7182 28.5705 62.0805 29.3727 62.3211C30.9354 62.7898 33.2091 62.8316 35.952 60.8169C36.1065 60.7035 36.2931 60.6423 36.4848 60.6423H36.5469C37.0439 60.6423 37.4469 61.0452 37.4469 61.5423C37.4469 61.9341 37.1964 62.2675 36.8469 62.3911C33.702 64.6298 30.9033 64.6593 28.8556 64.0452C27.8341 63.7388 27.0244 63.2807 26.4694 62.8995C26.3433 62.8129 26.2297 62.7298 26.1292 62.6528C23.1394 64.6312 20.4836 64.6344 18.519 64.0452C17.4975 63.7388 16.6877 63.2807 16.1327 62.8995C16.0068 62.813 15.8935 62.7301 15.7931 62.6532C12.803 64.6312 10.1471 64.6344 8.18255 64.0452C7.16098 63.7388 6.35123 63.2807 5.79622 62.8995C5.51782 62.7083 5.30062 62.5344 5.14975 62.4052C5.13054 62.3887 5.11238 62.3729 5.0953 62.3579C4.78864 62.2145 4.5762 61.9032 4.5762 61.5423Z" fill="white"/>
</svg>
