<svg width="70" height="70" viewBox="0 0 70 70" fill="none" xmlns="http://www.w3.org/2000/svg">
  <rect x="0.5" y="0.5" width="69" height="69" stroke="#009ee3" stroke-opacity="0.01"/>
  <path fill-rule="evenodd" clip-rule="evenodd"
    d="M34.6172 12.1186C34.6068 12.1186 34.5965 12.1184 34.5862 12.1181H29.3858V20.8657H56.6391L62.5367 16.4919L56.6391 12.1181H34.6482C34.6379 12.1184 34.6276 12.1186 34.6172 12.1186ZM35.5409 6.91581V10.2784H56.9469C57.1443 10.2784 57.3338 10.3416 57.4917 10.46L64.6208 15.7575C64.8577 15.9312 64.9998 16.1996 64.9998 16.4917C64.9998 16.7838 64.8577 17.0602 64.6208 17.2338L57.4917 22.5156C57.3338 22.6419 57.1443 22.6972 56.9469 22.6972H35.5409V24.6336H41.5378C42.0431 24.6336 42.4537 25.0442 42.4537 25.5573V36.1366C42.4537 36.6497 42.0431 37.0524 41.5378 37.0524H35.5409V61.3222H40.7702C41.2754 61.3222 41.6939 61.7328 41.6939 62.2381C41.6939 62.7512 41.2754 63.1618 40.7702 63.1618H34.6395L34.6172 63.162L34.5949 63.1618H28.4619C27.9566 63.1618 27.5461 62.7512 27.5461 62.2381C27.5461 61.7328 27.9566 61.3222 28.4619 61.3222H33.7014V37.0524H13.0529C12.8634 37.0524 12.6739 36.9971 12.5081 36.8708L5.37896 31.5891C5.14211 31.4154 5 31.1391 5 30.847C5 30.5548 5.14211 30.2864 5.37896 30.1127L12.5081 24.8152C12.6739 24.6968 12.8634 24.6336 13.0529 24.6336H33.7014V22.6972H28.4619C27.9566 22.6972 27.5461 22.2945 27.5461 21.7813V11.1942C27.5461 10.6889 27.9566 10.2784 28.4619 10.2784H33.7014V6.91581C33.7014 6.41054 34.1119 6 34.6172 6C35.1225 6 35.5409 6.41054 35.5409 6.91581ZM34.5769 26.4733H13.3604L7.46286 30.8471L13.3604 35.2209H40.6138V26.4733H34.6575C34.6441 26.4739 34.6307 26.4742 34.6172 26.4742C34.6037 26.4742 34.5903 26.4739 34.5769 26.4733Z"
    fill="#009ee3"
    stroke="#009ee3"
    stroke-width="1"
  />
</svg>
