<svg width="70" height="70" viewBox="0 0 70 70" fill="none" xmlns="http://www.w3.org/2000/svg">
<rect opacity="0.01" width="70" height="70" fill="white"/>
<path d="M24.7 60.1C24.1 60.1 23.7 59.8 23.2 59.4C22.4 58.8 22 58.1 21.9 57.3C21.9 56.7 22 56 22.4 55.4L28.3 48L29.9 44.1C29.9 44.1 29.9 43.9 30.1 43.8C30.3 43.6 30.5 43.5 30.8 43.5C31.1 43.5 31.4 43.5 31.6 43.8C32 44.2 33.1 45.4 34 46.5C34 46.5 34.5 47 35 47.6L35.2 47.9C35.4 48.2 35.4 48.6 35.2 48.9L33.5 51.8L28 58.3C27.6 58.7 27.1 59.2 26.6 59.5C26 59.9 25.3 60.1 24.7 60.1ZM31.1 46.2C31.1 46.2 30.3 48.8 29.8 49.3L24 56.6C24 56.8 23.8 57.1 23.9 57.3C23.9 57.3 23.9 57.5 24.4 57.9C24.6 58 24.7 58.1 24.8 58.1C25 58.1 25.2 58.1 25.6 57.9C26.2 57.5 26.4 57.2 26.5 57.1L31.9 50.8L33.2 48.6C32.9 48.3 31.6 46.7 31.1 46.2ZM47.2 59.8C46.1 59.8 45.2 59.4 44.4 58.5C43.9 57.9 43.6 57.3 43.6 57.2L40.2 49.9L33.2 42.1C32.8 41.7 32.4 41.1 32.1 40.3C31.8 39.6 31.7 38.8 31.7 38.3L33.3 25.6C33.5 23.6 35.3 22.1 37.3 22.3C38.8 22.4 39.9 23 40.6 23.9C41.4 24.9 41.7 26.3 41.5 28.1L39.7 38.2L45.9 45.1C46.4 45.5 46.7 46.1 46.9 46.8L49.6 55.2C49.7 55.7 49.8 56.1 49.9 56.4C49.9 56.7 50 57.1 49.9 57.4C49.9 57.9 49.9 58.2 49.6 58.5C49.4 58.8 49.1 59 48.9 59.2C48.6 59.4 48.3 59.5 47.9 59.6C47.5314 59.6921 47.3 59.8 47.1 59.8H47.2ZM36.8 24.4C35.9 24.4 35.4 24.9 35.3 25.8L33.7 38.6C33.7 38.6 33.7 39 34 39.6C34.2 40.2 34.5 40.5 34.6 40.7L41.7 48.6L42 49L45.3 56.2C45.3 56.2 45.5 56.7 45.8 57C46.1 57.3 46.5 57.6 46.9 57.6C47.3 57.6 47.7 57.6 47.8 57.2C47.8 57.2 47.8 57.2 47.8 57.1C47.8 56.7 47.7 56.3 47.5 55.8L44.8 47.5C44.7 47.1 44.5 46.8 44.3 46.6H44.2L37.7 39.2C37.5 39 37.4 38.7 37.5 38.4L39.4 27.9C39.4 26.7 39.4 25.8 38.9 25.3C38.5 24.8 37.9 24.5 36.9 24.4H36.7H36.8ZM25.2 39.9C25 39.9 24.8242 39.8 24.6 39.8L22.1 39.5C20.9 39.4 19.8 38.8 19 37.8C18.2 36.8 17.9 35.6 18 34.4L18.2 33C18.2 32 18.6 30.8 19 29.9C19.3 29.1 19.9 28.3 20.7 27.7C21.5 27.1 21.4 27 21.6 26.3C21.9 25.5 22.2 24.6 22.3 23.7C22.4 22.5 23 21.4 24 20.6C24.9 19.8 26.1 19.5 27.4 19.7C28.6 19.9 29.7 20.5 30.5 21.5C31.2 22.5 31.6 23.7 31.4 24.9L29.9 35.8C29.6 38.1 27.6 39.9 25.2 39.9ZM25.2 22C24.7 22.4 24.3 23 24.3 23.7C24.3 25.1 23.8 26.2 23.5 26.9C23.3 27.4 23 27.8 22.8 28.1C22.6 28.4 22 29 21.7 29.2C21.4 29.4 21.2 29.7 20.8 30.5C20.5 31.3 20.2 32.2 20.1 33L19.9 34.4C19.9 35.1 20 35.8 20.5 36.3C20.9 36.8 21.6 37.2 22.2 37.2L24.7 37.5H25C26.4 37.5 27.5 36.5 27.7 35.2L29.2 24.3C29.2 23.6 29.2 23.1 28.7 22.4C28.2 21.7 27.7 21.5 27 21.4C26.3 21.4 25.6 21.7 25.2 22ZM50 39.6C49.3 39.6 48.6 39.3 48.1 38.9L43.1 35.3C42.8 35.1 42.7 34.8 42.7 34.5V34C42.7 33.4 43.3 30.8 43.5 29.7C43.5 29.3 43.8 29.1 44.2 28.9C44.5 28.8 44.9 28.9 45.2 29.1L46 29.9L50.7 34.3C51.3 34.8 51.6 35.1 51.9 35.5C52.3 36 52.5 36.5 52.5 36.9C52.5 37.5 52.3 38.1 51.9 38.5C51.4 39.1 50.8 39.6 50 39.6ZM44.8 34.1L49.2 37.3C49.5 37.5 49.7 37.6 49.9 37.6C50.1 37.6 50.3 37.6 50.4 37.3C50.4 37.3 50.6 37 50.3 36.7C50 36.4 49.8 36.2 49.4 35.8L45.2 31.9C45 32.9 44.9 33.7 44.8 34.1ZM39.1 20.8C36.1 20.8 33.7 18.4 33.7 15.4C33.7 12.4 36.1 10 39.1 10C42.1 10 44.5 12.4 44.5 15.4C44.5 18.4 42.1 20.8 39.1 20.8ZM39.1 12C37.2 12 35.7 13.5 35.7 15.4C35.7 17.3 37.2 18.8 39.1 18.8C41 18.8 42.5 17.3 42.5 15.4C42.5 13.5 41 12 39.1 12Z" fill="white"/>
</svg>
