<svg width="70" height="70" viewBox="0 0 70 70" fill="none" xmlns="http://www.w3.org/2000/svg">
<rect x="0.5" y="0.5" width="69" height="69" stroke="white" stroke-opacity="0.01"/>
<path fill-rule="evenodd" clip-rule="evenodd" d="M35.1684 19C32.9823 19 31.2096 20.7721 31.2096 22.9588C31.2096 23.5111 30.7619 23.9588 30.2096 23.9588C29.6573 23.9588 29.2096 23.5111 29.2096 22.9588C29.2096 19.6673 31.8779 17 35.1684 17C38.4586 17 41.1279 19.6671 41.1279 22.9588C41.1279 25.9096 38.9828 28.3586 36.1681 28.8341L36.1677 30.6089L61.4203 44.4016L61.4393 44.4123L60.941 45.2792L60.9409 45.2793C61.4393 44.4123 61.4397 44.4125 61.4401 44.4127L61.4409 44.4132L61.4429 44.4144L61.4476 44.4171L61.4606 44.4248C61.4708 44.4308 61.4839 44.4387 61.4998 44.4485C61.5316 44.468 61.5744 44.495 61.6262 44.5293C61.7297 44.5977 61.8706 44.6962 62.0322 44.8234C62.3516 45.0747 62.7716 45.4536 63.1413 45.9517C63.5112 46.4502 63.8524 47.0978 63.963 47.8767C64.0737 48.657 63.9429 49.5023 63.4797 50.3727C63.4628 50.4111 63.4403 50.4589 63.4112 50.5146C63.353 50.6259 63.2686 50.7688 63.15 50.9318C62.9117 51.2594 62.5397 51.6622 61.9763 52.0518C60.843 52.8355 59.0068 53.5179 56.0731 53.5179H13.9277C11.0604 53.5179 9.23026 52.8324 8.08677 52.057C7.51897 51.672 7.13685 51.2757 6.88917 50.9563C6.76573 50.7971 6.67649 50.6581 6.61452 50.5504C6.58355 50.4966 6.55939 50.4507 6.54117 50.4139C6.53695 50.4054 6.53305 50.3974 6.52946 50.3899C6.05873 49.5134 5.92552 48.6621 6.03713 47.8766C6.1478 47.0977 6.4891 46.4501 6.85919 45.9515C7.22893 45.4535 7.64906 45.0746 7.96849 44.8233C8.13014 44.6961 8.27109 44.5976 8.37458 44.5292C8.42645 44.4949 8.46928 44.4679 8.50104 44.4484C8.51693 44.4387 8.53008 44.4307 8.54025 44.4247L8.55323 44.4171L8.55799 44.4143L8.55993 44.4132L8.56078 44.4127C8.56118 44.4125 8.56157 44.4122 9.05981 45.2793L8.56157 44.4122L8.58153 44.4011L29.4641 33.0282C29.9491 32.764 30.5564 32.9431 30.8206 33.4281C31.0847 33.9131 30.9057 34.5204 30.4207 34.7846L9.55476 46.1484L9.54788 46.1526C9.53378 46.1612 9.50977 46.1763 9.47766 46.1975C9.41318 46.2401 9.31763 46.3066 9.20514 46.3951C8.97628 46.5752 8.69756 46.8305 8.46504 47.1437C8.23288 47.4564 8.0685 47.7971 8.01724 48.1579C7.96819 48.5031 8.01248 48.9324 8.30137 49.462C8.31317 49.4836 8.32417 49.5057 8.33434 49.5281C8.33636 49.532 8.34077 49.5404 8.34786 49.5527C8.36702 49.586 8.40574 49.6483 8.46965 49.7307C8.59666 49.8945 8.82679 50.1424 9.20916 50.4017C9.96602 50.9148 11.388 51.5179 13.9277 51.5179H56.0731C58.6933 51.5179 60.1088 50.9116 60.8387 50.4069C61.207 50.1522 61.4195 49.9108 61.5327 49.7551C61.5899 49.6766 61.623 49.6182 61.6385 49.5886C61.6431 49.5796 61.6462 49.5733 61.6478 49.5699C61.6626 49.5329 61.6795 49.4969 61.6986 49.462C61.9875 48.9323 62.0318 48.503 61.9828 48.1578C61.9316 47.797 61.7673 47.4563 61.5352 47.1436C61.3028 46.8304 61.0242 46.5751 60.7954 46.3951C60.6829 46.3066 60.5874 46.2401 60.523 46.1974C60.4909 46.1762 60.4669 46.1612 60.4528 46.1525L60.4455 46.1481L34.6882 32.0797C34.3672 31.9044 34.1675 31.5677 34.1676 31.2019L34.1684 27.9173C34.1685 27.3651 34.6162 26.9176 35.1684 26.9176C37.3547 26.9176 39.1279 25.1453 39.1279 22.9588C39.1279 20.7723 37.3547 19 35.1684 19ZM8.34223 49.546C8.34225 49.546 8.34226 49.5461 8.34228 49.5461L8.34224 49.546L8.34223 49.546ZM9.56122 46.1445C9.56211 46.144 9.56232 46.1438 9.5618 46.1441L9.56122 46.1445Z" fill="white"/>
</svg>
