<svg width="70" height="70" viewBox="0 0 70 70" fill="none" xmlns="http://www.w3.org/2000/svg">
  <rect x="0.5" y="0.5" width="69" height="69" stroke="white" stroke-opacity="0.01"/>
  <path fill-rule="evenodd" clip-rule="evenodd"
    d="M25.1789 18.9281C25.1789 19.4219 24.78 19.821 24.2862 19.821C23.7924 19.821 23.3933 19.4219 23.3933 18.9281V10.8929C23.3933 10.3992 23.7924 10 24.2862 10C24.78 10 25.1789 10.3992 25.1789 10.8929V14.4642H43.035V16.2498H25.1789V18.9281ZM55.5311 58.2119C57.0069 58.2119 58.2097 57.0117 58.2097 55.5334H58.2127V28.7492H11.7837V55.5334C11.7837 57.009 12.9836 58.2119 14.462 58.2119H55.5311ZM46.605 14.4641H55.5331C57.9964 14.4641 59.997 16.4651 60 18.9282V55.5332C60 57.9936 57.9964 59.9971 55.5361 59.9971H14.4639C12.0038 59.9971 10 57.9936 10 55.5332V18.9282C10 16.4678 12.0038 14.4641 14.4639 14.4641H21.6064V16.2497H14.4639C12.9884 16.2497 11.7856 17.4496 11.7856 18.9282V26.9634H58.2116V18.9282C58.2116 17.4526 57.0114 16.2497 55.5331 16.2497H46.605V18.9282C46.605 19.422 46.2061 19.8209 45.7123 19.8209C45.2185 19.8209 44.8194 19.422 44.8194 18.9282V10.8928C44.8194 10.399 45.2185 10.0001 45.7123 10.0001C46.2061 10.0001 46.605 10.399 46.605 10.8928V14.4641Z"
    fill="#009ee3"
    stroke="#009ee3"
    stroke-width="1"
  />
</svg>
