<svg width="219" height="59" fill="none" xmlns="http://www.w3.org/2000/svg"><path d="M153.686 37.57h-6.635v12.596h30.514v-5.494h-23.879v-7.101zm58.222-24.8v13.428h-3.321V12.77h-6.415l.013 22.756c-2.249 1.51-8.111 3.026-12.076 3.313V19.46h8.787v-5.494h-15.468v31.426c8.56-.221 15.364-2.44 18.757-3.983l-.013 8.67h6.415V32.388h3.321v17.783h6.46V12.77h-6.46zm-62.212 13.774c0-2.578 1.781-4.42 4.095-4.42 2.431 0 4.094 1.835 4.094 4.42 0 2.584-1.663 4.374-4.094 4.374s-4.095-1.881-4.095-4.374zm14.188.3c0-2.058-.682-3.841-1.819-5.273h3.711v5.493h4.569v2.324h-4.569v5.683h4.569v4.693h6.59V12.77h-6.59v8.749h-4.498V16.07h-8.735l-1.995-4.804h-7.039l2.08 4.803h-8.742v5.5h3.893c-1.144 1.433-1.833 3.216-1.833 5.273 0 5.546 4.355 9.106 10.185 9.106s10.223-3.56 10.223-9.106zm-47.352 16.96h-4.751v-24.67h4.751c7.266 0 10.646 4.03 10.646 12.035 0 8.007-3.38 12.635-10.646 12.635zm.228-31.03h-13.343V50.17h13.343c12.244 0 18.555-6.404 18.555-18.993 0-12.589-6.304-18.401-18.555-18.401zm-28.749 0v21.214l-3.867-6.705h-11.4V12.774h-8.267v37.389h8.267V34.515h15.267v15.648h8.32V12.775h-8.32z" fill="#fff"/><g clip-path="url(#clip0_1_2386)" fill="#fff"><path d="M.369 58.767h31.288L16.02 31.402.369 58.767zM33.532.768H.37l49.745 29-16.581-29zm0 58l15.773-27.584L1.988 3.601l31.544 55.167z"/></g><defs><clipPath id="clip0_1_2386"><path fill="#fff" transform="translate(.369 .768)" d="M0 0h49.746v58H0z"/></clipPath></defs></svg>