<svg width="169" height="29" fill="none" xmlns="http://www.w3.org/2000/svg"><path d="M73.846 17.958h-3.197v6.08h14.698v-2.652H73.846v-3.428zm28.042-11.973v6.483h-1.599V5.985h-3.09l.006 10.986c-1.083.729-3.906 1.461-5.816 1.6V9.215h4.232V6.564h-7.45v15.17c4.123-.106 7.4-1.178 9.034-1.922l-.006 4.185h3.09v-8.54h1.599v8.584H105V5.985h-3.112zm-29.964 6.65c0-1.245.857-2.134 1.972-2.134 1.17 0 1.972.886 1.972 2.134 0 1.247-.801 2.111-1.972 2.111-1.17 0-1.972-.908-1.972-2.111zm6.833.144a4.03 4.03 0 00-.876-2.545h1.787v2.652h2.201v1.122h-2.2v2.743h2.2v2.266h3.174V5.986H81.87v4.223h-2.166v-2.63h-4.207l-.962-2.32h-3.39l1.002 2.32h-4.21v2.655h1.875a4.019 4.019 0 00-.883 2.545c0 2.678 2.097 4.397 4.905 4.397 2.808 0 4.924-1.72 4.924-4.397zM55.95 20.967h-2.288V9.057h2.288c3.5 0 5.128 1.945 5.128 5.81 0 3.866-1.628 6.1-5.128 6.1zm.11-14.98h-6.427V24.04h6.427c5.897 0 8.937-3.092 8.937-9.17 0-6.077-3.037-8.883-8.937-8.883zm-13.847 0v10.241l-1.862-3.236H34.86V5.987h-3.982v18.05h3.982v-7.554h7.353v7.554h4.007V5.987h-4.007z" fill="#fff"/><g clip-path="url(#clip0_652_431)" fill="#fff"><path d="M0 28.191h15.07l-7.532-13.21L0 28.19zm15.973-28H0l23.96 14-7.987-14zm.001 28.001l7.597-13.316L.78 1.56l15.193 26.632z"/></g><path d="M126.862 21.183h8.834v3.143h-12.379V5.967h12.194V9.11h-8.649v4.295h7.829v3.117h-7.829v4.662zm20.425-6.599c1.252.436 2.161 1.065 2.725 1.885.564.803.82 1.746.767 2.829-.088 1.659-.767 2.977-2.037 3.955-1.269.977-3.077 1.484-5.422 1.518-2.134 0-4.003-.218-5.608-.654v-3.143c1.87.436 3.748.655 5.634.655 1.358-.018 2.346-.245 2.963-.681.617-.454.926-.987.926-1.598 0-.943-.512-1.606-1.535-1.99l-4.443-1.52c-1.023-.348-1.878-.898-2.566-1.65-.688-.75-1.032-1.693-1.032-2.828 0-1.588.538-2.915 1.614-3.98s2.724-1.65 4.946-1.755c1.464-.07 3.157.096 5.079.497v3.143c-1.834-.436-3.483-.593-4.947-.471-1.163.07-1.975.305-2.433.707-.458.384-.688.943-.688 1.676 0 .856.529 1.484 1.587 1.886l4.47 1.519zm15.237 7.045c.458 0 .934-.027 1.428-.079.512-.052.758-.078.741-.078v-4.27h-3.941V14.06h7.485v9.795c-1.992.576-3.888.864-5.687.864-3.121 0-5.537-.847-7.247-2.54-1.711-1.711-2.566-3.894-2.566-6.548 0-3.055.873-5.447 2.619-7.176 1.745-1.746 4.232-2.68 7.459-2.802 1.305-.052 2.777.018 4.417.21v3.142a24.695 24.695 0 00-4.391-.235c-2.186.087-3.826.69-4.92 1.807-1.093 1.1-1.639 2.706-1.639 4.819 0 1.938.52 3.465 1.56 4.583 1.04 1.1 2.601 1.65 4.682 1.65z" fill="#fff"/><path stroke="#fff" stroke-width=".535" d="M114.385 6.253V24.13"/><defs><clipPath id="clip0_652_431"><path fill="#fff" transform="translate(0 .191)" d="M0 0h23.96v28H0z"/></clipPath></defs></svg>