<svg width="170" height="28" fill="none" xmlns="http://www.w3.org/2000/svg"><path d="M8.932 14.291L.946 27.808h15.975L8.932 14.29z" fill="#008233"/><path d="M.946.773h15.975l7.985 13.517L.946.773z" fill="#00E600"/><path d="M.946.773l23.96 13.517-7.985 13.517L.946.773z" fill="#00AD1D"/><path d="M74.792 17.157h-3.196v5.919h14.697v-2.582h-11.5v-3.337zm28.043-11.654v6.31h-1.6v-6.31h-3.09l.007 10.694c-1.084.71-3.907 1.422-5.817 1.556V8.647h4.233V6.066h-7.45v14.768c4.122-.104 7.4-1.147 9.034-1.872l-.007 4.074h3.09v-8.314h1.6v8.357h3.111V5.503h-3.111zM72.87 11.975c0-1.211.858-2.077 1.972-2.077 1.171 0 1.973.863 1.973 2.077s-.802 2.055-1.972 2.055c-1.171 0-1.973-.884-1.973-2.055zm6.834.14a3.86 3.86 0 00-.876-2.477h1.787v2.582h2.2v1.092h-2.2v2.67h2.2v2.205h3.175V5.502h-3.174v4.112h-2.167v-2.56h-4.207l-.96-2.258H72.09l1.002 2.257h-4.21v2.585h1.874a3.848 3.848 0 00-.883 2.478c0 2.606 2.098 4.279 4.906 4.279s4.924-1.673 4.924-4.28zm-22.807 7.971h-2.289V8.493h2.289c3.5 0 5.127 1.894 5.127 5.656 0 3.762-1.628 5.937-5.127 5.937zm.11-14.581h-6.428v17.573h6.427c5.898 0 8.937-3.01 8.937-8.926s-3.036-8.647-8.937-8.647zm-13.847 0v9.968l-1.862-3.15h-5.491V5.505h-3.982v17.57h3.982V15.72h7.353v7.354h4.007V5.505H43.16zm84.648 15.487h8.835v3.143h-12.379V5.775h12.194V8.92h-8.65v4.295h7.83v3.116h-7.83v4.662zm20.426-6.6c1.252.437 2.16 1.065 2.725 1.886.564.803.82 1.746.767 2.828-.089 1.66-.767 2.977-2.037 3.955-1.27.978-3.077 1.484-5.422 1.52-2.134 0-4.003-.22-5.608-.656v-3.142c1.869.436 3.747.654 5.634.654 1.358-.017 2.345-.244 2.962-.68.618-.455.926-.987.926-1.598 0-.943-.511-1.607-1.534-1.99l-4.444-1.52c-1.022-.349-1.878-.899-2.565-1.65-.688-.75-1.032-1.693-1.032-2.828 0-1.589.538-2.916 1.614-3.98 1.075-1.066 2.724-1.65 4.946-1.756 1.463-.07 3.156.096 5.078.498v3.143c-1.834-.437-3.482-.594-4.946-.472-1.164.07-1.975.306-2.433.708-.459.384-.688.942-.688 1.676 0 .855.529 1.484 1.587 1.885l4.47 1.52zm15.237 7.045c.458 0 .934-.026 1.428-.078a38.1 38.1 0 00.74-.079v-4.269h-3.941v-3.143h7.486v9.795c-1.993.577-3.888.865-5.687.865-3.121 0-5.537-.847-7.248-2.54-1.71-1.712-2.565-3.894-2.565-6.548 0-3.056.873-5.448 2.618-7.176 1.746-1.746 4.232-2.68 7.459-2.802 1.305-.053 2.778.017 4.418.21v3.142a24.695 24.695 0 00-4.391-.236c-2.187.088-3.827.69-4.92 1.807-1.093 1.1-1.64 2.707-1.64 4.82 0 1.937.52 3.465 1.561 4.582 1.04 1.1 2.601 1.65 4.682 1.65z" fill="#003087"/><path stroke="#6D7280" stroke-width=".535" d="M115.331 6.062v17.876"/></svg>