<?xml version="1.0" encoding="utf-8"?>
<!-- Generator: Adobe Illustrator 27.0.0, SVG Export Plug-In . SVG Version: 6.00 Build 0)  -->
<svg version="1.1" id="Layer_1" xmlns="http://www.w3.org/2000/svg" xmlns:xlink="http://www.w3.org/1999/xlink" x="0px" y="0px"
	 viewBox="0 0 64 64" style="enable-background:new 0 0 64 64;" xml:space="preserve">
<path d="M62,50c0-0.7-0.5-1.2-1.2-1.2H3.2C2.5,48.8,2,49.3,2,50s0.5,1.2,1.2,1.2h57.6C61.5,51.2,62,50.7,62,50z M46.3,43.8l1.1,1.4
	h-2.3L46.3,43.8z M31.9,38.1l5.9,7.1H26L31.9,38.1z M16.4,45.2l1.2-1.5l1.2,1.5C18.8,45.2,16.4,45.2,16.4,45.2z M13.6,38.9l2.5,3
	l-2.8,3.4H8.3L13.6,38.9L13.6,38.9z M18.1,33.4l2.5,3.1l-3,3.5l-2.5-3C15.1,37,18.1,33.4,18.1,33.4z M23,27.4l2.5,3l-3.4,4.1
	l-2.5-3.1L23,27.4L23,27.4z M30.4,24.6l-3.3,4l-2.5-3l3.3-4C27.9,21.5,30.4,24.6,30.4,24.6z M34.5,19.6L32,22.7l-2.5-3.1l2.5-3.1
	L34.5,19.6L34.5,19.6z M39.3,25.4l-2.6,3.1l-3.2-3.9l2.6-3.1L39.3,25.4L39.3,25.4z M44.3,31.5l-2.5,3.1l-3.5-4.2l2.6-3.1L44.3,31.5z
	 M36.8,32.3l3.5,4.3l-3.2,4l-3.6-4.3L36.8,32.3z M28.7,30.4l3.3-4l3.2,3.9l-3.3,4L28.7,30.4z M26.8,40.4l-3.2-4l3.4-4.1l3.2,3.9
	L26.8,40.4z M22,45.2l-2.8-3.4l2.9-3.5l3.2,4l-2.4,2.9H22z M41,45.2l-2.3-2.8l3.2-4l2.9,3.5L42,45.2C42,45.2,41,45.2,41,45.2z
	 M48.9,37l-2.6,3.1l-2.9-3.6l2.5-3.1C45.9,33.4,48.9,37,48.9,37z M55.7,45.2h-5.1l-2.7-3.3l2.6-3.1C50.5,38.9,55.7,45.2,55.7,45.2z
	 M14.4,47.6h46.4L52,37l-1.6-1.9l-3-3.7l-1.6-1.9l-3.4-4.1l-1.6-1.9l-3.2-3.9l-0.3-0.4L32,12.8l-5.3,6.4l-0.3,0.4l-8.2,9.9l-1.6,1.9
	l-3,3.7L12,37L3.2,47.6L14.4,47.6L14.4,47.6z"/>
</svg>
