<?xml version="1.0" encoding="utf-8"?>
<!-- Generator: Adobe Illustrator 27.0.0, SVG Export Plug-In . SVG Version: 6.00 Build 0)  -->
<svg version="1.1" id="Layer_1" xmlns="http://www.w3.org/2000/svg" xmlns:xlink="http://www.w3.org/1999/xlink" x="0px" y="0px"
	 viewBox="0 0 24 24" style="enable-background:new 0 0 24 24;" xml:space="preserve">
<style type="text/css">
	.st0{fill:#FFFFFF;}
</style>
<path class="st0" d="M2.5,18.5V17h9.8v1.5C12.3,18.5,2.5,18.5,2.5,18.5z M2.5,13.6v-1.5h4.7v1.5C7.2,13.6,2.5,13.6,2.5,13.6z
	 M2.5,8.7V7.2h4.7v1.5C7.2,8.7,2.5,8.7,2.5,8.7z M20.4,18.5l-3.9-3.8c-0.4,0.3-0.8,0.5-1.2,0.6c-0.4,0.1-0.9,0.2-1.4,0.2
	c-1.3,0-2.3-0.4-3.2-1.3c-0.9-0.9-1.3-1.9-1.3-3.2c0-1.3,0.4-2.3,1.3-3.2c0.9-0.9,2-1.3,3.2-1.3c1.3,0,2.3,0.4,3.2,1.3
	c0.9,0.9,1.3,1.9,1.3,3.2c0,0.5-0.1,0.9-0.2,1.4c-0.1,0.4-0.4,0.9-0.6,1.2l3.9,3.8C21.5,17.4,20.4,18.5,20.4,18.5z M14,14
	c0.8,0,1.6-0.3,2.1-0.9c0.6-0.6,0.9-1.3,0.9-2.1c0-0.8-0.3-1.5-0.9-2.1C15.5,8.3,14.8,8,14,8c-0.8,0-1.6,0.3-2.1,0.9
	c-0.6,0.6-0.9,1.3-0.9,2.1c0,0.8,0.3,1.5,0.9,2.1C12.4,13.7,13.1,14,14,14z"/>
</svg>
