<?xml version="1.0" encoding="utf-8"?>
<!-- Generator: Adobe Illustrator 28.2.0, SVG Export Plug-In . SVG Version: 6.00 Build 0)  -->
<svg version="1.1" id="Layer_2_00000054945039552028420630000015691789840600683432_"
	 xmlns="http://www.w3.org/2000/svg" xmlns:xlink="http://www.w3.org/1999/xlink" x="0px" y="0px" viewBox="0 0 100 100"
	 style="enable-background:new 0 0 100 100;" xml:space="preserve">
<style type="text/css">
	.st0{fill:#2E2E2E;}
</style>
<g id="Layer_1-2">
	<g>
		<path class="st0" d="M-67.1,0c-27.6,0-50,22.4-50,50s22.4,50,50,50s50-22.4,50-50S-39.5,0-67.1,0z M-49.4,32.7c0,0.1,0,0.3,0,0.4
			c0,0.6-0.2,1.1-0.3,1.7c-0.3,1.2-0.9,2.3-1.8,3.2c-0.8,1-1.8,1.7-3,2.3c-0.9,0.4-1.8,0.7-2.8,0.8c-0.1,0-0.2,0-0.2,0
			c0,0,0,0,0.1,0c0.8,0.1,1.5,0.2,2.2,0.5c0.9,0.3,1.8,0.8,2.6,1.5c0.9,0.7,1.7,1.6,2.2,2.7c0.6,1,0.9,2.1,1,3.2c0,0.2,0,0.3,0,0.5
			c0,0,0,0.1,0,0.1v0.8c-0.1,0.2,0,0.3-0.1,0.5c-0.1,1.3-0.5,2.6-1.2,3.7c-0.4,0.7-0.9,1.3-1.5,1.9c-1.1,1-2.3,1.7-3.8,2.1
			c-0.6,0.2-1.3,0.3-2,0.3c-2.1,0.1-4-0.5-5.7-1.8c-1.5-1.1-2.5-2.6-3.1-4.4c-0.2-0.6-0.3-1.3-0.4-1.9c0,0,0,0,0,0v0.2
			c0,2.6,0,5.2,0,7.7c0,0,0,0.1,0,0.2l0,0l0,0c0,0,0,0,0,0c0,0,0,0.1,0,0.1c0,2.8,0,5.7,0,8.5c0,2.2-0.6,4.1-2,5.8
			c-1.3,1.6-2.9,2.7-5,3.1c-3.3,0.7-6.2-0.2-8.5-2.7c-1.2-1.3-1.9-2.8-2.2-4.5c-0.4-2.8,0.3-5.3,2.2-7.4c1.3-1.4,2.9-2.3,4.8-2.7
			c0.5-0.1,1-0.2,1.5-0.2c-0.3,0-0.5,0-0.8-0.1c-1-0.1-2-0.4-3-0.9c-2.4-1.3-4-3.2-4.6-5.9c-0.7-2.9,0-5.6,2-7.8
			c1.2-1.4,2.8-2.3,4.6-2.8c0.5-0.1,1.1-0.2,1.6-0.2c0,0,0.1,0,0.1,0c-4-0.1-7.3-2.8-8.3-6.7c-1-3.9,0.8-8,4.2-9.9
			c1.2-0.6,2.4-1,3.8-1.1c0,0,0.1,0,0.1,0h18.7c0.2,0,0.4,0,0.6,0c0.8,0.1,1.6,0.3,2.4,0.6c0.8,0.4,1.6,0.8,2.2,1.4
			c0.8,0.7,1.5,1.5,2.1,2.5c0.5,1,0.9,2,1.1,3.1c0,0.2,0,0.5,0,0.7c0,0,0,0.1,0,0.1L-49.4,32.7L-49.4,32.7z"/>
		<path class="st0" d="M-67.2,41.1L-67.2,41.1C-67.2,41.1-67.2,41.1-67.2,41.1L-67.2,41.1C-67.1,41.1-67.1,41.1-67.2,41.1
			L-67.2,41.1L-67.2,41.1z"/>
		<path class="st0" d="M-66.9,41.2c-0.1,0-0.2,0-0.2,0c0,0,0,0.1,0,0.1c0,0.1,0,0.1,0,0.2c0,2.2,0,4.4,0,6.6c0,0.2,0,0.5,0,0.7
			c0.1-0.5,0.2-1,0.3-1.5c0.4-1.2,1-2.2,1.8-3.1c0.2-0.2,0.4-0.5,0.7-0.7c0.7-0.6,1.4-1.1,2.2-1.5c0.9-0.4,1.8-0.7,2.8-0.8
			c-0.4,0-0.8,0-1.2,0C-62.7,41.2-64.8,41.2-66.9,41.2z"/>
	</g>
</g>
<g>
	<path class="st0" d="M-75.2,106.2c-27.6,0-50,22.4-50,50s22.4,50,50,50s50-22.4,50-50S-47.6,106.2-75.2,106.2z M-75.8,157.8
		c-3.3,3.1-8.1,4.5-13.8,4.5c-1.3,0-2.4-0.1-3.3-0.2v15.2h-9.5v-42c3-0.5,7.1-0.9,13-0.9c5.9,0,10.2,1.1,13,3.4
		c2.7,2.1,4.6,5.7,4.6,9.8S-73.2,155.4-75.8,157.8z M-61.4,177.9c-4,0-7.6-0.9-10-2.1l1.7-6.9c1.8,1.1,5.4,2.3,8.3,2.3
		c2.9,0,4.1-1,4.1-2.6c0-1.6-0.9-2.3-4.5-3.5c-6.4-2.1-8.8-5.6-8.8-9.3c0-5.7,4.9-10.1,12.6-10.1c3.6,0,6.8,0.8,8.7,1.8l-1.7,6.6
		c-1.4-0.8-4-1.8-6.7-1.8c-2.3,0-3.6,0.9-3.6,2.5c0,1.4,1.2,2.2,5,3.5c5.9,2,8.3,5,8.4,9.5C-48,173.7-52.6,177.9-61.4,177.9z"/>
	<path class="st0" d="M-88.9,141.7c-2,0-3.3,0.2-4,0.4v12.6c0.8,0.2,1.8,0.2,3.2,0.2c5.1,0,8.3-2.6,8.3-6.9
		C-81.4,144-84.1,141.7-88.9,141.7z"/>
</g>
<circle class="st0" cx="-113.2" cy="-74.6" r="50"/>
<g>
	<path class="st0" d="M48.5-75.3h-0.1c-0.6,2.5-1.2,5.7-1.9,8.1l-2.5,8.9h9.3l-2.6-8.9C49.8-69.7,49.1-72.8,48.5-75.3z"/>
	<path class="st0" d="M56.3-112.2c-27.6,0-50,22.4-50,50c0,27.6,22.4,50,50,50c27.6,0,50-22.4,50-50
		C106.3-89.9,83.9-112.2,56.3-112.2z M57.8-40.3l-3.3-10.8H42.5l-3,10.8h-9.9l12.9-42.1H55l13.1,42.1H57.8z M82.6-40.3h-9.5v-30.6
		h9.5V-40.3z M77.8-74.6c-3,0-5-2.1-4.9-4.8c-0.1-2.8,1.9-4.8,5-4.8c3.1,0,5,2.1,5.1,4.8C82.9-76.8,80.9-74.6,77.8-74.6z"/>
</g>
<g>
	<path class="st0" d="M201.9-89.3c-2.5-1.2-5.3-1.8-8.2-1.8h0c-0.2,0-0.3,0-0.5,0c-2.7,0-5.3,0.6-7.4,1.7l-7.6,4.3l3.5,2l5.5-3.1
		c0,0,0,0-0.1,0l0.1,0l0,0c1.8-0.9,3.9-1.5,6.1-1.5c0.2,0,0.4,0,0.5,0c0.2,0,0.3,0,0.5,0c2.3,0,4.4,0.6,6.2,1.6l15.6,9l0,17.8v0
		c-0.2,4.8-2.7,9-6.4,11.7l-5.7,3.3v4l7.4-4.2l0,0l0.1,0c4.8-3.3,8-8.8,8.1-15.1l0-19.4l-17.7-10.2L201.9-89.3z"/>
	<path class="st0" d="M203.9-55.3c1.9-2.3,3.1-5.2,3.5-8.4c0-5.1,0-8.5,0-8.5l-6.8-3.9l0.1,0c-2.1-1.1-4.5-1.7-7.1-1.7
		c-0.8,0-1.6,0.1-2.3,0.2l12.6,7.3L203.9-55.3L203.9-55.3z"/>
	<path class="st0" d="M193.6-113c-27.6,0-50,22.4-50,50c0,27.6,22.4,50,50,50c27.6,0,50-22.4,50-50C243.6-90.6,221.2-113,193.6-113z
		 M191.8-25.5l-22.1-12.7l-0.1,0c-2.3-1.4-4.4-3.2-6-5.5c0,0,0,0,0,0.1l0-0.1c0,0,0,0,0,0c-2.2-3-3.7-6.5-4.3-10.4l23.9,13.8l0-4
		l-22.3-12.9l8.6-4.9l13.7,7.9l0-4.1l-24.1-13.8l0-9.9l32.6,18.7V-25.5z M228.1-55.2l0,0.1c-0.4,3.3-1.5,6.4-3,9.1l-0.1,0.1
		c-1.7,3-4.1,5.5-7.1,7.4l-22.6,12.9v-39.9l-34.4-19.8l22.6-12.9l-0.1,0.1c2.9-1.5,6.1-2.4,9.6-2.4c0.2,0,0.5,0,0.6,0
		c0.2,0,0.3,0,0.5,0c3.5,0,6.8,0.8,9.6,2.3l24.4,14.1L228.1-55.2z"/>
</g>
<path class="st0" d="M50,0C22.4,0,0,22.4,0,50s22.4,50,50,50s50-22.4,50-50S77.6,0,50,0z M20,56.5l13.8-32.6l0,0
	c0.3-0.3,0.8-1.5,2.3-1.5s2.3,2,2.5,2.8c0,0,2.5,6,5.5,13.5l-9.5,22.8H23.8C19.8,61.5,19.3,58.8,20,56.5z M64.2,79.8
	c0,0-2.8-6.6-6.4-15.4L38.6,76.3c0,0-5,3.3-8.3,3.3c-1.5,0-2.5-0.8-3.5-2c0,0-5.8-11-7.8-14.5c0,0,1,1.3,3,1.3h11.5l24.1,0
	c-3.7-8.9-8.4-20-12.1-28.6c-2.5-6.3-5.3-12.8-5.3-12.8c-1-2.5-3.5-2.8-3.5-2.8h17.3c1.8,0,2.3,1.3,2.5,1.5l0,0
	c0.3,0.3,24.6,57.9,24.3,58.1H64.2z"/>
</svg>
