<?xml version="1.0" encoding="utf-8"?>
<!-- Generator: Adobe Illustrator 28.2.0, SVG Export Plug-In . SVG Version: 6.00 Build 0)  -->
<svg version="1.1" id="Layer_2_00000054945039552028420630000015691789840600683432_"
	 xmlns="http://www.w3.org/2000/svg" xmlns:xlink="http://www.w3.org/1999/xlink" x="0px" y="0px" viewBox="0 0 100 100"
	 style="enable-background:new 0 0 100 100;" xml:space="preserve">
<style type="text/css">
	.st0{fill:#2E2E2E;}
	.st1{fill-rule:evenodd;clip-rule:evenodd;fill:#2E2E2E;}
</style>
<g id="Layer_1-2">
	<g>
		<path class="st0" d="M-67.1,0c-27.6,0-50,22.4-50,50s22.4,50,50,50s50-22.4,50-50S-39.5,0-67.1,0z M-49.4,32.7c0,0.1,0,0.3,0,0.4
			c0,0.6-0.2,1.1-0.3,1.7c-0.3,1.2-0.9,2.3-1.8,3.2c-0.8,1-1.8,1.7-3,2.3c-0.9,0.4-1.8,0.7-2.8,0.8c-0.1,0-0.2,0-0.2,0
			c0,0,0,0,0.1,0c0.8,0.1,1.5,0.2,2.2,0.5c0.9,0.3,1.8,0.8,2.6,1.5c0.9,0.7,1.7,1.6,2.2,2.7c0.6,1,0.9,2.1,1,3.2c0,0.2,0,0.3,0,0.5
			c0,0,0,0.1,0,0.1v0.8c-0.1,0.2,0,0.3-0.1,0.5c-0.1,1.3-0.5,2.6-1.2,3.7c-0.4,0.7-0.9,1.3-1.5,1.9c-1.1,1-2.3,1.7-3.8,2.1
			c-0.6,0.2-1.3,0.3-2,0.3c-2.1,0.1-4-0.5-5.7-1.8c-1.5-1.1-2.5-2.6-3.1-4.4c-0.2-0.6-0.3-1.3-0.4-1.9c0,0,0,0,0,0v0.2
			c0,2.6,0,5.2,0,7.7c0,0,0,0.1,0,0.2l0,0l0,0c0,0,0,0,0,0c0,0,0,0.1,0,0.1c0,2.8,0,5.7,0,8.5c0,2.2-0.6,4.1-2,5.8
			c-1.3,1.6-2.9,2.7-5,3.1c-3.3,0.7-6.2-0.2-8.5-2.7c-1.2-1.3-1.9-2.8-2.2-4.5c-0.4-2.8,0.3-5.3,2.2-7.4c1.3-1.4,2.9-2.3,4.8-2.7
			c0.5-0.1,1-0.2,1.5-0.2c-0.3,0-0.5,0-0.8-0.1c-1-0.1-2-0.4-3-0.9c-2.4-1.3-4-3.2-4.6-5.9c-0.7-2.9,0-5.6,2-7.8
			c1.2-1.4,2.8-2.3,4.6-2.8c0.5-0.1,1.1-0.2,1.6-0.2c0,0,0.1,0,0.1,0c-4-0.1-7.3-2.8-8.3-6.7c-1-3.9,0.8-8,4.2-9.9
			c1.2-0.6,2.4-1,3.8-1.1c0,0,0.1,0,0.1,0h18.7c0.2,0,0.4,0,0.6,0c0.8,0.1,1.6,0.3,2.4,0.6c0.8,0.4,1.6,0.8,2.2,1.4
			c0.8,0.7,1.5,1.5,2.1,2.5c0.5,1,0.9,2,1.1,3.1c0,0.2,0,0.5,0,0.7c0,0,0,0.1,0,0.1L-49.4,32.7L-49.4,32.7z"/>
		<path class="st0" d="M-67.2,41.1L-67.2,41.1C-67.2,41.1-67.2,41.1-67.2,41.1L-67.2,41.1C-67.1,41.1-67.1,41.1-67.2,41.1
			L-67.2,41.1L-67.2,41.1z"/>
		<path class="st0" d="M-66.9,41.2c-0.1,0-0.2,0-0.2,0c0,0,0,0.1,0,0.1c0,0.1,0,0.1,0,0.2c0,2.2,0,4.4,0,6.6c0,0.2,0,0.5,0,0.7
			c0.1-0.5,0.2-1,0.3-1.5c0.4-1.2,1-2.2,1.8-3.1c0.2-0.2,0.4-0.5,0.7-0.7c0.7-0.6,1.4-1.1,2.2-1.5c0.9-0.4,1.8-0.7,2.8-0.8
			c-0.4,0-0.8,0-1.2,0C-62.7,41.2-64.8,41.2-66.9,41.2z"/>
	</g>
</g>
<g>
	<path class="st0" d="M-75.2,106.2c-27.6,0-50,22.4-50,50s22.4,50,50,50s50-22.4,50-50S-47.6,106.2-75.2,106.2z M-75.8,157.8
		c-3.3,3.1-8.1,4.5-13.8,4.5c-1.3,0-2.4-0.1-3.3-0.2v15.2h-9.5v-42c3-0.5,7.1-0.9,13-0.9c5.9,0,10.2,1.1,13,3.4
		c2.7,2.1,4.6,5.7,4.6,9.8S-73.2,155.4-75.8,157.8z M-61.4,177.9c-4,0-7.6-0.9-10-2.1l1.7-6.9c1.8,1.1,5.4,2.3,8.3,2.3
		c2.9,0,4.1-1,4.1-2.6c0-1.6-0.9-2.3-4.5-3.5c-6.4-2.1-8.8-5.6-8.8-9.3c0-5.7,4.9-10.1,12.6-10.1c3.6,0,6.8,0.8,8.7,1.8l-1.7,6.6
		c-1.4-0.8-4-1.8-6.7-1.8c-2.3,0-3.6,0.9-3.6,2.5c0,1.4,1.2,2.2,5,3.5c5.9,2,8.3,5,8.4,9.5C-48,173.7-52.6,177.9-61.4,177.9z"/>
	<path class="st0" d="M-88.9,141.7c-2,0-3.3,0.2-4,0.4v12.6c0.8,0.2,1.8,0.2,3.2,0.2c5.1,0,8.3-2.6,8.3-6.9
		C-81.4,144-84.1,141.7-88.9,141.7z"/>
</g>
<circle class="st0" cx="-88.5" cy="-70.9" r="50"/>
<g>
	<path class="st0" d="M48.5-75.3h-0.1c-0.6,2.5-1.2,5.7-1.9,8.1l-2.5,8.9h9.3l-2.6-8.9C49.8-69.7,49.1-72.8,48.5-75.3z"/>
	<path class="st0" d="M56.3-112.2c-27.6,0-50,22.4-50,50c0,27.6,22.4,50,50,50c27.6,0,50-22.4,50-50
		C106.3-89.9,83.9-112.2,56.3-112.2z M57.8-40.3l-3.3-10.8H42.5l-3,10.8h-9.9l12.9-42.1H55l13.1,42.1H57.8z M82.6-40.3h-9.5v-30.6
		h9.5V-40.3z M77.8-74.6c-3,0-5-2.1-4.9-4.8c-0.1-2.8,1.9-4.8,5-4.8c3.1,0,5,2.1,5.1,4.8C82.9-76.8,80.9-74.6,77.8-74.6z"/>
</g>
<g>
	<path class="st0" d="M201.9-89.3c-2.5-1.2-5.3-1.8-8.2-1.8h0c-0.2,0-0.3,0-0.5,0c-2.7,0-5.3,0.6-7.4,1.7l-7.6,4.3l3.5,2l5.5-3.1
		c0,0,0,0-0.1,0l0.1,0l0,0c1.8-0.9,3.9-1.5,6.1-1.5c0.2,0,0.4,0,0.5,0c0.2,0,0.3,0,0.5,0c2.3,0,4.4,0.6,6.2,1.6l15.6,9l0,17.8v0
		c-0.2,4.8-2.7,9-6.4,11.7l-5.7,3.3v4l7.4-4.2l0,0l0.1,0c4.8-3.3,8-8.8,8.1-15.1l0-19.4l-17.7-10.2L201.9-89.3z"/>
	<path class="st0" d="M203.9-55.3c1.9-2.3,3.1-5.2,3.5-8.4c0-5.1,0-8.5,0-8.5l-6.8-3.9l0.1,0c-2.1-1.1-4.5-1.7-7.1-1.7
		c-0.8,0-1.6,0.1-2.3,0.2l12.6,7.3L203.9-55.3L203.9-55.3z"/>
	<path class="st0" d="M193.6-113c-27.6,0-50,22.4-50,50c0,27.6,22.4,50,50,50c27.6,0,50-22.4,50-50C243.6-90.6,221.2-113,193.6-113z
		 M191.8-25.5l-22.1-12.7l-0.1,0c-2.3-1.4-4.4-3.2-6-5.5c0,0,0,0,0,0.1l0-0.1c0,0,0,0,0,0c-2.2-3-3.7-6.5-4.3-10.4l23.9,13.8l0-4
		l-22.3-12.9l8.6-4.9l13.7,7.9l0-4.1l-24.1-13.8l0-9.9l32.6,18.7V-25.5z M228.1-55.2l0,0.1c-0.4,3.3-1.5,6.4-3,9.1l-0.1,0.1
		c-1.7,3-4.1,5.5-7.1,7.4l-22.6,12.9v-39.9l-34.4-19.8l22.6-12.9l-0.1,0.1c2.9-1.5,6.1-2.4,9.6-2.4c0.2,0,0.5,0,0.6,0
		c0.2,0,0.3,0,0.5,0c3.5,0,6.8,0.8,9.6,2.3l24.4,14.1L228.1-55.2z"/>
</g>
<path class="st0" d="M-191.8,0c-27.6,0-50,22.4-50,50s22.4,50,50,50s50-22.4,50-50S-164.2,0-191.8,0z M-221.8,56.5l13.8-32.6l0,0
	c0.3-0.3,0.8-1.5,2.3-1.5s2.3,2,2.5,2.8c0,0,2.5,6,5.5,13.5l-9.5,22.8H-218C-222,61.5-222.5,58.8-221.8,56.5z M-177.7,79.8
	c0,0-2.8-6.6-6.4-15.4l-19.1,11.9c0,0-5,3.3-8.3,3.3c-1.5,0-2.5-0.8-3.5-2c0,0-5.8-11-7.8-14.5c0,0,1,1.3,3,1.3h11.5l24.1,0
	c-3.7-8.9-8.4-20-12.1-28.6c-2.5-6.3-5.3-12.8-5.3-12.8c-1-2.5-3.5-2.8-3.5-2.8h17.3c1.8,0,2.3,1.3,2.5,1.5l0,0
	c0.3,0.3,24.6,57.9,24.3,58.1H-177.7z"/>
<g>
	<path class="st1" d="M172.5,60.9l-0.9,11.3l-9.1,3.3h0l-9.1-3.4l-0.6-7.5h-8.2l1.1,13.9l16.8,5.9l0,0v0l16.8-4.7
		c0.5-6.1,1.8-19.6,2.2-26h-29.8l-0.7-7.3h31.3h0c0.3-2.4,0.5-4.9,0.7-7.3h-41c0.3,1.4,2.1,20.3,2.2,21.8H172.5z"/>
	<path class="st1" d="M162.4,6.2c-27.6,0-50,22.4-50,50s22.4,50,50,50s50-22.4,50-50S190,6.2,162.4,6.2z M189.1,90.3l-26.8,6.9
		l-26.7-6.7l-6-65.9h65.4L189.1,90.3z"/>
</g>
<g>
	<polygon class="st0" points="287.3,52.7 288.4,52.7 287.3,53.2 268.5,61 269.2,68.7 287.3,68.8 297.1,68.8 296.4,79.1 287.3,81.7 
		287.3,81.7 287.2,81.7 278.5,79.5 277.9,73.1 277.9,73.1 269.7,73.1 269.7,73.1 270.8,85.5 287.3,90.3 287.3,90.3 287.4,90.3 
		303.8,85.5 306,61 287.3,61 287.3,61 287.3,61 306.6,52.7 307.4,44.8 287.3,44.8 266.9,44.8 267.8,52.7 	"/>
	<path class="st0" d="M287.3,14.1c-27.6,0-50,22.4-50,50s22.4,50,50,50s50-22.4,50-50S315,14.1,287.3,14.1z M313.6,97l-26.2,7.1
		L261.1,97l-6.1-65.6h64.6L313.6,97z"/>
</g>
<g>
	<path class="st1" d="M408.1,85.9c-3.3,0.3-5.5-1.6-6.8-3.6c-1.6,1-3.3,1.8-4.9,2.9c2.1,3.7,5.6,6.2,11.1,6.2c5.6,0,9.7-2.7,10-7.8
		c0.5-6.9-4.7-8.8-9.3-10.8c-1.5-0.7-3.4-1.4-3.9-2.8c-0.5-1.6,0.4-2.9,1.4-3.3c2.2-1,4.8,0.6,5.3,2.3c1.6-1,3.3-2,4.7-3.1
		c-1.7-2.9-4.3-5-8.9-4.8c-2.6,0.1-4.5,0.9-5.9,2.1c-1.4,1.2-2.5,2.8-2.6,5.2c-0.5,7,4.8,8.8,9.2,10.8c1.4,0.6,3,1.2,3.6,2.5
		C412.5,84.1,410.1,85.8,408.1,85.9z"/>
	<path class="st1" d="M384.1,91.4c2.9,0,5.3-0.9,6.8-2.4c2.7-2.7,2.3-7.2,2.3-12.6c0-5,0-10.2,0-14.9c-2,0-4,0-6,0
		c-0.1,0-0.1,0.1-0.1,0.2c0,5.2,0,11.9,0,17.7c0,2.8,0.2,5.4-1.5,6.2c-2.6,1.3-5-0.8-5.7-2.8c-1.7,1-3.4,2-5,3
		C376.6,89,379.3,91.4,384.1,91.4z"/>
	<path class="st1" d="M390.3,14.1c-27.6,0-50,22.4-50,50c0,27.6,22.4,50,50,50s50-22.4,50-50C440.3,36.5,418,14.1,390.3,14.1z
		 M422.7,96.5c-21.6,0-43.3,0.1-64.8-0.1c0-21.5,0-43,0-64.5c0-0.1,0-0.2,0.1-0.2c21.6,0,43.1,0,64.7,0
		C422.7,53.3,422.7,74.9,422.7,96.5z"/>
</g>
<g id="c133de6af664cd4f011a55de6b001b19">
	<path class="st0" d="M94.4,0l-8.3,90.3L50,100l-36.1-9.7L5.6,0H94.4z M77.6,18.4H50H21.8l1.3,10.9H50h1.5L50,29.9L24.1,40.6
		L25,51.3l25,0.1l13.4,0l-0.9,14.2L50,69.2v0l-0.1,0l-12.1-3.1L37,57.3h0H25.8h0l1.5,17L50,81.1v0l0,0l22.7-6.6l2.9-33.8H50h-0.1
		l0.1,0l26.6-11.4L77.6,18.4z"/>
</g>
<g id="_x35_151e0c8492e5103c096af88a51e75c7">
	<path class="st1" d="M356.8,130.6c-0.1,0-0.1,0.2-0.1,0.3c0,33.2,0,66.4,0,99.6c33.1,0.2,66.7,0,100,0.1c0-33.3,0-66.7,0-100
		C423.4,130.6,390.1,130.6,356.8,130.6z M407.5,219c-2.3,2.3-6,3.7-10.5,3.7c-7.4,0-11.5-3.6-14.1-8.6c2.5-1.6,5.1-3.2,7.7-4.7
		c1.1,3,4.7,6.3,8.7,4.3c2.6-1.3,2.3-5.3,2.3-9.6c0-9,0-19.3,0-27.4c0-0.1,0-0.3,0.1-0.3c3.1,0,6.1,0,9.2,0c0,7.2,0,15.3,0,23
		C411,207.9,411.6,214.9,407.5,219z M448.8,210.7c-0.5,7.8-6.9,11.9-15.5,12c-8.4,0-13.8-3.7-17.1-9.5c2.4-1.6,5-2.9,7.5-4.5
		c2,3.1,5.4,6,10.5,5.6c3.2-0.3,6.8-2.8,4.8-6.7c-1-1.9-3.4-2.9-5.6-3.8c-6.9-3-15-5.8-14.3-16.6c0.3-3.6,1.9-6.2,4.1-8
		c2.2-1.9,5.2-3.1,9.1-3.2c7.2-0.2,11.1,3,13.8,7.4c-2.3,1.7-4.8,3.3-7.3,4.8c-0.8-2.5-4.8-5-8.2-3.5c-1.5,0.7-2.9,2.7-2.1,5.1
		c0.7,2.2,3.6,3.4,6,4.4C441.5,197.1,449.5,200.1,448.8,210.7z"/>
</g>
<g id="Page-1_00000008844949585690678860000016865598217419286707_">
	
		<g id="Dribbble-Light-Preview_00000170276671282986007250000014844536314021867184_" transform="translate(-61.000000, -7639.000000)">
		<g id="icons_00000091720871191189094710000006592291299315413386_" transform="translate(56.000000, 160.000000)">
			<path id="html-_x5B__x23_124_x5D__00000026877376105177015500000012501456559876508288_" class="st1" d="M244.6,7629.1
				L244.6,7629.1h-43.1l1,10h41.1c-0.6,8.8-2.4,27.3-3.1,35.8l-23.1,6.5v0l-0.1,0l-23.1-8.1l-1.6-19.2H204l0.8,10.3l12.6,4.7h0
				l12.5-4.5l1.3-15.5h-39.1c-0.2-2-2.6-28-3-30h56.4C245.3,7622.4,245,7625.8,244.6,7629.1L244.6,7629.1z M172.4,7599.1l8.2,90.7
				l36.8,9.3l36.9-9.4l8.2-90.6H172.4z"/>
		</g>
	</g>
</g>
<text transform="matrix(1 0 0 1 145.9403 248.2599)" style="font-family:'MyriadPro-Regular'; font-size:12px;">35.278 mm </text>
</svg>
