<?xml version="1.0" encoding="utf-8"?>
<!-- Generator: Adobe Illustrator 28.2.0, SVG Export Plug-In . SVG Version: 6.00 Build 0)  -->
<svg version="1.1" id="Layer_2_00000054945039552028420630000015691789840600683432_"
	 xmlns="http://www.w3.org/2000/svg" xmlns:xlink="http://www.w3.org/1999/xlink" x="0px" y="0px" viewBox="0 0 100 100"
	 style="enable-background:new 0 0 100 100;" xml:space="preserve">
<style type="text/css">
	.st0{fill:#2E2E2E;}
</style>
<g id="Layer_1-2">
	<g>
		<path class="st0" d="M50,0C22.4,0,0,22.4,0,50s22.4,50,50,50s50-22.4,50-50S77.6,0,50,0z M67.7,32.7c0,0.1,0,0.3,0,0.4
			c0,0.6-0.2,1.1-0.3,1.7C67,36,66.5,37.1,65.6,38c-0.8,1-1.8,1.7-3,2.3c-0.9,0.4-1.8,0.7-2.8,0.8c-0.1,0-0.2,0-0.2,0c0,0,0,0,0.1,0
			c0.8,0.1,1.5,0.2,2.2,0.5c0.9,0.3,1.8,0.8,2.6,1.5c0.9,0.7,1.7,1.6,2.2,2.7c0.6,1,0.9,2.1,1,3.2c0,0.2,0,0.3,0,0.5
			c0,0,0,0.1,0,0.1v0.8c-0.1,0.2,0,0.3-0.1,0.5c-0.1,1.3-0.5,2.6-1.2,3.7c-0.4,0.7-0.9,1.3-1.5,1.9c-1.1,1-2.3,1.7-3.8,2.1
			c-0.6,0.2-1.3,0.3-2,0.3c-2.1,0.1-4-0.5-5.7-1.8c-1.5-1.1-2.5-2.6-3.1-4.4c-0.2-0.6-0.3-1.3-0.4-1.9c0,0,0,0,0,0v0.2
			c0,2.6,0,5.2,0,7.7c0,0,0,0.1,0,0.2l0,0l0,0c0,0,0,0,0,0c0,0,0,0.1,0,0.1c0,2.8,0,5.7,0,8.5c0,2.2-0.6,4.1-2,5.8
			c-1.3,1.6-3,2.7-5,3.1c-3.3,0.7-6.2-0.2-8.5-2.7c-1.2-1.3-1.9-2.8-2.2-4.5c-0.4-2.8,0.3-5.3,2.2-7.4c1.3-1.4,2.9-2.3,4.8-2.7
			c0.5-0.1,1-0.2,1.5-0.2c-0.3,0-0.5,0-0.8-0.1c-1-0.1-2-0.4-3-0.9c-2.4-1.3-4-3.2-4.6-5.9c-0.6-2.9,0-5.6,2-7.8
			c1.2-1.4,2.8-2.3,4.6-2.8c0.5-0.1,1.1-0.2,1.6-0.2c0,0,0.1,0,0.1,0c-4-0.1-7.3-2.8-8.3-6.7c-1-3.9,0.8-8,4.2-9.9
			c1.2-0.6,2.4-1,3.8-1.1c0,0,0.1,0,0.1,0h18.7c0.2,0,0.4,0,0.6,0c0.8,0.1,1.6,0.3,2.4,0.6c0.8,0.4,1.6,0.8,2.2,1.4
			c0.8,0.7,1.5,1.5,2.1,2.5c0.5,1,0.9,2,1.1,3.1c0,0.2,0,0.5,0,0.7c0,0,0,0.1,0,0.1L67.7,32.7L67.7,32.7z"/>
		<path class="st0" d="M50,41.1L50,41.1C50,41.1,50,41.1,50,41.1L50,41.1C50,41.1,50,41.1,50,41.1L50,41.1L50,41.1z"/>
		<path class="st0" d="M50.2,41.2c-0.1,0-0.2,0-0.2,0c0,0,0,0.1,0,0.1c0,0.1,0,0.1,0,0.2c0,2.2,0,4.4,0,6.6c0,0.2,0,0.5,0,0.7
			c0-0.5,0.2-1,0.3-1.5c0.4-1.2,1-2.2,1.8-3.1c0.2-0.2,0.4-0.5,0.7-0.7c0.7-0.6,1.4-1.1,2.2-1.5c0.9-0.4,1.8-0.7,2.8-0.8
			c-0.4,0-0.8,0-1.2,0C54.5,41.2,52.3,41.2,50.2,41.2z"/>
	</g>
</g>
</svg>
