<?xml version="1.0" encoding="utf-8"?>
<!-- Generator: Adobe Illustrator 28.2.0, SVG Export Plug-In . SVG Version: 6.00 Build 0)  -->
<svg version="1.1" id="Layer_2_00000054945039552028420630000015691789840600683432_"
	 xmlns="http://www.w3.org/2000/svg" xmlns:xlink="http://www.w3.org/1999/xlink" x="0px" y="0px" viewBox="0 0 100 100"
	 style="enable-background:new 0 0 100 100;" xml:space="preserve">
<style type="text/css">
	.st0{fill:#2E2E2E;}
</style>
<g id="Layer_1-2">
	<g>
		<path class="st0" d="M-67.1,0c-27.6,0-50,22.4-50,50s22.4,50,50,50s50-22.4,50-50S-39.5,0-67.1,0z M-49.4,32.7c0,0.1,0,0.3,0,0.4
			c0,0.6-0.2,1.1-0.3,1.7c-0.3,1.2-0.9,2.3-1.8,3.2c-0.8,1-1.8,1.7-3,2.3c-0.9,0.4-1.8,0.7-2.8,0.8c-0.1,0-0.2,0-0.2,0
			c0,0,0,0,0.1,0c0.8,0.1,1.5,0.2,2.2,0.5c0.9,0.3,1.8,0.8,2.6,1.5c0.9,0.7,1.7,1.6,2.2,2.7c0.6,1,0.9,2.1,1,3.2c0,0.2,0,0.3,0,0.5
			c0,0,0,0.1,0,0.1v0.8c-0.1,0.2,0,0.3-0.1,0.5c-0.1,1.3-0.5,2.6-1.2,3.7c-0.4,0.7-0.9,1.3-1.5,1.9c-1.1,1-2.3,1.7-3.8,2.1
			c-0.6,0.2-1.3,0.3-2,0.3c-2.1,0.1-4-0.5-5.7-1.8c-1.5-1.1-2.5-2.6-3.1-4.4c-0.2-0.6-0.3-1.3-0.4-1.9c0,0,0,0,0,0v0.2
			c0,2.6,0,5.2,0,7.7c0,0,0,0.1,0,0.2l0,0l0,0c0,0,0,0,0,0c0,0,0,0.1,0,0.1c0,2.8,0,5.7,0,8.5c0,2.2-0.6,4.1-2,5.8
			c-1.3,1.6-2.9,2.7-5,3.1c-3.3,0.7-6.2-0.2-8.5-2.7c-1.2-1.3-1.9-2.8-2.2-4.5c-0.4-2.8,0.3-5.3,2.2-7.4c1.3-1.4,2.9-2.3,4.8-2.7
			c0.5-0.1,1-0.2,1.5-0.2c-0.3,0-0.5,0-0.8-0.1c-1-0.1-2-0.4-3-0.9c-2.4-1.3-4-3.2-4.6-5.9c-0.7-2.9,0-5.6,2-7.8
			c1.2-1.4,2.8-2.3,4.6-2.8c0.5-0.1,1.1-0.2,1.6-0.2c0,0,0.1,0,0.1,0c-4-0.1-7.3-2.8-8.3-6.7c-1-3.9,0.8-8,4.2-9.9
			c1.2-0.6,2.4-1,3.8-1.1c0,0,0.1,0,0.1,0h18.7c0.2,0,0.4,0,0.6,0c0.8,0.1,1.6,0.3,2.4,0.6c0.8,0.4,1.6,0.8,2.2,1.4
			c0.8,0.7,1.5,1.5,2.1,2.5c0.5,1,0.9,2,1.1,3.1c0,0.2,0,0.5,0,0.7c0,0,0,0.1,0,0.1L-49.4,32.7L-49.4,32.7z"/>
		<path class="st0" d="M-67.2,41.1L-67.2,41.1C-67.2,41.1-67.2,41.1-67.2,41.1L-67.2,41.1C-67.1,41.1-67.1,41.1-67.2,41.1
			L-67.2,41.1L-67.2,41.1z"/>
		<path class="st0" d="M-66.9,41.2c-0.1,0-0.2,0-0.2,0c0,0,0,0.1,0,0.1c0,0.1,0,0.1,0,0.2c0,2.2,0,4.4,0,6.6c0,0.2,0,0.5,0,0.7
			c0.1-0.5,0.2-1,0.3-1.5c0.4-1.2,1-2.2,1.8-3.1c0.2-0.2,0.4-0.5,0.7-0.7c0.7-0.6,1.4-1.1,2.2-1.5c0.9-0.4,1.8-0.7,2.8-0.8
			c-0.4,0-0.8,0-1.2,0C-62.7,41.2-64.8,41.2-66.9,41.2z"/>
	</g>
</g>
<g>
	<path class="st0" d="M50,0C22.4,0,0,22.4,0,50s22.4,50,50,50s50-22.4,50-50S77.6,0,50,0z M49.4,51.6c-3.3,3.1-8.1,4.5-13.8,4.5
		c-1.3,0-2.4-0.1-3.3-0.2v15.2h-9.5v-42c3-0.5,7.1-0.9,13-0.9c5.9,0,10.2,1.1,13,3.4c2.7,2.1,4.6,5.7,4.6,9.8S52,49.2,49.4,51.6z
		 M63.8,71.7c-4,0-7.6-0.9-10-2.1l1.7-6.9c1.8,1.1,5.4,2.3,8.3,2.3c2.9,0,4.1-1,4.1-2.6c0-1.6-0.9-2.3-4.5-3.5
		c-6.4-2.1-8.8-5.6-8.8-9.3c0-5.7,4.9-10.1,12.6-10.1c3.6,0,6.8,0.8,8.7,1.8l-1.7,6.6c-1.4-0.8-4-1.8-6.7-1.8
		c-2.3,0-3.6,0.9-3.6,2.5c0,1.4,1.2,2.2,5,3.5c5.9,2,8.3,5,8.4,9.5C77.2,67.5,72.6,71.7,63.8,71.7z"/>
	<path class="st0" d="M36.3,35.5c-2,0-3.3,0.2-4,0.4v12.6c0.8,0.2,1.8,0.2,3.2,0.2c5.1,0,8.3-2.6,8.3-6.9
		C43.8,37.9,41.1,35.5,36.3,35.5z"/>
</g>
</svg>
