<?xml version="1.0" encoding="utf-8"?>
<!-- Generator: Adobe Illustrator 27.0.0, SVG Export Plug-In . SVG Version: 6.00 Build 0)  -->
<svg version="1.1" id="Layer_1" xmlns="http://www.w3.org/2000/svg" xmlns:xlink="http://www.w3.org/1999/xlink" x="0px" y="0px"
	 viewBox="0 0 76 76" style="enable-background:new 0 0 76 76;" xml:space="preserve">
<style type="text/css">
	.st0{fill:none;}
	.st1{fill:none;stroke:#CDAF82;}
	.st2{clip-path:url(#SVGID_00000145043055188097905840000008654422587749528204_);}
	.st3{fill:#CDAF82;}
</style>
<g id="타원_171">
	<circle class="st0" cx="38" cy="38" r="38"/>
	<circle class="st1" cx="38" cy="38" r="37.5"/>
</g>
<g id="그룹_517" transform="translate(0 0)">
	<g>
		<defs>
			<rect id="SVGID_1_" x="15.1" y="17.9" width="45.8" height="40.2"/>
		</defs>
		<clipPath id="SVGID_00000182492020811758326740000009097336200838958230_">
			<use xlink:href="#SVGID_1_"  style="overflow:visible;"/>
		</clipPath>
		<g id="그룹_516" style="clip-path:url(#SVGID_00000182492020811758326740000009097336200838958230_);">
			<path id="패스_1187" class="st3" d="M32.9,32.7c-0.1-0.6,0.2-1.2,0.7-1.5c0.5-0.2,1-0.3,1.6-0.3v-0.6h-4.5v-0.8h5.5v-0.7h-5.5
				V24c-0.1-0.9,0.3-1.8,1.1-2.3c0.8-0.3,1.6-0.4,2.4-0.4v-1H16.4v1c0.8,0,1.6,0.1,2.4,0.4c0.8,0.5,1.2,1.4,1.1,2.3v28.1
				c0.1,0.9-0.3,1.8-1.1,2.3c-0.7,0.3-1.5,0.4-2.3,0.4v1h20.8V55c-0.5,0-0.9-0.1-1.3-0.3c-0.6-0.3-0.9-0.9-0.8-1.6V41.8
				c0-0.4,0.1-0.8,0.5-1c0.4-0.1,0.7-0.2,1.1-0.2v-0.4h-3.7v-0.5h4.3v-0.5h-4.3V32.7z M24.2,52.9c0,0.6-0.5,1.2-1.2,1.2
				s-1.2-0.5-1.2-1.2V23.2c0-0.6,0.5-1.2,1.2-1.2s1.2,0.5,1.2,1.2V52.9z M28.7,52.9c0,0.7-0.6,1.2-1.2,1.1c-0.6,0-1.1-0.5-1.1-1.1
				V23.2c0-0.7,0.6-1.2,1.2-1.1c0.6,0,1.1,0.5,1.1,1.1V52.9z M31.6,53.6c0,0.3-0.2,0.5-0.5,0.5c-0.3,0-0.5-0.2-0.5-0.5V31.2
				c0.1,0,0.1,0,0.2,0c0.3,0.1,0.5,0.2,0.6,0.4c0.1,0.2,0.2,0.4,0.2,0.5L31.6,53.6z M33.1,40.8c0.2,0,0.4,0.1,0.6,0.3
				c0.1,0.2,0.1,0.3,0.1,0.5v12c0,0.2-0.2,0.4-0.4,0.4c0,0,0,0,0,0c-0.2,0-0.5-0.2-0.5-0.4V40.8C33,40.8,33,40.7,33.1,40.8"/>
			<path id="패스_1188" class="st3" d="M57.3,21.7c0.8-0.3,1.5-0.4,2.3-0.4v-1H41.8v1c0.8,0,1.7,0.1,2.4,0.4
				c0.8,0.5,1.2,1.4,1.1,2.3v4.9h-5.5v0.7h5.5v0.8h-4.5V31c0.5,0,1.1,0.1,1.6,0.3c0.5,0.3,0.8,0.9,0.7,1.5v6.5h-4.3v0.5h4.3v0.5
				h-3.7v0.4c0.4,0,0.7,0,1.1,0.2c0.3,0.2,0.5,0.6,0.5,1l0,11.4c0.1,0.6-0.2,1.3-0.8,1.6c-0.4,0.2-0.9,0.3-1.3,0.3v0.7h20.8v-1
				c-0.8,0-1.6-0.1-2.3-0.4c-0.8-0.5-1.2-1.4-1.1-2.3V24C56.1,23.1,56.5,22.2,57.3,21.7 M43.1,53.6c0,0.2-0.2,0.4-0.5,0.4
				c-0.2,0-0.4-0.2-0.4-0.4c0,0,0,0,0,0v-12c0-0.2,0-0.3,0.1-0.5c0.1-0.2,0.4-0.3,0.6-0.3c0.1,0,0.1,0,0.2,0L43.1,53.6z M45.4,53.6
				c0,0.3-0.2,0.5-0.5,0.5c-0.3,0-0.5-0.2-0.5-0.5V32.2c0-0.2,0.1-0.4,0.2-0.5c0.1-0.2,0.4-0.4,0.6-0.4c0.1,0,0.1,0,0.2,0L45.4,53.6
				z M49.7,52.9c0,0.7-0.5,1.2-1.2,1.2c-0.7,0-1.2-0.5-1.2-1.2V23.2c0-0.7,0.5-1.2,1.2-1.2c0.7,0,1.2,0.5,1.2,1.2V52.9z M54.2,52.9
				c0,0.7-0.5,1.2-1.2,1.2c-0.7,0-1.2-0.5-1.2-1.2V23.2c0-0.7,0.6-1.2,1.2-1.1c0.6,0,1.1,0.5,1.1,1.1V52.9z"/>
		</g>
	</g>
</g>
</svg>
