<svg xmlns="http://www.w3.org/2000/svg" width="212.6" height="46.344" viewBox="0 0 212.6 46.344">
  <defs>
    <style>
      .cls-1 {
        fill: #fff;
      }
    </style>
  </defs>
  <g id="그룹_10" data-name="그룹 10" transform="translate(-76.69 -300.863)">
    <g id="그룹_8" data-name="그룹 8" transform="translate(76.69 300.863)">
      <path id="패스_28" data-name="패스 28" class="cls-1" d="M76.69,324.061a3.7,3.7,0,0,0,2.549-1c.374-.53.562-1.718.562-3.594V305.052a3.888,3.888,0,0,0-.542-2.508,3.805,3.805,0,0,0-2.461-.7v-.668h6.245L90.43,319l7.2-17.819h6.244v.668a3.6,3.6,0,0,0-2.274.728,4.069,4.069,0,0,0-.5,2.477v15.8a3.974,3.974,0,0,0,.5,2.478,3.719,3.719,0,0,0,2.274.735v.667h-8.9v-.667a3.766,3.766,0,0,0,2.414-.775,5.229,5.229,0,0,0,.479-2.858V304.479l-8.177,20.248h-.429L81.2,305.309v14.161c0,1.944.247,3.21.761,3.805a3.881,3.881,0,0,0,2.25.785v.667H76.69Z" transform="translate(-76.69 -300.794)"/>
      <path id="패스_29" data-name="패스 29" class="cls-1" d="M111.6,324.8v-.667a5.069,5.069,0,0,1-1.513-.318,1.294,1.294,0,0,1-.64-1.242,4.189,4.189,0,0,1,.24-1.219q.239-.768,1.539-4.277h8.315l1.279,3.428a12.584,12.584,0,0,1,.444,1.386,5.873,5.873,0,0,1,.151.913c0,.522-.151.852-.413,1a7.006,7.006,0,0,1-1.816.333v.667h8.111v-.667a2.693,2.693,0,0,1-1.555-.656,9.4,9.4,0,0,1-1.236-2.5l-7.92-20.109H115.9l-6.588,17.465A27.593,27.593,0,0,1,107.2,323.1a2.629,2.629,0,0,1-1.877,1.025v.667Zm.155-9.18,3.609-9.749L119,315.617Z" transform="translate(-70.425 -300.863)"/>
      <path id="패스_30" data-name="패스 30" class="cls-1" d="M137.058,301.18v.668a4.861,4.861,0,0,0-1.688.194.943.943,0,0,0-.555.981,1.974,1.974,0,0,0,.093.568,3.488,3.488,0,0,0,.429.888l4.658,7.681,4.575-7.8a4.189,4.189,0,0,0,.369-.83,2.594,2.594,0,0,0,.078-.5.964.964,0,0,0-.718-1,5.791,5.791,0,0,0-1.506-.179v-.668H149.7v.668a2.96,2.96,0,0,0-1.719.656,12.242,12.242,0,0,0-2.657,3.414l-4.7,8.05v6.9c0,1.364.2,2.212.59,2.552a5.164,5.164,0,0,0,2.7.642v.667h-9.7v-.667c1.419-.1,2.322-.333,2.656-.735.35-.367.525-1.339.525-2.874V314.3l-4.166-6.84a41.757,41.757,0,0,0-3.03-4.534,3.015,3.015,0,0,0-2.113-1.074v-.668Z" transform="translate(-65.443 -300.794)"/>
      <path id="패스_31" data-name="패스 31" class="cls-1" d="M153.007,324.061a4.062,4.062,0,0,0,2.333-.772,5.229,5.229,0,0,0,.453-2.82V305.052a4.048,4.048,0,0,0-.5-2.477,3.6,3.6,0,0,0-2.282-.728v-.668h16.94l.162,5.032h-.885c-.228-1.622-.635-2.659-1.24-3.1a6.825,6.825,0,0,0-3.613-.643h-4.344a1.039,1.039,0,0,0-.825.244,1.8,1.8,0,0,0-.174.963V311.7h4.562c1.371,0,2.237-.235,2.613-.684a6.387,6.387,0,0,0,.9-2.729h.725v8.218h-.725a6.31,6.31,0,0,0-.929-2.742c-.361-.462-1.232-.679-2.586-.679h-4.562v7.78a3.842,3.842,0,0,0,.529,2.484,4.014,4.014,0,0,0,2.364.711v.667h-8.916Z" transform="translate(-59.991 -300.794)"/>
      <path id="패스_32" data-name="패스 32" class="cls-1" d="M174.752,324.061a4.746,4.746,0,0,0,2.494-.656c.374-.327.567-1.175.567-2.539V305.052a3.831,3.831,0,0,0-.567-2.535,4.136,4.136,0,0,0-2.494-.669v-.668h9.367v.668a4.173,4.173,0,0,0-2.5.669,3.745,3.745,0,0,0-.573,2.535v15.814c0,1.364.185,2.212.573,2.539a4.792,4.792,0,0,0,2.5.656v.667h-9.367Z" transform="translate(-55.234 -300.794)"/>
      <path id="패스_33" data-name="패스 33" class="cls-1" d="M190.646,324.061a4.27,4.27,0,0,0,2.273-.711,3.826,3.826,0,0,0,.517-2.484V305.052a4.109,4.109,0,0,0-.506-2.477,3.631,3.631,0,0,0-2.284-.728v-.668h16.882l.167,5.032h-.828a5.412,5.412,0,0,0-1.214-3.049c-.53-.462-1.727-.691-3.582-.691h-4.362c-.478,0-.773.087-.88.244a1.968,1.968,0,0,0-.163.963V311.7h4.9c1.369,0,2.252-.235,2.619-.684a6.256,6.256,0,0,0,.895-2.729h.725v8.218h-.725a6.131,6.131,0,0,0-.91-2.742c-.381-.462-1.247-.679-2.6-.679h-4.9v8.8c0,.7.2,1.114.606,1.244a18.254,18.254,0,0,0,3.572.191,11.206,11.206,0,0,0,4.789-.771c1.021-.518,1.946-1.775,2.8-3.756h.879l-1.436,5.929h-17.23Z" transform="translate(-51.756 -300.794)"/>
      <path id="패스_34" data-name="패스 34" class="cls-1" d="M213.637,324.061a4.251,4.251,0,0,0,2.271-.711,3.8,3.8,0,0,0,.512-2.484V305.052a4.005,4.005,0,0,0-.509-2.477,3.58,3.58,0,0,0-2.273-.728v-.668h8.97v.668a4.112,4.112,0,0,0-2.352.656,3.161,3.161,0,0,0-.6,2.318V321.89a2.141,2.141,0,0,0,.172.92,1.018,1.018,0,0,0,.8.428c.241.038.492.057.758.079.271,0,.768.009,1.5.009,2.839,0,4.751-.256,5.759-.776s1.967-1.845,2.91-3.978h.811l-1.57,6.156H213.637Z" transform="translate(-46.725 -300.794)"/>
      <path id="패스_35" data-name="패스 35" class="cls-1" d="M233.616,324.727h8.844a16.13,16.13,0,0,0,6.012-1,9.59,9.59,0,0,0,2.573-1.6,10.206,10.206,0,0,0,2.934-4.044,13.278,13.278,0,0,0,.975-5.054q0-7.379-5.4-10.245a15.48,15.48,0,0,0-7.346-1.6h-8.589v.668a3.674,3.674,0,0,1,2.276.7,4.1,4.1,0,0,1,.511,2.5v15.814a3.716,3.716,0,0,1-.535,2.484,4.224,4.224,0,0,1-2.251.711Zm6.016-2.714V303.881c0-.595.122-.971.391-1.155a2.848,2.848,0,0,1,1.46-.253,9.948,9.948,0,0,1,6.914,2.367c2.037,1.839,3.043,4.595,3.043,8.248q0,6.159-3.705,8.7a10.549,10.549,0,0,1-6.126,1.655,2.868,2.868,0,0,1-1.587-.285c-.269-.18-.391-.568-.391-1.145" transform="translate(-42.354 -300.794)"/>
    </g>
    <g id="그룹_9" data-name="그룹 9" transform="translate(151.012 335.119)">
      <path id="패스_36" data-name="패스 36" class="cls-1" d="M138,340.493l-.333-2.424h.381a3.552,3.552,0,0,0,.88,1.693,2.294,2.294,0,0,0,1.71.764,2.27,2.27,0,0,0,1.627-.614,2.1,2.1,0,0,0,.648-1.594,2.4,2.4,0,0,0-1.279-2.076q-1.179-.7-2.358-1.378a3.148,3.148,0,0,1-1.279-2.64,3.015,3.015,0,0,1,1.013-2.424,3.754,3.754,0,0,1,2.54-.83q.366,0,2.027.25l.266,2.124h-.383a1.949,1.949,0,0,0-2.141-1.843,1.858,1.858,0,0,0-1.461.6,2.217,2.217,0,0,0-.531,1.528,2.429,2.429,0,0,0,1.333,2.093q1.232.7,2.464,1.377a3.063,3.063,0,0,1,1.332,2.591,3.006,3.006,0,0,1-1.214,2.49,4.262,4.262,0,0,1-2.7.88A5.986,5.986,0,0,1,138,340.493Z" transform="translate(-137.669 -328.969)"/>
      <path id="패스_37" data-name="패스 37" class="cls-1" d="M149.674,329.705v4.716h2.191a1.23,1.23,0,0,0,1.179-.564,2.622,2.622,0,0,0,.216-.864h.333q-.066.731-.067,1.86,0,.232.043.9a9.2,9.2,0,0,1,.024.947h-.333q0-1.112-.431-1.4a2.91,2.91,0,0,0-1.377-.2h-1.777v2.823a4.3,4.3,0,0,0,.233,1.843q.3.466,1.477.466h1.03a3.707,3.707,0,0,0,1.876-.366,3.338,3.338,0,0,0,1.13-1.71l.4.066a23.277,23.277,0,0,0-.68,2.541h-8.668v-.433q1.064,0,1.321-.323a2.929,2.929,0,0,0,.256-1.553v-7.373q0-.98-.273-1.211a2.431,2.431,0,0,0-1.3-.266v-.431h8.137v2.473l-.333.083a2.332,2.332,0,0,0-.78-1.586,3.2,3.2,0,0,0-1.876-.439Z" transform="translate(-135.744 -328.924)"/>
      <path id="패스_38" data-name="패스 38" class="cls-1" d="M157.327,335.08a6.053,6.053,0,0,1,1.627-4.2,5.612,5.612,0,0,1,4.351-1.91,5.673,5.673,0,0,1,4.216,1.81,5.779,5.779,0,0,1,1.711,4.168,6.053,6.053,0,0,1-1.627,4.2,5.846,5.846,0,0,1-8.551.1A5.748,5.748,0,0,1,157.327,335.08Zm1.826-.483a7.27,7.27,0,0,0,1.08,3.9,3.693,3.693,0,0,0,3.221,2.026,3.437,3.437,0,0,0,2.873-1.411,5.906,5.906,0,0,0,1.079-3.686,7.348,7.348,0,0,0-1.079-3.918,3.7,3.7,0,0,0-3.221-2.01,3.436,3.436,0,0,0-2.873,1.411A5.906,5.906,0,0,0,159.153,334.6Z" transform="translate(-133.368 -328.969)"/>
      <path id="패스_39" data-name="패스 39" class="cls-1" d="M181.818,329.174v.431q-.931,0-1.146.581a7.488,7.488,0,0,0-.166,2.091v4.783a3.782,3.782,0,0,1-1.063,2.823,4.5,4.5,0,0,1-3.271,1.129A4.687,4.687,0,0,1,172.935,340a3.974,3.974,0,0,1-1.2-3.138V330.8a1.087,1.087,0,0,0-.433-1.029,2.638,2.638,0,0,0-1.079-.166v-.431h4.649v.431a2.643,2.643,0,0,0-1.079.166,1.089,1.089,0,0,0-.431,1.029v5.647q0,3.885,3.237,3.884,3.022,0,3.023-3.27v-4.733a13.731,13.731,0,0,0-.083-1.91.864.864,0,0,0-.433-.7,4.461,4.461,0,0,0-1.062-.116v-.431h3.769Z" transform="translate(-130.545 -328.924)"/>
      <path id="패스_40" data-name="패스 40" class="cls-1" d="M191.8,338.222l-.614,2.541H182.57v-.433q1.512.084,1.511-1.112V330.8a1.089,1.089,0,0,0-.431-1.029,2.641,2.641,0,0,0-1.08-.166v-.431h4.65v.431a2.634,2.634,0,0,0-1.079.166,1.086,1.086,0,0,0-.431,1.029v7.688a1.611,1.611,0,0,0,.431,1.328,5.594,5.594,0,0,0,4.276-.017,2.994,2.994,0,0,0,1.021-1.643Z" transform="translate(-127.844 -328.924)"/>
    </g>
  </g>
</svg>
