<svg xmlns="http://www.w3.org/2000/svg" xmlns:xlink="http://www.w3.org/1999/xlink" width="73" height="73" viewBox="0 0 73 73">
  <defs>
    <filter id="타원_69" x="0" y="0" width="73" height="73" filterUnits="userSpaceOnUse">
      <feOffset dy="3" input="SourceAlpha"/>
      <feGaussianBlur stdDeviation="3" result="blur"/>
      <feFlood flood-opacity="0.161"/>
      <feComposite operator="in" in2="blur"/>
      <feComposite in="SourceGraphic"/>
    </filter>
  </defs>
  <g id="top" transform="translate(9 6)">
    <g transform="matrix(1, 0, 0, 1, -9, -6)" filter="url(#타원_69)">
      <circle id="타원_69-2" data-name="타원 69" cx="27.5" cy="27.5" r="27.5" transform="translate(9 6)" fill="#272727" opacity="0.8"/>
    </g>
    <path id="패스_633" data-name="패스 633" d="M15.473.069l7.459,7.457a.222.222,0,0,1,0,.32L15.473,15.3a.218.218,0,0,1-.318,0l-.955-.953,5.912-5.913H.819A.816.816,0,0,1,0,7.619H0A.815.815,0,0,1,.819,6.8H19.975L14.2,1.025l.955-.955a.217.217,0,0,1,.318,0Z" transform="translate(19.5 39.5) rotate(-90)" fill="#fff" stroke="#fff" stroke-linecap="round" stroke-linejoin="round" stroke-width="0.3" fill-rule="evenodd"/>
  </g>
</svg>
