<?xml version="1.0" encoding="UTF-8"?>
<svg id="Layer_2" data-name="Layer 2" xmlns="http://www.w3.org/2000/svg" viewBox="0 0 100 100">
  <defs>
    <style>
      .cls-1 {
        fill: #6cbfa3;
      }
    </style>
  </defs>
  <g id="Layer_1-2" data-name="Layer 1">
    <g>
      <path class="cls-1" d="M67.61,45.78c-2.58,.28-4.39,2.31-4.4,5.06,2.97,0,5.94,.03,8.91-.02,1.02-.02,.97-.76,.81-1.52-.51-2.34-2.72-3.81-5.32-3.52Z"/>
      <path class="cls-1" d="M31.99,52.16h8.63c-1.48-4.76-2.88-9.25-4.39-14.13-1.49,4.95-2.85,9.48-4.24,14.13Z"/>
      <path class="cls-1" d="M50,0C22.39,0,0,22.39,0,50s22.39,50,50,50,50-22.39,50-50S77.61,0,50,0Zm-3.87,67.5c-.31-.01-.71-.62-.86-1.03-.76-2.11-1.48-4.24-2.16-6.38-.25-.78-.66-1.11-1.5-1.1-3.54,.04-7.09,.04-10.63,0-.87,0-1.22,.37-1.45,1.15-.62,2.05-1.37,4.07-1.95,6.13-.29,1.01-.8,1.33-1.81,1.29-1.92-.07-3.85-.02-6-.02,.24-.77,.38-1.28,.56-1.78,3.34-9.61,6.71-19.22,10.02-28.84,.48-1.4,.7-2.9,1.15-4.32,.12-.37,.65-.86,1.01-.88,2.49-.08,4.99,0,7.49-.06,1.06-.02,1.17,.73,1.42,1.42,3.46,9.73,6.92,19.46,10.38,29.19,.6,1.67,1.2,3.34,1.89,5.27-2.7,0-5.13,.04-7.55-.05Zm28.94-11.61c-3.93-.02-7.87,0-11.97,0,.27,2.54,1.39,4.17,3.48,5.11,3.16,1.42,6.35,.89,9.55,.17,.44-.1,.86-.24,1.3-.36,.04-.01,.09,.03,.36,.13,0,1.68,.05,3.45-.05,5.21-.02,.34-.58,.81-.99,.94-4.64,1.5-9.33,1.81-13.93-.02-4.17-1.66-6.28-5.05-7.19-9.3-1.37-6.4,1.17-13.13,6.13-16.22,7.87-4.9,17.79-.1,18.31,9.11,.33,5.9,.71,5.26-5,5.23Z"/>
    </g>
  </g>
</svg>