<?xml version="1.0" encoding="UTF-8"?>
<svg id="Layer_2" data-name="Layer 2" xmlns="http://www.w3.org/2000/svg" viewBox="0 0 100 100">
  <defs>
    <style>
      .cls-1 {
        fill: #fff;
      }
    </style>
  </defs>
  <g id="Layer_1-2" data-name="Layer 1">
    <g>
      <path class="cls-1" d="M50,0C22.39,0,0,22.39,0,50s22.39,50,50,50,50-22.39,50-50S77.61,0,50,0Zm17.72,32.7c-.04,.14-.01,.29-.02,.44-.03,.57-.15,1.11-.31,1.65-.35,1.21-.94,2.29-1.76,3.25-.82,.97-1.81,1.73-2.96,2.28-.9,.43-1.84,.7-2.83,.8-.08,0-.16,.02-.24,.02,.02,0,.04,0,.06,0,.75,.07,1.48,.22,2.18,.48,.94,.34,1.81,.82,2.59,1.45,.91,.74,1.65,1.63,2.22,2.66,.55,1,.89,2.06,1.02,3.19,.02,.18,.02,.35,.02,.53,0,.05-.01,.09,.01,.14v.8c-.05,.15-.03,.31-.05,.46-.13,1.33-.54,2.57-1.23,3.72-.42,.7-.93,1.33-1.53,1.89-1.08,1-2.33,1.71-3.75,2.09-.64,.17-1.29,.27-1.95,.29-2.11,.07-4.01-.52-5.7-1.8-1.49-1.13-2.51-2.59-3.09-4.36-.2-.63-.33-1.27-.38-1.92,0-.02,0-.03-.03-.05v.23c0,2.58,0,5.16,0,7.74,0,.05,0,.1,0,.15h0s0,0,0,0c0,.01,0,.02-.01,.03,.03,.04,.02,.09,.02,.14,0,2.85,0,5.69,0,8.54,0,2.15-.63,4.08-1.99,5.75-1.3,1.59-2.95,2.66-4.96,3.06-3.31,.67-6.16-.24-8.47-2.71-1.18-1.26-1.9-2.77-2.17-4.48-.43-2.83,.3-5.32,2.22-7.44,1.28-1.42,2.88-2.3,4.75-2.69,.49-.1,.99-.16,1.49-.17-.26-.03-.52-.04-.79-.07-1.04-.13-2.04-.42-2.97-.91-2.42-1.28-4-3.25-4.6-5.92-.65-2.93,.04-5.56,2.01-7.84,1.22-1.41,2.77-2.31,4.58-2.75,.54-.13,1.09-.21,1.64-.22,.04,0,.08,0,.13-.02-3.97-.14-7.33-2.84-8.31-6.68-.99-3.86,.77-7.96,4.24-9.9,1.17-.65,2.43-1.03,3.77-1.12,.03,0,.07,0,.1-.02h18.66c.21,.03,.43,.01,.64,.04,.82,.1,1.6,.31,2.36,.63,.81,.35,1.56,.8,2.24,1.37,.82,.71,1.52,1.52,2.05,2.48,.54,.97,.88,2.01,1.05,3.11,.03,.23,.04,.46,.04,.7,0,.05-.01,.09,.01,.14v.8Z"/>
      <path class="cls-1" d="M49.98,41.14h0s0,0,.01,0c0,0,0,0,0,0,0,0,0,0-.01-.01,0,0,0,0,0,0Z"/>
      <path class="cls-1" d="M50.23,41.17c-.07,0-.15,0-.22-.01,.04,.02,.03,.07,.04,.1,0,.06,0,.11,0,.17,0,2.21,0,4.41,0,6.62,0,.25,0,.5,0,.73,.05-.48,.18-.99,.34-1.5,.37-1.16,.96-2.19,1.75-3.11,.21-.24,.42-.49,.67-.68,.66-.62,1.39-1.11,2.21-1.51,.89-.43,1.82-.7,2.8-.81-.41,0-.83,0-1.24,0-2.12,0-4.23,0-6.35,0Z"/>
    </g>
  </g>
</svg>