<?xml version="1.0" encoding="UTF-8"?>
<svg id="Layer_2" data-name="Layer 2" xmlns="http://www.w3.org/2000/svg" viewBox="0 0 100 100">
  <defs>
    <style>
      .cls-1 {
        fill: #fff;
      }
    </style>
  </defs>
  <g id="Layer_1-2" data-name="Layer 1">
    <g>
      <path class="cls-1" d="M50,0C22.39,0,0,22.39,0,50s22.39,50,50,50,50-22.39,50-50S77.61,0,50,0Zm.81,50.23c-1.67,3.04-4.31,4.83-7.63,5.68-2.45,.63-4.94,.74-7.46,.66-.57-.02-1.15,0-1.81,0v.68c0,3.27,0,6.54,0,9.8,0,.78-.04,.82-.84,.82-1.91,0-3.83,0-5.74,0-.66,0-.73-.07-.73-.73,0-11.41,0-22.82,0-34.23,0-.35-.03-.67,.5-.68,3.91-.05,7.82-.16,11.73-.16,2.23,0,4.41,.43,6.46,1.35,4.39,1.96,6.61,5.43,6.87,10.17,.12,2.31-.22,4.57-1.35,6.63Zm22.58-3.28c0,.67-.06,.74-.72,.73-2.13-.03-4.17,.36-6.13,1.19-.17,.07-.34,.16-.5,.24-.98,.48-1.49,1.11-1.47,2.35,.09,5.2,.04,10.4,.04,15.59q0,.87-.87,.87c-1.95,0-3.89,0-5.84,0-.88,0-.9-.02-.9-.93,0-4.67,.03-9.35,0-14.02-.03-3.84-.13-7.68-.2-11.53-.01-.65-.02-.65,.64-.65,1.78,0,3.56,0,5.33,0,.63,0,.86,.15,1.01,.76,.14,.59,.22,1.2,.31,1.8,.05,.31,.06,.63,.09,.95,.05,.03,.1,.07,.15,.1,.34-.38,.64-.79,1.01-1.12,2.06-1.84,4.44-2.95,7.23-3.06,.73-.03,.84,.06,.84,.77,0,1.98,0,3.96,0,5.94Z"/>
      <path class="cls-1" d="M42.04,39.56c-.76-.35-1.59-.64-2.42-.7-1.66-.13-3.34-.08-5.02-.14-.51-.02-.66,.14-.65,.65,.02,3.4,.01,6.8,.01,10.2v.67c.94,0,1.82-.01,2.69,0,1.59,.03,3.15-.17,4.63-.72,1.69-.63,2.98-1.71,3.35-3.56,.16-.78,.2-1.62,.13-2.42-.17-1.81-1.06-3.21-2.73-3.99Z"/>
    </g>
  </g>
</svg>