<?xml version="1.0" encoding="UTF-8"?>
<svg id="Layer_2" data-name="Layer 2" xmlns="http://www.w3.org/2000/svg" viewBox="0 0 244.35 272.7">
  <defs>
    <style>
      .cls-1 {
        fill: #00ffc0;
      }
    </style>
  </defs>
  <g id="Layer_1-2" data-name="Layer 1">
    <g>
      <path class="cls-1" d="M187.46,222.96l-21.75-21.38c-1.43,5.2-2.97,10.6-4.62,16.22-4.05,15.3-7.65,38.7-1.8,39.15,5.85,.45,17.18-12.17,28.16-33.99Z"/>
      <path class="cls-1" d="M37.35,13.5c.8,9.24-15.75,103.5-15.75,103.5,0,0,33.3-123.3,77.85-108.45,44.55,14.85,27.9,88.2,27.9,88.2,0,0,17.55-28.35,36.45-22.95,17.58,5.02,28.15,29.93,3.45,122.14,46.45-3.1,77.1-37.28,77.1-95.59C244.35,39.15,198,0,148.5,0H21.32c1.5,.87,2.97,1.82,4.33,2.7,6.3,4.05,11.27,5.84,11.7,10.8Z"/>
      <path class="cls-1" d="M8.49,0H0V43C3.36,21.09,6.06,5.49,7.1,2.7c.4-1.08,.87-1.97,1.38-2.7Z"/>
      <path class="cls-1" d="M153.9,92.25c-6.3,4.5-26.1,35.1-38.7,80.1-12.6,45-13.71,41.43-25.2,43.65-11.49,2.22-6.75-23.85-1.8-60.75,4.95-36.9,15.75-130.95,.9-128.25-14.85,2.7-45,58.05-70.2,160.2C1.97,248.08,8.87,266.11,1.43,272.7H62.55v-68.85l76.5,68.85h9.77c-6.27-2.9-12.12-9.45-16.52-21.6-11.25-31.05,15.75-119.7,20.7-136.35,4.95-16.65,7.2-27,.9-22.5Z"/>
      <path class="cls-1" d="M177.3,266.85c-3.1,2.35-6.62,4.43-10.35,5.85h71.1l-38.48-37.84c-5.07,10.75-13.24,25.14-22.27,31.99Z"/>
    </g>
  </g>
</svg>