<svg width="17" height="16" viewBox="0 0 17 16" fill="none" xmlns="http://www.w3.org/2000/svg">
<path d="M8.10504 0.75C3.62828 0.75 0 3.57516 0 7.06035C0 9.32849 1.5381 11.3162 3.84524 12.4283C3.67477 13.0521 3.23117 14.6869 3.14206 15.036C3.03164 15.471 3.30284 15.4652 3.48106 15.3489C3.62053 15.2573 5.70103 13.8629 6.59987 13.262C7.08803 13.3325 7.58976 13.3707 8.10504 13.3707C12.5818 13.3707 16.2101 10.5455 16.2101 7.06035C16.212 3.57516 12.5818 0.75 8.10504 0.75ZM4.15325 8.68563C4.15519 9.06905 3.28734 9.06333 3.28734 8.6799C3.29122 8.1534 3.28734 5.89671 3.28734 5.89671H2.45243C1.96233 5.89671 1.96233 5.10887 2.4505 5.10887C2.4505 5.10887 4.40314 5.12413 4.98816 5.12413C5.50732 5.12413 5.50538 5.92723 4.98816 5.92723C4.43801 5.92723 4.15712 5.92532 4.15712 5.92532L4.15325 8.68563ZM7.3418 8.78291C7.1384 8.25641 7.1907 8.23162 7.1907 8.23162H5.66423L5.49763 8.8058C5.31941 9.20831 4.5523 8.8802 4.73052 8.4777C4.97654 7.92068 5.71847 5.81659 5.92381 5.37212C6.00517 5.19662 6.19694 5.12604 6.3926 5.12604C6.62893 5.12604 6.87301 5.22905 6.94275 5.37212C7.08997 5.68306 7.90164 7.8768 8.13603 8.48533C8.29875 8.91454 7.50646 9.21022 7.3418 8.78291ZM10.4374 8.97558C10.0461 8.97558 9.16078 8.9794 8.76173 8.9794C8.36268 8.9794 8.43048 8.52157 8.43048 8.52157C8.43048 8.52157 8.42854 6.2191 8.4266 5.50374C8.4266 5.25194 8.65131 5.12604 8.87796 5.12604C9.10267 5.12604 9.32932 5.25194 9.32932 5.50184C9.33125 6.0188 9.32738 8.14959 9.32738 8.14959C9.32738 8.14959 10.0422 8.1534 10.4354 8.1534C10.8267 8.15531 10.8287 8.97558 10.4374 8.97558ZM13.1319 8.91263L12.0316 7.43424L11.7798 7.63263C11.7798 7.63263 11.7798 8.36324 11.7798 8.74667C11.7798 9.07859 10.9236 9.07859 10.9236 8.74667C10.9236 8.53683 10.943 5.70404 10.9333 5.38929C10.9294 5.2157 11.1541 5.12795 11.373 5.12795C11.5783 5.12795 11.7798 5.20616 11.7837 5.3664C11.7953 5.79179 11.7837 6.56056 11.7837 6.56056C11.7837 6.56056 13.0254 5.33588 13.2017 5.16419C13.3838 4.98488 13.9494 5.54571 13.7654 5.72312C13.4535 6.02834 12.6593 6.8734 12.6593 6.8734L13.8274 8.38804C14.054 8.6799 13.3547 9.20068 13.1319 8.91263Z" fill="white"/>
</svg>
